<svg width="191" height="24" viewBox="0 0 191 24" fill="none" xmlns="http://www.w3.org/2000/svg">
<path d="M11.932 23.416C8.56134 23.416 5.76667 22.3067 3.54801 20.088C1.32934 17.848 0.220006 15.0853 0.220006 11.8C0.220006 8.51467 1.32934 5.76267 3.54801 3.544C5.76667 1.304 8.56134 0.183998 11.932 0.183998C13.9587 0.183998 15.8253 0.663998 17.532 1.624C19.26 2.584 20.604 3.88533 21.564 5.528L18.364 7.384C17.7667 6.27467 16.892 5.4 15.74 4.76C14.6093 4.09867 13.34 3.768 11.932 3.768C9.54267 3.768 7.60134 4.52533 6.10801 6.04C4.63601 7.55467 3.90001 9.47467 3.90001 11.8C3.90001 14.1253 4.63601 16.0453 6.10801 17.56C7.60134 19.0747 9.54267 19.832 11.932 19.832C13.34 19.832 14.62 19.512 15.772 18.872C16.924 18.2107 17.788 17.3253 18.364 16.216L21.564 18.04C20.6253 19.6827 19.292 20.9947 17.564 21.976C15.8573 22.936 13.98 23.416 11.932 23.416ZM35.3375 7H38.7935V23H35.3375V20.952C34.2922 22.5947 32.6388 23.416 30.3775 23.416C28.5428 23.416 27.0602 22.8293 25.9295 21.656C24.7988 20.4827 24.2335 18.872 24.2335 16.824V7H27.6895V16.472C27.6895 17.6667 28.0095 18.584 28.6495 19.224C29.2895 19.864 30.1642 20.184 31.2735 20.184C32.4895 20.184 33.4708 19.8107 34.2175 19.064C34.9642 18.296 35.3375 17.1333 35.3375 15.576V7ZM45.845 11.416C45.845 11.9493 46.133 12.376 46.709 12.696C47.3063 12.9947 48.021 13.2613 48.853 13.496C49.7063 13.7093 50.5597 13.9653 51.413 14.264C52.2663 14.5627 52.981 15.0747 53.557 15.8C54.1543 16.504 54.453 17.4 54.453 18.488C54.453 20.024 53.8557 21.2293 52.661 22.104C51.4877 22.9787 50.005 23.416 48.213 23.416C46.6343 23.416 45.2797 23.0853 44.149 22.424C43.0183 21.7627 42.197 20.8453 41.685 19.672L44.661 17.944C45.2157 19.48 46.3997 20.248 48.213 20.248C50.0263 20.248 50.933 19.6507 50.933 18.456C50.933 17.944 50.6343 17.528 50.037 17.208C49.461 16.888 48.7463 16.6213 47.893 16.408C47.061 16.1733 46.2183 15.9067 45.365 15.608C44.5117 15.3093 43.7863 14.8187 43.189 14.136C42.613 13.432 42.325 12.5467 42.325 11.48C42.325 10.008 42.8797 8.824 43.989 7.928C45.1197 7.032 46.517 6.584 48.181 6.584C49.5037 6.584 50.677 6.88267 51.701 7.48C52.7463 8.056 53.5463 8.86667 54.101 9.912L51.189 11.544C50.6343 10.328 49.6317 9.72 48.181 9.72C47.5197 9.72 46.965 9.86933 46.517 10.168C46.069 10.4453 45.845 10.8613 45.845 11.416ZM65.794 10.328H61.826V18.008C61.826 18.6693 61.9753 19.1493 62.274 19.448C62.5727 19.7253 63.01 19.8853 63.586 19.928C64.1833 19.9493 64.9193 19.9387 65.794 19.896V23C63.1487 23.32 61.25 23.096 60.098 22.328C58.946 21.5387 58.37 20.0987 58.37 18.008V10.328H55.426V7H58.37V3.544L61.826 2.52V7H65.794V10.328ZM75.8243 23.416C73.4776 23.416 71.4829 22.6053 69.8403 20.984C68.1976 19.3627 67.3763 17.368 67.3763 15C67.3763 12.632 68.1976 10.6373 69.8403 9.016C71.4829 7.39467 73.4776 6.584 75.8243 6.584C78.1923 6.584 80.1869 7.39467 81.8083 9.016C83.4509 10.6373 84.2723 12.632 84.2723 15C84.2723 17.368 83.4509 19.3627 81.8083 20.984C80.1869 22.6053 78.1923 23.416 75.8243 23.416ZM72.2723 18.616C73.2323 19.576 74.4163 20.056 75.8243 20.056C77.2323 20.056 78.4163 19.576 79.3763 18.616C80.3363 17.656 80.8163 16.4507 80.8163 15C80.8163 13.5493 80.3363 12.344 79.3763 11.384C78.4163 10.424 77.2323 9.944 75.8243 9.944C74.4163 9.944 73.2323 10.424 72.2723 11.384C71.3123 12.344 70.8323 13.5493 70.8323 15C70.8323 16.4507 71.3123 17.656 72.2723 18.616ZM104.869 6.584C106.683 6.584 108.144 7.17067 109.253 8.344C110.363 9.51733 110.917 11.096 110.917 13.08V23H107.461V13.304C107.461 12.1947 107.184 11.3413 106.629 10.744C106.075 10.1253 105.317 9.816 104.357 9.816C103.291 9.816 102.437 10.168 101.797 10.872C101.179 11.576 100.869 12.632 100.869 14.04V23H97.4133V13.304C97.4133 12.1947 97.1466 11.3413 96.6133 10.744C96.1013 10.1253 95.3653 9.816 94.4053 9.816C93.3599 9.816 92.5066 10.1787 91.8453 10.904C91.1839 11.608 90.8533 12.6533 90.8533 14.04V23H87.3973V7H90.8533V8.92C91.8773 7.36267 93.4026 6.584 95.4293 6.584C97.4773 6.584 98.9919 7.42667 99.9733 9.112C101.04 7.42667 102.672 6.584 104.869 6.584ZM137.208 21.304C135.629 22.712 133.592 23.416 131.096 23.416C128.6 23.416 126.563 22.712 124.984 21.304C123.405 19.8747 122.616 17.9653 122.616 15.576V0.599998H126.296V15.352C126.296 16.7173 126.691 17.8053 127.48 18.616C128.291 19.4267 129.496 19.832 131.096 19.832C132.696 19.832 133.891 19.4267 134.68 18.616C135.491 17.8053 135.896 16.7173 135.896 15.352V0.599998H139.576V15.576C139.576 17.9653 138.787 19.8747 137.208 21.304ZM156.577 23L151.841 14.84H147.489V23H143.809V0.599998H152.769C154.774 0.599998 156.47 1.304 157.857 2.712C159.265 4.09867 159.969 5.79467 159.969 7.8C159.969 9.22933 159.553 10.5413 158.721 11.736C157.91 12.9093 156.843 13.7627 155.521 14.296L160.609 23H156.577ZM147.489 4.056V11.544H152.769C153.75 11.544 154.582 11.1813 155.265 10.456C155.947 9.73067 156.289 8.84533 156.289 7.8C156.289 6.75467 155.947 5.86933 155.265 5.144C154.582 4.41867 153.75 4.056 152.769 4.056H147.489ZM167.114 19.48H176.234V23H163.434V0.599998H167.114V19.48ZM181.845 11.416C181.845 11.9493 182.133 12.376 182.709 12.696C183.306 12.9947 184.021 13.2613 184.853 13.496C185.706 13.7093 186.56 13.9653 187.413 14.264C188.266 14.5627 188.981 15.0747 189.557 15.8C190.154 16.504 190.453 17.4 190.453 18.488C190.453 20.024 189.856 21.2293 188.661 22.104C187.488 22.9787 186.005 23.416 184.213 23.416C182.634 23.416 181.28 23.0853 180.149 22.424C179.018 21.7627 178.197 20.8453 177.685 19.672L180.661 17.944C181.216 19.48 182.4 20.248 184.213 20.248C186.026 20.248 186.933 19.6507 186.933 18.456C186.933 17.944 186.634 17.528 186.037 17.208C185.461 16.888 184.746 16.6213 183.893 16.408C183.061 16.1733 182.218 15.9067 181.365 15.608C180.512 15.3093 179.786 14.8187 179.189 14.136C178.613 13.432 178.325 12.5467 178.325 11.48C178.325 10.008 178.88 8.824 179.989 7.928C181.12 7.032 182.517 6.584 184.181 6.584C185.504 6.584 186.677 6.88267 187.701 7.48C188.746 8.056 189.546 8.86667 190.101 9.912L187.189 11.544C186.634 10.328 185.632 9.72 184.181 9.72C183.52 9.72 182.965 9.86933 182.517 10.168C182.069 10.4453 181.845 10.8613 181.845 11.416Z" fill="#141414"/>
</svg>
