<svg width="193" height="24" viewBox="0 0 193 24" fill="none" xmlns="http://www.w3.org/2000/svg">
<g clip-path="url(#clip0_1_318)">
<path d="M14.6667 11.3867V12C14.6658 13.4376 14.2003 14.8365 13.3396 15.9879C12.4788 17.1393 11.2689 17.9817 9.89023 18.3893C8.51162 18.7969 7.03817 18.7479 5.68964 18.2497C4.34112 17.7515 3.18976 16.8307 2.4073 15.6247C1.62484 14.4187 1.25319 12.9921 1.34778 11.5576C1.44237 10.1231 1.99813 8.75756 2.93218 7.66473C3.86623 6.57189 5.12852 5.81027 6.53079 5.49344C7.93306 5.17662 9.40017 5.32157 10.7133 5.90668" stroke="white" stroke-width="2" stroke-linecap="round" stroke-linejoin="round"/>
<path d="M14.6667 6.66666L8 13.34L6 11.34" stroke="white" stroke-width="2" stroke-linecap="round" stroke-linejoin="round"/>
</g>
<path d="M29.8415 16.182C28.3575 16.182 27.1302 15.692 26.1595 14.712C25.1982 13.732 24.7175 12.528 24.7175 11.1C24.7175 9.672 25.1982 8.468 26.1595 7.488C27.1302 6.508 28.3575 6.018 29.8415 6.018C30.7375 6.018 31.5589 6.23267 32.3055 6.662C33.0615 7.09133 33.6495 7.67 34.0695 8.398L32.9355 9.056C32.6555 8.51467 32.2355 8.08533 31.6755 7.768C31.1249 7.44133 30.5135 7.278 29.8415 7.278C28.7122 7.278 27.7882 7.642 27.0695 8.37C26.3602 9.098 26.0055 10.008 26.0055 11.1C26.0055 12.1827 26.3602 13.088 27.0695 13.816C27.7882 14.544 28.7122 14.908 29.8415 14.908C30.5135 14.908 31.1249 14.7493 31.6755 14.432C32.2355 14.1053 32.6555 13.676 32.9355 13.144L34.0695 13.788C33.6589 14.516 33.0755 15.0993 32.3195 15.538C31.5635 15.9673 30.7375 16.182 29.8415 16.182ZM40.2892 9H41.5072V16H40.2892V14.992C39.7945 15.7853 39.0385 16.182 38.0212 16.182C37.1998 16.182 36.5418 15.9253 36.0472 15.412C35.5525 14.8893 35.3052 14.1847 35.3052 13.298V9H36.5232V13.228C36.5232 13.7973 36.6772 14.2407 36.9852 14.558C37.2932 14.866 37.7178 15.02 38.2592 15.02C38.8658 15.02 39.3558 14.8333 39.7292 14.46C40.1025 14.0773 40.2892 13.494 40.2892 12.71V9ZM44.3978 10.89C44.3978 11.1607 44.5332 11.38 44.8038 11.548C45.0745 11.7067 45.4012 11.8373 45.7838 11.94C46.1665 12.0333 46.5492 12.1453 46.9318 12.276C47.3145 12.3973 47.6412 12.612 47.9118 12.92C48.1825 13.2187 48.3178 13.606 48.3178 14.082C48.3178 14.7167 48.0705 15.2253 47.5758 15.608C47.0905 15.9907 46.4652 16.182 45.6998 16.182C45.0185 16.182 44.4352 16.0327 43.9498 15.734C43.4645 15.4353 43.1192 15.0387 42.9138 14.544L43.9638 13.942C44.0758 14.278 44.2858 14.544 44.5938 14.74C44.9018 14.936 45.2705 15.034 45.6998 15.034C46.1012 15.034 46.4325 14.9593 46.6938 14.81C46.9552 14.6513 47.0858 14.4087 47.0858 14.082C47.0858 13.8113 46.9505 13.5967 46.6798 13.438C46.4092 13.27 46.0825 13.1393 45.6998 13.046C45.3172 12.9433 44.9345 12.8267 44.5518 12.696C44.1692 12.5653 43.8425 12.3507 43.5718 12.052C43.3012 11.7533 43.1658 11.3707 43.1658 10.904C43.1658 10.2973 43.3992 9.798 43.8658 9.406C44.3418 9.014 44.9345 8.818 45.6438 8.818C46.2132 8.818 46.7172 8.94867 47.1558 9.21C47.6038 9.462 47.9398 9.81667 48.1638 10.274L47.1418 10.848C46.8898 10.2507 46.3905 9.952 45.6438 9.952C45.2985 9.952 45.0045 10.036 44.7618 10.204C44.5192 10.3627 44.3978 10.5913 44.3978 10.89ZM53.2945 10.176H51.4325V13.97C51.4325 14.3153 51.4978 14.5627 51.6285 14.712C51.7685 14.852 51.9785 14.9267 52.2585 14.936C52.5385 14.936 52.8838 14.9267 53.2945 14.908V16C52.2305 16.14 51.4512 16.056 50.9565 15.748C50.4618 15.4307 50.2145 14.838 50.2145 13.97V10.176H48.8285V9H50.2145V7.404L51.4325 7.04V9H53.2945V10.176ZM60.289 15.118C59.5704 15.8273 58.6977 16.182 57.671 16.182C56.6444 16.182 55.7717 15.8273 55.053 15.118C54.3437 14.4087 53.989 13.536 53.989 12.5C53.989 11.464 54.3437 10.5913 55.053 9.882C55.7717 9.17267 56.6444 8.818 57.671 8.818C58.6977 8.818 59.5704 9.17267 60.289 9.882C61.0077 10.5913 61.367 11.464 61.367 12.5C61.367 13.536 61.0077 14.4087 60.289 15.118ZM57.671 14.992C58.371 14.992 58.959 14.754 59.435 14.278C59.911 13.802 60.149 13.2093 60.149 12.5C60.149 11.7907 59.911 11.198 59.435 10.722C58.959 10.246 58.371 10.008 57.671 10.008C56.9804 10.008 56.397 10.246 55.921 10.722C55.445 11.198 55.207 11.7907 55.207 12.5C55.207 13.2093 55.445 13.802 55.921 14.278C56.397 14.754 56.9804 14.992 57.671 14.992ZM70.3629 8.818C71.1469 8.818 71.7816 9.07467 72.2669 9.588C72.7522 10.092 72.9949 10.778 72.9949 11.646V16H71.7769V11.688C71.7769 11.1467 71.6369 10.7267 71.3569 10.428C71.0769 10.1293 70.7036 9.98 70.2369 9.98C69.7142 9.98 69.2942 10.1573 68.9769 10.512C68.6689 10.8573 68.5149 11.3893 68.5149 12.108V16H67.2969V11.688C67.2969 11.1467 67.1616 10.7267 66.8909 10.428C66.6296 10.1293 66.2702 9.98 65.8129 9.98C65.2996 9.98 64.8702 10.1573 64.5249 10.512C64.1889 10.8667 64.0209 11.3987 64.0209 12.108V16H62.8029V9H64.0209V9.938C64.4969 9.19133 65.1922 8.818 66.1069 8.818C67.0496 8.818 67.7356 9.21467 68.1649 10.008C68.6502 9.21467 69.3829 8.818 70.3629 8.818ZM83.9098 10.918C84.3578 11.1327 84.7124 11.4407 84.9738 11.842C85.2444 12.2433 85.3798 12.7053 85.3798 13.228C85.3798 14.012 85.1044 14.67 84.5538 15.202C84.0031 15.734 83.3311 16 82.5378 16H78.3098V6.2H82.2298C82.9951 6.2 83.6438 6.45667 84.1758 6.97C84.7078 7.48333 84.9738 8.118 84.9738 8.874C84.9738 9.742 84.6191 10.4233 83.9098 10.918ZM82.2298 7.418H79.6118V10.414H82.2298C82.6404 10.414 82.9858 10.2693 83.2658 9.98C83.5458 9.69067 83.6858 9.336 83.6858 8.916C83.6858 8.50533 83.5411 8.15533 83.2518 7.866C82.9718 7.56733 82.6311 7.418 82.2298 7.418ZM82.5378 14.782C82.9764 14.782 83.3451 14.628 83.6438 14.32C83.9424 14.012 84.0918 13.634 84.0918 13.186C84.0918 12.7473 83.9378 12.374 83.6298 12.066C83.3311 11.758 82.9671 11.604 82.5378 11.604H79.6118V14.782H82.5378ZM88.015 10.176C88.4164 9.308 89.1444 8.874 90.199 8.874V10.148C89.6017 10.12 89.0884 10.2787 88.659 10.624C88.2297 10.9693 88.015 11.5247 88.015 12.29V16H86.797V9H88.015V10.176ZM96.804 9H98.022V16H96.804V14.796C96.1973 15.72 95.3153 16.182 94.158 16.182C93.178 16.182 92.3427 15.8273 91.652 15.118C90.9613 14.3993 90.616 13.5267 90.616 12.5C90.616 11.4733 90.9613 10.6053 91.652 9.896C92.3427 9.17733 93.178 8.818 94.158 8.818C95.3153 8.818 96.1973 9.28 96.804 10.204V9ZM94.312 15.006C95.0213 15.006 95.614 14.768 96.09 14.292C96.566 13.8067 96.804 13.2093 96.804 12.5C96.804 11.7907 96.566 11.198 96.09 10.722C95.614 10.2367 95.0213 9.994 94.312 9.994C93.612 9.994 93.024 10.2367 92.548 10.722C92.072 11.198 91.834 11.7907 91.834 12.5C91.834 13.2093 92.072 13.8067 92.548 14.292C93.024 14.768 93.612 15.006 94.312 15.006ZM103.353 8.818C104.175 8.818 104.833 9.07933 105.327 9.602C105.822 10.1153 106.069 10.8153 106.069 11.702V16H104.851V11.772C104.851 11.2027 104.697 10.764 104.389 10.456C104.081 10.1387 103.657 9.98 103.115 9.98C102.509 9.98 102.019 10.1713 101.645 10.554C101.272 10.9273 101.085 11.506 101.085 12.29V16H99.8674V9H101.085V10.008C101.58 9.21467 102.336 8.818 103.353 8.818ZM113.566 6.2H114.784V16H113.566V14.796C112.959 15.72 112.077 16.182 110.92 16.182C109.94 16.182 109.104 15.8273 108.414 15.118C107.723 14.3993 107.378 13.5267 107.378 12.5C107.378 11.4733 107.723 10.6053 108.414 9.896C109.104 9.17733 109.94 8.818 110.92 8.818C112.077 8.818 112.959 9.28 113.566 10.204V6.2ZM111.074 15.006C111.783 15.006 112.376 14.768 112.852 14.292C113.328 13.8067 113.566 13.2093 113.566 12.5C113.566 11.7907 113.328 11.198 112.852 10.722C112.376 10.2367 111.783 9.994 111.074 9.994C110.374 9.994 109.786 10.2367 109.31 10.722C108.834 11.198 108.596 11.7907 108.596 12.5C108.596 13.2093 108.834 13.8067 109.31 14.292C109.786 14.768 110.374 15.006 111.074 15.006ZM117.483 13.06C117.604 13.6853 117.889 14.1707 118.337 14.516C118.794 14.8613 119.354 15.034 120.017 15.034C120.941 15.034 121.613 14.6933 122.033 14.012L123.069 14.6C122.388 15.6547 121.361 16.182 119.989 16.182C118.878 16.182 117.973 15.8367 117.273 15.146C116.582 14.446 116.237 13.564 116.237 12.5C116.237 11.4453 116.578 10.568 117.259 9.868C117.94 9.168 118.822 8.818 119.905 8.818C120.932 8.818 121.767 9.182 122.411 9.91C123.064 10.6287 123.391 11.4967 123.391 12.514C123.391 12.6913 123.377 12.8733 123.349 13.06H117.483ZM119.905 9.966C119.252 9.966 118.71 10.1527 118.281 10.526C117.852 10.89 117.586 11.38 117.483 11.996H122.159C122.056 11.3333 121.795 10.8293 121.375 10.484C120.955 10.1387 120.465 9.966 119.905 9.966ZM130.574 6.2H131.792V16H130.574V14.796C129.967 15.72 129.085 16.182 127.928 16.182C126.948 16.182 126.112 15.8273 125.422 15.118C124.731 14.3993 124.386 13.5267 124.386 12.5C124.386 11.4733 124.731 10.6053 125.422 9.896C126.112 9.17733 126.948 8.818 127.928 8.818C129.085 8.818 129.967 9.28 130.574 10.204V6.2ZM128.082 15.006C128.791 15.006 129.384 14.768 129.86 14.292C130.336 13.8067 130.574 13.2093 130.574 12.5C130.574 11.7907 130.336 11.198 129.86 10.722C129.384 10.2367 128.791 9.994 128.082 9.994C127.382 9.994 126.794 10.2367 126.318 10.722C125.842 11.198 125.604 11.7907 125.604 12.5C125.604 13.2093 125.842 13.8067 126.318 14.292C126.794 14.768 127.382 15.006 128.082 15.006ZM141.085 6.2C142.42 6.2 143.526 6.676 144.403 7.628C145.29 8.57067 145.733 9.728 145.733 11.1C145.733 12.472 145.29 13.634 144.403 14.586C143.526 15.5287 142.42 16 141.085 16H137.263V6.2H141.085ZM141.085 14.768C142.084 14.768 142.9 14.418 143.535 13.718C144.17 13.018 144.487 12.1453 144.487 11.1C144.487 10.0547 144.17 9.182 143.535 8.482C142.9 7.782 142.084 7.432 141.085 7.432H138.565V14.768H141.085ZM153.094 15.118C152.375 15.8273 151.502 16.182 150.476 16.182C149.449 16.182 148.576 15.8273 147.858 15.118C147.148 14.4087 146.794 13.536 146.794 12.5C146.794 11.464 147.148 10.5913 147.858 9.882C148.576 9.17267 149.449 8.818 150.476 8.818C151.502 8.818 152.375 9.17267 153.094 9.882C153.812 10.5913 154.172 11.464 154.172 12.5C154.172 13.536 153.812 14.4087 153.094 15.118ZM150.476 14.992C151.176 14.992 151.764 14.754 152.24 14.278C152.716 13.802 152.954 13.2093 152.954 12.5C152.954 11.7907 152.716 11.198 152.24 10.722C151.764 10.246 151.176 10.008 150.476 10.008C149.785 10.008 149.202 10.246 148.726 10.722C148.25 11.198 148.012 11.7907 148.012 12.5C148.012 13.2093 148.25 13.802 148.726 14.278C149.202 14.754 149.785 14.992 150.476 14.992ZM163.168 8.818C163.952 8.818 164.586 9.07467 165.072 9.588C165.557 10.092 165.8 10.778 165.8 11.646V16H164.582V11.688C164.582 11.1467 164.442 10.7267 164.162 10.428C163.882 10.1293 163.508 9.98 163.042 9.98C162.519 9.98 162.099 10.1573 161.782 10.512C161.474 10.8573 161.32 11.3893 161.32 12.108V16H160.102V11.688C160.102 11.1467 159.966 10.7267 159.696 10.428C159.434 10.1293 159.075 9.98 158.618 9.98C158.104 9.98 157.675 10.1573 157.33 10.512C156.994 10.8667 156.826 11.3987 156.826 12.108V16H155.608V9H156.826V9.938C157.302 9.19133 157.997 8.818 158.912 8.818C159.854 8.818 160.54 9.21467 160.97 10.008C161.455 9.21467 162.188 8.818 163.168 8.818ZM173.284 9H174.502V16H173.284V14.796C172.678 15.72 171.796 16.182 170.638 16.182C169.658 16.182 168.823 15.8273 168.132 15.118C167.442 14.3993 167.096 13.5267 167.096 12.5C167.096 11.4733 167.442 10.6053 168.132 9.896C168.823 9.17733 169.658 8.818 170.638 8.818C171.796 8.818 172.678 9.28 173.284 10.204V9ZM170.792 15.006C171.502 15.006 172.094 14.768 172.57 14.292C173.046 13.8067 173.284 13.2093 173.284 12.5C173.284 11.7907 173.046 11.198 172.57 10.722C172.094 10.2367 171.502 9.994 170.792 9.994C170.092 9.994 169.504 10.2367 169.028 10.722C168.552 11.198 168.314 11.7907 168.314 12.5C168.314 13.2093 168.552 13.8067 169.028 14.292C169.504 14.768 170.092 15.006 170.792 15.006ZM176.964 7.726C176.73 7.726 176.534 7.64667 176.376 7.488C176.217 7.32933 176.138 7.138 176.138 6.914C176.138 6.69 176.217 6.49867 176.376 6.34C176.534 6.172 176.73 6.088 176.964 6.088C177.188 6.088 177.379 6.172 177.538 6.34C177.696 6.49867 177.776 6.69 177.776 6.914C177.776 7.138 177.696 7.32933 177.538 7.488C177.379 7.64667 177.188 7.726 176.964 7.726ZM176.348 16V9H177.566V16H176.348ZM182.91 8.818C183.731 8.818 184.389 9.07933 184.884 9.602C185.379 10.1153 185.626 10.8153 185.626 11.702V16H184.408V11.772C184.408 11.2027 184.254 10.764 183.946 10.456C183.638 10.1387 183.213 9.98 182.672 9.98C182.065 9.98 181.575 10.1713 181.202 10.554C180.829 10.9273 180.642 11.506 180.642 12.29V16H179.424V9H180.642V10.008C181.137 9.21467 181.893 8.818 182.91 8.818ZM188.376 10.89C188.376 11.1607 188.512 11.38 188.782 11.548C189.053 11.7067 189.38 11.8373 189.762 11.94C190.145 12.0333 190.528 12.1453 190.91 12.276C191.293 12.3973 191.62 12.612 191.89 12.92C192.161 13.2187 192.296 13.606 192.296 14.082C192.296 14.7167 192.049 15.2253 191.554 15.608C191.069 15.9907 190.444 16.182 189.678 16.182C188.997 16.182 188.414 16.0327 187.928 15.734C187.443 15.4353 187.098 15.0387 186.892 14.544L187.942 13.942C188.054 14.278 188.264 14.544 188.572 14.74C188.88 14.936 189.249 15.034 189.678 15.034C190.08 15.034 190.411 14.9593 190.672 14.81C190.934 14.6513 191.064 14.4087 191.064 14.082C191.064 13.8113 190.929 13.5967 190.658 13.438C190.388 13.27 190.061 13.1393 189.678 13.046C189.296 12.9433 188.913 12.8267 188.53 12.696C188.148 12.5653 187.821 12.3507 187.55 12.052C187.28 11.7533 187.144 11.3707 187.144 10.904C187.144 10.2973 187.378 9.798 187.844 9.406C188.32 9.014 188.913 8.818 189.622 8.818C190.192 8.818 190.696 8.94867 191.134 9.21C191.582 9.462 191.918 9.81667 192.142 10.274L191.12 10.848C190.868 10.2507 190.369 9.952 189.622 9.952C189.277 9.952 188.983 10.036 188.74 10.204C188.498 10.3627 188.376 10.5913 188.376 10.89Z" fill="white"/>
<defs>
<clipPath id="clip0_1_318">
<rect width="16" height="16" fill="white" transform="translate(0 4)"/>
</clipPath>
</defs>
</svg>
