<svg width="212" height="44" viewBox="0 0 212 44" fill="none" xmlns="http://www.w3.org/2000/svg">
<path d="M3.04649 24.24H7.60649V26H1.20649V14.8H3.04649V24.24ZM12.3861 26.208C11.2128 26.208 10.2154 25.8027 9.39411 24.992C8.57278 24.1813 8.16211 23.184 8.16211 22C8.16211 20.816 8.57278 19.8187 9.39411 19.008C10.2154 18.1973 11.2128 17.792 12.3861 17.792C13.5701 17.792 14.5674 18.1973 15.3781 19.008C16.1994 19.8187 16.6101 20.816 16.6101 22C16.6101 23.184 16.1994 24.1813 15.3781 24.992C14.5674 25.8027 13.5701 26.208 12.3861 26.208ZM10.6101 23.808C11.0901 24.288 11.6821 24.528 12.3861 24.528C13.0901 24.528 13.6821 24.288 14.1621 23.808C14.6421 23.328 14.8821 22.7253 14.8821 22C14.8821 21.2747 14.6421 20.672 14.1621 20.192C13.6821 19.712 13.0901 19.472 12.3861 19.472C11.6821 19.472 11.0901 19.712 10.6101 20.192C10.1301 20.672 9.89011 21.2747 9.89011 22C9.89011 22.7253 10.1301 23.328 10.6101 23.808ZM24.5406 18H26.2366V25.632C26.2366 26.848 25.8366 27.7813 25.0366 28.432C24.2366 29.0827 23.2659 29.408 22.1246 29.408C20.2793 29.408 19.0153 28.7627 18.3326 27.472L19.8206 26.608C20.2366 27.4293 21.0153 27.84 22.1566 27.84C22.9033 27.84 23.4846 27.6427 23.9006 27.248C24.3273 26.864 24.5406 26.3253 24.5406 25.632V24.656C23.8899 25.584 22.9619 26.048 21.7566 26.048C20.6259 26.048 19.6713 25.648 18.8926 24.848C18.1139 24.0373 17.7246 23.0613 17.7246 21.92C17.7246 20.7787 18.1139 19.808 18.8926 19.008C19.6713 18.1973 20.6259 17.792 21.7566 17.792C22.9619 17.792 23.8899 18.256 24.5406 19.184V18ZM20.1726 23.712C20.6633 24.192 21.2713 24.432 21.9966 24.432C22.7219 24.432 23.3246 24.192 23.8046 23.712C24.2953 23.232 24.5406 22.6347 24.5406 21.92C24.5406 21.2053 24.2953 20.608 23.8046 20.128C23.3246 19.648 22.7219 19.408 21.9966 19.408C21.2713 19.408 20.6633 19.648 20.1726 20.128C19.6926 20.608 19.4526 21.2053 19.4526 21.92C19.4526 22.6347 19.6926 23.232 20.1726 23.712ZM33.8827 16.48C33.6694 16.6933 33.4134 16.8 33.1147 16.8C32.8161 16.8 32.5547 16.6933 32.3307 16.48C32.1174 16.256 32.0107 15.9947 32.0107 15.696C32.0107 15.3973 32.1174 15.1413 32.3307 14.928C32.5441 14.704 32.8054 14.592 33.1147 14.592C33.4241 14.592 33.6854 14.704 33.8987 14.928C34.1121 15.1413 34.2187 15.3973 34.2187 15.696C34.2187 15.9947 34.1067 16.256 33.8827 16.48ZM32.2507 26V18H33.9787V26H32.2507ZM40.1931 17.792C41.1104 17.792 41.8518 18.0853 42.4171 18.672C42.9824 19.2587 43.2651 20.064 43.2651 21.088V26H41.5371V21.264C41.5371 20.6667 41.3771 20.208 41.0571 19.888C40.7371 19.568 40.2998 19.408 39.7451 19.408C39.1371 19.408 38.6464 19.6 38.2731 19.984C37.8998 20.3573 37.7131 20.9333 37.7131 21.712V26H35.9851V18H37.7131V19.024C38.2358 18.2027 39.0624 17.792 40.1931 17.792Z" fill="#0065FE"/>
<rect x="69.0865" width="142" height="44" rx="22" fill="#0065FE"/>
<path d="M108.986 14.8V16.56H105.834V26H103.994V16.56H100.826V14.8H108.986ZM110.916 19.344C111.354 18.352 112.175 17.856 113.38 17.856V19.728C112.719 19.6853 112.143 19.8453 111.652 20.208C111.162 20.56 110.916 21.1467 110.916 21.968V26H109.188V18H110.916V19.344ZM120.205 18H122.045L118.973 26.256C118.205 28.3253 116.904 29.3067 115.069 29.2V27.584C115.613 27.616 116.051 27.4987 116.381 27.232C116.712 26.976 116.984 26.5707 117.197 26.016L117.277 25.856L113.885 18H115.773L118.157 23.808L120.205 18ZM131.318 16.256C130.059 16.1387 129.43 16.6667 129.43 17.84V18H131.318V19.664H129.43V26H127.702V19.664H126.486V18H127.702V17.84C127.702 16.7413 128.006 15.9093 128.614 15.344C129.232 14.768 130.134 14.5173 131.318 14.592V16.256ZM135.73 26.208C134.557 26.208 133.559 25.8027 132.738 24.992C131.917 24.1813 131.506 23.184 131.506 22C131.506 20.816 131.917 19.8187 132.738 19.008C133.559 18.1973 134.557 17.792 135.73 17.792C136.914 17.792 137.911 18.1973 138.722 19.008C139.543 19.8187 139.954 20.816 139.954 22C139.954 23.184 139.543 24.1813 138.722 24.992C137.911 25.8027 136.914 26.208 135.73 26.208ZM133.954 23.808C134.434 24.288 135.026 24.528 135.73 24.528C136.434 24.528 137.026 24.288 137.506 23.808C137.986 23.328 138.226 22.7253 138.226 22C138.226 21.2747 137.986 20.672 137.506 20.192C137.026 19.712 136.434 19.472 135.73 19.472C135.026 19.472 134.434 19.712 133.954 20.192C133.474 20.672 133.234 21.2747 133.234 22C133.234 22.7253 133.474 23.328 133.954 23.808ZM143.244 19.344C143.682 18.352 144.503 17.856 145.708 17.856V19.728C145.047 19.6853 144.471 19.8453 143.98 20.208C143.49 20.56 143.244 21.1467 143.244 21.968V26H141.516V18H143.244V19.344ZM155.177 16.256C153.918 16.1387 153.289 16.6667 153.289 17.84V18H155.177V19.664H153.289V26H151.561V19.664H150.345V18H151.561V17.84C151.561 16.7413 151.865 15.9093 152.473 15.344C153.092 14.768 153.993 14.5173 155.177 14.592V16.256ZM157.916 19.344C158.354 18.352 159.175 17.856 160.38 17.856V19.728C159.719 19.6853 159.143 19.8453 158.652 20.208C158.162 20.56 157.916 21.1467 157.916 21.968V26H156.188V18H157.916V19.344ZM162.642 22.736C162.77 23.344 163.063 23.8133 163.522 24.144C163.981 24.464 164.541 24.624 165.202 24.624C166.119 24.624 166.807 24.2933 167.266 23.632L168.69 24.464C167.901 25.6267 166.733 26.208 165.186 26.208C163.885 26.208 162.834 25.8133 162.034 25.024C161.234 24.224 160.834 23.216 160.834 22C160.834 20.8053 161.229 19.808 162.018 19.008C162.807 18.1973 163.821 17.792 165.058 17.792C166.231 17.792 167.191 18.2027 167.938 19.024C168.695 19.8453 169.074 20.8427 169.074 22.016C169.074 22.1973 169.053 22.4373 169.01 22.736H162.642ZM162.626 21.328H167.33C167.213 20.6773 166.941 20.1867 166.514 19.856C166.098 19.5253 165.607 19.36 165.042 19.36C164.402 19.36 163.869 19.536 163.442 19.888C163.015 20.24 162.743 20.72 162.626 21.328ZM171.908 22.736C172.036 23.344 172.329 23.8133 172.788 24.144C173.246 24.464 173.806 24.624 174.468 24.624C175.385 24.624 176.073 24.2933 176.532 23.632L177.956 24.464C177.166 25.6267 175.998 26.208 174.452 26.208C173.15 26.208 172.1 25.8133 171.3 25.024C170.5 24.224 170.1 23.216 170.1 22C170.1 20.8053 170.494 19.808 171.284 19.008C172.073 18.1973 173.086 17.792 174.324 17.792C175.497 17.792 176.457 18.2027 177.204 19.024C177.961 19.8453 178.34 20.8427 178.34 22.016C178.34 22.1973 178.318 22.4373 178.276 22.736H171.908ZM171.892 21.328H176.596C176.478 20.6773 176.206 20.1867 175.78 19.856C175.364 19.5253 174.873 19.36 174.308 19.36C173.668 19.36 173.134 19.536 172.708 19.888C172.281 20.24 172.009 20.72 171.892 21.328Z" fill="white"/>
</svg>
