<svg width="179" height="24" viewBox="0 0 179 24" fill="none" xmlns="http://www.w3.org/2000/svg">
<g clip-path="url(#clip0_1_315)">
<path d="M14.6667 11.3867V12C14.6658 13.4376 14.2003 14.8365 13.3396 15.9879C12.4788 17.1393 11.2689 17.9817 9.89023 18.3893C8.51162 18.7969 7.03817 18.7479 5.68964 18.2497C4.34112 17.7515 3.18976 16.8307 2.4073 15.6247C1.62484 14.4187 1.25319 12.9921 1.34778 11.5576C1.44237 10.1231 1.99813 8.75756 2.93218 7.66473C3.86623 6.57189 5.12852 5.81027 6.53079 5.49344C7.93306 5.17662 9.40017 5.32157 10.7133 5.90668" stroke="white" stroke-width="2" stroke-linecap="round" stroke-linejoin="round"/>
<path d="M14.6667 6.66666L8 13.34L6 11.34" stroke="white" stroke-width="2" stroke-linecap="round" stroke-linejoin="round"/>
</g>
<path d="M26.4624 14.768H31.0124V16H25.1604V6.2H30.9424V7.432H26.4624V10.442H30.5924V11.66H26.4624V14.768ZM35.9442 8.818C36.7655 8.818 37.4235 9.07933 37.9182 9.602C38.4128 10.1153 38.6602 10.8153 38.6602 11.702V16H37.4422V11.772C37.4422 11.2027 37.2882 10.764 36.9802 10.456C36.6722 10.1387 36.2475 9.98 35.7062 9.98C35.0995 9.98 34.6095 10.1713 34.2362 10.554C33.8628 10.9273 33.6762 11.506 33.6762 12.29V16H32.4582V9H33.6762V10.008C34.1708 9.21467 34.9268 8.818 35.9442 8.818ZM43.8465 8.818C44.6679 8.818 45.3259 9.07933 45.8205 9.602C46.3152 10.1153 46.5625 10.8153 46.5625 11.702V16H45.3445V11.772C45.3445 11.2027 45.1905 10.764 44.8825 10.456C44.5745 10.1387 44.1499 9.98 43.6085 9.98C43.0019 9.98 42.5119 10.1713 42.1385 10.554C41.7652 10.9273 41.5785 11.506 41.5785 12.29V16H40.3605V6.2H41.5785V10.008C42.0732 9.21467 42.8292 8.818 43.8465 8.818ZM54.0589 9H55.2769V16H54.0589V14.796C53.4522 15.72 52.5702 16.182 51.4129 16.182C50.4329 16.182 49.5975 15.8273 48.9069 15.118C48.2162 14.3993 47.8709 13.5267 47.8709 12.5C47.8709 11.4733 48.2162 10.6053 48.9069 9.896C49.5975 9.17733 50.4329 8.818 51.4129 8.818C52.5702 8.818 53.4522 9.28 54.0589 10.204V9ZM51.5669 15.006C52.2762 15.006 52.8689 14.768 53.3449 14.292C53.8209 13.8067 54.0589 13.2093 54.0589 12.5C54.0589 11.7907 53.8209 11.198 53.3449 10.722C52.8689 10.2367 52.2762 9.994 51.5669 9.994C50.8669 9.994 50.2789 10.2367 49.8029 10.722C49.3269 11.198 49.0889 11.7907 49.0889 12.5C49.0889 13.2093 49.3269 13.8067 49.8029 14.292C50.2789 14.768 50.8669 15.006 51.5669 15.006ZM60.6082 8.818C61.4296 8.818 62.0876 9.07933 62.5822 9.602C63.0769 10.1153 63.3242 10.8153 63.3242 11.702V16H62.1062V11.772C62.1062 11.2027 61.9522 10.764 61.6442 10.456C61.3362 10.1387 60.9116 9.98 60.3702 9.98C59.7636 9.98 59.2736 10.1713 58.9002 10.554C58.5269 10.9273 58.3402 11.506 58.3402 12.29V16H57.1222V9H58.3402V10.008C58.8349 9.21467 59.5909 8.818 60.6082 8.818ZM68.3146 16.182C67.2599 16.182 66.3826 15.832 65.6826 15.132C64.9826 14.4227 64.6326 13.5453 64.6326 12.5C64.6326 11.4547 64.9826 10.582 65.6826 9.882C66.3826 9.17267 67.2599 8.818 68.3146 8.818C69.0053 8.818 69.6259 8.986 70.1766 9.322C70.7273 9.64867 71.1379 10.092 71.4086 10.652L70.3866 11.24C70.2093 10.8667 69.9339 10.568 69.5606 10.344C69.1966 10.12 68.7813 10.008 68.3146 10.008C67.6146 10.008 67.0266 10.246 66.5506 10.722C66.0839 11.198 65.8506 11.7907 65.8506 12.5C65.8506 13.2 66.0839 13.788 66.5506 14.264C67.0266 14.74 67.6146 14.978 68.3146 14.978C68.7813 14.978 69.2013 14.8707 69.5746 14.656C69.9479 14.432 70.2326 14.1333 70.4286 13.76L71.4646 14.362C71.1659 14.9127 70.7366 15.356 70.1766 15.692C69.6166 16.0187 68.9959 16.182 68.3146 16.182ZM73.4255 13.06C73.5468 13.6853 73.8315 14.1707 74.2795 14.516C74.7368 14.8613 75.2968 15.034 75.9595 15.034C76.8835 15.034 77.5555 14.6933 77.9755 14.012L79.0115 14.6C78.3301 15.6547 77.3035 16.182 75.9315 16.182C74.8208 16.182 73.9155 15.8367 73.2155 15.146C72.5248 14.446 72.1795 13.564 72.1795 12.5C72.1795 11.4453 72.5201 10.568 73.2015 9.868C73.8828 9.168 74.7648 8.818 75.8475 8.818C76.8741 8.818 77.7095 9.182 78.3535 9.91C79.0068 10.6287 79.3335 11.4967 79.3335 12.514C79.3335 12.6913 79.3195 12.8733 79.2915 13.06H73.4255ZM75.8475 9.966C75.1941 9.966 74.6528 10.1527 74.2235 10.526C73.7941 10.89 73.5281 11.38 73.4255 11.996H78.1015C77.9988 11.3333 77.7375 10.8293 77.3175 10.484C76.8975 10.1387 76.4075 9.966 75.8475 9.966ZM86.5159 6.2H87.7339V16H86.5159V14.796C85.9092 15.72 85.0272 16.182 83.8699 16.182C82.8899 16.182 82.0546 15.8273 81.3639 15.118C80.6732 14.3993 80.3279 13.5267 80.3279 12.5C80.3279 11.4733 80.6732 10.6053 81.3639 9.896C82.0546 9.17733 82.8899 8.818 83.8699 8.818C85.0272 8.818 85.9092 9.28 86.5159 10.204V6.2ZM84.0239 15.006C84.7332 15.006 85.3259 14.768 85.8019 14.292C86.2779 13.8067 86.5159 13.2093 86.5159 12.5C86.5159 11.7907 86.2779 11.198 85.8019 10.722C85.3259 10.2367 84.7332 9.994 84.0239 9.994C83.3239 9.994 82.7359 10.2367 82.2599 10.722C81.7839 11.198 81.5459 11.7907 81.5459 12.5C81.5459 13.2093 81.7839 13.8067 82.2599 14.292C82.7359 14.768 83.3239 15.006 84.0239 15.006ZM94.5073 14.768H98.7353V16H93.2053V6.2H94.5073V14.768ZM100.531 7.726C100.298 7.726 100.102 7.64667 99.9432 7.488C99.7845 7.32933 99.7052 7.138 99.7052 6.914C99.7052 6.69 99.7845 6.49867 99.9432 6.34C100.102 6.172 100.298 6.088 100.531 6.088C100.755 6.088 100.947 6.172 101.105 6.34C101.264 6.49867 101.343 6.69 101.343 6.914C101.343 7.138 101.264 7.32933 101.105 7.488C100.947 7.64667 100.755 7.726 100.531 7.726ZM99.9152 16V9H101.133V16H99.9152ZM106.477 8.818C107.299 8.818 107.957 9.07933 108.451 9.602C108.946 10.1153 109.193 10.8153 109.193 11.702V16H107.975V11.772C107.975 11.2027 107.821 10.764 107.513 10.456C107.205 10.1387 106.781 9.98 106.239 9.98C105.633 9.98 105.143 10.1713 104.769 10.554C104.396 10.9273 104.209 11.506 104.209 12.29V16H102.991V9H104.209V10.008C104.704 9.21467 105.46 8.818 106.477 8.818ZM116.816 16H115.304L112.112 12.682V16H110.894V6.2H112.112V12.094L115.136 9H116.704L113.358 12.388L116.816 16ZM128.028 16L127.23 13.802H122.82L122.022 16H120.636L124.29 6.2H125.76L129.414 16H128.028ZM123.268 12.584H126.782L125.018 7.754L123.268 12.584ZM133.931 8.818C134.752 8.818 135.41 9.07933 135.905 9.602C136.399 10.1153 136.647 10.8153 136.647 11.702V16H135.429V11.772C135.429 11.2027 135.275 10.764 134.967 10.456C134.659 10.1387 134.234 9.98 133.693 9.98C133.086 9.98 132.596 10.1713 132.223 10.554C131.849 10.9273 131.663 11.506 131.663 12.29V16H130.445V9H131.663V10.008C132.157 9.21467 132.913 8.818 133.931 8.818ZM144.143 9H145.361V16H144.143V14.796C143.536 15.72 142.654 16.182 141.497 16.182C140.517 16.182 139.682 15.8273 138.991 15.118C138.3 14.3993 137.955 13.5267 137.955 12.5C137.955 11.4733 138.3 10.6053 138.991 9.896C139.682 9.17733 140.517 8.818 141.497 8.818C142.654 8.818 143.536 9.28 144.143 10.204V9ZM141.651 15.006C142.36 15.006 142.953 14.768 143.429 14.292C143.905 13.8067 144.143 13.2093 144.143 12.5C144.143 11.7907 143.905 11.198 143.429 10.722C142.953 10.2367 142.36 9.994 141.651 9.994C140.951 9.994 140.363 10.2367 139.887 10.722C139.411 11.198 139.173 11.7907 139.173 12.5C139.173 13.2093 139.411 13.8067 139.887 14.292C140.363 14.768 140.951 15.006 141.651 15.006ZM147.206 16V5.78H148.424V16H147.206ZM155.168 9H156.47L153.614 16.434C153.316 17.2273 152.896 17.8293 152.354 18.24C151.822 18.66 151.206 18.8467 150.506 18.8V17.666C151.365 17.7313 151.995 17.2553 152.396 16.238L152.522 15.972L149.47 9H150.772L153.152 14.488L155.168 9ZM161.295 10.176H159.433V13.97C159.433 14.3153 159.499 14.5627 159.629 14.712C159.769 14.852 159.979 14.9267 160.259 14.936C160.539 14.936 160.885 14.9267 161.295 14.908V16C160.231 16.14 159.452 16.056 158.957 15.748C158.463 15.4307 158.215 14.838 158.215 13.97V10.176H156.829V9H158.215V7.404L159.433 7.04V9H161.295V10.176ZM163.353 7.726C163.12 7.726 162.924 7.64667 162.765 7.488C162.607 7.32933 162.527 7.138 162.527 6.914C162.527 6.69 162.607 6.49867 162.765 6.34C162.924 6.172 163.12 6.088 163.353 6.088C163.577 6.088 163.769 6.172 163.927 6.34C164.086 6.49867 164.165 6.69 164.165 6.914C164.165 7.138 164.086 7.32933 163.927 7.488C163.769 7.64667 163.577 7.726 163.353 7.726ZM162.737 16V9H163.955V16H162.737ZM169.104 16.182C168.049 16.182 167.172 15.832 166.472 15.132C165.772 14.4227 165.422 13.5453 165.422 12.5C165.422 11.4547 165.772 10.582 166.472 9.882C167.172 9.17267 168.049 8.818 169.104 8.818C169.794 8.818 170.415 8.986 170.966 9.322C171.516 9.64867 171.927 10.092 172.198 10.652L171.176 11.24C170.998 10.8667 170.723 10.568 170.35 10.344C169.986 10.12 169.57 10.008 169.104 10.008C168.404 10.008 167.816 10.246 167.34 10.722C166.873 11.198 166.64 11.7907 166.64 12.5C166.64 13.2 166.873 13.788 167.34 14.264C167.816 14.74 168.404 14.978 169.104 14.978C169.57 14.978 169.99 14.8707 170.364 14.656C170.737 14.432 171.022 14.1333 171.218 13.76L172.254 14.362C171.955 14.9127 171.526 15.356 170.966 15.692C170.406 16.0187 169.785 16.182 169.104 16.182ZM174.452 10.89C174.452 11.1607 174.587 11.38 174.858 11.548C175.128 11.7067 175.455 11.8373 175.838 11.94C176.22 12.0333 176.603 12.1453 176.986 12.276C177.368 12.3973 177.695 12.612 177.966 12.92C178.236 13.2187 178.372 13.606 178.372 14.082C178.372 14.7167 178.124 15.2253 177.63 15.608C177.144 15.9907 176.519 16.182 175.754 16.182C175.072 16.182 174.489 16.0327 174.004 15.734C173.518 15.4353 173.173 15.0387 172.968 14.544L174.018 13.942C174.13 14.278 174.34 14.544 174.648 14.74C174.956 14.936 175.324 15.034 175.754 15.034C176.155 15.034 176.486 14.9593 176.748 14.81C177.009 14.6513 177.14 14.4087 177.14 14.082C177.14 13.8113 177.004 13.5967 176.734 13.438C176.463 13.27 176.136 13.1393 175.754 13.046C175.371 12.9433 174.988 12.8267 174.606 12.696C174.223 12.5653 173.896 12.3507 173.626 12.052C173.355 11.7533 173.22 11.3707 173.22 10.904C173.22 10.2973 173.453 9.798 173.92 9.406C174.396 9.014 174.988 8.818 175.698 8.818C176.267 8.818 176.771 8.94867 177.21 9.21C177.658 9.462 177.994 9.81667 178.218 10.274L177.196 10.848C176.944 10.2507 176.444 9.952 175.698 9.952C175.352 9.952 175.058 10.036 174.816 10.204C174.573 10.3627 174.452 10.5913 174.452 10.89Z" fill="white"/>
<defs>
<clipPath id="clip0_1_315">
<rect width="16" height="16" fill="white" transform="translate(0 4)"/>
</clipPath>
</defs>
</svg>
