<svg width="341" height="124" viewBox="0 0 341 124" fill="none" xmlns="http://www.w3.org/2000/svg">
<path d="M24.452 11.8C24.452 14.7867 23.4707 17.368 21.508 19.544L23.876 21.976L21.284 24.312L18.82 21.784C16.9427 22.872 14.948 23.416 12.836 23.416C9.61467 23.416 6.87334 22.296 4.61201 20.056C2.35067 17.7947 1.22001 15.0427 1.22001 11.8C1.22001 8.55733 2.35067 5.816 4.61201 3.576C6.87334 1.31466 9.61467 0.183998 12.836 0.183998C16.0573 0.183998 18.7987 1.31466 21.06 3.576C23.3213 5.816 24.452 8.55733 24.452 11.8ZM12.836 19.832C14.0307 19.832 15.1507 19.5867 16.196 19.096L12.1 14.904L14.692 12.568L18.98 16.952C20.1747 15.48 20.772 13.7627 20.772 11.8C20.772 9.51733 20.004 7.608 18.468 6.072C16.932 4.536 15.0547 3.768 12.836 3.768C10.6173 3.768 8.74001 4.536 7.20401 6.072C5.66801 7.608 4.90001 9.51733 4.90001 11.8C4.90001 14.0827 5.66801 15.992 7.20401 17.528C8.74001 19.064 10.6173 19.832 12.836 19.832ZM40.733 23L35.997 14.84H31.645V23H27.965V0.599998H36.925C38.9303 0.599998 40.6263 1.304 42.013 2.712C43.421 4.09867 44.125 5.79467 44.125 7.8C44.125 9.22933 43.709 10.5413 42.877 11.736C42.0663 12.9093 40.9997 13.7627 39.677 14.296L44.765 23H40.733ZM31.645 4.056V11.544H36.925C37.9063 11.544 38.7383 11.1813 39.421 10.456C40.1037 9.73067 40.445 8.84533 40.445 7.8C40.445 6.75467 40.1037 5.86933 39.421 5.144C38.7383 4.41867 37.9063 4.056 36.925 4.056H31.645ZM66.182 23.416C62.8113 23.416 60.0167 22.3067 57.798 20.088C55.5793 17.848 54.47 15.0853 54.47 11.8C54.47 8.51467 55.5793 5.76267 57.798 3.544C60.0167 1.304 62.8113 0.183998 66.182 0.183998C68.2087 0.183998 70.0753 0.663998 71.782 1.624C73.51 2.584 74.854 3.88533 75.814 5.528L72.614 7.384C72.0167 6.27467 71.142 5.4 69.99 4.76C68.8593 4.09867 67.59 3.768 66.182 3.768C63.7927 3.768 61.8513 4.52533 60.358 6.04C58.886 7.55467 58.15 9.47467 58.15 11.8C58.15 14.1253 58.886 16.0453 60.358 17.56C61.8513 19.0747 63.7927 19.832 66.182 19.832C67.59 19.832 68.87 19.512 70.022 18.872C71.174 18.2107 72.038 17.3253 72.614 16.216L75.814 18.04C74.8753 19.6827 73.542 20.9947 71.814 21.976C70.1073 22.936 68.23 23.416 66.182 23.416ZM86.168 23.416C83.8213 23.416 81.8267 22.6053 80.184 20.984C78.5413 19.3627 77.72 17.368 77.72 15C77.72 12.632 78.5413 10.6373 80.184 9.016C81.8267 7.39467 83.8213 6.584 86.168 6.584C88.536 6.584 90.5307 7.39467 92.152 9.016C93.7947 10.6373 94.616 12.632 94.616 15C94.616 17.368 93.7947 19.3627 92.152 20.984C90.5307 22.6053 88.536 23.416 86.168 23.416ZM82.616 18.616C83.576 19.576 84.76 20.056 86.168 20.056C87.576 20.056 88.76 19.576 89.72 18.616C90.68 17.656 91.16 16.4507 91.16 15C91.16 13.5493 90.68 12.344 89.72 11.384C88.76 10.424 87.576 9.944 86.168 9.944C84.76 9.944 83.576 10.424 82.616 11.384C81.656 12.344 81.176 13.5493 81.176 15C81.176 16.4507 81.656 17.656 82.616 18.616ZM110.413 0.599998H113.869V23H110.413V20.696C109.112 22.5093 107.245 23.416 104.813 23.416C102.616 23.416 100.738 22.6053 99.181 20.984C97.6237 19.3413 96.845 17.3467 96.845 15C96.845 12.632 97.6237 10.6373 99.181 9.016C100.738 7.39467 102.616 6.584 104.813 6.584C107.245 6.584 109.112 7.48 110.413 9.272V0.599998ZM101.741 18.68C102.701 19.64 103.906 20.12 105.357 20.12C106.808 20.12 108.013 19.64 108.973 18.68C109.933 17.6987 110.413 16.472 110.413 15C110.413 13.528 109.933 12.312 108.973 11.352C108.013 10.3707 106.808 9.88 105.357 9.88C103.906 9.88 102.701 10.3707 101.741 11.352C100.781 12.312 100.301 13.528 100.301 15C100.301 16.472 100.781 17.6987 101.741 18.68ZM120.617 16.472C120.873 17.688 121.46 18.6267 122.377 19.288C123.295 19.928 124.415 20.248 125.737 20.248C127.572 20.248 128.948 19.5867 129.865 18.264L132.713 19.928C131.135 22.2533 128.799 23.416 125.705 23.416C123.103 23.416 121.001 22.6267 119.401 21.048C117.801 19.448 117.001 17.432 117.001 15C117.001 12.6107 117.791 10.616 119.369 9.016C120.948 7.39467 122.975 6.584 125.449 6.584C127.796 6.584 129.716 7.40533 131.209 9.048C132.724 10.6907 133.481 12.6853 133.481 15.032C133.481 15.3947 133.439 15.8747 133.353 16.472H120.617ZM120.585 13.656H129.993C129.759 12.3547 129.215 11.3733 128.361 10.712C127.529 10.0507 126.548 9.72 125.417 9.72C124.137 9.72 123.071 10.072 122.217 10.776C121.364 11.48 120.82 12.44 120.585 13.656ZM139.001 11.416C139.001 11.9493 139.289 12.376 139.865 12.696C140.463 12.9947 141.177 13.2613 142.009 13.496C142.863 13.7093 143.716 13.9653 144.569 14.264C145.423 14.5627 146.137 15.0747 146.713 15.8C147.311 16.504 147.609 17.4 147.609 18.488C147.609 20.024 147.012 21.2293 145.817 22.104C144.644 22.9787 143.161 23.416 141.369 23.416C139.791 23.416 138.436 23.0853 137.305 22.424C136.175 21.7627 135.353 20.8453 134.841 19.672L137.817 17.944C138.372 19.48 139.556 20.248 141.369 20.248C143.183 20.248 144.089 19.6507 144.089 18.456C144.089 17.944 143.791 17.528 143.193 17.208C142.617 16.888 141.903 16.6213 141.049 16.408C140.217 16.1733 139.375 15.9067 138.521 15.608C137.668 15.3093 136.943 14.8187 136.345 14.136C135.769 13.432 135.481 12.5467 135.481 11.48C135.481 10.008 136.036 8.824 137.145 7.928C138.276 7.032 139.673 6.584 141.337 6.584C142.66 6.584 143.833 6.88267 144.857 7.48C145.903 8.056 146.703 8.86667 147.257 9.912L144.345 11.544C143.791 10.328 142.788 9.72 141.337 9.72C140.676 9.72 140.121 9.86933 139.673 10.168C139.225 10.4453 139.001 10.8613 139.001 11.416Z" fill="#141414"/>
<path d="M12.1 54.448V55.12C12.1 56.5813 11.5987 57.7973 10.596 58.768C9.59334 59.728 8.26534 60.208 6.61201 60.208C4.90534 60.208 3.49201 59.648 2.37201 58.528C1.26267 57.3973 0.708006 56.0213 0.708006 54.4C0.708006 52.7787 1.26267 51.408 2.37201 50.288C3.49201 49.1573 4.89467 48.592 6.58001 48.592C7.61467 48.592 8.56401 48.8427 9.42801 49.344C10.292 49.8347 10.9587 50.4853 11.428 51.296L10.148 52.048C9.82801 51.44 9.34267 50.9547 8.69201 50.592C8.05201 50.2187 7.34267 50.032 6.56401 50.032C5.28401 50.032 4.23334 50.4533 3.41201 51.296C2.59067 52.128 2.18001 53.1627 2.18001 54.4C2.18001 55.6373 2.59067 56.672 3.41201 57.504C4.24401 58.336 5.31601 58.752 6.62801 58.752C7.74801 58.752 8.65467 58.48 9.34801 57.936C10.0413 57.3813 10.4627 56.6667 10.612 55.792H6.50001V54.448H12.1ZM14.7414 56.64C14.88 57.3547 15.2054 57.9093 15.7174 58.304C16.24 58.6987 16.88 58.896 17.6374 58.896C18.6934 58.896 19.4614 58.5067 19.9414 57.728L21.1254 58.4C20.3467 59.6053 19.1734 60.208 17.6054 60.208C16.336 60.208 15.3014 59.8133 14.5014 59.024C13.712 58.224 13.3174 57.216 13.3174 56C13.3174 54.7947 13.7067 53.792 14.4854 52.992C15.264 52.192 16.272 51.792 17.5094 51.792C18.6827 51.792 19.6374 52.208 20.3734 53.04C21.12 53.8613 21.4934 54.8533 21.4934 56.016C21.4934 56.2187 21.4774 56.4267 21.4454 56.64H14.7414ZM17.5094 53.104C16.7627 53.104 16.144 53.3173 15.6534 53.744C15.1627 54.16 14.8587 54.72 14.7414 55.424H20.0854C19.968 54.6667 19.6694 54.0907 19.1894 53.696C18.7094 53.3013 18.1494 53.104 17.5094 53.104ZM27.0775 51.792C28.0162 51.792 28.7682 52.0907 29.3335 52.688C29.8988 53.2747 30.1815 54.0747 30.1815 55.088V60H28.7895V55.168C28.7895 54.5173 28.6135 54.016 28.2615 53.664C27.9095 53.3013 27.4242 53.12 26.8055 53.12C26.1122 53.12 25.5522 53.3387 25.1255 53.776C24.6988 54.2027 24.4855 54.864 24.4855 55.76V60H23.0935V52H24.4855V53.152C25.0508 52.2453 25.9148 51.792 27.0775 51.792ZM33.1008 56.64C33.2394 57.3547 33.5648 57.9093 34.0768 58.304C34.5994 58.6987 35.2394 58.896 35.9968 58.896C37.0528 58.896 37.8208 58.5067 38.3008 57.728L39.4848 58.4C38.7061 59.6053 37.5328 60.208 35.9648 60.208C34.6954 60.208 33.6608 59.8133 32.8608 59.024C32.0714 58.224 31.6768 57.216 31.6768 56C31.6768 54.7947 32.0661 53.792 32.8448 52.992C33.6234 52.192 34.6314 51.792 35.8688 51.792C37.0421 51.792 37.9968 52.208 38.7328 53.04C39.4794 53.8613 39.8528 54.8533 39.8528 56.016C39.8528 56.2187 39.8368 56.4267 39.8048 56.64H33.1008ZM35.8688 53.104C35.1221 53.104 34.5034 53.3173 34.0128 53.744C33.5221 54.16 33.2181 54.72 33.1008 55.424H38.4448C38.3274 54.6667 38.0288 54.0907 37.5488 53.696C37.0688 53.3013 36.5088 53.104 35.8688 53.104ZM42.8449 53.344C43.3035 52.352 44.1355 51.856 45.3409 51.856V53.312C44.6582 53.28 44.0715 53.4613 43.5809 53.856C43.0902 54.2507 42.8449 54.8853 42.8449 55.76V60H41.4529V52H42.8449V53.344ZM52.8894 52H54.2814V60H52.8894V58.624C52.196 59.68 51.188 60.208 49.8654 60.208C48.7454 60.208 47.7907 59.8027 47.0014 58.992C46.212 58.1707 45.8174 57.1733 45.8174 56C45.8174 54.8267 46.212 53.8347 47.0014 53.024C47.7907 52.2027 48.7454 51.792 49.8654 51.792C51.188 51.792 52.196 52.32 52.8894 53.376V52ZM50.0414 58.864C50.852 58.864 51.5294 58.592 52.0734 58.048C52.6174 57.4933 52.8894 56.8107 52.8894 56C52.8894 55.1893 52.6174 54.512 52.0734 53.968C51.5294 53.4133 50.852 53.136 50.0414 53.136C49.2414 53.136 48.5694 53.4133 48.0254 53.968C47.4814 54.512 47.2094 55.1893 47.2094 56C47.2094 56.8107 47.4814 57.4933 48.0254 58.048C48.5694 58.592 49.2414 58.864 50.0414 58.864ZM60.7424 53.344H58.6144V57.68C58.6144 58.0747 58.689 58.3573 58.8384 58.528C58.9984 58.688 59.2384 58.7733 59.5584 58.784C59.8784 58.784 60.273 58.7733 60.7424 58.752V60C59.5264 60.16 58.6357 60.064 58.0704 59.712C57.505 59.3493 57.2224 58.672 57.2224 57.68V53.344H55.6384V52H57.2224V50.176L58.6144 49.76V52H60.7424V53.344ZM62.9601 56.64C63.0988 57.3547 63.4241 57.9093 63.9361 58.304C64.4588 58.6987 65.0988 58.896 65.8561 58.896C66.9121 58.896 67.6801 58.5067 68.1601 57.728L69.3441 58.4C68.5655 59.6053 67.3921 60.208 65.8241 60.208C64.5548 60.208 63.5201 59.8133 62.7201 59.024C61.9308 58.224 61.5361 57.216 61.5361 56C61.5361 54.7947 61.9255 53.792 62.7041 52.992C63.4828 52.192 64.4908 51.792 65.7281 51.792C66.9015 51.792 67.8561 52.208 68.5921 53.04C69.3388 53.8613 69.7121 54.8533 69.7121 56.016C69.7121 56.2187 69.6961 56.4267 69.6641 56.64H62.9601ZM65.7281 53.104C64.9815 53.104 64.3628 53.3173 63.8721 53.744C63.3815 54.16 63.0775 54.72 62.9601 55.424H68.3041C68.1868 54.6667 67.8881 54.0907 67.4081 53.696C66.9281 53.3013 66.3681 53.104 65.7281 53.104ZM86.4643 54.4C86.4643 55.936 85.9363 57.264 84.8803 58.384L86.1123 59.616L85.0883 60.544L83.8243 59.264C82.8536 59.8933 81.7976 60.208 80.6563 60.208C79.0563 60.208 77.6909 59.6427 76.5603 58.512C75.4296 57.3813 74.8643 56.0107 74.8643 54.4C74.8643 52.7893 75.4296 51.4187 76.5603 50.288C77.6909 49.1573 79.0563 48.592 80.6563 48.592C82.2563 48.592 83.6216 49.1573 84.7523 50.288C85.8936 51.4187 86.4643 52.7893 86.4643 54.4ZM80.6563 58.752C81.4243 58.752 82.1283 58.5707 82.7683 58.208L80.5283 55.952L81.5523 55.04L83.8563 57.344C84.6029 56.5333 84.9763 55.552 84.9763 54.4C84.9763 53.1733 84.5549 52.1387 83.7123 51.296C82.8803 50.4533 81.8616 50.032 80.6563 50.032C79.4509 50.032 78.4269 50.4533 77.5843 51.296C76.7523 52.1387 76.3363 53.1733 76.3363 54.4C76.3363 55.616 76.7523 56.6453 77.5843 57.488C78.4269 58.3307 79.4509 58.752 80.6563 58.752ZM94.9713 60L92.4593 55.712H89.8193V60H88.3313V48.8H92.8113C93.7713 48.8 94.5926 49.1413 95.2753 49.824C95.9579 50.496 96.2993 51.312 96.2993 52.272C96.2993 52.9973 96.0806 53.6587 95.6433 54.256C95.2166 54.8533 94.6619 55.2747 93.9793 55.52L96.6193 60H94.9713ZM89.8193 50.192V54.368H92.8113C93.3659 54.368 93.8353 54.1653 94.2193 53.76C94.6139 53.344 94.8113 52.848 94.8113 52.272C94.8113 51.696 94.6139 51.2053 94.2193 50.8C93.8353 50.3947 93.3659 50.192 92.8113 50.192H89.8193ZM105.729 60.208C104.523 60.208 103.521 59.808 102.721 59.008C101.921 58.1973 101.521 57.1947 101.521 56C101.521 54.8053 101.921 53.808 102.721 53.008C103.521 52.1973 104.523 51.792 105.729 51.792C106.518 51.792 107.227 51.984 107.857 52.368C108.486 52.7413 108.955 53.248 109.265 53.888L108.097 54.56C107.894 54.1333 107.579 53.792 107.153 53.536C106.737 53.28 106.262 53.152 105.729 53.152C104.929 53.152 104.257 53.424 103.713 53.968C103.179 54.512 102.913 55.1893 102.913 56C102.913 56.8 103.179 57.472 103.713 58.016C104.257 58.56 104.929 58.832 105.729 58.832C106.262 58.832 106.742 58.7093 107.169 58.464C107.595 58.208 107.921 57.8667 108.145 57.44L109.329 58.128C108.987 58.7573 108.497 59.264 107.857 59.648C107.217 60.0213 106.507 60.208 105.729 60.208ZM117.346 58.992C116.524 59.8027 115.527 60.208 114.354 60.208C113.18 60.208 112.183 59.8027 111.362 58.992C110.551 58.1813 110.146 57.184 110.146 56C110.146 54.816 110.551 53.8187 111.362 53.008C112.183 52.1973 113.18 51.792 114.354 51.792C115.527 51.792 116.524 52.1973 117.346 53.008C118.167 53.8187 118.578 54.816 118.578 56C118.578 57.184 118.167 58.1813 117.346 58.992ZM114.354 58.848C115.154 58.848 115.826 58.576 116.37 58.032C116.914 57.488 117.186 56.8107 117.186 56C117.186 55.1893 116.914 54.512 116.37 53.968C115.826 53.424 115.154 53.152 114.354 53.152C113.564 53.152 112.898 53.424 112.354 53.968C111.81 54.512 111.538 55.1893 111.538 56C111.538 56.8107 111.81 57.488 112.354 58.032C112.898 58.576 113.564 58.848 114.354 58.848ZM126.843 48.8H128.235V60H126.843V58.624C126.149 59.68 125.141 60.208 123.819 60.208C122.699 60.208 121.744 59.8027 120.955 58.992C120.165 58.1707 119.771 57.1733 119.771 56C119.771 54.8267 120.165 53.8347 120.955 53.024C121.744 52.2027 122.699 51.792 123.819 51.792C125.141 51.792 126.149 52.32 126.843 53.376V48.8ZM123.995 58.864C124.805 58.864 125.483 58.592 126.027 58.048C126.571 57.4933 126.843 56.8107 126.843 56C126.843 55.1893 126.571 54.512 126.027 53.968C125.483 53.4133 124.805 53.136 123.995 53.136C123.195 53.136 122.523 53.4133 121.979 53.968C121.435 54.512 121.163 55.1893 121.163 56C121.163 56.8107 121.435 57.4933 121.979 58.048C122.523 58.592 123.195 58.864 123.995 58.864ZM131.32 56.64C131.458 57.3547 131.784 57.9093 132.296 58.304C132.818 58.6987 133.458 58.896 134.216 58.896C135.272 58.896 136.04 58.5067 136.52 57.728L137.704 58.4C136.925 59.6053 135.752 60.208 134.184 60.208C132.914 60.208 131.88 59.8133 131.08 59.024C130.29 58.224 129.896 57.216 129.896 56C129.896 54.7947 130.285 53.792 131.064 52.992C131.842 52.192 132.85 51.792 134.088 51.792C135.261 51.792 136.216 52.208 136.952 53.04C137.698 53.8613 138.072 54.8533 138.072 56.016C138.072 56.2187 138.056 56.4267 138.024 56.64H131.32ZM134.088 53.104C133.341 53.104 132.722 53.3173 132.232 53.744C131.741 54.16 131.437 54.72 131.32 55.424H136.664C136.546 54.6667 136.248 54.0907 135.768 53.696C135.288 53.3013 134.728 53.104 134.088 53.104ZM140.559 54.16C140.559 54.4693 140.714 54.72 141.023 54.912C141.332 55.0933 141.706 55.2427 142.143 55.36C142.58 55.4667 143.018 55.5947 143.455 55.744C143.892 55.8827 144.266 56.128 144.575 56.48C144.884 56.8213 145.039 57.264 145.039 57.808C145.039 58.5333 144.756 59.1147 144.191 59.552C143.636 59.9893 142.922 60.208 142.047 60.208C141.268 60.208 140.602 60.0373 140.047 59.696C139.492 59.3547 139.098 58.9013 138.863 58.336L140.063 57.648C140.191 58.032 140.431 58.336 140.783 58.56C141.135 58.784 141.556 58.896 142.047 58.896C142.506 58.896 142.884 58.8107 143.183 58.64C143.482 58.4587 143.631 58.1813 143.631 57.808C143.631 57.4987 143.476 57.2533 143.167 57.072C142.858 56.88 142.484 56.7307 142.047 56.624C141.61 56.5067 141.172 56.3733 140.735 56.224C140.298 56.0747 139.924 55.8293 139.615 55.488C139.306 55.1467 139.151 54.7093 139.151 54.176C139.151 53.4827 139.418 52.912 139.951 52.464C140.495 52.016 141.172 51.792 141.983 51.792C142.634 51.792 143.21 51.9413 143.711 52.24C144.223 52.528 144.607 52.9333 144.863 53.456L143.695 54.112C143.407 53.4293 142.836 53.088 141.983 53.088C141.588 53.088 141.252 53.184 140.975 53.376C140.698 53.5573 140.559 53.8187 140.559 54.16ZM155.039 53.344H152.911V57.68C152.911 58.0747 152.986 58.3573 153.135 58.528C153.295 58.688 153.535 58.7733 153.855 58.784C154.175 58.784 154.57 58.7733 155.039 58.752V60C153.823 60.16 152.933 60.064 152.367 59.712C151.802 59.3493 151.519 58.672 151.519 57.68V53.344H149.935V52H151.519V50.176L152.911 49.76V52H155.039V53.344ZM163.033 58.992C162.212 59.8027 161.214 60.208 160.041 60.208C158.868 60.208 157.87 59.8027 157.049 58.992C156.238 58.1813 155.833 57.184 155.833 56C155.833 54.816 156.238 53.8187 157.049 53.008C157.87 52.1973 158.868 51.792 160.041 51.792C161.214 51.792 162.212 52.1973 163.033 53.008C163.854 53.8187 164.265 54.816 164.265 56C164.265 57.184 163.854 58.1813 163.033 58.992ZM160.041 58.848C160.841 58.848 161.513 58.576 162.057 58.032C162.601 57.488 162.873 56.8107 162.873 56C162.873 55.1893 162.601 54.512 162.057 53.968C161.513 53.424 160.841 53.152 160.041 53.152C159.252 53.152 158.585 53.424 158.041 53.968C157.497 54.512 157.225 55.1893 157.225 56C157.225 56.8107 157.497 57.488 158.041 58.032C158.585 58.576 159.252 58.848 160.041 58.848ZM175.49 52H176.978L173.714 60.496C173.373 61.4027 172.893 62.0907 172.274 62.56C171.666 63.04 170.962 63.2533 170.162 63.2V61.904C171.143 61.9787 171.863 61.4347 172.322 60.272L172.466 59.968L168.978 52H170.466L173.186 58.272L175.49 52ZM184.58 58.992C183.759 59.8027 182.761 60.208 181.588 60.208C180.415 60.208 179.417 59.8027 178.596 58.992C177.785 58.1813 177.38 57.184 177.38 56C177.38 54.816 177.785 53.8187 178.596 53.008C179.417 52.1973 180.415 51.792 181.588 51.792C182.761 51.792 183.759 52.1973 184.58 53.008C185.401 53.8187 185.812 54.816 185.812 56C185.812 57.184 185.401 58.1813 184.58 58.992ZM181.588 58.848C182.388 58.848 183.06 58.576 183.604 58.032C184.148 57.488 184.42 56.8107 184.42 56C184.42 55.1893 184.148 54.512 183.604 53.968C183.06 53.424 182.388 53.152 181.588 53.152C180.799 53.152 180.132 53.424 179.588 53.968C179.044 54.512 178.772 55.1893 178.772 56C178.772 56.8107 179.044 57.488 179.588 58.032C180.132 58.576 180.799 58.848 181.588 58.848ZM192.973 52H194.365V60H192.973V58.848C192.408 59.7547 191.544 60.208 190.381 60.208C189.442 60.208 188.69 59.9147 188.125 59.328C187.56 58.7307 187.277 57.9253 187.277 56.912V52H188.669V56.832C188.669 57.4827 188.845 57.9893 189.197 58.352C189.549 58.704 190.034 58.88 190.653 58.88C191.346 58.88 191.906 58.6667 192.333 58.24C192.76 57.8027 192.973 57.136 192.973 56.24V52ZM197.876 53.344C198.335 52.352 199.167 51.856 200.372 51.856V53.312C199.689 53.28 199.103 53.4613 198.612 53.856C198.121 54.2507 197.876 54.8853 197.876 55.76V60H196.484V52H197.876V53.344ZM210.15 51.792C211.27 51.792 212.225 52.2027 213.014 53.024C213.803 53.8347 214.198 54.8267 214.198 56C214.198 57.1733 213.803 58.1707 213.014 58.992C212.225 59.8027 211.27 60.208 210.15 60.208C208.827 60.208 207.819 59.68 207.126 58.624V60H205.734V48.8H207.126V53.376C207.819 52.32 208.827 51.792 210.15 51.792ZM209.974 58.864C210.774 58.864 211.446 58.592 211.99 58.048C212.534 57.4933 212.806 56.8107 212.806 56C212.806 55.1893 212.534 54.512 211.99 53.968C211.446 53.4133 210.774 53.136 209.974 53.136C209.163 53.136 208.486 53.4133 207.942 53.968C207.398 54.512 207.126 55.1893 207.126 56C207.126 56.8107 207.398 57.4933 207.942 58.048C208.486 58.592 209.163 58.864 209.974 58.864ZM221.379 52H222.771V60H221.379V58.848C220.814 59.7547 219.95 60.208 218.787 60.208C217.848 60.208 217.096 59.9147 216.531 59.328C215.966 58.7307 215.683 57.9253 215.683 56.912V52H217.075V56.832C217.075 57.4827 217.251 57.9893 217.603 58.352C217.955 58.704 218.44 58.88 219.059 58.88C219.752 58.88 220.312 58.6667 220.739 58.24C221.166 57.8027 221.379 57.136 221.379 56.24V52ZM226.075 54.16C226.075 54.4693 226.229 54.72 226.539 54.912C226.848 55.0933 227.221 55.2427 227.659 55.36C228.096 55.4667 228.533 55.5947 228.971 55.744C229.408 55.8827 229.781 56.128 230.091 56.48C230.4 56.8213 230.555 57.264 230.555 57.808C230.555 58.5333 230.272 59.1147 229.707 59.552C229.152 59.9893 228.437 60.208 227.563 60.208C226.784 60.208 226.117 60.0373 225.563 59.696C225.008 59.3547 224.613 58.9013 224.379 58.336L225.579 57.648C225.707 58.032 225.947 58.336 226.299 58.56C226.651 58.784 227.072 58.896 227.563 58.896C228.021 58.896 228.4 58.8107 228.699 58.64C228.997 58.4587 229.147 58.1813 229.147 57.808C229.147 57.4987 228.992 57.2533 228.683 57.072C228.373 56.88 228 56.7307 227.563 56.624C227.125 56.5067 226.688 56.3733 226.251 56.224C225.813 56.0747 225.44 55.8293 225.131 55.488C224.821 55.1467 224.667 54.7093 224.667 54.176C224.667 53.4827 224.933 52.912 225.467 52.464C226.011 52.016 226.688 51.792 227.499 51.792C228.149 51.792 228.725 51.9413 229.227 52.24C229.739 52.528 230.123 52.9333 230.379 53.456L229.211 54.112C228.923 53.4293 228.352 53.088 227.499 53.088C227.104 53.088 226.768 53.184 226.491 53.376C226.213 53.5573 226.075 53.8187 226.075 54.16ZM232.829 50.544C232.562 50.544 232.338 50.4533 232.157 50.272C231.975 50.0907 231.885 49.872 231.885 49.616C231.885 49.36 231.975 49.1413 232.157 48.96C232.338 48.768 232.562 48.672 232.829 48.672C233.085 48.672 233.303 48.768 233.485 48.96C233.666 49.1413 233.757 49.36 233.757 49.616C233.757 49.872 233.666 50.0907 233.485 50.272C233.303 50.4533 233.085 50.544 232.829 50.544ZM232.125 60V52H233.517V60H232.125ZM239.624 51.792C240.563 51.792 241.315 52.0907 241.88 52.688C242.446 53.2747 242.728 54.0747 242.728 55.088V60H241.336V55.168C241.336 54.5173 241.16 54.016 240.808 53.664C240.456 53.3013 239.971 53.12 239.352 53.12C238.659 53.12 238.099 53.3387 237.672 53.776C237.246 54.2027 237.032 54.864 237.032 55.76V60H235.64V52H237.032V53.152C237.598 52.2453 238.462 51.792 239.624 51.792ZM245.648 56.64C245.786 57.3547 246.112 57.9093 246.624 58.304C247.146 58.6987 247.786 58.896 248.544 58.896C249.6 58.896 250.368 58.5067 250.848 57.728L252.032 58.4C251.253 59.6053 250.08 60.208 248.512 60.208C247.242 60.208 246.208 59.8133 245.408 59.024C244.618 58.224 244.224 57.216 244.224 56C244.224 54.7947 244.613 53.792 245.392 52.992C246.17 52.192 247.178 51.792 248.416 51.792C249.589 51.792 250.544 52.208 251.28 53.04C252.026 53.8613 252.4 54.8533 252.4 56.016C252.4 56.2187 252.384 56.4267 252.352 56.64H245.648ZM248.416 53.104C247.669 53.104 247.05 53.3173 246.56 53.744C246.069 54.16 245.765 54.72 245.648 55.424H250.992C250.874 54.6667 250.576 54.0907 250.096 53.696C249.616 53.3013 249.056 53.104 248.416 53.104ZM254.887 54.16C254.887 54.4693 255.042 54.72 255.351 54.912C255.661 55.0933 256.034 55.2427 256.471 55.36C256.909 55.4667 257.346 55.5947 257.783 55.744C258.221 55.8827 258.594 56.128 258.903 56.48C259.213 56.8213 259.367 57.264 259.367 57.808C259.367 58.5333 259.085 59.1147 258.519 59.552C257.965 59.9893 257.25 60.208 256.375 60.208C255.597 60.208 254.93 60.0373 254.375 59.696C253.821 59.3547 253.426 58.9013 253.191 58.336L254.391 57.648C254.519 58.032 254.759 58.336 255.111 58.56C255.463 58.784 255.885 58.896 256.375 58.896C256.834 58.896 257.213 58.8107 257.511 58.64C257.81 58.4587 257.959 58.1813 257.959 57.808C257.959 57.4987 257.805 57.2533 257.495 57.072C257.186 56.88 256.813 56.7307 256.375 56.624C255.938 56.5067 255.501 56.3733 255.063 56.224C254.626 56.0747 254.253 55.8293 253.943 55.488C253.634 55.1467 253.479 54.7093 253.479 54.176C253.479 53.4827 253.746 52.912 254.279 52.464C254.823 52.016 255.501 51.792 256.311 51.792C256.962 51.792 257.538 51.9413 258.039 52.24C258.551 52.528 258.935 52.9333 259.191 53.456L258.023 54.112C257.735 53.4293 257.165 53.088 256.311 53.088C255.917 53.088 255.581 53.184 255.303 53.376C255.026 53.5573 254.887 53.8187 254.887 54.16ZM261.715 54.16C261.715 54.4693 261.87 54.72 262.179 54.912C262.489 55.0933 262.862 55.2427 263.299 55.36C263.737 55.4667 264.174 55.5947 264.611 55.744C265.049 55.8827 265.422 56.128 265.731 56.48C266.041 56.8213 266.195 57.264 266.195 57.808C266.195 58.5333 265.913 59.1147 265.347 59.552C264.793 59.9893 264.078 60.208 263.203 60.208C262.425 60.208 261.758 60.0373 261.203 59.696C260.649 59.3547 260.254 58.9013 260.019 58.336L261.219 57.648C261.347 58.032 261.587 58.336 261.939 58.56C262.291 58.784 262.713 58.896 263.203 58.896C263.662 58.896 264.041 58.8107 264.339 58.64C264.638 58.4587 264.787 58.1813 264.787 57.808C264.787 57.4987 264.633 57.2533 264.323 57.072C264.014 56.88 263.641 56.7307 263.203 56.624C262.766 56.5067 262.329 56.3733 261.891 56.224C261.454 56.0747 261.081 55.8293 260.771 55.488C260.462 55.1467 260.307 54.7093 260.307 54.176C260.307 53.4827 260.574 52.912 261.107 52.464C261.651 52.016 262.329 51.792 263.139 51.792C263.79 51.792 264.366 51.9413 264.867 52.24C265.379 52.528 265.763 52.9333 266.019 53.456L264.851 54.112C264.563 53.4293 263.993 53.088 263.139 53.088C262.745 53.088 262.409 53.184 262.131 53.376C261.854 53.5573 261.715 53.8187 261.715 54.16ZM269.752 58.352L268.712 62.24H267.512L268.152 58.352H269.752ZM276.695 56.64C276.833 57.3547 277.159 57.9093 277.671 58.304C278.193 58.6987 278.833 58.896 279.591 58.896C280.647 58.896 281.415 58.5067 281.895 57.728L283.079 58.4C282.3 59.6053 281.127 60.208 279.559 60.208C278.289 60.208 277.255 59.8133 276.455 59.024C275.665 58.224 275.271 57.216 275.271 56C275.271 54.7947 275.66 53.792 276.439 52.992C277.217 52.192 278.225 51.792 279.463 51.792C280.636 51.792 281.591 52.208 282.327 53.04C283.073 53.8613 283.447 54.8533 283.447 56.016C283.447 56.2187 283.431 56.4267 283.399 56.64H276.695ZM279.463 53.104C278.716 53.104 278.097 53.3173 277.607 53.744C277.116 54.16 276.812 54.72 276.695 55.424H282.039C281.921 54.6667 281.623 54.0907 281.143 53.696C280.663 53.3013 280.103 53.104 279.463 53.104ZM290.334 52H291.838L288.638 60H287.006L283.806 52H285.31L287.822 58.512L290.334 52ZM293.679 56.64C293.818 57.3547 294.143 57.9093 294.655 58.304C295.178 58.6987 295.818 58.896 296.575 58.896C297.631 58.896 298.399 58.5067 298.879 57.728L300.063 58.4C299.284 59.6053 298.111 60.208 296.543 60.208C295.274 60.208 294.239 59.8133 293.439 59.024C292.65 58.224 292.255 57.216 292.255 56C292.255 54.7947 292.644 53.792 293.423 52.992C294.202 52.192 295.21 51.792 296.447 51.792C297.62 51.792 298.575 52.208 299.311 53.04C300.058 53.8613 300.431 54.8533 300.431 56.016C300.431 56.2187 300.415 56.4267 300.383 56.64H293.679ZM296.447 53.104C295.7 53.104 295.082 53.3173 294.591 53.744C294.1 54.16 293.796 54.72 293.679 55.424H299.023C298.906 54.6667 298.607 54.0907 298.127 53.696C297.647 53.3013 297.087 53.104 296.447 53.104ZM306.015 51.792C306.954 51.792 307.706 52.0907 308.271 52.688C308.836 53.2747 309.119 54.0747 309.119 55.088V60H307.727V55.168C307.727 54.5173 307.551 54.016 307.199 53.664C306.847 53.3013 306.362 53.12 305.743 53.12C305.05 53.12 304.49 53.3387 304.063 53.776C303.636 54.2027 303.423 54.864 303.423 55.76V60H302.031V52H303.423V53.152C303.988 52.2453 304.852 51.792 306.015 51.792ZM315.414 53.344H313.286V57.68C313.286 58.0747 313.361 58.3573 313.51 58.528C313.67 58.688 313.91 58.7733 314.23 58.784C314.55 58.784 314.945 58.7733 315.414 58.752V60C314.198 60.16 313.308 60.064 312.742 59.712C312.177 59.3493 311.894 58.672 311.894 57.68V53.344H310.31V52H311.894V50.176L313.286 49.76V52H315.414V53.344ZM317.872 54.16C317.872 54.4693 318.026 54.72 318.336 54.912C318.645 55.0933 319.018 55.2427 319.456 55.36C319.893 55.4667 320.33 55.5947 320.768 55.744C321.205 55.8827 321.578 56.128 321.888 56.48C322.197 56.8213 322.352 57.264 322.352 57.808C322.352 58.5333 322.069 59.1147 321.504 59.552C320.949 59.9893 320.234 60.208 319.36 60.208C318.581 60.208 317.914 60.0373 317.36 59.696C316.805 59.3547 316.41 58.9013 316.176 58.336L317.376 57.648C317.504 58.032 317.744 58.336 318.096 58.56C318.448 58.784 318.869 58.896 319.36 58.896C319.818 58.896 320.197 58.8107 320.496 58.64C320.794 58.4587 320.944 58.1813 320.944 57.808C320.944 57.4987 320.789 57.2533 320.48 57.072C320.17 56.88 319.797 56.7307 319.36 56.624C318.922 56.5067 318.485 56.3733 318.048 56.224C317.61 56.0747 317.237 55.8293 316.928 55.488C316.618 55.1467 316.464 54.7093 316.464 54.176C316.464 53.4827 316.73 52.912 317.264 52.464C317.808 52.016 318.485 51.792 319.296 51.792C319.946 51.792 320.522 51.9413 321.024 52.24C321.536 52.528 321.92 52.9333 322.176 53.456L321.008 54.112C320.72 53.4293 320.149 53.088 319.296 53.088C318.901 53.088 318.565 53.184 318.288 53.376C318.01 53.5573 317.872 53.8187 317.872 54.16ZM324.708 60.176C324.42 60.176 324.175 60.0747 323.972 59.872C323.769 59.6693 323.668 59.424 323.668 59.136C323.668 58.848 323.769 58.6027 323.972 58.4C324.175 58.1973 324.42 58.096 324.708 58.096C325.007 58.096 325.252 58.1973 325.444 58.4C325.647 58.6027 325.748 58.848 325.748 59.136C325.748 59.424 325.647 59.6693 325.444 59.872C325.252 60.0747 325.007 60.176 324.708 60.176ZM7.70001 78.192C8.21201 78.4373 8.61734 78.7893 8.91601 79.248C9.22534 79.7067 9.38001 80.2347 9.38001 80.832C9.38001 81.728 9.06534 82.48 8.43601 83.088C7.80667 83.696 7.03867 84 6.13201 84H1.30001V72.8H5.78001C6.65467 72.8 7.39601 73.0933 8.00401 73.68C8.61201 74.2667 8.91601 74.992 8.91601 75.856C8.91601 76.848 8.51067 77.6267 7.70001 78.192ZM5.78001 74.192H2.78801V77.616H5.78001C6.24934 77.616 6.64401 77.4507 6.96401 77.12C7.28401 76.7893 7.44401 76.384 7.44401 75.904C7.44401 75.4347 7.27867 75.0347 6.94801 74.704C6.62801 74.3627 6.23867 74.192 5.78001 74.192ZM6.13201 82.608C6.63334 82.608 7.05467 82.432 7.39601 82.08C7.73734 81.728 7.90801 81.296 7.90801 80.784C7.90801 80.2827 7.73201 79.856 7.38001 79.504C7.03867 79.152 6.62267 78.976 6.13201 78.976H2.78801V82.608H6.13201ZM12.3918 77.344C12.8504 76.352 13.6824 75.856 14.8878 75.856V77.312C14.2051 77.28 13.6184 77.4613 13.1278 77.856C12.6371 78.2507 12.3918 78.8853 12.3918 79.76V84H10.9998V76H12.3918V77.344ZM16.9538 74.544C16.6871 74.544 16.4631 74.4533 16.2818 74.272C16.1004 74.0907 16.0098 73.872 16.0098 73.616C16.0098 73.36 16.1004 73.1413 16.2818 72.96C16.4631 72.768 16.6871 72.672 16.9538 72.672C17.2098 72.672 17.4284 72.768 17.6098 72.96C17.7911 73.1413 17.8818 73.36 17.8818 73.616C17.8818 73.872 17.7911 74.0907 17.6098 74.272C17.4284 74.4533 17.2098 74.544 16.9538 74.544ZM16.2498 84V76H17.6418V84H16.2498ZM23.7494 75.792C24.688 75.792 25.44 76.0907 26.0054 76.688C26.5707 77.2747 26.8534 78.0747 26.8534 79.088V84H25.4614V79.168C25.4614 78.5173 25.2854 78.016 24.9334 77.664C24.5814 77.3013 24.096 77.12 23.4774 77.12C22.784 77.12 22.224 77.3387 21.7974 77.776C21.3707 78.2027 21.1574 78.864 21.1574 79.76V84H19.7654V76H21.1574V77.152C21.7227 76.2453 22.5867 75.792 23.7494 75.792ZM35.4366 76H36.8126V83.664C36.8126 84.848 36.4126 85.7653 35.6126 86.416C34.8126 87.0773 33.8526 87.408 32.7326 87.408C31.8366 87.408 31.0633 87.2373 30.4126 86.896C29.762 86.5653 29.2713 86.0853 28.9406 85.456L30.1566 84.768C30.594 85.664 31.4633 86.112 32.7646 86.112C33.5966 86.112 34.2473 85.8933 34.7166 85.456C35.1966 85.0187 35.4366 84.4213 35.4366 83.664V82.528C34.7326 83.5947 33.73 84.128 32.4286 84.128C31.2873 84.128 30.322 83.7227 29.5326 82.912C28.7433 82.1013 28.3486 81.1147 28.3486 79.952C28.3486 78.7893 28.7433 77.808 29.5326 77.008C30.322 76.1973 31.2873 75.792 32.4286 75.792C33.7406 75.792 34.7433 76.32 35.4366 77.376V76ZM30.5566 81.984C31.1006 82.528 31.778 82.8 32.5886 82.8C33.3993 82.8 34.0766 82.528 34.6206 81.984C35.1646 81.44 35.4366 80.7627 35.4366 79.952C35.4366 79.152 35.1646 78.48 34.6206 77.936C34.0766 77.392 33.3993 77.12 32.5886 77.12C31.778 77.12 31.1006 77.392 30.5566 77.936C30.0126 78.48 29.7406 79.152 29.7406 79.952C29.7406 80.7627 30.0126 81.44 30.5566 81.984ZM48.5056 76H49.9936L46.7296 84.496C46.3883 85.4027 45.9083 86.0907 45.2896 86.56C44.6816 87.04 43.9776 87.2533 43.1776 87.2V85.904C44.159 85.9787 44.879 85.4347 45.3376 84.272L45.4816 83.968L41.9936 76H43.4816L46.2016 82.272L48.5056 76ZM57.5955 82.992C56.7742 83.8027 55.7768 84.208 54.6035 84.208C53.4302 84.208 52.4328 83.8027 51.6115 82.992C50.8008 82.1813 50.3955 81.184 50.3955 80C50.3955 78.816 50.8008 77.8187 51.6115 77.008C52.4328 76.1973 53.4302 75.792 54.6035 75.792C55.7768 75.792 56.7742 76.1973 57.5955 77.008C58.4168 77.8187 58.8275 78.816 58.8275 80C58.8275 81.184 58.4168 82.1813 57.5955 82.992ZM54.6035 82.848C55.4035 82.848 56.0755 82.576 56.6195 82.032C57.1635 81.488 57.4355 80.8107 57.4355 80C57.4355 79.1893 57.1635 78.512 56.6195 77.968C56.0755 77.424 55.4035 77.152 54.6035 77.152C53.8142 77.152 53.1475 77.424 52.6035 77.968C52.0595 78.512 51.7875 79.1893 51.7875 80C51.7875 80.8107 52.0595 81.488 52.6035 82.032C53.1475 82.576 53.8142 82.848 54.6035 82.848ZM65.9885 76H67.3805V84H65.9885V82.848C65.4232 83.7547 64.5592 84.208 63.3965 84.208C62.4578 84.208 61.7058 83.9147 61.1405 83.328C60.5752 82.7307 60.2925 81.9253 60.2925 80.912V76H61.6845V80.832C61.6845 81.4827 61.8605 81.9893 62.2125 82.352C62.5645 82.704 63.0498 82.88 63.6685 82.88C64.3618 82.88 64.9218 82.6667 65.3485 82.24C65.7752 81.8027 65.9885 81.136 65.9885 80.24V76ZM70.8918 77.344C71.3504 76.352 72.1824 75.856 73.3878 75.856V77.312C72.7051 77.28 72.1184 77.4613 71.6278 77.856C71.1371 78.2507 70.8918 78.8853 70.8918 79.76V84H69.4998V76H70.8918V77.344ZM85.3738 76H86.7658V84H85.3738V82.624C84.6804 83.68 83.6724 84.208 82.3498 84.208C81.2298 84.208 80.2751 83.8027 79.4858 82.992C78.6964 82.1707 78.3018 81.1733 78.3018 80C78.3018 78.8267 78.6964 77.8347 79.4858 77.024C80.2751 76.2027 81.2298 75.792 82.3498 75.792C83.6724 75.792 84.6804 76.32 85.3738 77.376V76ZM82.5258 82.864C83.3364 82.864 84.0138 82.592 84.5578 82.048C85.1018 81.4933 85.3738 80.8107 85.3738 80C85.3738 79.1893 85.1018 78.512 84.5578 77.968C84.0138 77.4133 83.3364 77.136 82.5258 77.136C81.7258 77.136 81.0538 77.4133 80.5098 77.968C79.9658 78.512 79.6938 79.1893 79.6938 80C79.6938 80.8107 79.9658 81.4933 80.5098 82.048C81.0538 82.592 81.7258 82.864 82.5258 82.864ZM94.3948 76H95.7868V84H94.3948V82.848C93.8294 83.7547 92.9654 84.208 91.8028 84.208C90.8641 84.208 90.1121 83.9147 89.5468 83.328C88.9814 82.7307 88.6988 81.9253 88.6988 80.912V76H90.0908V80.832C90.0908 81.4827 90.2668 81.9893 90.6188 82.352C90.9708 82.704 91.4561 82.88 92.0748 82.88C92.7681 82.88 93.3281 82.6667 93.7548 82.24C94.1814 81.8027 94.3948 81.136 94.3948 80.24V76ZM104.53 72.8H105.922V84H104.53V82.624C103.837 83.68 102.829 84.208 101.506 84.208C100.386 84.208 99.4313 83.8027 98.642 82.992C97.8527 82.1707 97.458 81.1733 97.458 80C97.458 78.8267 97.8527 77.8347 98.642 77.024C99.4313 76.2027 100.386 75.792 101.506 75.792C102.829 75.792 103.837 76.32 104.53 77.376V72.8ZM101.682 82.864C102.493 82.864 103.17 82.592 103.714 82.048C104.258 81.4933 104.53 80.8107 104.53 80C104.53 79.1893 104.258 78.512 103.714 77.968C103.17 77.4133 102.493 77.136 101.682 77.136C100.882 77.136 100.21 77.4133 99.666 77.968C99.122 78.512 98.85 79.1893 98.85 80C98.85 80.8107 99.122 81.4933 99.666 82.048C100.21 82.592 100.882 82.864 101.682 82.864ZM108.735 74.544C108.468 74.544 108.244 74.4533 108.063 74.272C107.882 74.0907 107.791 73.872 107.791 73.616C107.791 73.36 107.882 73.1413 108.063 72.96C108.244 72.768 108.468 72.672 108.735 72.672C108.991 72.672 109.21 72.768 109.391 72.96C109.572 73.1413 109.663 73.36 109.663 73.616C109.663 73.872 109.572 74.0907 109.391 74.272C109.21 74.4533 108.991 74.544 108.735 74.544ZM108.031 84V76H109.423V84H108.031ZM112.523 80.64C112.661 81.3547 112.987 81.9093 113.499 82.304C114.021 82.6987 114.661 82.896 115.419 82.896C116.475 82.896 117.243 82.5067 117.723 81.728L118.907 82.4C118.128 83.6053 116.955 84.208 115.387 84.208C114.117 84.208 113.083 83.8133 112.283 83.024C111.493 82.224 111.099 81.216 111.099 80C111.099 78.7947 111.488 77.792 112.267 76.992C113.045 76.192 114.053 75.792 115.291 75.792C116.464 75.792 117.419 76.208 118.155 77.04C118.901 77.8613 119.275 78.8533 119.275 80.016C119.275 80.2187 119.259 80.4267 119.227 80.64H112.523ZM115.291 77.104C114.544 77.104 113.925 77.3173 113.435 77.744C112.944 78.16 112.64 78.72 112.523 79.424H117.867C117.749 78.6667 117.451 78.0907 116.971 77.696C116.491 77.3013 115.931 77.104 115.291 77.104ZM124.859 75.792C125.797 75.792 126.549 76.0907 127.115 76.688C127.68 77.2747 127.963 78.0747 127.963 79.088V84H126.571V79.168C126.571 78.5173 126.395 78.016 126.043 77.664C125.691 77.3013 125.205 77.12 124.587 77.12C123.893 77.12 123.333 77.3387 122.907 77.776C122.48 78.2027 122.267 78.864 122.267 79.76V84H120.875V76H122.267V77.152C122.832 76.2453 123.696 75.792 124.859 75.792ZM133.666 84.208C132.461 84.208 131.458 83.808 130.658 83.008C129.858 82.1973 129.458 81.1947 129.458 80C129.458 78.8053 129.858 77.808 130.658 77.008C131.458 76.1973 132.461 75.792 133.666 75.792C134.455 75.792 135.165 75.984 135.794 76.368C136.423 76.7413 136.893 77.248 137.202 77.888L136.034 78.56C135.831 78.1333 135.517 77.792 135.09 77.536C134.674 77.28 134.199 77.152 133.666 77.152C132.866 77.152 132.194 77.424 131.65 77.968C131.117 78.512 130.85 79.1893 130.85 80C130.85 80.8 131.117 81.472 131.65 82.016C132.194 82.56 132.866 82.832 133.666 82.832C134.199 82.832 134.679 82.7093 135.106 82.464C135.533 82.208 135.858 81.8667 136.082 81.44L137.266 82.128C136.925 82.7573 136.434 83.264 135.794 83.648C135.154 84.0213 134.445 84.208 133.666 84.208ZM139.507 80.64C139.646 81.3547 139.971 81.9093 140.483 82.304C141.006 82.6987 141.646 82.896 142.403 82.896C143.459 82.896 144.227 82.5067 144.707 81.728L145.891 82.4C145.112 83.6053 143.939 84.208 142.371 84.208C141.102 84.208 140.067 83.8133 139.267 83.024C138.478 82.224 138.083 81.216 138.083 80C138.083 78.7947 138.472 77.792 139.251 76.992C140.03 76.192 141.038 75.792 142.275 75.792C143.448 75.792 144.403 76.208 145.139 77.04C145.886 77.8613 146.259 78.8533 146.259 80.016C146.259 80.2187 146.243 80.4267 146.211 80.64H139.507ZM142.275 77.104C141.528 77.104 140.91 77.3173 140.419 77.744C139.928 78.16 139.624 78.72 139.507 79.424H144.851C144.734 78.6667 144.435 78.0907 143.955 77.696C143.475 77.3013 142.915 77.104 142.275 77.104ZM158.483 76H159.875V84H158.483V82.624C157.79 83.68 156.782 84.208 155.459 84.208C154.339 84.208 153.384 83.8027 152.595 82.992C151.806 82.1707 151.411 81.1733 151.411 80C151.411 78.8267 151.806 77.8347 152.595 77.024C153.384 76.2027 154.339 75.792 155.459 75.792C156.782 75.792 157.79 76.32 158.483 77.376V76ZM155.635 82.864C156.446 82.864 157.123 82.592 157.667 82.048C158.211 81.4933 158.483 80.8107 158.483 80C158.483 79.1893 158.211 78.512 157.667 77.968C157.123 77.4133 156.446 77.136 155.635 77.136C154.835 77.136 154.163 77.4133 153.619 77.968C153.075 78.512 152.803 79.1893 152.803 80C152.803 80.8107 153.075 81.4933 153.619 82.048C154.163 82.592 154.835 82.864 155.635 82.864ZM165.968 75.792C166.907 75.792 167.659 76.0907 168.224 76.688C168.789 77.2747 169.072 78.0747 169.072 79.088V84H167.68V79.168C167.68 78.5173 167.504 78.016 167.152 77.664C166.8 77.3013 166.315 77.12 165.696 77.12C165.003 77.12 164.443 77.3387 164.016 77.776C163.589 78.2027 163.376 78.864 163.376 79.76V84H161.984V76H163.376V77.152C163.941 76.2453 164.805 75.792 165.968 75.792ZM177.639 72.8H179.031V84H177.639V82.624C176.946 83.68 175.938 84.208 174.615 84.208C173.495 84.208 172.541 83.8027 171.751 82.992C170.962 82.1707 170.567 81.1733 170.567 80C170.567 78.8267 170.962 77.8347 171.751 77.024C172.541 76.2027 173.495 75.792 174.615 75.792C175.938 75.792 176.946 76.32 177.639 77.376V72.8ZM174.791 82.864C175.602 82.864 176.279 82.592 176.823 82.048C177.367 81.4933 177.639 80.8107 177.639 80C177.639 79.1893 177.367 78.512 176.823 77.968C176.279 77.4133 175.602 77.136 174.791 77.136C173.991 77.136 173.319 77.4133 172.775 77.968C172.231 78.512 171.959 79.1893 171.959 80C171.959 80.8107 172.231 81.4933 172.775 82.048C173.319 82.592 173.991 82.864 174.791 82.864ZM188.9 84.208C187.695 84.208 186.692 83.808 185.892 83.008C185.092 82.1973 184.692 81.1947 184.692 80C184.692 78.8053 185.092 77.808 185.892 77.008C186.692 76.1973 187.695 75.792 188.9 75.792C189.69 75.792 190.399 75.984 191.028 76.368C191.658 76.7413 192.127 77.248 192.436 77.888L191.268 78.56C191.066 78.1333 190.751 77.792 190.324 77.536C189.908 77.28 189.434 77.152 188.9 77.152C188.1 77.152 187.428 77.424 186.884 77.968C186.351 78.512 186.084 79.1893 186.084 80C186.084 80.8 186.351 81.472 186.884 82.016C187.428 82.56 188.1 82.832 188.9 82.832C189.434 82.832 189.914 82.7093 190.34 82.464C190.767 82.208 191.092 81.8667 191.316 81.44L192.5 82.128C192.159 82.7573 191.668 83.264 191.028 83.648C190.388 84.0213 189.679 84.208 188.9 84.208ZM199.41 76H200.802V84H199.41V82.848C198.845 83.7547 197.981 84.208 196.818 84.208C195.88 84.208 195.128 83.9147 194.562 83.328C193.997 82.7307 193.714 81.9253 193.714 80.912V76H195.106V80.832C195.106 81.4827 195.282 81.9893 195.634 82.352C195.986 82.704 196.472 82.88 197.09 82.88C197.784 82.88 198.344 82.6667 198.77 82.24C199.197 81.8027 199.41 81.136 199.41 80.24V76ZM204.106 78.16C204.106 78.4693 204.261 78.72 204.57 78.912C204.879 79.0933 205.253 79.2427 205.69 79.36C206.127 79.4667 206.565 79.5947 207.002 79.744C207.439 79.8827 207.813 80.128 208.122 80.48C208.431 80.8213 208.586 81.264 208.586 81.808C208.586 82.5333 208.303 83.1147 207.738 83.552C207.183 83.9893 206.469 84.208 205.594 84.208C204.815 84.208 204.149 84.0373 203.594 83.696C203.039 83.3547 202.645 82.9013 202.41 82.336L203.61 81.648C203.738 82.032 203.978 82.336 204.33 82.56C204.682 82.784 205.103 82.896 205.594 82.896C206.053 82.896 206.431 82.8107 206.73 82.64C207.029 82.4587 207.178 82.1813 207.178 81.808C207.178 81.4987 207.023 81.2533 206.714 81.072C206.405 80.88 206.031 80.7307 205.594 80.624C205.157 80.5067 204.719 80.3733 204.282 80.224C203.845 80.0747 203.471 79.8293 203.162 79.488C202.853 79.1467 202.698 78.7093 202.698 78.176C202.698 77.4827 202.965 76.912 203.498 76.464C204.042 76.016 204.719 75.792 205.53 75.792C206.181 75.792 206.757 75.9413 207.258 76.24C207.77 76.528 208.154 76.9333 208.41 77.456L207.242 78.112C206.954 77.4293 206.383 77.088 205.53 77.088C205.135 77.088 204.799 77.184 204.522 77.376C204.245 77.5573 204.106 77.8187 204.106 78.16ZM214.274 77.344H212.146V81.68C212.146 82.0747 212.22 82.3573 212.37 82.528C212.53 82.688 212.77 82.7733 213.09 82.784C213.41 82.784 213.804 82.7733 214.274 82.752V84C213.058 84.16 212.167 84.064 211.602 83.712C211.036 83.3493 210.754 82.672 210.754 81.68V77.344H209.17V76H210.754V74.176L212.146 73.76V76H214.274V77.344ZM222.267 82.992C221.446 83.8027 220.449 84.208 219.275 84.208C218.102 84.208 217.105 83.8027 216.283 82.992C215.473 82.1813 215.067 81.184 215.067 80C215.067 78.816 215.473 77.8187 216.283 77.008C217.105 76.1973 218.102 75.792 219.275 75.792C220.449 75.792 221.446 76.1973 222.267 77.008C223.089 77.8187 223.499 78.816 223.499 80C223.499 81.184 223.089 82.1813 222.267 82.992ZM219.275 82.848C220.075 82.848 220.747 82.576 221.291 82.032C221.835 81.488 222.107 80.8107 222.107 80C222.107 79.1893 221.835 78.512 221.291 77.968C220.747 77.424 220.075 77.152 219.275 77.152C218.486 77.152 217.819 77.424 217.275 77.968C216.731 78.512 216.459 79.1893 216.459 80C216.459 80.8107 216.731 81.488 217.275 82.032C217.819 82.576 218.486 82.848 219.275 82.848ZM233.78 75.792C234.676 75.792 235.402 76.0853 235.956 76.672C236.511 77.248 236.788 78.032 236.788 79.024V84H235.396V79.072C235.396 78.4533 235.236 77.9733 234.916 77.632C234.596 77.2907 234.17 77.12 233.636 77.12C233.039 77.12 232.559 77.3227 232.196 77.728C231.844 78.1227 231.668 78.7307 231.668 79.552V84H230.276V79.072C230.276 78.4533 230.122 77.9733 229.812 77.632C229.514 77.2907 229.103 77.12 228.58 77.12C227.994 77.12 227.503 77.3227 227.108 77.728C226.724 78.1333 226.532 78.7413 226.532 79.552V84H225.14V76H226.532V77.072C227.076 76.2187 227.871 75.792 228.916 75.792C229.994 75.792 230.778 76.2453 231.268 77.152C231.823 76.2453 232.66 75.792 233.78 75.792ZM239.695 80.64C239.833 81.3547 240.159 81.9093 240.671 82.304C241.193 82.6987 241.833 82.896 242.591 82.896C243.647 82.896 244.415 82.5067 244.895 81.728L246.079 82.4C245.3 83.6053 244.127 84.208 242.559 84.208C241.289 84.208 240.255 83.8133 239.455 83.024C238.665 82.224 238.271 81.216 238.271 80C238.271 78.7947 238.66 77.792 239.439 76.992C240.217 76.192 241.225 75.792 242.463 75.792C243.636 75.792 244.591 76.208 245.327 77.04C246.073 77.8613 246.447 78.8533 246.447 80.016C246.447 80.2187 246.431 80.4267 246.399 80.64H239.695ZM242.463 77.104C241.716 77.104 241.097 77.3173 240.607 77.744C240.116 78.16 239.812 78.72 239.695 79.424H245.039C244.921 78.6667 244.623 78.0907 244.143 77.696C243.663 77.3013 243.103 77.104 242.463 77.104ZM249.439 77.344C249.897 76.352 250.729 75.856 251.935 75.856V77.312C251.252 77.28 250.665 77.4613 250.175 77.856C249.684 78.2507 249.439 78.8853 249.439 79.76V84H248.047V76H249.439V77.344ZM254.2 78.16C254.2 78.4693 254.354 78.72 254.664 78.912C254.973 79.0933 255.346 79.2427 255.784 79.36C256.221 79.4667 256.658 79.5947 257.096 79.744C257.533 79.8827 257.906 80.128 258.216 80.48C258.525 80.8213 258.68 81.264 258.68 81.808C258.68 82.5333 258.397 83.1147 257.832 83.552C257.277 83.9893 256.562 84.208 255.688 84.208C254.909 84.208 254.242 84.0373 253.688 83.696C253.133 83.3547 252.738 82.9013 252.504 82.336L253.704 81.648C253.832 82.032 254.072 82.336 254.424 82.56C254.776 82.784 255.197 82.896 255.688 82.896C256.146 82.896 256.525 82.8107 256.824 82.64C257.122 82.4587 257.272 82.1813 257.272 81.808C257.272 81.4987 257.117 81.2533 256.808 81.072C256.498 80.88 256.125 80.7307 255.688 80.624C255.25 80.5067 254.813 80.3733 254.376 80.224C253.938 80.0747 253.565 79.8293 253.256 79.488C252.946 79.1467 252.792 78.7093 252.792 78.176C252.792 77.4827 253.058 76.912 253.592 76.464C254.136 76.016 254.813 75.792 255.624 75.792C256.274 75.792 256.85 75.9413 257.352 76.24C257.864 76.528 258.248 76.9333 258.504 77.456L257.336 78.112C257.048 77.4293 256.477 77.088 255.624 77.088C255.229 77.088 254.893 77.184 254.616 77.376C254.338 77.5573 254.2 77.8187 254.2 78.16ZM268.68 77.344H266.552V81.68C266.552 82.0747 266.627 82.3573 266.776 82.528C266.936 82.688 267.176 82.7733 267.496 82.784C267.816 82.784 268.211 82.7733 268.68 82.752V84C267.464 84.16 266.573 84.064 266.008 83.712C265.443 83.3493 265.16 82.672 265.16 81.68V77.344H263.576V76H265.16V74.176L266.552 73.76V76H268.68V77.344ZM276.674 82.992C275.852 83.8027 274.855 84.208 273.682 84.208C272.508 84.208 271.511 83.8027 270.69 82.992C269.879 82.1813 269.474 81.184 269.474 80C269.474 78.816 269.879 77.8187 270.69 77.008C271.511 76.1973 272.508 75.792 273.682 75.792C274.855 75.792 275.852 76.1973 276.674 77.008C277.495 77.8187 277.906 78.816 277.906 80C277.906 81.184 277.495 82.1813 276.674 82.992ZM273.682 82.848C274.482 82.848 275.154 82.576 275.698 82.032C276.242 81.488 276.514 80.8107 276.514 80C276.514 79.1893 276.242 78.512 275.698 77.968C275.154 77.424 274.482 77.152 273.682 77.152C272.892 77.152 272.226 77.424 271.682 77.968C271.138 78.512 270.866 79.1893 270.866 80C270.866 80.8107 271.138 81.488 271.682 82.032C272.226 82.576 272.892 82.848 273.682 82.848ZM289.131 76H290.619L287.355 84.496C287.013 85.4027 286.533 86.0907 285.915 86.56C285.307 87.04 284.603 87.2533 283.803 87.2V85.904C284.784 85.9787 285.504 85.4347 285.963 84.272L286.107 83.968L282.619 76H284.107L286.827 82.272L289.131 76ZM298.221 82.992C297.399 83.8027 296.402 84.208 295.229 84.208C294.055 84.208 293.058 83.8027 292.237 82.992C291.426 82.1813 291.021 81.184 291.021 80C291.021 78.816 291.426 77.8187 292.237 77.008C293.058 76.1973 294.055 75.792 295.229 75.792C296.402 75.792 297.399 76.1973 298.221 77.008C299.042 77.8187 299.453 78.816 299.453 80C299.453 81.184 299.042 82.1813 298.221 82.992ZM295.229 82.848C296.029 82.848 296.701 82.576 297.245 82.032C297.789 81.488 298.061 80.8107 298.061 80C298.061 79.1893 297.789 78.512 297.245 77.968C296.701 77.424 296.029 77.152 295.229 77.152C294.439 77.152 293.773 77.424 293.229 77.968C292.685 78.512 292.413 79.1893 292.413 80C292.413 80.8107 292.685 81.488 293.229 82.032C293.773 82.576 294.439 82.848 295.229 82.848ZM306.614 76H308.006V84H306.614V82.848C306.048 83.7547 305.184 84.208 304.022 84.208C303.083 84.208 302.331 83.9147 301.766 83.328C301.2 82.7307 300.918 81.9253 300.918 80.912V76H302.31V80.832C302.31 81.4827 302.486 81.9893 302.838 82.352C303.19 82.704 303.675 82.88 304.294 82.88C304.987 82.88 305.547 82.6667 305.974 82.24C306.4 81.8027 306.614 81.136 306.614 80.24V76ZM311.517 77.344C311.975 76.352 312.807 75.856 314.013 75.856V77.312C313.33 77.28 312.743 77.4613 312.253 77.856C311.762 78.2507 311.517 78.8853 311.517 79.76V84H310.125V76H311.517V77.344ZM7.78001 96.8H9.17201V108H7.78001V106.624C7.08667 107.68 6.07867 108.208 4.75601 108.208C3.63601 108.208 2.68134 107.803 1.89201 106.992C1.10267 106.171 0.708006 105.173 0.708006 104C0.708006 102.827 1.10267 101.835 1.89201 101.024C2.68134 100.203 3.63601 99.792 4.75601 99.792C6.07867 99.792 7.08667 100.32 7.78001 101.376V96.8ZM4.93201 106.864C5.74267 106.864 6.42001 106.592 6.96401 106.048C7.50801 105.493 7.78001 104.811 7.78001 104C7.78001 103.189 7.50801 102.512 6.96401 101.968C6.42001 101.413 5.74267 101.136 4.93201 101.136C4.13201 101.136 3.46001 101.413 2.91601 101.968C2.37201 102.512 2.10001 103.189 2.10001 104C2.10001 104.811 2.37201 105.493 2.91601 106.048C3.46001 106.592 4.13201 106.864 4.93201 106.864ZM18.033 106.992C17.2117 107.803 16.2143 108.208 15.041 108.208C13.8677 108.208 12.8703 107.803 12.049 106.992C11.2383 106.181 10.833 105.184 10.833 104C10.833 102.816 11.2383 101.819 12.049 101.008C12.8703 100.197 13.8677 99.792 15.041 99.792C16.2143 99.792 17.2117 100.197 18.033 101.008C18.8543 101.819 19.265 102.816 19.265 104C19.265 105.184 18.8543 106.181 18.033 106.992ZM15.041 106.848C15.841 106.848 16.513 106.576 17.057 106.032C17.601 105.488 17.873 104.811 17.873 104C17.873 103.189 17.601 102.512 17.057 101.968C16.513 101.424 15.841 101.152 15.041 101.152C14.2517 101.152 13.585 101.424 13.041 101.968C12.497 102.512 12.225 103.189 12.225 104C12.225 104.811 12.497 105.488 13.041 106.032C13.585 106.576 14.2517 106.848 15.041 106.848ZM27.658 106.992C26.8367 107.803 25.8393 108.208 24.666 108.208C23.4927 108.208 22.4953 107.803 21.674 106.992C20.8633 106.181 20.458 105.184 20.458 104C20.458 102.816 20.8633 101.819 21.674 101.008C22.4953 100.197 23.4927 99.792 24.666 99.792C25.8393 99.792 26.8367 100.197 27.658 101.008C28.4793 101.819 28.89 102.816 28.89 104C28.89 105.184 28.4793 106.181 27.658 106.992ZM24.666 106.848C25.466 106.848 26.138 106.576 26.682 106.032C27.226 105.488 27.498 104.811 27.498 104C27.498 103.189 27.226 102.512 26.682 101.968C26.138 101.424 25.466 101.152 24.666 101.152C23.8767 101.152 23.21 101.424 22.666 101.968C22.122 102.512 21.85 103.189 21.85 104C21.85 104.811 22.122 105.488 22.666 106.032C23.21 106.576 23.8767 106.848 24.666 106.848ZM31.923 101.344C32.3817 100.352 33.2137 99.856 34.419 99.856V101.312C33.7363 101.28 33.1497 101.461 32.659 101.856C32.1683 102.251 31.923 102.885 31.923 103.76V108H30.531V100H31.923V101.344ZM36.6841 102.16C36.6841 102.469 36.8388 102.72 37.1481 102.912C37.4575 103.093 37.8308 103.243 38.2681 103.36C38.7055 103.467 39.1428 103.595 39.5801 103.744C40.0175 103.883 40.3908 104.128 40.7001 104.48C41.0095 104.821 41.1641 105.264 41.1641 105.808C41.1641 106.533 40.8815 107.115 40.3161 107.552C39.7615 107.989 39.0468 108.208 38.1721 108.208C37.3935 108.208 36.7268 108.037 36.1721 107.696C35.6175 107.355 35.2228 106.901 34.9881 106.336L36.1881 105.648C36.3161 106.032 36.5561 106.336 36.9081 106.56C37.2601 106.784 37.6815 106.896 38.1721 106.896C38.6308 106.896 39.0095 106.811 39.3081 106.64C39.6068 106.459 39.7561 106.181 39.7561 105.808C39.7561 105.499 39.6015 105.253 39.2921 105.072C38.9828 104.88 38.6095 104.731 38.1721 104.624C37.7348 104.507 37.2975 104.373 36.8601 104.224C36.4228 104.075 36.0495 103.829 35.7401 103.488C35.4308 103.147 35.2761 102.709 35.2761 102.176C35.2761 101.483 35.5428 100.912 36.0761 100.464C36.6201 100.016 37.2975 99.792 38.1081 99.792C38.7588 99.792 39.3348 99.9413 39.8361 100.24C40.3481 100.528 40.7321 100.933 40.9881 101.456L39.8201 102.112C39.5321 101.429 38.9615 101.088 38.1081 101.088C37.7135 101.088 37.3775 101.184 37.1001 101.376C36.8228 101.557 36.6841 101.819 36.6841 102.16ZM46.8518 101.344H44.7238V105.68C44.7238 106.075 44.7984 106.357 44.9478 106.528C45.1078 106.688 45.3478 106.773 45.6678 106.784C45.9878 106.784 46.3824 106.773 46.8518 106.752V108C45.6358 108.16 44.7451 108.064 44.1798 107.712C43.6144 107.349 43.3318 106.672 43.3318 105.68V101.344H41.7478V100H43.3318V98.176L44.7238 97.76V100H46.8518V101.344ZM49.0695 104.64C49.2082 105.355 49.5335 105.909 50.0455 106.304C50.5682 106.699 51.2082 106.896 51.9655 106.896C53.0215 106.896 53.7895 106.507 54.2695 105.728L55.4535 106.4C54.6748 107.605 53.5015 108.208 51.9335 108.208C50.6642 108.208 49.6295 107.813 48.8295 107.024C48.0402 106.224 47.6455 105.216 47.6455 104C47.6455 102.795 48.0348 101.792 48.8135 100.992C49.5922 100.192 50.6002 99.792 51.8375 99.792C53.0108 99.792 53.9655 100.208 54.7015 101.04C55.4482 101.861 55.8215 102.853 55.8215 104.016C55.8215 104.219 55.8055 104.427 55.7735 104.64H49.0695ZM51.8375 101.104C51.0908 101.104 50.4722 101.317 49.9815 101.744C49.4908 102.16 49.1868 102.72 49.0695 103.424H54.4135C54.2962 102.667 53.9975 102.091 53.5175 101.696C53.0375 101.301 52.4775 101.104 51.8375 101.104ZM61.8376 99.792C62.9576 99.792 63.9123 100.203 64.7016 101.024C65.491 101.835 65.8856 102.827 65.8856 104C65.8856 105.173 65.491 106.171 64.7016 106.992C63.9123 107.803 62.9576 108.208 61.8376 108.208C60.515 108.208 59.507 107.68 58.8136 106.624V111.2H57.4216V100H58.8136V101.376C59.507 100.32 60.515 99.792 61.8376 99.792ZM61.6616 106.864C62.4616 106.864 63.1336 106.592 63.6776 106.048C64.2216 105.493 64.4936 104.811 64.4936 104C64.4936 103.189 64.2216 102.512 63.6776 101.968C63.1336 101.413 62.4616 101.136 61.6616 101.136C60.851 101.136 60.1736 101.413 59.6296 101.968C59.0856 102.512 58.8136 103.189 58.8136 104C58.8136 104.811 59.0856 105.493 59.6296 106.048C60.1736 106.592 60.851 106.864 61.6616 106.864ZM80.9706 100H82.4266L79.9466 108H78.5226L76.6506 102.08L74.7786 108H73.3546L70.8746 100H72.3306L74.0906 106.08L75.9786 100H77.3226L79.2106 106.096L80.9706 100ZM84.5631 98.544C84.2965 98.544 84.0725 98.4533 83.8911 98.272C83.7098 98.0907 83.6191 97.872 83.6191 97.616C83.6191 97.36 83.7098 97.1413 83.8911 96.96C84.0725 96.768 84.2965 96.672 84.5631 96.672C84.8191 96.672 85.0378 96.768 85.2191 96.96C85.4005 97.1413 85.4911 97.36 85.4911 97.616C85.4911 97.872 85.4005 98.0907 85.2191 98.272C85.0378 98.4533 84.8191 98.544 84.5631 98.544ZM83.8591 108V100H85.2511V108H83.8591ZM91.7268 101.344H89.5988V105.68C89.5988 106.075 89.6734 106.357 89.8228 106.528C89.9828 106.688 90.2228 106.773 90.5428 106.784C90.8628 106.784 91.2574 106.773 91.7268 106.752V108C90.5108 108.16 89.6201 108.064 89.0548 107.712C88.4894 107.349 88.2068 106.672 88.2068 105.68V101.344H86.6228V100H88.2068V98.176L89.5988 97.76V100H91.7268V101.344ZM97.3588 99.792C98.2974 99.792 99.0494 100.091 99.6148 100.688C100.18 101.275 100.463 102.075 100.463 103.088V108H99.0708V103.168C99.0708 102.517 98.8948 102.016 98.5428 101.664C98.1908 101.301 97.7054 101.12 97.0868 101.12C96.3934 101.12 95.8334 101.339 95.4068 101.776C94.9801 102.203 94.7668 102.864 94.7668 103.76V108H93.3748V96.8H94.7668V101.152C95.3321 100.245 96.1961 99.792 97.3588 99.792ZM110.758 101.344H108.63V105.68C108.63 106.075 108.705 106.357 108.854 106.528C109.014 106.688 109.254 106.773 109.574 106.784C109.894 106.784 110.289 106.773 110.758 106.752V108C109.542 108.16 108.651 108.064 108.086 107.712C107.521 107.349 107.238 106.672 107.238 105.68V101.344H105.654V100H107.238V98.176L108.63 97.76V100H110.758V101.344ZM116.39 99.792C117.329 99.792 118.081 100.091 118.646 100.688C119.211 101.275 119.494 102.075 119.494 103.088V108H118.102V103.168C118.102 102.517 117.926 102.016 117.574 101.664C117.222 101.301 116.737 101.12 116.118 101.12C115.425 101.12 114.865 101.339 114.438 101.776C114.011 102.203 113.798 102.864 113.798 103.76V108H112.406V96.8H113.798V101.152C114.363 100.245 115.227 99.792 116.39 99.792ZM122.141 98.544C121.875 98.544 121.651 98.4533 121.469 98.272C121.288 98.0907 121.197 97.872 121.197 97.616C121.197 97.36 121.288 97.1413 121.469 96.96C121.651 96.768 121.875 96.672 122.141 96.672C122.397 96.672 122.616 96.768 122.797 96.96C122.979 97.1413 123.069 97.36 123.069 97.616C123.069 97.872 122.979 98.0907 122.797 98.272C122.616 98.4533 122.397 98.544 122.141 98.544ZM121.437 108V100H122.829V108H121.437ZM126.137 102.16C126.137 102.469 126.292 102.72 126.601 102.912C126.911 103.093 127.284 103.243 127.721 103.36C128.159 103.467 128.596 103.595 129.033 103.744C129.471 103.883 129.844 104.128 130.153 104.48C130.463 104.821 130.617 105.264 130.617 105.808C130.617 106.533 130.335 107.115 129.769 107.552C129.215 107.989 128.5 108.208 127.625 108.208C126.847 108.208 126.18 108.037 125.625 107.696C125.071 107.355 124.676 106.901 124.441 106.336L125.641 105.648C125.769 106.032 126.009 106.336 126.361 106.56C126.713 106.784 127.135 106.896 127.625 106.896C128.084 106.896 128.463 106.811 128.761 106.64C129.06 106.459 129.209 106.181 129.209 105.808C129.209 105.499 129.055 105.253 128.745 105.072C128.436 104.88 128.063 104.731 127.625 104.624C127.188 104.507 126.751 104.373 126.313 104.224C125.876 104.075 125.503 103.829 125.193 103.488C124.884 103.147 124.729 102.709 124.729 102.176C124.729 101.483 124.996 100.912 125.529 100.464C126.073 100.016 126.751 99.792 127.561 99.792C128.212 99.792 128.788 99.9413 129.289 100.24C129.801 100.528 130.185 100.933 130.441 101.456L129.273 102.112C128.985 101.429 128.415 101.088 127.561 101.088C127.167 101.088 126.831 101.184 126.553 101.376C126.276 101.557 126.137 101.819 126.137 102.16ZM137.465 102.16C137.465 102.469 137.62 102.72 137.929 102.912C138.239 103.093 138.612 103.243 139.049 103.36C139.487 103.467 139.924 103.595 140.361 103.744C140.799 103.883 141.172 104.128 141.481 104.48C141.791 104.821 141.945 105.264 141.945 105.808C141.945 106.533 141.663 107.115 141.097 107.552C140.543 107.989 139.828 108.208 138.953 108.208C138.175 108.208 137.508 108.037 136.953 107.696C136.399 107.355 136.004 106.901 135.769 106.336L136.969 105.648C137.097 106.032 137.337 106.336 137.689 106.56C138.041 106.784 138.463 106.896 138.953 106.896C139.412 106.896 139.791 106.811 140.089 106.64C140.388 106.459 140.537 106.181 140.537 105.808C140.537 105.499 140.383 105.253 140.073 105.072C139.764 104.88 139.391 104.731 138.953 104.624C138.516 104.507 138.079 104.373 137.641 104.224C137.204 104.075 136.831 103.829 136.521 103.488C136.212 103.147 136.057 102.709 136.057 102.176C136.057 101.483 136.324 100.912 136.857 100.464C137.401 100.016 138.079 99.792 138.889 99.792C139.54 99.792 140.116 99.9413 140.617 100.24C141.129 100.528 141.513 100.933 141.769 101.456L140.601 102.112C140.313 101.429 139.743 101.088 138.889 101.088C138.495 101.088 138.159 101.184 137.881 101.376C137.604 101.557 137.465 101.819 137.465 102.16ZM147.135 108.208C145.929 108.208 144.927 107.808 144.127 107.008C143.327 106.197 142.927 105.195 142.927 104C142.927 102.805 143.327 101.808 144.127 101.008C144.927 100.197 145.929 99.792 147.135 99.792C147.924 99.792 148.633 99.984 149.263 100.368C149.892 100.741 150.361 101.248 150.671 101.888L149.503 102.56C149.3 102.133 148.985 101.792 148.559 101.536C148.143 101.28 147.668 101.152 147.135 101.152C146.335 101.152 145.663 101.424 145.119 101.968C144.585 102.512 144.319 103.189 144.319 104C144.319 104.8 144.585 105.472 145.119 106.016C145.663 106.56 146.335 106.832 147.135 106.832C147.668 106.832 148.148 106.709 148.575 106.464C149.001 106.208 149.327 105.867 149.551 105.44L150.735 106.128C150.393 106.757 149.903 107.264 149.263 107.648C148.623 108.021 147.913 108.208 147.135 108.208ZM158.624 100H160.016V108H158.624V106.624C157.93 107.68 156.922 108.208 155.6 108.208C154.48 108.208 153.525 107.803 152.736 106.992C151.946 106.171 151.552 105.173 151.552 104C151.552 102.827 151.946 101.835 152.736 101.024C153.525 100.203 154.48 99.792 155.6 99.792C156.922 99.792 157.93 100.32 158.624 101.376V100ZM155.776 106.864C156.586 106.864 157.264 106.592 157.808 106.048C158.352 105.493 158.624 104.811 158.624 104C158.624 103.189 158.352 102.512 157.808 101.968C157.264 101.413 156.586 101.136 155.776 101.136C154.976 101.136 154.304 101.413 153.76 101.968C153.216 102.512 152.944 103.189 152.944 104C152.944 104.811 153.216 105.493 153.76 106.048C154.304 106.592 154.976 106.864 155.776 106.864ZM166.109 99.792C167.047 99.792 167.799 100.091 168.365 100.688C168.93 101.275 169.213 102.075 169.213 103.088V108H167.821V103.168C167.821 102.517 167.645 102.016 167.293 101.664C166.941 101.301 166.455 101.12 165.837 101.12C165.143 101.12 164.583 101.339 164.157 101.776C163.73 102.203 163.517 102.864 163.517 103.76V108H162.125V100H163.517V101.152C164.082 100.245 164.946 99.792 166.109 99.792ZM181.78 100H183.172V108H181.78V106.624C181.087 107.68 180.079 108.208 178.756 108.208C177.636 108.208 176.681 107.803 175.892 106.992C175.103 106.171 174.708 105.173 174.708 104C174.708 102.827 175.103 101.835 175.892 101.024C176.681 100.203 177.636 99.792 178.756 99.792C180.079 99.792 181.087 100.32 181.78 101.376V100ZM178.932 106.864C179.743 106.864 180.42 106.592 180.964 106.048C181.508 105.493 181.78 104.811 181.78 104C181.78 103.189 181.508 102.512 180.964 101.968C180.42 101.413 179.743 101.136 178.932 101.136C178.132 101.136 177.46 101.413 176.916 101.968C176.372 102.512 176.1 103.189 176.1 104C176.1 104.811 176.372 105.493 176.916 106.048C177.46 106.592 178.132 106.864 178.932 106.864ZM189.265 99.792C190.204 99.792 190.956 100.091 191.521 100.688C192.086 101.275 192.369 102.075 192.369 103.088V108H190.977V103.168C190.977 102.517 190.801 102.016 190.449 101.664C190.097 101.301 189.612 101.12 188.993 101.12C188.3 101.12 187.74 101.339 187.313 101.776C186.886 102.203 186.673 102.864 186.673 103.76V108H185.281V100H186.673V101.152C187.238 100.245 188.102 99.792 189.265 99.792ZM200.936 96.8H202.328V108H200.936V106.624C200.243 107.68 199.235 108.208 197.912 108.208C196.792 108.208 195.838 107.803 195.048 106.992C194.259 106.171 193.864 105.173 193.864 104C193.864 102.827 194.259 101.835 195.048 101.024C195.838 100.203 196.792 99.792 197.912 99.792C199.235 99.792 200.243 100.32 200.936 101.376V96.8ZM198.088 106.864C198.899 106.864 199.576 106.592 200.12 106.048C200.664 105.493 200.936 104.811 200.936 104C200.936 103.189 200.664 102.512 200.12 101.968C199.576 101.413 198.899 101.136 198.088 101.136C197.288 101.136 196.616 101.413 196.072 101.968C195.528 102.512 195.256 103.189 195.256 104C195.256 104.811 195.528 105.493 196.072 106.048C196.616 106.592 197.288 106.864 198.088 106.864ZM215.077 100H216.453V107.664C216.453 108.848 216.053 109.765 215.253 110.416C214.453 111.077 213.493 111.408 212.373 111.408C211.477 111.408 210.704 111.237 210.053 110.896C209.403 110.565 208.912 110.085 208.581 109.456L209.797 108.768C210.235 109.664 211.104 110.112 212.405 110.112C213.237 110.112 213.888 109.893 214.357 109.456C214.837 109.019 215.077 108.421 215.077 107.664V106.528C214.373 107.595 213.371 108.128 212.069 108.128C210.928 108.128 209.963 107.723 209.173 106.912C208.384 106.101 207.989 105.115 207.989 103.952C207.989 102.789 208.384 101.808 209.173 101.008C209.963 100.197 210.928 99.792 212.069 99.792C213.381 99.792 214.384 100.32 215.077 101.376V100ZM210.197 105.984C210.741 106.528 211.419 106.8 212.229 106.8C213.04 106.8 213.717 106.528 214.261 105.984C214.805 105.44 215.077 104.763 215.077 103.952C215.077 103.152 214.805 102.48 214.261 101.936C213.717 101.392 213.04 101.12 212.229 101.12C211.419 101.12 210.741 101.392 210.197 101.936C209.653 102.48 209.381 103.152 209.381 103.952C209.381 104.763 209.653 105.44 210.197 105.984ZM225.314 106.992C224.493 107.803 223.496 108.208 222.322 108.208C221.149 108.208 220.152 107.803 219.33 106.992C218.52 106.181 218.114 105.184 218.114 104C218.114 102.816 218.52 101.819 219.33 101.008C220.152 100.197 221.149 99.792 222.322 99.792C223.496 99.792 224.493 100.197 225.314 101.008C226.136 101.819 226.546 102.816 226.546 104C226.546 105.184 226.136 106.181 225.314 106.992ZM222.322 106.848C223.122 106.848 223.794 106.576 224.338 106.032C224.882 105.488 225.154 104.811 225.154 104C225.154 103.189 224.882 102.512 224.338 101.968C223.794 101.424 223.122 101.152 222.322 101.152C221.533 101.152 220.866 101.424 220.322 101.968C219.778 102.512 219.506 103.189 219.506 104C219.506 104.811 219.778 105.488 220.322 106.032C220.866 106.576 221.533 106.848 222.322 106.848ZM233.387 102.16C233.387 102.469 233.542 102.72 233.851 102.912C234.161 103.093 234.534 103.243 234.971 103.36C235.409 103.467 235.846 103.595 236.283 103.744C236.721 103.883 237.094 104.128 237.403 104.48C237.713 104.821 237.867 105.264 237.867 105.808C237.867 106.533 237.585 107.115 237.019 107.552C236.465 107.989 235.75 108.208 234.875 108.208C234.097 108.208 233.43 108.037 232.875 107.696C232.321 107.355 231.926 106.901 231.691 106.336L232.891 105.648C233.019 106.032 233.259 106.336 233.611 106.56C233.963 106.784 234.385 106.896 234.875 106.896C235.334 106.896 235.713 106.811 236.011 106.64C236.31 106.459 236.459 106.181 236.459 105.808C236.459 105.499 236.305 105.253 235.995 105.072C235.686 104.88 235.313 104.731 234.875 104.624C234.438 104.507 234.001 104.373 233.563 104.224C233.126 104.075 232.753 103.829 232.443 103.488C232.134 103.147 231.979 102.709 231.979 102.176C231.979 101.483 232.246 100.912 232.779 100.464C233.323 100.016 234.001 99.792 234.811 99.792C235.462 99.792 236.038 99.9413 236.539 100.24C237.051 100.528 237.435 100.933 237.691 101.456L236.523 102.112C236.235 101.429 235.665 101.088 234.811 101.088C234.417 101.088 234.081 101.184 233.803 101.376C233.526 101.557 233.387 101.819 233.387 102.16ZM246.049 106.992C245.227 107.803 244.23 108.208 243.057 108.208C241.883 108.208 240.886 107.803 240.065 106.992C239.254 106.181 238.849 105.184 238.849 104C238.849 102.816 239.254 101.819 240.065 101.008C240.886 100.197 241.883 99.792 243.057 99.792C244.23 99.792 245.227 100.197 246.049 101.008C246.87 101.819 247.281 102.816 247.281 104C247.281 105.184 246.87 106.181 246.049 106.992ZM243.057 106.848C243.857 106.848 244.529 106.576 245.073 106.032C245.617 105.488 245.889 104.811 245.889 104C245.889 103.189 245.617 102.512 245.073 101.968C244.529 101.424 243.857 101.152 243.057 101.152C242.267 101.152 241.601 101.424 241.057 101.968C240.513 102.512 240.241 103.189 240.241 104C240.241 104.811 240.513 105.488 241.057 106.032C241.601 106.576 242.267 106.848 243.057 106.848ZM248.922 108V96.32H250.314V108H248.922ZM257.957 100H259.349V108H257.957V106.848C257.392 107.755 256.528 108.208 255.365 108.208C254.427 108.208 253.675 107.915 253.109 107.328C252.544 106.731 252.261 105.925 252.261 104.912V100H253.653V104.832C253.653 105.483 253.829 105.989 254.181 106.352C254.533 106.704 255.019 106.88 255.637 106.88C256.331 106.88 256.891 106.667 257.317 106.24C257.744 105.803 257.957 105.136 257.957 104.24V100ZM265.821 101.344H263.693V105.68C263.693 106.075 263.767 106.357 263.917 106.528C264.077 106.688 264.317 106.773 264.637 106.784C264.957 106.784 265.351 106.773 265.821 106.752V108C264.605 108.16 263.714 108.064 263.149 107.712C262.583 107.349 262.301 106.672 262.301 105.68V101.344H260.717V100H262.301V98.176L263.693 97.76V100H265.821V101.344ZM268.173 98.544C267.906 98.544 267.682 98.4533 267.501 98.272C267.319 98.0907 267.229 97.872 267.229 97.616C267.229 97.36 267.319 97.1413 267.501 96.96C267.682 96.768 267.906 96.672 268.173 96.672C268.429 96.672 268.647 96.768 268.829 96.96C269.01 97.1413 269.101 97.36 269.101 97.616C269.101 97.872 269.01 98.0907 268.829 98.272C268.647 98.4533 268.429 98.544 268.173 98.544ZM267.469 108V100H268.861V108H267.469ZM277.736 106.992C276.915 107.803 275.917 108.208 274.744 108.208C273.571 108.208 272.573 107.803 271.752 106.992C270.941 106.181 270.536 105.184 270.536 104C270.536 102.816 270.941 101.819 271.752 101.008C272.573 100.197 273.571 99.792 274.744 99.792C275.917 99.792 276.915 100.197 277.736 101.008C278.557 101.819 278.968 102.816 278.968 104C278.968 105.184 278.557 106.181 277.736 106.992ZM274.744 106.848C275.544 106.848 276.216 106.576 276.76 106.032C277.304 105.488 277.576 104.811 277.576 104C277.576 103.189 277.304 102.512 276.76 101.968C276.216 101.424 275.544 101.152 274.744 101.152C273.955 101.152 273.288 101.424 272.744 101.968C272.2 102.512 271.928 103.189 271.928 104C271.928 104.811 272.2 105.488 272.744 106.032C273.288 106.576 273.955 106.848 274.744 106.848ZM284.593 99.792C285.532 99.792 286.284 100.091 286.849 100.688C287.414 101.275 287.697 102.075 287.697 103.088V108H286.305V103.168C286.305 102.517 286.129 102.016 285.777 101.664C285.425 101.301 284.94 101.12 284.321 101.12C283.628 101.12 283.068 101.339 282.641 101.776C282.214 102.203 282.001 102.864 282.001 103.76V108H280.609V100H282.001V101.152C282.566 100.245 283.43 99.792 284.593 99.792ZM290.52 108.176C290.232 108.176 289.987 108.075 289.784 107.872C289.582 107.669 289.48 107.424 289.48 107.136C289.48 106.848 289.582 106.603 289.784 106.4C289.987 106.197 290.232 106.096 290.52 106.096C290.819 106.096 291.064 106.197 291.256 106.4C291.459 106.603 291.56 106.848 291.56 107.136C291.56 107.424 291.459 107.669 291.256 107.872C291.064 108.075 290.819 108.176 290.52 108.176Z" fill="#141414"/>
</svg>
