<svg width="215" height="216" viewBox="0 0 215 216" fill="none" xmlns="http://www.w3.org/2000/svg">
<g clip-path="url(#clip0_1_314)">
<path d="M14.6667 11.3867V12C14.6658 13.4376 14.2003 14.8365 13.3396 15.9879C12.4788 17.1393 11.2689 17.9817 9.89023 18.3893C8.51162 18.7969 7.03817 18.7479 5.68964 18.2497C4.34112 17.7515 3.18976 16.8307 2.4073 15.6247C1.62484 14.4187 1.25319 12.9921 1.34778 11.5576C1.44237 10.1231 1.99813 8.75756 2.93218 7.66473C3.86623 6.57189 5.12852 5.81027 6.53079 5.49344C7.93306 5.17662 9.40017 5.32157 10.7133 5.90668" stroke="white" stroke-width="2" stroke-linecap="round" stroke-linejoin="round"/>
<path d="M14.6667 6.66666L8 13.34L6 11.34" stroke="white" stroke-width="2" stroke-linecap="round" stroke-linejoin="round"/>
</g>
<path d="M26.4624 14.768H31.0124V16H25.1604V6.2H30.9424V7.432H26.4624V10.442H30.5924V11.66H26.4624V14.768ZM35.9442 8.818C36.7655 8.818 37.4235 9.07933 37.9182 9.602C38.4128 10.1153 38.6602 10.8153 38.6602 11.702V16H37.4422V11.772C37.4422 11.2027 37.2882 10.764 36.9802 10.456C36.6722 10.1387 36.2475 9.98 35.7062 9.98C35.0995 9.98 34.6095 10.1713 34.2362 10.554C33.8628 10.9273 33.6762 11.506 33.6762 12.29V16H32.4582V9H33.6762V10.008C34.1708 9.21467 34.9268 8.818 35.9442 8.818ZM43.8465 8.818C44.6679 8.818 45.3259 9.07933 45.8205 9.602C46.3152 10.1153 46.5625 10.8153 46.5625 11.702V16H45.3445V11.772C45.3445 11.2027 45.1905 10.764 44.8825 10.456C44.5745 10.1387 44.1499 9.98 43.6085 9.98C43.0019 9.98 42.5119 10.1713 42.1385 10.554C41.7652 10.9273 41.5785 11.506 41.5785 12.29V16H40.3605V6.2H41.5785V10.008C42.0732 9.21467 42.8292 8.818 43.8465 8.818ZM54.0589 9H55.2769V16H54.0589V14.796C53.4522 15.72 52.5702 16.182 51.4129 16.182C50.4329 16.182 49.5975 15.8273 48.9069 15.118C48.2162 14.3993 47.8709 13.5267 47.8709 12.5C47.8709 11.4733 48.2162 10.6053 48.9069 9.896C49.5975 9.17733 50.4329 8.818 51.4129 8.818C52.5702 8.818 53.4522 9.28 54.0589 10.204V9ZM51.5669 15.006C52.2762 15.006 52.8689 14.768 53.3449 14.292C53.8209 13.8067 54.0589 13.2093 54.0589 12.5C54.0589 11.7907 53.8209 11.198 53.3449 10.722C52.8689 10.2367 52.2762 9.994 51.5669 9.994C50.8669 9.994 50.2789 10.2367 49.8029 10.722C49.3269 11.198 49.0889 11.7907 49.0889 12.5C49.0889 13.2093 49.3269 13.8067 49.8029 14.292C50.2789 14.768 50.8669 15.006 51.5669 15.006ZM60.6082 8.818C61.4296 8.818 62.0876 9.07933 62.5822 9.602C63.0769 10.1153 63.3242 10.8153 63.3242 11.702V16H62.1062V11.772C62.1062 11.2027 61.9522 10.764 61.6442 10.456C61.3362 10.1387 60.9116 9.98 60.3702 9.98C59.7636 9.98 59.2736 10.1713 58.9002 10.554C58.5269 10.9273 58.3402 11.506 58.3402 12.29V16H57.1222V9H58.3402V10.008C58.8349 9.21467 59.5909 8.818 60.6082 8.818ZM68.3146 16.182C67.2599 16.182 66.3826 15.832 65.6826 15.132C64.9826 14.4227 64.6326 13.5453 64.6326 12.5C64.6326 11.4547 64.9826 10.582 65.6826 9.882C66.3826 9.17267 67.2599 8.818 68.3146 8.818C69.0053 8.818 69.6259 8.986 70.1766 9.322C70.7273 9.64867 71.1379 10.092 71.4086 10.652L70.3866 11.24C70.2093 10.8667 69.9339 10.568 69.5606 10.344C69.1966 10.12 68.7813 10.008 68.3146 10.008C67.6146 10.008 67.0266 10.246 66.5506 10.722C66.0839 11.198 65.8506 11.7907 65.8506 12.5C65.8506 13.2 66.0839 13.788 66.5506 14.264C67.0266 14.74 67.6146 14.978 68.3146 14.978C68.7813 14.978 69.2013 14.8707 69.5746 14.656C69.9479 14.432 70.2326 14.1333 70.4286 13.76L71.4646 14.362C71.1659 14.9127 70.7366 15.356 70.1766 15.692C69.6166 16.0187 68.9959 16.182 68.3146 16.182ZM73.4255 13.06C73.5468 13.6853 73.8315 14.1707 74.2795 14.516C74.7368 14.8613 75.2968 15.034 75.9595 15.034C76.8835 15.034 77.5555 14.6933 77.9755 14.012L79.0115 14.6C78.3301 15.6547 77.3035 16.182 75.9315 16.182C74.8208 16.182 73.9155 15.8367 73.2155 15.146C72.5248 14.446 72.1795 13.564 72.1795 12.5C72.1795 11.4453 72.5201 10.568 73.2015 9.868C73.8828 9.168 74.7648 8.818 75.8475 8.818C76.8741 8.818 77.7095 9.182 78.3535 9.91C79.0068 10.6287 79.3335 11.4967 79.3335 12.514C79.3335 12.6913 79.3195 12.8733 79.2915 13.06H73.4255ZM75.8475 9.966C75.1941 9.966 74.6528 10.1527 74.2235 10.526C73.7941 10.89 73.5281 11.38 73.4255 11.996H78.1015C77.9988 11.3333 77.7375 10.8293 77.3175 10.484C76.8975 10.1387 76.4075 9.966 75.8475 9.966ZM86.5159 6.2H87.7339V16H86.5159V14.796C85.9092 15.72 85.0272 16.182 83.8699 16.182C82.8899 16.182 82.0546 15.8273 81.3639 15.118C80.6732 14.3993 80.3279 13.5267 80.3279 12.5C80.3279 11.4733 80.6732 10.6053 81.3639 9.896C82.0546 9.17733 82.8899 8.818 83.8699 8.818C85.0272 8.818 85.9092 9.28 86.5159 10.204V6.2ZM84.0239 15.006C84.7332 15.006 85.3259 14.768 85.8019 14.292C86.2779 13.8067 86.5159 13.2093 86.5159 12.5C86.5159 11.7907 86.2779 11.198 85.8019 10.722C85.3259 10.2367 84.7332 9.994 84.0239 9.994C83.3239 9.994 82.7359 10.2367 82.2599 10.722C81.7839 11.198 81.5459 11.7907 81.5459 12.5C81.5459 13.2093 81.7839 13.8067 82.2599 14.292C82.7359 14.768 83.3239 15.006 84.0239 15.006ZM94.5073 14.768H98.7353V16H93.2053V6.2H94.5073V14.768ZM100.531 7.726C100.298 7.726 100.102 7.64667 99.9432 7.488C99.7845 7.32933 99.7052 7.138 99.7052 6.914C99.7052 6.69 99.7845 6.49867 99.9432 6.34C100.102 6.172 100.298 6.088 100.531 6.088C100.755 6.088 100.947 6.172 101.105 6.34C101.264 6.49867 101.343 6.69 101.343 6.914C101.343 7.138 101.264 7.32933 101.105 7.488C100.947 7.64667 100.755 7.726 100.531 7.726ZM99.9152 16V9H101.133V16H99.9152ZM106.477 8.818C107.299 8.818 107.957 9.07933 108.451 9.602C108.946 10.1153 109.193 10.8153 109.193 11.702V16H107.975V11.772C107.975 11.2027 107.821 10.764 107.513 10.456C107.205 10.1387 106.781 9.98 106.239 9.98C105.633 9.98 105.143 10.1713 104.769 10.554C104.396 10.9273 104.209 11.506 104.209 12.29V16H102.991V9H104.209V10.008C104.704 9.21467 105.46 8.818 106.477 8.818ZM116.816 16H115.304L112.112 12.682V16H110.894V6.2H112.112V12.094L115.136 9H116.704L113.358 12.388L116.816 16ZM128.028 16L127.23 13.802H122.82L122.022 16H120.636L124.29 6.2H125.76L129.414 16H128.028ZM123.268 12.584H126.782L125.018 7.754L123.268 12.584ZM133.931 8.818C134.752 8.818 135.41 9.07933 135.905 9.602C136.399 10.1153 136.647 10.8153 136.647 11.702V16H135.429V11.772C135.429 11.2027 135.275 10.764 134.967 10.456C134.659 10.1387 134.234 9.98 133.693 9.98C133.086 9.98 132.596 10.1713 132.223 10.554C131.849 10.9273 131.663 11.506 131.663 12.29V16H130.445V9H131.663V10.008C132.157 9.21467 132.913 8.818 133.931 8.818ZM144.143 9H145.361V16H144.143V14.796C143.536 15.72 142.654 16.182 141.497 16.182C140.517 16.182 139.682 15.8273 138.991 15.118C138.3 14.3993 137.955 13.5267 137.955 12.5C137.955 11.4733 138.3 10.6053 138.991 9.896C139.682 9.17733 140.517 8.818 141.497 8.818C142.654 8.818 143.536 9.28 144.143 10.204V9ZM141.651 15.006C142.36 15.006 142.953 14.768 143.429 14.292C143.905 13.8067 144.143 13.2093 144.143 12.5C144.143 11.7907 143.905 11.198 143.429 10.722C142.953 10.2367 142.36 9.994 141.651 9.994C140.951 9.994 140.363 10.2367 139.887 10.722C139.411 11.198 139.173 11.7907 139.173 12.5C139.173 13.2093 139.411 13.8067 139.887 14.292C140.363 14.768 140.951 15.006 141.651 15.006ZM147.206 16V5.78H148.424V16H147.206ZM155.168 9H156.47L153.614 16.434C153.316 17.2273 152.896 17.8293 152.354 18.24C151.822 18.66 151.206 18.8467 150.506 18.8V17.666C151.365 17.7313 151.995 17.2553 152.396 16.238L152.522 15.972L149.47 9H150.772L153.152 14.488L155.168 9ZM161.295 10.176H159.433V13.97C159.433 14.3153 159.499 14.5627 159.629 14.712C159.769 14.852 159.979 14.9267 160.259 14.936C160.539 14.936 160.885 14.9267 161.295 14.908V16C160.231 16.14 159.452 16.056 158.957 15.748C158.463 15.4307 158.215 14.838 158.215 13.97V10.176H156.829V9H158.215V7.404L159.433 7.04V9H161.295V10.176ZM163.353 7.726C163.12 7.726 162.924 7.64667 162.765 7.488C162.607 7.32933 162.527 7.138 162.527 6.914C162.527 6.69 162.607 6.49867 162.765 6.34C162.924 6.172 163.12 6.088 163.353 6.088C163.577 6.088 163.769 6.172 163.927 6.34C164.086 6.49867 164.165 6.69 164.165 6.914C164.165 7.138 164.086 7.32933 163.927 7.488C163.769 7.64667 163.577 7.726 163.353 7.726ZM162.737 16V9H163.955V16H162.737ZM169.104 16.182C168.049 16.182 167.172 15.832 166.472 15.132C165.772 14.4227 165.422 13.5453 165.422 12.5C165.422 11.4547 165.772 10.582 166.472 9.882C167.172 9.17267 168.049 8.818 169.104 8.818C169.794 8.818 170.415 8.986 170.966 9.322C171.516 9.64867 171.927 10.092 172.198 10.652L171.176 11.24C170.998 10.8667 170.723 10.568 170.35 10.344C169.986 10.12 169.57 10.008 169.104 10.008C168.404 10.008 167.816 10.246 167.34 10.722C166.873 11.198 166.64 11.7907 166.64 12.5C166.64 13.2 166.873 13.788 167.34 14.264C167.816 14.74 168.404 14.978 169.104 14.978C169.57 14.978 169.99 14.8707 170.364 14.656C170.737 14.432 171.022 14.1333 171.218 13.76L172.254 14.362C171.955 14.9127 171.526 15.356 170.966 15.692C170.406 16.0187 169.785 16.182 169.104 16.182ZM174.452 10.89C174.452 11.1607 174.587 11.38 174.858 11.548C175.128 11.7067 175.455 11.8373 175.838 11.94C176.22 12.0333 176.603 12.1453 176.986 12.276C177.368 12.3973 177.695 12.612 177.966 12.92C178.236 13.2187 178.372 13.606 178.372 14.082C178.372 14.7167 178.124 15.2253 177.63 15.608C177.144 15.9907 176.519 16.182 175.754 16.182C175.072 16.182 174.489 16.0327 174.004 15.734C173.518 15.4353 173.173 15.0387 172.968 14.544L174.018 13.942C174.13 14.278 174.34 14.544 174.648 14.74C174.956 14.936 175.324 15.034 175.754 15.034C176.155 15.034 176.486 14.9593 176.748 14.81C177.009 14.6513 177.14 14.4087 177.14 14.082C177.14 13.8113 177.004 13.5967 176.734 13.438C176.463 13.27 176.136 13.1393 175.754 13.046C175.371 12.9433 174.988 12.8267 174.606 12.696C174.223 12.5653 173.896 12.3507 173.626 12.052C173.355 11.7533 173.22 11.3707 173.22 10.904C173.22 10.2973 173.453 9.798 173.92 9.406C174.396 9.014 174.988 8.818 175.698 8.818C176.267 8.818 176.771 8.94867 177.21 9.21C177.658 9.462 177.994 9.81667 178.218 10.274L177.196 10.848C176.944 10.2507 176.444 9.952 175.698 9.952C175.352 9.952 175.058 10.036 174.816 10.204C174.573 10.3627 174.452 10.5913 174.452 10.89Z" fill="white"/>
<g clip-path="url(#clip1_1_314)">
<path d="M14.6667 59.3867V60C14.6658 61.4376 14.2003 62.8365 13.3396 63.9879C12.4788 65.1393 11.2689 65.9817 9.89023 66.3893C8.51162 66.7969 7.03817 66.7479 5.68964 66.2497C4.34112 65.7515 3.18976 64.8307 2.4073 63.6247C1.62484 62.4187 1.25319 60.9921 1.34778 59.5576C1.44237 58.1231 1.99813 56.7576 2.93218 55.6647C3.86623 54.5719 5.12852 53.8103 6.53079 53.4934C7.93306 53.1766 9.40017 53.3216 10.7133 53.9067" stroke="white" stroke-width="2" stroke-linecap="round" stroke-linejoin="round"/>
<path d="M14.6667 54.6667L8 61.34L6 59.34" stroke="white" stroke-width="2" stroke-linecap="round" stroke-linejoin="round"/>
</g>
<path d="M29.8415 64.182C28.3575 64.182 27.1302 63.692 26.1595 62.712C25.1982 61.732 24.7175 60.528 24.7175 59.1C24.7175 57.672 25.1982 56.468 26.1595 55.488C27.1302 54.508 28.3575 54.018 29.8415 54.018C30.7375 54.018 31.5589 54.2327 32.3055 54.662C33.0615 55.0913 33.6495 55.67 34.0695 56.398L32.9355 57.056C32.6555 56.5147 32.2355 56.0853 31.6755 55.768C31.1249 55.4413 30.5135 55.278 29.8415 55.278C28.7122 55.278 27.7882 55.642 27.0695 56.37C26.3602 57.098 26.0055 58.008 26.0055 59.1C26.0055 60.1827 26.3602 61.088 27.0695 61.816C27.7882 62.544 28.7122 62.908 29.8415 62.908C30.5135 62.908 31.1249 62.7493 31.6755 62.432C32.2355 62.1053 32.6555 61.676 32.9355 61.144L34.0695 61.788C33.6589 62.516 33.0755 63.0993 32.3195 63.538C31.5635 63.9673 30.7375 64.182 29.8415 64.182ZM40.2892 57H41.5072V64H40.2892V62.992C39.7945 63.7853 39.0385 64.182 38.0212 64.182C37.1998 64.182 36.5418 63.9253 36.0472 63.412C35.5525 62.8893 35.3052 62.1847 35.3052 61.298V57H36.5232V61.228C36.5232 61.7973 36.6772 62.2407 36.9852 62.558C37.2932 62.866 37.7178 63.02 38.2592 63.02C38.8658 63.02 39.3558 62.8333 39.7292 62.46C40.1025 62.0773 40.2892 61.494 40.2892 60.71V57ZM44.3978 58.89C44.3978 59.1607 44.5332 59.38 44.8038 59.548C45.0745 59.7067 45.4012 59.8373 45.7838 59.94C46.1665 60.0333 46.5492 60.1453 46.9318 60.276C47.3145 60.3973 47.6412 60.612 47.9118 60.92C48.1825 61.2187 48.3178 61.606 48.3178 62.082C48.3178 62.7167 48.0705 63.2253 47.5758 63.608C47.0905 63.9907 46.4652 64.182 45.6998 64.182C45.0185 64.182 44.4352 64.0327 43.9498 63.734C43.4645 63.4353 43.1192 63.0387 42.9138 62.544L43.9638 61.942C44.0758 62.278 44.2858 62.544 44.5938 62.74C44.9018 62.936 45.2705 63.034 45.6998 63.034C46.1012 63.034 46.4325 62.9593 46.6938 62.81C46.9552 62.6513 47.0858 62.4087 47.0858 62.082C47.0858 61.8113 46.9505 61.5967 46.6798 61.438C46.4092 61.27 46.0825 61.1393 45.6998 61.046C45.3172 60.9433 44.9345 60.8267 44.5518 60.696C44.1692 60.5653 43.8425 60.3507 43.5718 60.052C43.3012 59.7533 43.1658 59.3707 43.1658 58.904C43.1658 58.2973 43.3992 57.798 43.8658 57.406C44.3418 57.014 44.9345 56.818 45.6438 56.818C46.2132 56.818 46.7172 56.9487 47.1558 57.21C47.6038 57.462 47.9398 57.8167 48.1638 58.274L47.1418 58.848C46.8898 58.2507 46.3905 57.952 45.6438 57.952C45.2985 57.952 45.0045 58.036 44.7618 58.204C44.5192 58.3627 44.3978 58.5913 44.3978 58.89ZM53.2945 58.176H51.4325V61.97C51.4325 62.3153 51.4978 62.5627 51.6285 62.712C51.7685 62.852 51.9785 62.9267 52.2585 62.936C52.5385 62.936 52.8838 62.9267 53.2945 62.908V64C52.2305 64.14 51.4512 64.056 50.9565 63.748C50.4618 63.4307 50.2145 62.838 50.2145 61.97V58.176H48.8285V57H50.2145V55.404L51.4325 55.04V57H53.2945V58.176ZM60.289 63.118C59.5704 63.8273 58.6977 64.182 57.671 64.182C56.6444 64.182 55.7717 63.8273 55.053 63.118C54.3437 62.4087 53.989 61.536 53.989 60.5C53.989 59.464 54.3437 58.5913 55.053 57.882C55.7717 57.1727 56.6444 56.818 57.671 56.818C58.6977 56.818 59.5704 57.1727 60.289 57.882C61.0077 58.5913 61.367 59.464 61.367 60.5C61.367 61.536 61.0077 62.4087 60.289 63.118ZM57.671 62.992C58.371 62.992 58.959 62.754 59.435 62.278C59.911 61.802 60.149 61.2093 60.149 60.5C60.149 59.7907 59.911 59.198 59.435 58.722C58.959 58.246 58.371 58.008 57.671 58.008C56.9804 58.008 56.397 58.246 55.921 58.722C55.445 59.198 55.207 59.7907 55.207 60.5C55.207 61.2093 55.445 61.802 55.921 62.278C56.397 62.754 56.9804 62.992 57.671 62.992ZM70.3629 56.818C71.1469 56.818 71.7816 57.0747 72.2669 57.588C72.7522 58.092 72.9949 58.778 72.9949 59.646V64H71.7769V59.688C71.7769 59.1467 71.6369 58.7267 71.3569 58.428C71.0769 58.1293 70.7036 57.98 70.2369 57.98C69.7142 57.98 69.2942 58.1573 68.9769 58.512C68.6689 58.8573 68.5149 59.3893 68.5149 60.108V64H67.2969V59.688C67.2969 59.1467 67.1616 58.7267 66.8909 58.428C66.6296 58.1293 66.2702 57.98 65.8129 57.98C65.2996 57.98 64.8702 58.1573 64.5249 58.512C64.1889 58.8667 64.0209 59.3987 64.0209 60.108V64H62.8029V57H64.0209V57.938C64.4969 57.1913 65.1922 56.818 66.1069 56.818C67.0496 56.818 67.7356 57.2147 68.1649 58.008C68.6502 57.2147 69.3829 56.818 70.3629 56.818ZM83.9098 58.918C84.3578 59.1327 84.7124 59.4407 84.9738 59.842C85.2444 60.2433 85.3798 60.7053 85.3798 61.228C85.3798 62.012 85.1044 62.67 84.5538 63.202C84.0031 63.734 83.3311 64 82.5378 64H78.3098V54.2H82.2298C82.9951 54.2 83.6438 54.4567 84.1758 54.97C84.7078 55.4833 84.9738 56.118 84.9738 56.874C84.9738 57.742 84.6191 58.4233 83.9098 58.918ZM82.2298 55.418H79.6118V58.414H82.2298C82.6404 58.414 82.9858 58.2693 83.2658 57.98C83.5458 57.6907 83.6858 57.336 83.6858 56.916C83.6858 56.5053 83.5411 56.1553 83.2518 55.866C82.9718 55.5673 82.6311 55.418 82.2298 55.418ZM82.5378 62.782C82.9764 62.782 83.3451 62.628 83.6438 62.32C83.9424 62.012 84.0918 61.634 84.0918 61.186C84.0918 60.7473 83.9378 60.374 83.6298 60.066C83.3311 59.758 82.9671 59.604 82.5378 59.604H79.6118V62.782H82.5378ZM88.015 58.176C88.4164 57.308 89.1444 56.874 90.199 56.874V58.148C89.6017 58.12 89.0884 58.2787 88.659 58.624C88.2297 58.9693 88.015 59.5247 88.015 60.29V64H86.797V57H88.015V58.176ZM96.804 57H98.022V64H96.804V62.796C96.1973 63.72 95.3153 64.182 94.158 64.182C93.178 64.182 92.3427 63.8273 91.652 63.118C90.9613 62.3993 90.616 61.5267 90.616 60.5C90.616 59.4733 90.9613 58.6053 91.652 57.896C92.3427 57.1773 93.178 56.818 94.158 56.818C95.3153 56.818 96.1973 57.28 96.804 58.204V57ZM94.312 63.006C95.0213 63.006 95.614 62.768 96.09 62.292C96.566 61.8067 96.804 61.2093 96.804 60.5C96.804 59.7907 96.566 59.198 96.09 58.722C95.614 58.2367 95.0213 57.994 94.312 57.994C93.612 57.994 93.024 58.2367 92.548 58.722C92.072 59.198 91.834 59.7907 91.834 60.5C91.834 61.2093 92.072 61.8067 92.548 62.292C93.024 62.768 93.612 63.006 94.312 63.006ZM103.353 56.818C104.175 56.818 104.833 57.0793 105.327 57.602C105.822 58.1153 106.069 58.8153 106.069 59.702V64H104.851V59.772C104.851 59.2027 104.697 58.764 104.389 58.456C104.081 58.1387 103.657 57.98 103.115 57.98C102.509 57.98 102.019 58.1713 101.645 58.554C101.272 58.9273 101.085 59.506 101.085 60.29V64H99.8674V57H101.085V58.008C101.58 57.2147 102.336 56.818 103.353 56.818ZM113.566 54.2H114.784V64H113.566V62.796C112.959 63.72 112.077 64.182 110.92 64.182C109.94 64.182 109.104 63.8273 108.414 63.118C107.723 62.3993 107.378 61.5267 107.378 60.5C107.378 59.4733 107.723 58.6053 108.414 57.896C109.104 57.1773 109.94 56.818 110.92 56.818C112.077 56.818 112.959 57.28 113.566 58.204V54.2ZM111.074 63.006C111.783 63.006 112.376 62.768 112.852 62.292C113.328 61.8067 113.566 61.2093 113.566 60.5C113.566 59.7907 113.328 59.198 112.852 58.722C112.376 58.2367 111.783 57.994 111.074 57.994C110.374 57.994 109.786 58.2367 109.31 58.722C108.834 59.198 108.596 59.7907 108.596 60.5C108.596 61.2093 108.834 61.8067 109.31 62.292C109.786 62.768 110.374 63.006 111.074 63.006ZM117.483 61.06C117.604 61.6853 117.889 62.1707 118.337 62.516C118.794 62.8613 119.354 63.034 120.017 63.034C120.941 63.034 121.613 62.6933 122.033 62.012L123.069 62.6C122.388 63.6547 121.361 64.182 119.989 64.182C118.878 64.182 117.973 63.8367 117.273 63.146C116.582 62.446 116.237 61.564 116.237 60.5C116.237 59.4453 116.578 58.568 117.259 57.868C117.94 57.168 118.822 56.818 119.905 56.818C120.932 56.818 121.767 57.182 122.411 57.91C123.064 58.6287 123.391 59.4967 123.391 60.514C123.391 60.6913 123.377 60.8733 123.349 61.06H117.483ZM119.905 57.966C119.252 57.966 118.71 58.1527 118.281 58.526C117.852 58.89 117.586 59.38 117.483 59.996H122.159C122.056 59.3333 121.795 58.8293 121.375 58.484C120.955 58.1387 120.465 57.966 119.905 57.966ZM130.574 54.2H131.792V64H130.574V62.796C129.967 63.72 129.085 64.182 127.928 64.182C126.948 64.182 126.112 63.8273 125.422 63.118C124.731 62.3993 124.386 61.5267 124.386 60.5C124.386 59.4733 124.731 58.6053 125.422 57.896C126.112 57.1773 126.948 56.818 127.928 56.818C129.085 56.818 129.967 57.28 130.574 58.204V54.2ZM128.082 63.006C128.791 63.006 129.384 62.768 129.86 62.292C130.336 61.8067 130.574 61.2093 130.574 60.5C130.574 59.7907 130.336 59.198 129.86 58.722C129.384 58.2367 128.791 57.994 128.082 57.994C127.382 57.994 126.794 58.2367 126.318 58.722C125.842 59.198 125.604 59.7907 125.604 60.5C125.604 61.2093 125.842 61.8067 126.318 62.292C126.794 62.768 127.382 63.006 128.082 63.006ZM141.085 54.2C142.42 54.2 143.526 54.676 144.403 55.628C145.29 56.5707 145.733 57.728 145.733 59.1C145.733 60.472 145.29 61.634 144.403 62.586C143.526 63.5287 142.42 64 141.085 64H137.263V54.2H141.085ZM141.085 62.768C142.084 62.768 142.9 62.418 143.535 61.718C144.17 61.018 144.487 60.1453 144.487 59.1C144.487 58.0547 144.17 57.182 143.535 56.482C142.9 55.782 142.084 55.432 141.085 55.432H138.565V62.768H141.085ZM153.094 63.118C152.375 63.8273 151.502 64.182 150.476 64.182C149.449 64.182 148.576 63.8273 147.858 63.118C147.148 62.4087 146.794 61.536 146.794 60.5C146.794 59.464 147.148 58.5913 147.858 57.882C148.576 57.1727 149.449 56.818 150.476 56.818C151.502 56.818 152.375 57.1727 153.094 57.882C153.812 58.5913 154.172 59.464 154.172 60.5C154.172 61.536 153.812 62.4087 153.094 63.118ZM150.476 62.992C151.176 62.992 151.764 62.754 152.24 62.278C152.716 61.802 152.954 61.2093 152.954 60.5C152.954 59.7907 152.716 59.198 152.24 58.722C151.764 58.246 151.176 58.008 150.476 58.008C149.785 58.008 149.202 58.246 148.726 58.722C148.25 59.198 148.012 59.7907 148.012 60.5C148.012 61.2093 148.25 61.802 148.726 62.278C149.202 62.754 149.785 62.992 150.476 62.992ZM163.168 56.818C163.952 56.818 164.586 57.0747 165.072 57.588C165.557 58.092 165.8 58.778 165.8 59.646V64H164.582V59.688C164.582 59.1467 164.442 58.7267 164.162 58.428C163.882 58.1293 163.508 57.98 163.042 57.98C162.519 57.98 162.099 58.1573 161.782 58.512C161.474 58.8573 161.32 59.3893 161.32 60.108V64H160.102V59.688C160.102 59.1467 159.966 58.7267 159.696 58.428C159.434 58.1293 159.075 57.98 158.618 57.98C158.104 57.98 157.675 58.1573 157.33 58.512C156.994 58.8667 156.826 59.3987 156.826 60.108V64H155.608V57H156.826V57.938C157.302 57.1913 157.997 56.818 158.912 56.818C159.854 56.818 160.54 57.2147 160.97 58.008C161.455 57.2147 162.188 56.818 163.168 56.818ZM173.284 57H174.502V64H173.284V62.796C172.678 63.72 171.796 64.182 170.638 64.182C169.658 64.182 168.823 63.8273 168.132 63.118C167.442 62.3993 167.096 61.5267 167.096 60.5C167.096 59.4733 167.442 58.6053 168.132 57.896C168.823 57.1773 169.658 56.818 170.638 56.818C171.796 56.818 172.678 57.28 173.284 58.204V57ZM170.792 63.006C171.502 63.006 172.094 62.768 172.57 62.292C173.046 61.8067 173.284 61.2093 173.284 60.5C173.284 59.7907 173.046 59.198 172.57 58.722C172.094 58.2367 171.502 57.994 170.792 57.994C170.092 57.994 169.504 58.2367 169.028 58.722C168.552 59.198 168.314 59.7907 168.314 60.5C168.314 61.2093 168.552 61.8067 169.028 62.292C169.504 62.768 170.092 63.006 170.792 63.006ZM176.964 55.726C176.73 55.726 176.534 55.6467 176.376 55.488C176.217 55.3293 176.138 55.138 176.138 54.914C176.138 54.69 176.217 54.4987 176.376 54.34C176.534 54.172 176.73 54.088 176.964 54.088C177.188 54.088 177.379 54.172 177.538 54.34C177.696 54.4987 177.776 54.69 177.776 54.914C177.776 55.138 177.696 55.3293 177.538 55.488C177.379 55.6467 177.188 55.726 176.964 55.726ZM176.348 64V57H177.566V64H176.348ZM182.91 56.818C183.731 56.818 184.389 57.0793 184.884 57.602C185.379 58.1153 185.626 58.8153 185.626 59.702V64H184.408V59.772C184.408 59.2027 184.254 58.764 183.946 58.456C183.638 58.1387 183.213 57.98 182.672 57.98C182.065 57.98 181.575 58.1713 181.202 58.554C180.829 58.9273 180.642 59.506 180.642 60.29V64H179.424V57H180.642V58.008C181.137 57.2147 181.893 56.818 182.91 56.818ZM188.376 58.89C188.376 59.1607 188.512 59.38 188.782 59.548C189.053 59.7067 189.38 59.8373 189.762 59.94C190.145 60.0333 190.528 60.1453 190.91 60.276C191.293 60.3973 191.62 60.612 191.89 60.92C192.161 61.2187 192.296 61.606 192.296 62.082C192.296 62.7167 192.049 63.2253 191.554 63.608C191.069 63.9907 190.444 64.182 189.678 64.182C188.997 64.182 188.414 64.0327 187.928 63.734C187.443 63.4353 187.098 63.0387 186.892 62.544L187.942 61.942C188.054 62.278 188.264 62.544 188.572 62.74C188.88 62.936 189.249 63.034 189.678 63.034C190.08 63.034 190.411 62.9593 190.672 62.81C190.934 62.6513 191.064 62.4087 191.064 62.082C191.064 61.8113 190.929 61.5967 190.658 61.438C190.388 61.27 190.061 61.1393 189.678 61.046C189.296 60.9433 188.913 60.8267 188.53 60.696C188.148 60.5653 187.821 60.3507 187.55 60.052C187.28 59.7533 187.144 59.3707 187.144 58.904C187.144 58.2973 187.378 57.798 187.844 57.406C188.32 57.014 188.913 56.818 189.622 56.818C190.192 56.818 190.696 56.9487 191.134 57.21C191.582 57.462 191.918 57.8167 192.142 58.274L191.12 58.848C190.868 58.2507 190.369 57.952 189.622 57.952C189.277 57.952 188.983 58.036 188.74 58.204C188.498 58.3627 188.376 58.5913 188.376 58.89Z" fill="white"/>
<g clip-path="url(#clip2_1_314)">
<path d="M14.6667 107.387V108C14.6658 109.438 14.2003 110.836 13.3396 111.988C12.4788 113.139 11.2689 113.982 9.89023 114.389C8.51162 114.797 7.03817 114.748 5.68964 114.25C4.34112 113.752 3.18976 112.831 2.4073 111.625C1.62484 110.419 1.25319 108.992 1.34778 107.558C1.44237 106.123 1.99813 104.758 2.93218 103.665C3.86623 102.572 5.12852 101.81 6.53079 101.493C7.93306 101.177 9.40017 101.322 10.7133 101.907" stroke="white" stroke-width="2" stroke-linecap="round" stroke-linejoin="round"/>
<path d="M14.6667 102.667L8 109.34L6 107.34" stroke="white" stroke-width="2" stroke-linecap="round" stroke-linejoin="round"/>
</g>
<path d="M31.9229 112L31.1249 109.802H26.7149L25.9169 112H24.5309L28.1849 102.2H29.6549L33.3089 112H31.9229ZM27.1629 108.584H30.6769L28.9129 103.754L27.1629 108.584ZM39.971 102.2H41.189V112H39.971V110.796C39.3643 111.72 38.4823 112.182 37.325 112.182C36.345 112.182 35.5096 111.827 34.819 111.118C34.1283 110.399 33.783 109.527 33.783 108.5C33.783 107.473 34.1283 106.605 34.819 105.896C35.5096 105.177 36.345 104.818 37.325 104.818C38.4823 104.818 39.3643 105.28 39.971 106.204V102.2ZM37.479 111.006C38.1883 111.006 38.781 110.768 39.257 110.292C39.733 109.807 39.971 109.209 39.971 108.5C39.971 107.791 39.733 107.198 39.257 106.722C38.781 106.237 38.1883 105.994 37.479 105.994C36.779 105.994 36.191 106.237 35.715 106.722C35.239 107.198 35.001 107.791 35.001 108.5C35.001 109.209 35.239 109.807 35.715 110.292C36.191 110.768 36.779 111.006 37.479 111.006ZM47.9344 105H49.2504L46.4504 112H45.0224L42.2224 105H43.5384L45.7364 110.698L47.9344 105ZM55.803 105H57.021V112H55.803V110.796C55.1963 111.72 54.3143 112.182 53.157 112.182C52.177 112.182 51.3417 111.827 50.651 111.118C49.9603 110.399 49.615 109.527 49.615 108.5C49.615 107.473 49.9603 106.605 50.651 105.896C51.3417 105.177 52.177 104.818 53.157 104.818C54.3143 104.818 55.1963 105.28 55.803 106.204V105ZM53.311 111.006C54.0203 111.006 54.613 110.768 55.089 110.292C55.565 109.807 55.803 109.209 55.803 108.5C55.803 107.791 55.565 107.198 55.089 106.722C54.613 106.237 54.0203 105.994 53.311 105.994C52.611 105.994 52.023 106.237 51.547 106.722C51.071 107.198 50.833 107.791 50.833 108.5C50.833 109.209 51.071 109.807 51.547 110.292C52.023 110.768 52.611 111.006 53.311 111.006ZM62.3524 104.818C63.1737 104.818 63.8317 105.079 64.3264 105.602C64.821 106.115 65.0684 106.815 65.0684 107.702V112H63.8504V107.772C63.8504 107.203 63.6964 106.764 63.3884 106.456C63.0804 106.139 62.6557 105.98 62.1144 105.98C61.5077 105.98 61.0177 106.171 60.6444 106.554C60.271 106.927 60.0844 107.506 60.0844 108.29V112H58.8664V105H60.0844V106.008C60.579 105.215 61.335 104.818 62.3524 104.818ZM70.0587 112.182C69.0041 112.182 68.1267 111.832 67.4267 111.132C66.7267 110.423 66.3767 109.545 66.3767 108.5C66.3767 107.455 66.7267 106.582 67.4267 105.882C68.1267 105.173 69.0041 104.818 70.0587 104.818C70.7494 104.818 71.3701 104.986 71.9207 105.322C72.4714 105.649 72.8821 106.092 73.1527 106.652L72.1307 107.24C71.9534 106.867 71.6781 106.568 71.3047 106.344C70.9407 106.12 70.5254 106.008 70.0587 106.008C69.3587 106.008 68.7707 106.246 68.2947 106.722C67.8281 107.198 67.5947 107.791 67.5947 108.5C67.5947 109.2 67.8281 109.788 68.2947 110.264C68.7707 110.74 69.3587 110.978 70.0587 110.978C70.5254 110.978 70.9454 110.871 71.3187 110.656C71.6921 110.432 71.9767 110.133 72.1727 109.76L73.2087 110.362C72.9101 110.913 72.4807 111.356 71.9207 111.692C71.3607 112.019 70.7401 112.182 70.0587 112.182ZM75.1696 109.06C75.2909 109.685 75.5756 110.171 76.0236 110.516C76.4809 110.861 77.0409 111.034 77.7036 111.034C78.6276 111.034 79.2996 110.693 79.7196 110.012L80.7556 110.6C80.0743 111.655 79.0476 112.182 77.6756 112.182C76.5649 112.182 75.6596 111.837 74.9596 111.146C74.2689 110.446 73.9236 109.564 73.9236 108.5C73.9236 107.445 74.2643 106.568 74.9456 105.868C75.6269 105.168 76.5089 104.818 77.5916 104.818C78.6183 104.818 79.4536 105.182 80.0976 105.91C80.7509 106.629 81.0776 107.497 81.0776 108.514C81.0776 108.691 81.0636 108.873 81.0356 109.06H75.1696ZM77.5916 105.966C76.9383 105.966 76.3969 106.153 75.9676 106.526C75.5383 106.89 75.2723 107.38 75.1696 107.996H79.8456C79.7429 107.333 79.4816 106.829 79.0616 106.484C78.6416 106.139 78.1516 105.966 77.5916 105.966ZM88.26 102.2H89.478V112H88.26V110.796C87.6534 111.72 86.7714 112.182 85.614 112.182C84.634 112.182 83.7987 111.827 83.108 111.118C82.4174 110.399 82.072 109.527 82.072 108.5C82.072 107.473 82.4174 106.605 83.108 105.896C83.7987 105.177 84.634 104.818 85.614 104.818C86.7714 104.818 87.6534 105.28 88.26 106.204V102.2ZM85.768 111.006C86.4774 111.006 87.07 110.768 87.546 110.292C88.022 109.807 88.26 109.209 88.26 108.5C88.26 107.791 88.022 107.198 87.546 106.722C87.07 106.237 86.4774 105.994 85.768 105.994C85.068 105.994 84.48 106.237 84.004 106.722C83.528 107.198 83.29 107.791 83.29 108.5C83.29 109.209 83.528 109.807 84.004 110.292C84.48 110.768 85.068 111.006 85.768 111.006ZM96.2514 110.768H100.479V112H94.9494V102.2H96.2514V110.768ZM102.275 103.726C102.042 103.726 101.846 103.647 101.687 103.488C101.529 103.329 101.449 103.138 101.449 102.914C101.449 102.69 101.529 102.499 101.687 102.34C101.846 102.172 102.042 102.088 102.275 102.088C102.499 102.088 102.691 102.172 102.849 102.34C103.008 102.499 103.087 102.69 103.087 102.914C103.087 103.138 103.008 103.329 102.849 103.488C102.691 103.647 102.499 103.726 102.275 103.726ZM101.659 112V105H102.877V112H101.659ZM108.222 104.818C109.043 104.818 109.701 105.079 110.196 105.602C110.69 106.115 110.938 106.815 110.938 107.702V112H109.72V107.772C109.72 107.203 109.566 106.764 109.258 106.456C108.95 106.139 108.525 105.98 107.984 105.98C107.377 105.98 106.887 106.171 106.514 106.554C106.14 106.927 105.954 107.506 105.954 108.29V112H104.736V105H105.954V106.008C106.448 105.215 107.204 104.818 108.222 104.818ZM118.56 112H117.048L113.856 108.682V112H112.638V102.2H113.856V108.094L116.88 105H118.448L115.102 108.388L118.56 112ZM127.925 112.182C126.441 112.182 125.213 111.692 124.243 110.712C123.281 109.732 122.801 108.528 122.801 107.1C122.801 105.672 123.281 104.468 124.243 103.488C125.213 102.508 126.441 102.018 127.925 102.018C128.821 102.018 129.642 102.233 130.389 102.662C131.145 103.091 131.733 103.67 132.153 104.398L131.019 105.056C130.739 104.515 130.319 104.085 129.759 103.768C129.208 103.441 128.597 103.278 127.925 103.278C126.795 103.278 125.871 103.642 125.153 104.37C124.443 105.098 124.089 106.008 124.089 107.1C124.089 108.183 124.443 109.088 125.153 109.816C125.871 110.544 126.795 110.908 127.925 110.908C128.597 110.908 129.208 110.749 129.759 110.432C130.319 110.105 130.739 109.676 131.019 109.144L132.153 109.788C131.742 110.516 131.159 111.099 130.403 111.538C129.647 111.967 128.821 112.182 127.925 112.182ZM138.372 105H139.59V112H138.372V110.992C137.877 111.785 137.121 112.182 136.104 112.182C135.283 112.182 134.625 111.925 134.13 111.412C133.635 110.889 133.388 110.185 133.388 109.298V105H134.606V109.228C134.606 109.797 134.76 110.241 135.068 110.558C135.376 110.866 135.801 111.02 136.342 111.02C136.949 111.02 137.439 110.833 137.812 110.46C138.185 110.077 138.372 109.494 138.372 108.71V105ZM142.481 106.89C142.481 107.161 142.616 107.38 142.887 107.548C143.158 107.707 143.484 107.837 143.867 107.94C144.25 108.033 144.632 108.145 145.015 108.276C145.398 108.397 145.724 108.612 145.995 108.92C146.266 109.219 146.401 109.606 146.401 110.082C146.401 110.717 146.154 111.225 145.659 111.608C145.174 111.991 144.548 112.182 143.783 112.182C143.102 112.182 142.518 112.033 142.033 111.734C141.548 111.435 141.202 111.039 140.997 110.544L142.047 109.942C142.159 110.278 142.369 110.544 142.677 110.74C142.985 110.936 143.354 111.034 143.783 111.034C144.184 111.034 144.516 110.959 144.777 110.81C145.038 110.651 145.169 110.409 145.169 110.082C145.169 109.811 145.034 109.597 144.763 109.438C144.492 109.27 144.166 109.139 143.783 109.046C143.4 108.943 143.018 108.827 142.635 108.696C142.252 108.565 141.926 108.351 141.655 108.052C141.384 107.753 141.249 107.371 141.249 106.904C141.249 106.297 141.482 105.798 141.949 105.406C142.425 105.014 143.018 104.818 143.727 104.818C144.296 104.818 144.8 104.949 145.239 105.21C145.687 105.462 146.023 105.817 146.247 106.274L145.225 106.848C144.973 106.251 144.474 105.952 143.727 105.952C143.382 105.952 143.088 106.036 142.845 106.204C142.602 106.363 142.481 106.591 142.481 106.89ZM151.378 106.176H149.516V109.97C149.516 110.315 149.581 110.563 149.712 110.712C149.852 110.852 150.062 110.927 150.342 110.936C150.622 110.936 150.967 110.927 151.378 110.908V112C150.314 112.14 149.534 112.056 149.04 111.748C148.545 111.431 148.298 110.838 148.298 109.97V106.176H146.912V105H148.298V103.404L149.516 103.04V105H151.378V106.176ZM158.372 111.118C157.653 111.827 156.781 112.182 155.754 112.182C154.727 112.182 153.855 111.827 153.136 111.118C152.427 110.409 152.072 109.536 152.072 108.5C152.072 107.464 152.427 106.591 153.136 105.882C153.855 105.173 154.727 104.818 155.754 104.818C156.781 104.818 157.653 105.173 158.372 105.882C159.091 106.591 159.45 107.464 159.45 108.5C159.45 109.536 159.091 110.409 158.372 111.118ZM155.754 110.992C156.454 110.992 157.042 110.754 157.518 110.278C157.994 109.802 158.232 109.209 158.232 108.5C158.232 107.791 157.994 107.198 157.518 106.722C157.042 106.246 156.454 106.008 155.754 106.008C155.063 106.008 154.48 106.246 154.004 106.722C153.528 107.198 153.29 107.791 153.29 108.5C153.29 109.209 153.528 109.802 154.004 110.278C154.48 110.754 155.063 110.992 155.754 110.992ZM168.446 104.818C169.23 104.818 169.865 105.075 170.35 105.588C170.835 106.092 171.078 106.778 171.078 107.646V112H169.86V107.688C169.86 107.147 169.72 106.727 169.44 106.428C169.16 106.129 168.787 105.98 168.32 105.98C167.797 105.98 167.377 106.157 167.06 106.512C166.752 106.857 166.598 107.389 166.598 108.108V112H165.38V107.688C165.38 107.147 165.245 106.727 164.974 106.428C164.713 106.129 164.353 105.98 163.896 105.98C163.383 105.98 162.953 106.157 162.608 106.512C162.272 106.867 162.104 107.399 162.104 108.108V112H160.886V105H162.104V105.938C162.58 105.191 163.275 104.818 164.19 104.818C165.133 104.818 165.819 105.215 166.248 106.008C166.733 105.215 167.466 104.818 168.446 104.818ZM173.383 103.726C173.149 103.726 172.953 103.647 172.795 103.488C172.636 103.329 172.557 103.138 172.557 102.914C172.557 102.69 172.636 102.499 172.795 102.34C172.953 102.172 173.149 102.088 173.383 102.088C173.607 102.088 173.798 102.172 173.957 102.34C174.115 102.499 174.195 102.69 174.195 102.914C174.195 103.138 174.115 103.329 173.957 103.488C173.798 103.647 173.607 103.726 173.383 103.726ZM172.767 112V105H173.985V112H172.767ZM177.257 110.838H180.981V112H175.591V111.188L179.161 106.162H175.731V105H180.841V105.812L177.257 110.838ZM187.791 105H189.009V112H187.791V110.796C187.185 111.72 186.303 112.182 185.145 112.182C184.165 112.182 183.33 111.827 182.639 111.118C181.949 110.399 181.603 109.527 181.603 108.5C181.603 107.473 181.949 106.605 182.639 105.896C183.33 105.177 184.165 104.818 185.145 104.818C186.303 104.818 187.185 105.28 187.791 106.204V105ZM185.299 111.006C186.009 111.006 186.601 110.768 187.077 110.292C187.553 109.807 187.791 109.209 187.791 108.5C187.791 107.791 187.553 107.198 187.077 106.722C186.601 106.237 186.009 105.994 185.299 105.994C184.599 105.994 184.011 106.237 183.535 106.722C183.059 107.198 182.821 107.791 182.821 108.5C182.821 109.209 183.059 109.807 183.535 110.292C184.011 110.768 184.599 111.006 185.299 111.006ZM194.663 106.176H192.801V109.97C192.801 110.315 192.866 110.563 192.997 110.712C193.137 110.852 193.347 110.927 193.627 110.936C193.907 110.936 194.252 110.927 194.663 110.908V112C193.599 112.14 192.819 112.056 192.325 111.748C191.83 111.431 191.583 110.838 191.583 109.97V106.176H190.197V105H191.583V103.404L192.801 103.04V105H194.663V106.176ZM196.721 103.726C196.487 103.726 196.291 103.647 196.133 103.488C195.974 103.329 195.895 103.138 195.895 102.914C195.895 102.69 195.974 102.499 196.133 102.34C196.291 102.172 196.487 102.088 196.721 102.088C196.945 102.088 197.136 102.172 197.295 102.34C197.453 102.499 197.533 102.69 197.533 102.914C197.533 103.138 197.453 103.329 197.295 103.488C197.136 103.647 196.945 103.726 196.721 103.726ZM196.105 112V105H197.323V112H196.105ZM205.089 111.118C204.37 111.827 203.498 112.182 202.471 112.182C201.444 112.182 200.572 111.827 199.853 111.118C199.144 110.409 198.789 109.536 198.789 108.5C198.789 107.464 199.144 106.591 199.853 105.882C200.572 105.173 201.444 104.818 202.471 104.818C203.498 104.818 204.37 105.173 205.089 105.882C205.808 106.591 206.167 107.464 206.167 108.5C206.167 109.536 205.808 110.409 205.089 111.118ZM202.471 110.992C203.171 110.992 203.759 110.754 204.235 110.278C204.711 109.802 204.949 109.209 204.949 108.5C204.949 107.791 204.711 107.198 204.235 106.722C203.759 106.246 203.171 106.008 202.471 106.008C201.78 106.008 201.197 106.246 200.721 106.722C200.245 107.198 200.007 107.791 200.007 108.5C200.007 109.209 200.245 109.802 200.721 110.278C201.197 110.754 201.78 110.992 202.471 110.992ZM211.089 104.818C211.91 104.818 212.568 105.079 213.063 105.602C213.557 106.115 213.805 106.815 213.805 107.702V112H212.587V107.772C212.587 107.203 212.433 106.764 212.125 106.456C211.817 106.139 211.392 105.98 210.851 105.98C210.244 105.98 209.754 106.171 209.381 106.554C209.007 106.927 208.821 107.506 208.821 108.29V112H207.603V105H208.821V106.008C209.315 105.215 210.071 104.818 211.089 104.818Z" fill="white"/>
<g clip-path="url(#clip3_1_314)">
<path d="M14.6667 155.387V156C14.6658 157.438 14.2003 158.836 13.3396 159.988C12.4788 161.139 11.2689 161.982 9.89023 162.389C8.51162 162.797 7.03817 162.748 5.68964 162.25C4.34112 161.752 3.18976 160.831 2.4073 159.625C1.62484 158.419 1.25319 156.992 1.34778 155.558C1.44237 154.123 1.99813 152.758 2.93218 151.665C3.86623 150.572 5.12852 149.81 6.53079 149.493C7.93306 149.177 9.40017 149.322 10.7133 149.907" stroke="white" stroke-width="2" stroke-linecap="round" stroke-linejoin="round"/>
<path d="M14.6667 150.667L8 157.34L6 155.34" stroke="white" stroke-width="2" stroke-linecap="round" stroke-linejoin="round"/>
</g>
<path d="M29.0259 150.2C29.9313 150.2 30.6826 150.503 31.2799 151.11C31.8866 151.707 32.1899 152.454 32.1899 153.35C32.1899 154.237 31.8866 154.983 31.2799 155.59C30.6826 156.197 29.9313 156.5 29.0259 156.5H26.7719V160H25.4699V150.2H29.0259ZM29.0259 155.282C29.5673 155.282 30.0153 155.1 30.3699 154.736C30.7246 154.363 30.9019 153.901 30.9019 153.35C30.9019 152.79 30.7246 152.328 30.3699 151.964C30.0153 151.6 29.5673 151.418 29.0259 151.418H26.7719V155.282H29.0259ZM34.6693 154.176C35.0707 153.308 35.7987 152.874 36.8533 152.874V154.148C36.256 154.12 35.7427 154.279 35.3133 154.624C34.884 154.969 34.6693 155.525 34.6693 156.29V160H33.4513V153H34.6693V154.176ZM38.6611 151.726C38.4278 151.726 38.2318 151.647 38.0731 151.488C37.9144 151.329 37.8351 151.138 37.8351 150.914C37.8351 150.69 37.9144 150.499 38.0731 150.34C38.2318 150.172 38.4278 150.088 38.6611 150.088C38.8851 150.088 39.0764 150.172 39.2351 150.34C39.3938 150.499 39.4731 150.69 39.4731 150.914C39.4731 151.138 39.3938 151.329 39.2351 151.488C39.0764 151.647 38.8851 151.726 38.6611 151.726ZM38.0451 160V153H39.2631V160H38.0451ZM47.0293 159.118C46.3106 159.827 45.4379 160.182 44.4113 160.182C43.3846 160.182 42.5119 159.827 41.7933 159.118C41.0839 158.409 40.7293 157.536 40.7293 156.5C40.7293 155.464 41.0839 154.591 41.7933 153.882C42.5119 153.173 43.3846 152.818 44.4113 152.818C45.4379 152.818 46.3106 153.173 47.0293 153.882C47.7479 154.591 48.1073 155.464 48.1073 156.5C48.1073 157.536 47.7479 158.409 47.0293 159.118ZM44.4113 158.992C45.1113 158.992 45.6993 158.754 46.1753 158.278C46.6513 157.802 46.8893 157.209 46.8893 156.5C46.8893 155.791 46.6513 155.198 46.1753 154.722C45.6993 154.246 45.1113 154.008 44.4113 154.008C43.7206 154.008 43.1373 154.246 42.6613 154.722C42.1853 155.198 41.9473 155.791 41.9473 156.5C41.9473 157.209 42.1853 157.802 42.6613 158.278C43.1373 158.754 43.7206 158.992 44.4113 158.992ZM50.7611 154.176C51.1625 153.308 51.8905 152.874 52.9451 152.874V154.148C52.3478 154.12 51.8345 154.279 51.4051 154.624C50.9758 154.969 50.7611 155.525 50.7611 156.29V160H49.5431V153H50.7611V154.176ZM54.7529 151.726C54.5196 151.726 54.3236 151.647 54.1649 151.488C54.0062 151.329 53.9269 151.138 53.9269 150.914C53.9269 150.69 54.0062 150.499 54.1649 150.34C54.3236 150.172 54.5196 150.088 54.7529 150.088C54.9769 150.088 55.1682 150.172 55.3269 150.34C55.4856 150.499 55.5649 150.69 55.5649 150.914C55.5649 151.138 55.4856 151.329 55.3269 151.488C55.1682 151.647 54.9769 151.726 54.7529 151.726ZM54.1369 160V153H55.3549V160H54.1369ZM61.0211 154.176H59.1591V157.97C59.1591 158.315 59.2244 158.563 59.3551 158.712C59.4951 158.852 59.7051 158.927 59.9851 158.936C60.2651 158.936 60.6104 158.927 61.0211 158.908V160C59.9571 160.14 59.1777 160.056 58.6831 159.748C58.1884 159.431 57.9411 158.838 57.9411 157.97V154.176H56.5551V153H57.9411V151.404L59.1591 151.04V153H61.0211V154.176ZM67.4995 153H68.8015L65.9455 160.434C65.6468 161.227 65.2268 161.829 64.6855 162.24C64.1535 162.66 63.5375 162.847 62.8375 162.8V161.666C63.6961 161.731 64.3261 161.255 64.7275 160.238L64.8535 159.972L61.8015 153H63.1035L65.4835 158.488L67.4995 153ZM76.6085 160.182C75.6939 160.182 74.9099 159.967 74.2565 159.538C73.6125 159.109 73.1599 158.521 72.8985 157.774L74.0185 157.13C74.4012 158.315 75.2739 158.908 76.6365 158.908C77.3085 158.908 77.8219 158.773 78.1765 158.502C78.5312 158.222 78.7085 157.853 78.7085 157.396C78.7085 156.929 78.5312 156.579 78.1765 156.346C77.8219 156.113 77.2292 155.865 76.3985 155.604C75.9879 155.473 75.6752 155.371 75.4605 155.296C75.2459 155.212 74.9752 155.091 74.6485 154.932C74.3312 154.764 74.0932 154.596 73.9345 154.428C73.7759 154.251 73.6312 154.022 73.5005 153.742C73.3792 153.462 73.3185 153.145 73.3185 152.79C73.3185 151.941 73.6172 151.269 74.2145 150.774C74.8119 150.27 75.5399 150.018 76.3985 150.018C77.1732 150.018 77.8452 150.214 78.4145 150.606C78.9932 150.998 79.4272 151.516 79.7165 152.16L78.6245 152.79C78.2045 151.782 77.4625 151.278 76.3985 151.278C75.8665 151.278 75.4372 151.409 75.1105 151.67C74.7839 151.931 74.6205 152.286 74.6205 152.734C74.6205 153.163 74.7745 153.49 75.0825 153.714C75.3905 153.938 75.9225 154.171 76.6785 154.414C76.9492 154.498 77.1405 154.559 77.2525 154.596C77.3645 154.633 77.5372 154.699 77.7705 154.792C78.0132 154.885 78.1905 154.96 78.3025 155.016C78.4145 155.072 78.5639 155.151 78.7505 155.254C78.9465 155.357 79.0912 155.455 79.1845 155.548C79.2779 155.641 79.3852 155.758 79.5065 155.898C79.6372 156.029 79.7305 156.164 79.7865 156.304C79.8425 156.444 79.8892 156.607 79.9265 156.794C79.9732 156.971 79.9965 157.163 79.9965 157.368C79.9965 158.227 79.6839 158.913 79.0585 159.426C78.4332 159.93 77.6165 160.182 76.6085 160.182ZM86.2423 153H87.4603V160H86.2423V158.992C85.7476 159.785 84.9916 160.182 83.9743 160.182C83.1529 160.182 82.4949 159.925 82.0003 159.412C81.5056 158.889 81.2583 158.185 81.2583 157.298V153H82.4763V157.228C82.4763 157.797 82.6303 158.241 82.9383 158.558C83.2463 158.866 83.6709 159.02 84.2123 159.02C84.8189 159.02 85.3089 158.833 85.6823 158.46C86.0556 158.077 86.2423 157.494 86.2423 156.71V153ZM93.1786 152.818C94.1586 152.818 94.994 153.177 95.6846 153.896C96.3753 154.605 96.7206 155.473 96.7206 156.5C96.7206 157.527 96.3753 158.399 95.6846 159.118C94.994 159.827 94.1586 160.182 93.1786 160.182C92.0213 160.182 91.1393 159.72 90.5326 158.796V162.8H89.3146V153H90.5326V154.204C91.1393 153.28 92.0213 152.818 93.1786 152.818ZM93.0246 159.006C93.7246 159.006 94.3126 158.768 94.7886 158.292C95.2646 157.807 95.5026 157.209 95.5026 156.5C95.5026 155.791 95.2646 155.198 94.7886 154.722C94.3126 154.237 93.7246 153.994 93.0246 153.994C92.3153 153.994 91.7226 154.237 91.2466 154.722C90.7706 155.198 90.5326 155.791 90.5326 156.5C90.5326 157.209 90.7706 157.807 91.2466 158.292C91.7226 158.768 92.3153 159.006 93.0246 159.006ZM102.038 152.818C103.018 152.818 103.853 153.177 104.544 153.896C105.235 154.605 105.58 155.473 105.58 156.5C105.58 157.527 105.235 158.399 104.544 159.118C103.853 159.827 103.018 160.182 102.038 160.182C100.881 160.182 99.9987 159.72 99.392 158.796V162.8H98.174V153H99.392V154.204C99.9987 153.28 100.881 152.818 102.038 152.818ZM101.884 159.006C102.584 159.006 103.172 158.768 103.648 158.292C104.124 157.807 104.362 157.209 104.362 156.5C104.362 155.791 104.124 155.198 103.648 154.722C103.172 154.237 102.584 153.994 101.884 153.994C101.175 153.994 100.582 154.237 100.106 154.722C99.63 155.198 99.392 155.791 99.392 156.5C99.392 157.209 99.63 157.807 100.106 158.292C100.582 158.768 101.175 159.006 101.884 159.006ZM112.941 159.118C112.223 159.827 111.35 160.182 110.323 160.182C109.297 160.182 108.424 159.827 107.705 159.118C106.996 158.409 106.641 157.536 106.641 156.5C106.641 155.464 106.996 154.591 107.705 153.882C108.424 153.173 109.297 152.818 110.323 152.818C111.35 152.818 112.223 153.173 112.941 153.882C113.66 154.591 114.019 155.464 114.019 156.5C114.019 157.536 113.66 158.409 112.941 159.118ZM110.323 158.992C111.023 158.992 111.611 158.754 112.087 158.278C112.563 157.802 112.801 157.209 112.801 156.5C112.801 155.791 112.563 155.198 112.087 154.722C111.611 154.246 111.023 154.008 110.323 154.008C109.633 154.008 109.049 154.246 108.573 154.722C108.097 155.198 107.859 155.791 107.859 156.5C107.859 157.209 108.097 157.802 108.573 158.278C109.049 158.754 109.633 158.992 110.323 158.992ZM116.673 154.176C117.075 153.308 117.803 152.874 118.857 152.874V154.148C118.26 154.12 117.747 154.279 117.317 154.624C116.888 154.969 116.673 155.525 116.673 156.29V160H115.455V153H116.673V154.176ZM124.021 154.176H122.159V157.97C122.159 158.315 122.224 158.563 122.355 158.712C122.495 158.852 122.705 158.927 122.985 158.936C123.265 158.936 123.61 158.927 124.021 158.908V160C122.957 160.14 122.178 160.056 121.683 159.748C121.188 159.431 120.941 158.838 120.941 157.97V154.176H119.555V153H120.941V151.404L122.159 151.04V153H124.021V154.176Z" fill="white"/>
<g clip-path="url(#clip4_1_314)">
<path d="M14.6667 203.387V204C14.6658 205.438 14.2003 206.836 13.3396 207.988C12.4788 209.139 11.2689 209.982 9.89023 210.389C8.51162 210.797 7.03817 210.748 5.68964 210.25C4.34112 209.752 3.18976 208.831 2.4073 207.625C1.62484 206.419 1.25319 204.992 1.34778 203.558C1.44237 202.123 1.99813 200.758 2.93218 199.665C3.86623 198.572 5.12852 197.81 6.53079 197.493C7.93306 197.177 9.40017 197.322 10.7133 197.907" stroke="white" stroke-width="2" stroke-linecap="round" stroke-linejoin="round"/>
<path d="M14.6667 198.667L8 205.34L6 203.34" stroke="white" stroke-width="2" stroke-linecap="round" stroke-linejoin="round"/>
</g>
<path d="M31.7354 208L30.9374 205.802H26.5274L25.7294 208H24.3434L27.9974 198.2H29.4674L33.1214 208H31.7354ZM26.9754 204.584H30.4894L28.7254 199.754L26.9754 204.584ZM39.7835 198.2H41.0015V208H39.7835V206.796C39.1768 207.72 38.2948 208.182 37.1375 208.182C36.1575 208.182 35.3221 207.827 34.6315 207.118C33.9408 206.399 33.5955 205.527 33.5955 204.5C33.5955 203.473 33.9408 202.605 34.6315 201.896C35.3221 201.177 36.1575 200.818 37.1375 200.818C38.2948 200.818 39.1768 201.28 39.7835 202.204V198.2ZM37.2915 207.006C38.0008 207.006 38.5935 206.768 39.0695 206.292C39.5455 205.807 39.7835 205.209 39.7835 204.5C39.7835 203.791 39.5455 203.198 39.0695 202.722C38.5935 202.237 38.0008 201.994 37.2915 201.994C36.5915 201.994 36.0035 202.237 35.5275 202.722C35.0515 203.198 34.8135 203.791 34.8135 204.5C34.8135 205.209 35.0515 205.807 35.5275 206.292C36.0035 206.768 36.5915 207.006 37.2915 207.006ZM42.9729 204.29V203.114H48.0829V204.29H42.9729ZM53.6499 199.194C52.4179 199.091 51.8019 199.623 51.8019 200.79V201H53.6499V202.176H51.8019V208H50.5839V202.176H49.4639V201H50.5839V200.79C50.5839 199.847 50.8453 199.133 51.3679 198.648C51.8999 198.163 52.6606 197.953 53.6499 198.018V199.194ZM55.7953 202.176C56.1967 201.308 56.9247 200.874 57.9793 200.874V202.148C57.382 202.12 56.8687 202.279 56.4393 202.624C56.01 202.969 55.7953 203.525 55.7953 204.29V208H54.5773V201H55.7953V202.176ZM59.6423 205.06C59.7636 205.685 60.0483 206.171 60.4963 206.516C60.9536 206.861 61.5136 207.034 62.1763 207.034C63.1003 207.034 63.7723 206.693 64.1923 206.012L65.2283 206.6C64.5469 207.655 63.5203 208.182 62.1483 208.182C61.0376 208.182 60.1323 207.837 59.4323 207.146C58.7416 206.446 58.3963 205.564 58.3963 204.5C58.3963 203.445 58.7369 202.568 59.4183 201.868C60.0996 201.168 60.9816 200.818 62.0643 200.818C63.0909 200.818 63.9263 201.182 64.5703 201.91C65.2236 202.629 65.5503 203.497 65.5503 204.514C65.5503 204.691 65.5363 204.873 65.5083 205.06H59.6423ZM62.0643 201.966C61.4109 201.966 60.8696 202.153 60.4403 202.526C60.0109 202.89 59.7449 203.38 59.6423 203.996H64.3183C64.2156 203.333 63.9543 202.829 63.5343 202.484C63.1143 202.139 62.6243 201.966 62.0643 201.966ZM67.7907 205.06C67.912 205.685 68.1967 206.171 68.6447 206.516C69.102 206.861 69.662 207.034 70.3247 207.034C71.2487 207.034 71.9207 206.693 72.3407 206.012L73.3767 206.6C72.6954 207.655 71.6687 208.182 70.2967 208.182C69.186 208.182 68.2807 207.837 67.5807 207.146C66.89 206.446 66.5447 205.564 66.5447 204.5C66.5447 203.445 66.8854 202.568 67.5667 201.868C68.248 201.168 69.13 200.818 70.2127 200.818C71.2394 200.818 72.0747 201.182 72.7187 201.91C73.372 202.629 73.6987 203.497 73.6987 204.514C73.6987 204.691 73.6847 204.873 73.6567 205.06H67.7907ZM70.2127 201.966C69.5594 201.966 69.018 202.153 68.5887 202.526C68.1594 202.89 67.8934 203.38 67.7907 203.996H72.4667C72.364 203.333 72.1027 202.829 71.6827 202.484C71.2627 202.139 70.7727 201.966 70.2127 201.966ZM80.0268 206.768H84.5768V208H78.7248V198.2H84.5068V199.432H80.0268V202.442H84.1568V203.66H80.0268V206.768ZM92.0986 208H90.6706L88.7106 205.354L86.7366 208H85.3086L87.9966 204.402L85.4626 201H86.9046L88.7106 203.436L90.5166 201H91.9446L89.4246 204.388L92.0986 208ZM97.0917 200.818C98.0717 200.818 98.907 201.177 99.5977 201.896C100.288 202.605 100.634 203.473 100.634 204.5C100.634 205.527 100.288 206.399 99.5977 207.118C98.907 207.827 98.0717 208.182 97.0917 208.182C95.9344 208.182 95.0524 207.72 94.4457 206.796V210.8H93.2277V201H94.4457V202.204C95.0524 201.28 95.9344 200.818 97.0917 200.818ZM96.9377 207.006C97.6377 207.006 98.2257 206.768 98.7017 206.292C99.1777 205.807 99.4157 205.209 99.4157 204.5C99.4157 203.791 99.1777 203.198 98.7017 202.722C98.2257 202.237 97.6377 201.994 96.9377 201.994C96.2284 201.994 95.6357 202.237 95.1597 202.722C94.6837 203.198 94.4457 203.791 94.4457 204.5C94.4457 205.209 94.6837 205.807 95.1597 206.292C95.6357 206.768 96.2284 207.006 96.9377 207.006ZM102.941 205.06C103.062 205.685 103.347 206.171 103.795 206.516C104.252 206.861 104.812 207.034 105.475 207.034C106.399 207.034 107.071 206.693 107.491 206.012L108.527 206.6C107.846 207.655 106.819 208.182 105.447 208.182C104.336 208.182 103.431 207.837 102.731 207.146C102.04 206.446 101.695 205.564 101.695 204.5C101.695 203.445 102.036 202.568 102.717 201.868C103.398 201.168 104.28 200.818 105.363 200.818C106.39 200.818 107.225 201.182 107.869 201.91C108.522 202.629 108.849 203.497 108.849 204.514C108.849 204.691 108.835 204.873 108.807 205.06H102.941ZM105.363 201.966C104.71 201.966 104.168 202.153 103.739 202.526C103.31 202.89 103.044 203.38 102.941 203.996H107.617C107.514 203.333 107.253 202.829 106.833 202.484C106.413 202.139 105.923 201.966 105.363 201.966ZM111.467 202.176C111.869 201.308 112.597 200.874 113.651 200.874V202.148C113.054 202.12 112.541 202.279 112.111 202.624C111.682 202.969 111.467 203.525 111.467 204.29V208H110.249V201H111.467V202.176ZM115.459 199.726C115.226 199.726 115.03 199.647 114.871 199.488C114.712 199.329 114.633 199.138 114.633 198.914C114.633 198.69 114.712 198.499 114.871 198.34C115.03 198.172 115.226 198.088 115.459 198.088C115.683 198.088 115.874 198.172 116.033 198.34C116.192 198.499 116.271 198.69 116.271 198.914C116.271 199.138 116.192 199.329 116.033 199.488C115.874 199.647 115.683 199.726 115.459 199.726ZM114.843 208V201H116.061V208H114.843ZM118.773 205.06C118.894 205.685 119.179 206.171 119.627 206.516C120.084 206.861 120.644 207.034 121.307 207.034C122.231 207.034 122.903 206.693 123.323 206.012L124.359 206.6C123.678 207.655 122.651 208.182 121.279 208.182C120.168 208.182 119.263 207.837 118.563 207.146C117.872 206.446 117.527 205.564 117.527 204.5C117.527 203.445 117.868 202.568 118.549 201.868C119.23 201.168 120.112 200.818 121.195 200.818C122.222 200.818 123.057 201.182 123.701 201.91C124.354 202.629 124.681 203.497 124.681 204.514C124.681 204.691 124.667 204.873 124.639 205.06H118.773ZM121.195 201.966C120.542 201.966 120 202.153 119.571 202.526C119.142 202.89 118.876 203.38 118.773 203.996H123.449C123.346 203.333 123.085 202.829 122.665 202.484C122.245 202.139 121.755 201.966 121.195 201.966ZM129.567 200.818C130.389 200.818 131.047 201.079 131.541 201.602C132.036 202.115 132.283 202.815 132.283 203.702V208H131.065V203.772C131.065 203.203 130.911 202.764 130.603 202.456C130.295 202.139 129.871 201.98 129.329 201.98C128.723 201.98 128.233 202.171 127.859 202.554C127.486 202.927 127.299 203.506 127.299 204.29V208H126.081V201H127.299V202.008C127.794 201.215 128.55 200.818 129.567 200.818ZM137.274 208.182C136.219 208.182 135.342 207.832 134.642 207.132C133.942 206.423 133.592 205.545 133.592 204.5C133.592 203.455 133.942 202.582 134.642 201.882C135.342 201.173 136.219 200.818 137.274 200.818C137.964 200.818 138.585 200.986 139.136 201.322C139.686 201.649 140.097 202.092 140.368 202.652L139.346 203.24C139.168 202.867 138.893 202.568 138.52 202.344C138.156 202.12 137.74 202.008 137.274 202.008C136.574 202.008 135.986 202.246 135.51 202.722C135.043 203.198 134.81 203.791 134.81 204.5C134.81 205.2 135.043 205.788 135.51 206.264C135.986 206.74 136.574 206.978 137.274 206.978C137.74 206.978 138.16 206.871 138.534 206.656C138.907 206.432 139.192 206.133 139.388 205.76L140.424 206.362C140.125 206.913 139.696 207.356 139.136 207.692C138.576 208.019 137.955 208.182 137.274 208.182ZM142.384 205.06C142.506 205.685 142.79 206.171 143.238 206.516C143.696 206.861 144.256 207.034 144.918 207.034C145.842 207.034 146.514 206.693 146.934 206.012L147.97 206.6C147.289 207.655 146.262 208.182 144.89 208.182C143.78 208.182 142.874 207.837 142.174 207.146C141.484 206.446 141.138 205.564 141.138 204.5C141.138 203.445 141.479 202.568 142.16 201.868C142.842 201.168 143.724 200.818 144.806 200.818C145.833 200.818 146.668 201.182 147.312 201.91C147.966 202.629 148.292 203.497 148.292 204.514C148.292 204.691 148.278 204.873 148.25 205.06H142.384ZM144.806 201.966C144.153 201.966 143.612 202.153 143.182 202.526C142.753 202.89 142.487 203.38 142.384 203.996H147.06C146.958 203.333 146.696 202.829 146.276 202.484C145.856 202.139 145.366 201.966 144.806 201.966Z" fill="white"/>
<defs>
<clipPath id="clip0_1_314">
<rect width="16" height="16" fill="white" transform="translate(0 4)"/>
</clipPath>
<clipPath id="clip1_1_314">
<rect width="16" height="16" fill="white" transform="translate(0 52)"/>
</clipPath>
<clipPath id="clip2_1_314">
<rect width="16" height="16" fill="white" transform="translate(0 100)"/>
</clipPath>
<clipPath id="clip3_1_314">
<rect width="16" height="16" fill="white" transform="translate(0 148)"/>
</clipPath>
<clipPath id="clip4_1_314">
<rect width="16" height="16" fill="white" transform="translate(0 196)"/>
</clipPath>
</defs>
</svg>
