<svg width="341" height="115" viewBox="0 0 341 115" fill="none" xmlns="http://www.w3.org/2000/svg">
<path d="M12.932 23.416C9.56134 23.416 6.76667 22.3067 4.54801 20.088C2.32934 17.848 1.22001 15.0853 1.22001 11.8C1.22001 8.51467 2.32934 5.76267 4.54801 3.544C6.76667 1.304 9.56134 0.183998 12.932 0.183998C14.9587 0.183998 16.8253 0.663998 18.532 1.624C20.26 2.584 21.604 3.88533 22.564 5.528L19.364 7.384C18.7667 6.27467 17.892 5.4 16.74 4.76C15.6093 4.09867 14.34 3.768 12.932 3.768C10.5427 3.768 8.60134 4.52533 7.10801 6.04C5.63601 7.55467 4.90001 9.47467 4.90001 11.8C4.90001 14.1253 5.63601 16.0453 7.10801 17.56C8.60134 19.0747 10.5427 19.832 12.932 19.832C14.34 19.832 15.62 19.512 16.772 18.872C17.924 18.2107 18.788 17.3253 19.364 16.216L22.564 18.04C21.6253 19.6827 20.292 20.9947 18.564 21.976C16.8573 22.936 14.98 23.416 12.932 23.416ZM36.3375 7H39.7935V23H36.3375V20.952C35.2922 22.5947 33.6388 23.416 31.3775 23.416C29.5428 23.416 28.0602 22.8293 26.9295 21.656C25.7988 20.4827 25.2335 18.872 25.2335 16.824V7H28.6895V16.472C28.6895 17.6667 29.0095 18.584 29.6495 19.224C30.2895 19.864 31.1642 20.184 32.2735 20.184C33.4895 20.184 34.4708 19.8107 35.2175 19.064C35.9642 18.296 36.3375 17.1333 36.3375 15.576V7ZM46.845 11.416C46.845 11.9493 47.133 12.376 47.709 12.696C48.3063 12.9947 49.021 13.2613 49.853 13.496C50.7063 13.7093 51.5597 13.9653 52.413 14.264C53.2663 14.5627 53.981 15.0747 54.557 15.8C55.1543 16.504 55.453 17.4 55.453 18.488C55.453 20.024 54.8557 21.2293 53.661 22.104C52.4877 22.9787 51.005 23.416 49.213 23.416C47.6343 23.416 46.2797 23.0853 45.149 22.424C44.0183 21.7627 43.197 20.8453 42.685 19.672L45.661 17.944C46.2157 19.48 47.3997 20.248 49.213 20.248C51.0263 20.248 51.933 19.6507 51.933 18.456C51.933 17.944 51.6343 17.528 51.037 17.208C50.461 16.888 49.7463 16.6213 48.893 16.408C48.061 16.1733 47.2183 15.9067 46.365 15.608C45.5117 15.3093 44.7863 14.8187 44.189 14.136C43.613 13.432 43.325 12.5467 43.325 11.48C43.325 10.008 43.8797 8.824 44.989 7.928C46.1197 7.032 47.517 6.584 49.181 6.584C50.5037 6.584 51.677 6.88267 52.701 7.48C53.7463 8.056 54.5463 8.86667 55.101 9.912L52.189 11.544C51.6343 10.328 50.6317 9.72 49.181 9.72C48.5197 9.72 47.965 9.86933 47.517 10.168C47.069 10.4453 46.845 10.8613 46.845 11.416ZM66.794 10.328H62.826V18.008C62.826 18.6693 62.9753 19.1493 63.274 19.448C63.5727 19.7253 64.01 19.8853 64.586 19.928C65.1833 19.9493 65.9193 19.9387 66.794 19.896V23C64.1487 23.32 62.25 23.096 61.098 22.328C59.946 21.5387 59.37 20.0987 59.37 18.008V10.328H56.426V7H59.37V3.544L62.826 2.52V7H66.794V10.328ZM76.8243 23.416C74.4776 23.416 72.4829 22.6053 70.8403 20.984C69.1976 19.3627 68.3763 17.368 68.3763 15C68.3763 12.632 69.1976 10.6373 70.8403 9.016C72.4829 7.39467 74.4776 6.584 76.8243 6.584C79.1923 6.584 81.1869 7.39467 82.8083 9.016C84.4509 10.6373 85.2723 12.632 85.2723 15C85.2723 17.368 84.4509 19.3627 82.8083 20.984C81.1869 22.6053 79.1923 23.416 76.8243 23.416ZM73.2723 18.616C74.2323 19.576 75.4163 20.056 76.8243 20.056C78.2323 20.056 79.4163 19.576 80.3763 18.616C81.3363 17.656 81.8163 16.4507 81.8163 15C81.8163 13.5493 81.3363 12.344 80.3763 11.384C79.4163 10.424 78.2323 9.944 76.8243 9.944C75.4163 9.944 74.2323 10.424 73.2723 11.384C72.3123 12.344 71.8323 13.5493 71.8323 15C71.8323 16.4507 72.3123 17.656 73.2723 18.616ZM105.869 6.584C107.683 6.584 109.144 7.17067 110.253 8.344C111.363 9.51733 111.917 11.096 111.917 13.08V23H108.461V13.304C108.461 12.1947 108.184 11.3413 107.629 10.744C107.075 10.1253 106.317 9.816 105.357 9.816C104.291 9.816 103.437 10.168 102.797 10.872C102.179 11.576 101.869 12.632 101.869 14.04V23H98.4133V13.304C98.4133 12.1947 98.1466 11.3413 97.6133 10.744C97.1013 10.1253 96.3653 9.816 95.4053 9.816C94.3599 9.816 93.5066 10.1787 92.8453 10.904C92.1839 11.608 91.8533 12.6533 91.8533 14.04V23H88.3973V7H91.8533V8.92C92.8773 7.36267 94.4026 6.584 96.4293 6.584C98.4773 6.584 99.9919 7.42667 100.973 9.112C102.04 7.42667 103.672 6.584 105.869 6.584ZM138.208 21.304C136.629 22.712 134.592 23.416 132.096 23.416C129.6 23.416 127.563 22.712 125.984 21.304C124.405 19.8747 123.616 17.9653 123.616 15.576V0.599998H127.296V15.352C127.296 16.7173 127.691 17.8053 128.48 18.616C129.291 19.4267 130.496 19.832 132.096 19.832C133.696 19.832 134.891 19.4267 135.68 18.616C136.491 17.8053 136.896 16.7173 136.896 15.352V0.599998H140.576V15.576C140.576 17.9653 139.787 19.8747 138.208 21.304ZM157.577 23L152.841 14.84H148.489V23H144.809V0.599998H153.769C155.774 0.599998 157.47 1.304 158.857 2.712C160.265 4.09867 160.969 5.79467 160.969 7.8C160.969 9.22933 160.553 10.5413 159.721 11.736C158.91 12.9093 157.843 13.7627 156.521 14.296L161.609 23H157.577ZM148.489 4.056V11.544H153.769C154.75 11.544 155.582 11.1813 156.265 10.456C156.947 9.73067 157.289 8.84533 157.289 7.8C157.289 6.75467 156.947 5.86933 156.265 5.144C155.582 4.41867 154.75 4.056 153.769 4.056H148.489ZM168.114 19.48H177.234V23H164.434V0.599998H168.114V19.48ZM182.845 11.416C182.845 11.9493 183.133 12.376 183.709 12.696C184.306 12.9947 185.021 13.2613 185.853 13.496C186.706 13.7093 187.56 13.9653 188.413 14.264C189.266 14.5627 189.981 15.0747 190.557 15.8C191.154 16.504 191.453 17.4 191.453 18.488C191.453 20.024 190.856 21.2293 189.661 22.104C188.488 22.9787 187.005 23.416 185.213 23.416C183.634 23.416 182.28 23.0853 181.149 22.424C180.018 21.7627 179.197 20.8453 178.685 19.672L181.661 17.944C182.216 19.48 183.4 20.248 185.213 20.248C187.026 20.248 187.933 19.6507 187.933 18.456C187.933 17.944 187.634 17.528 187.037 17.208C186.461 16.888 185.746 16.6213 184.893 16.408C184.061 16.1733 183.218 15.9067 182.365 15.608C181.512 15.3093 180.786 14.8187 180.189 14.136C179.613 13.432 179.325 12.5467 179.325 11.48C179.325 10.008 179.88 8.824 180.989 7.928C182.12 7.032 183.517 6.584 185.181 6.584C186.504 6.584 187.677 6.88267 188.701 7.48C189.746 8.056 190.546 8.86667 191.101 9.912L188.189 11.544C187.634 10.328 186.632 9.72 185.181 9.72C184.52 9.72 183.965 9.86933 183.517 10.168C183.069 10.4453 182.845 10.8613 182.845 11.416Z" fill="#141414"/>
<path d="M3.71601 60L0.500006 48.8H2.06801L4.62801 58.016L7.34801 48.8H8.85201L11.572 58.016L14.132 48.8H15.7L12.484 60H10.756L8.10001 51.056L5.44401 60H3.71601ZM17.5475 50.544C17.2808 50.544 17.0568 50.4533 16.8755 50.272C16.6942 50.0907 16.6035 49.872 16.6035 49.616C16.6035 49.36 16.6942 49.1413 16.8755 48.96C17.0568 48.768 17.2808 48.672 17.5475 48.672C17.8035 48.672 18.0222 48.768 18.2035 48.96C18.3848 49.1413 18.4755 49.36 18.4755 49.616C18.4755 49.872 18.3848 50.0907 18.2035 50.272C18.0222 50.4533 17.8035 50.544 17.5475 50.544ZM16.8435 60V52H18.2355V60H16.8435ZM24.7111 53.344H22.5831V57.68C22.5831 58.0747 22.6578 58.3573 22.8071 58.528C22.9671 58.688 23.2071 58.7733 23.5271 58.784C23.8471 58.784 24.2418 58.7733 24.7111 58.752V60C23.4951 60.16 22.6045 60.064 22.0391 59.712C21.4738 59.3493 21.1911 58.672 21.1911 57.68V53.344H19.6071V52H21.1911V50.176L22.5831 49.76V52H24.7111V53.344ZM30.3431 51.792C31.2818 51.792 32.0338 52.0907 32.5991 52.688C33.1645 53.2747 33.4471 54.0747 33.4471 55.088V60H32.0551V55.168C32.0551 54.5173 31.8791 54.016 31.5271 53.664C31.1751 53.3013 30.6898 53.12 30.0711 53.12C29.3778 53.12 28.8178 53.3387 28.3911 53.776C27.9645 54.2027 27.7511 54.864 27.7511 55.76V60H26.3591V48.8H27.7511V53.152C28.3165 52.2453 29.1805 51.792 30.3431 51.792ZM43.1504 60.208C42.105 60.208 41.209 59.9627 40.4624 59.472C39.7264 58.9813 39.209 58.3093 38.9104 57.456L40.1904 56.72C40.6277 58.0747 41.625 58.752 43.1824 58.752C43.9504 58.752 44.537 58.5973 44.9424 58.288C45.3477 57.968 45.5504 57.5467 45.5504 57.024C45.5504 56.4907 45.3477 56.0907 44.9424 55.824C44.537 55.5573 43.8597 55.2747 42.9104 54.976C42.441 54.8267 42.0837 54.7093 41.8384 54.624C41.593 54.528 41.2837 54.3893 40.9104 54.208C40.5477 54.016 40.2757 53.824 40.0944 53.632C39.913 53.4293 39.7477 53.168 39.5984 52.848C39.4597 52.528 39.3904 52.1653 39.3904 51.76C39.3904 50.7893 39.7317 50.0213 40.4144 49.456C41.097 48.88 41.929 48.592 42.9104 48.592C43.7957 48.592 44.5637 48.816 45.2144 49.264C45.8757 49.712 46.3717 50.304 46.7024 51.04L45.4544 51.76C44.9744 50.608 44.1264 50.032 42.9104 50.032C42.3024 50.032 41.8117 50.1813 41.4384 50.48C41.065 50.7787 40.8784 51.184 40.8784 51.696C40.8784 52.1867 41.0544 52.56 41.4064 52.816C41.7584 53.072 42.3664 53.3387 43.2304 53.616C43.5397 53.712 43.7584 53.7813 43.8864 53.824C44.0144 53.8667 44.2117 53.9413 44.4784 54.048C44.7557 54.1547 44.9584 54.24 45.0864 54.304C45.2144 54.368 45.385 54.4587 45.5984 54.576C45.8224 54.6933 45.9877 54.8053 46.0944 54.912C46.201 55.0187 46.3237 55.152 46.4624 55.312C46.6117 55.4613 46.7184 55.616 46.7824 55.776C46.8464 55.936 46.8997 56.1227 46.9424 56.336C46.9957 56.5387 47.0224 56.7573 47.0224 56.992C47.0224 57.9733 46.665 58.7573 45.9504 59.344C45.2357 59.92 44.3024 60.208 43.1504 60.208ZM52.5879 60.208C51.3825 60.208 50.3799 59.808 49.5799 59.008C48.7799 58.1973 48.3799 57.1947 48.3799 56C48.3799 54.8053 48.7799 53.808 49.5799 53.008C50.3799 52.1973 51.3825 51.792 52.5879 51.792C53.3772 51.792 54.0865 51.984 54.7159 52.368C55.3452 52.7413 55.8145 53.248 56.1239 53.888L54.9559 54.56C54.7532 54.1333 54.4385 53.792 54.0119 53.536C53.5959 53.28 53.1212 53.152 52.5879 53.152C51.7879 53.152 51.1159 53.424 50.5719 53.968C50.0385 54.512 49.7719 55.1893 49.7719 56C49.7719 56.8 50.0385 57.472 50.5719 58.016C51.1159 58.56 51.7879 58.832 52.5879 58.832C53.1212 58.832 53.6012 58.7093 54.0279 58.464C54.4545 58.208 54.7799 57.8667 55.0039 57.44L56.1879 58.128C55.8465 58.7573 55.3559 59.264 54.7159 59.648C54.0759 60.0213 53.3665 60.208 52.5879 60.208ZM58.2663 50.544C57.9996 50.544 57.7756 50.4533 57.5943 50.272C57.4129 50.0907 57.3223 49.872 57.3223 49.616C57.3223 49.36 57.4129 49.1413 57.5943 48.96C57.7756 48.768 57.9996 48.672 58.2663 48.672C58.5223 48.672 58.7409 48.768 58.9223 48.96C59.1036 49.1413 59.1943 49.36 59.1943 49.616C59.1943 49.872 59.1036 50.0907 58.9223 50.272C58.7409 50.4533 58.5223 50.544 58.2663 50.544ZM57.5623 60V52H58.9543V60H57.5623ZM62.2623 54.16C62.2623 54.4693 62.4169 54.72 62.7263 54.912C63.0356 55.0933 63.4089 55.2427 63.8463 55.36C64.2836 55.4667 64.7209 55.5947 65.1583 55.744C65.5956 55.8827 65.9689 56.128 66.2783 56.48C66.5876 56.8213 66.7423 57.264 66.7423 57.808C66.7423 58.5333 66.4596 59.1147 65.8943 59.552C65.3396 59.9893 64.6249 60.208 63.7503 60.208C62.9716 60.208 62.3049 60.0373 61.7503 59.696C61.1956 59.3547 60.8009 58.9013 60.5663 58.336L61.7663 57.648C61.8943 58.032 62.1343 58.336 62.4863 58.56C62.8383 58.784 63.2596 58.896 63.7503 58.896C64.2089 58.896 64.5876 58.8107 64.8863 58.64C65.1849 58.4587 65.3343 58.1813 65.3343 57.808C65.3343 57.4987 65.1796 57.2533 64.8703 57.072C64.5609 56.88 64.1876 56.7307 63.7503 56.624C63.3129 56.5067 62.8756 56.3733 62.4383 56.224C62.0009 56.0747 61.6276 55.8293 61.3183 55.488C61.0089 55.1467 60.8543 54.7093 60.8543 54.176C60.8543 53.4827 61.1209 52.912 61.6543 52.464C62.1983 52.016 62.8756 51.792 63.6863 51.792C64.3369 51.792 64.9129 51.9413 65.4143 52.24C65.9263 52.528 66.3103 52.9333 66.5663 53.456L65.3983 54.112C65.1103 53.4293 64.5396 53.088 63.6863 53.088C63.2916 53.088 62.9556 53.184 62.6783 53.376C62.4009 53.5573 62.2623 53.8187 62.2623 54.16ZM69.0904 54.16C69.0904 54.4693 69.245 54.72 69.5544 54.912C69.8637 55.0933 70.237 55.2427 70.6744 55.36C71.1117 55.4667 71.549 55.5947 71.9864 55.744C72.4237 55.8827 72.797 56.128 73.1064 56.48C73.4157 56.8213 73.5704 57.264 73.5704 57.808C73.5704 58.5333 73.2877 59.1147 72.7224 59.552C72.1677 59.9893 71.453 60.208 70.5784 60.208C69.7997 60.208 69.133 60.0373 68.5784 59.696C68.0237 59.3547 67.629 58.9013 67.3944 58.336L68.5944 57.648C68.7224 58.032 68.9624 58.336 69.3144 58.56C69.6664 58.784 70.0877 58.896 70.5784 58.896C71.037 58.896 71.4157 58.8107 71.7144 58.64C72.013 58.4587 72.1624 58.1813 72.1624 57.808C72.1624 57.4987 72.0077 57.2533 71.6984 57.072C71.389 56.88 71.0157 56.7307 70.5784 56.624C70.141 56.5067 69.7037 56.3733 69.2664 56.224C68.829 56.0747 68.4557 55.8293 68.1464 55.488C67.837 55.1467 67.6824 54.7093 67.6824 54.176C67.6824 53.4827 67.949 52.912 68.4824 52.464C69.0264 52.016 69.7037 51.792 70.5144 51.792C71.165 51.792 71.741 51.9413 72.2424 52.24C72.7544 52.528 73.1384 52.9333 73.3944 53.456L72.2264 54.112C71.9384 53.4293 71.3677 53.088 70.5144 53.088C70.1197 53.088 69.7837 53.184 69.5064 53.376C69.229 53.5573 69.0904 53.8187 69.0904 54.16ZM81.7518 58.992C80.9304 59.8027 79.9331 60.208 78.7598 60.208C77.5864 60.208 76.5891 59.8027 75.7678 58.992C74.9571 58.1813 74.5518 57.184 74.5518 56C74.5518 54.816 74.9571 53.8187 75.7678 53.008C76.5891 52.1973 77.5864 51.792 78.7598 51.792C79.9331 51.792 80.9304 52.1973 81.7518 53.008C82.5731 53.8187 82.9838 54.816 82.9838 56C82.9838 57.184 82.5731 58.1813 81.7518 58.992ZM78.7598 58.848C79.5598 58.848 80.2318 58.576 80.7758 58.032C81.3198 57.488 81.5918 56.8107 81.5918 56C81.5918 55.1893 81.3198 54.512 80.7758 53.968C80.2318 53.424 79.5598 53.152 78.7598 53.152C77.9704 53.152 77.3038 53.424 76.7598 53.968C76.2158 54.512 75.9438 55.1893 75.9438 56C75.9438 56.8107 76.2158 57.488 76.7598 58.032C77.3038 58.576 77.9704 58.848 78.7598 58.848ZM86.0168 53.344C86.4754 52.352 87.3074 51.856 88.5128 51.856V53.312C87.8301 53.28 87.2434 53.4613 86.7528 53.856C86.2621 54.2507 86.0168 54.8853 86.0168 55.76V60H84.6248V52H86.0168V53.344ZM90.8141 58.352L89.7741 62.24H88.5741L89.2141 58.352H90.8141ZM102.365 52H103.853L100.589 60.496C100.248 61.4027 99.7677 62.0907 99.149 62.56C98.541 63.04 97.837 63.2533 97.037 63.2V61.904C98.0183 61.9787 98.7383 61.4347 99.197 60.272L99.341 59.968L95.853 52H97.341L100.061 58.272L102.365 52ZM111.455 58.992C110.634 59.8027 109.636 60.208 108.463 60.208C107.29 60.208 106.292 59.8027 105.471 58.992C104.66 58.1813 104.255 57.184 104.255 56C104.255 54.816 104.66 53.8187 105.471 53.008C106.292 52.1973 107.29 51.792 108.463 51.792C109.636 51.792 110.634 52.1973 111.455 53.008C112.276 53.8187 112.687 54.816 112.687 56C112.687 57.184 112.276 58.1813 111.455 58.992ZM108.463 58.848C109.263 58.848 109.935 58.576 110.479 58.032C111.023 57.488 111.295 56.8107 111.295 56C111.295 55.1893 111.023 54.512 110.479 53.968C109.935 53.424 109.263 53.152 108.463 53.152C107.674 53.152 107.007 53.424 106.463 53.968C105.919 54.512 105.647 55.1893 105.647 56C105.647 56.8107 105.919 57.488 106.463 58.032C107.007 58.576 107.674 58.848 108.463 58.848ZM119.848 52H121.24V60H119.848V58.848C119.283 59.7547 118.419 60.208 117.256 60.208C116.317 60.208 115.565 59.9147 115 59.328C114.435 58.7307 114.152 57.9253 114.152 56.912V52H115.544V56.832C115.544 57.4827 115.72 57.9893 116.072 58.352C116.424 58.704 116.909 58.88 117.528 58.88C118.221 58.88 118.781 58.6667 119.208 58.24C119.635 57.8027 119.848 57.136 119.848 56.24V52ZM131.119 60.208C129.914 60.208 128.911 59.808 128.111 59.008C127.311 58.1973 126.911 57.1947 126.911 56C126.911 54.8053 127.311 53.808 128.111 53.008C128.911 52.1973 129.914 51.792 131.119 51.792C131.908 51.792 132.618 51.984 133.247 52.368C133.876 52.7413 134.346 53.248 134.655 53.888L133.487 54.56C133.284 54.1333 132.97 53.792 132.543 53.536C132.127 53.28 131.652 53.152 131.119 53.152C130.319 53.152 129.647 53.424 129.103 53.968C128.57 54.512 128.303 55.1893 128.303 56C128.303 56.8 128.57 57.472 129.103 58.016C129.647 58.56 130.319 58.832 131.119 58.832C131.652 58.832 132.132 58.7093 132.559 58.464C132.986 58.208 133.311 57.8667 133.535 57.44L134.719 58.128C134.378 58.7573 133.887 59.264 133.247 59.648C132.607 60.0213 131.898 60.208 131.119 60.208ZM142.608 52H144V60H142.608V58.624C141.915 59.68 140.907 60.208 139.584 60.208C138.464 60.208 137.509 59.8027 136.72 58.992C135.931 58.1707 135.536 57.1733 135.536 56C135.536 54.8267 135.931 53.8347 136.72 53.024C137.509 52.2027 138.464 51.792 139.584 51.792C140.907 51.792 141.915 52.32 142.608 53.376V52ZM139.76 58.864C140.571 58.864 141.248 58.592 141.792 58.048C142.336 57.4933 142.608 56.8107 142.608 56C142.608 55.1893 142.336 54.512 141.792 53.968C141.248 53.4133 140.571 53.136 139.76 53.136C138.96 53.136 138.288 53.4133 137.744 53.968C137.2 54.512 136.928 55.1893 136.928 56C136.928 56.8107 137.2 57.4933 137.744 58.048C138.288 58.592 138.96 58.864 139.76 58.864ZM150.093 51.792C151.032 51.792 151.784 52.0907 152.349 52.688C152.914 53.2747 153.197 54.0747 153.197 55.088V60H151.805V55.168C151.805 54.5173 151.629 54.016 151.277 53.664C150.925 53.3013 150.44 53.12 149.821 53.12C149.128 53.12 148.568 53.3387 148.141 53.776C147.714 54.2027 147.501 54.864 147.501 55.76V60H146.109V52H147.501V53.152C148.066 52.2453 148.93 51.792 150.093 51.792ZM162.9 60.208C161.695 60.208 160.692 59.808 159.892 59.008C159.092 58.1973 158.692 57.1947 158.692 56C158.692 54.8053 159.092 53.808 159.892 53.008C160.692 52.1973 161.695 51.792 162.9 51.792C163.69 51.792 164.399 51.984 165.028 52.368C165.658 52.7413 166.127 53.248 166.436 53.888L165.268 54.56C165.066 54.1333 164.751 53.792 164.324 53.536C163.908 53.28 163.434 53.152 162.9 53.152C162.1 53.152 161.428 53.424 160.884 53.968C160.351 54.512 160.084 55.1893 160.084 56C160.084 56.8 160.351 57.472 160.884 58.016C161.428 58.56 162.1 58.832 162.9 58.832C163.434 58.832 163.914 58.7093 164.34 58.464C164.767 58.208 165.092 57.8667 165.316 57.44L166.5 58.128C166.159 58.7573 165.668 59.264 165.028 59.648C164.388 60.0213 163.679 60.208 162.9 60.208ZM169.282 53.344C169.741 52.352 170.573 51.856 171.778 51.856V53.312C171.096 53.28 170.509 53.4613 170.018 53.856C169.528 54.2507 169.282 54.8853 169.282 55.76V60H167.89V52H169.282V53.344ZM173.679 56.64C173.818 57.3547 174.143 57.9093 174.655 58.304C175.178 58.6987 175.818 58.896 176.575 58.896C177.631 58.896 178.399 58.5067 178.879 57.728L180.063 58.4C179.284 59.6053 178.111 60.208 176.543 60.208C175.274 60.208 174.239 59.8133 173.439 59.024C172.65 58.224 172.255 57.216 172.255 56C172.255 54.7947 172.644 53.792 173.423 52.992C174.202 52.192 175.21 51.792 176.447 51.792C177.62 51.792 178.575 52.208 179.311 53.04C180.058 53.8613 180.431 54.8533 180.431 56.016C180.431 56.2187 180.415 56.4267 180.383 56.64H173.679ZM176.447 53.104C175.7 53.104 175.082 53.3173 174.591 53.744C174.1 54.16 173.796 54.72 173.679 55.424H179.023C178.906 54.6667 178.607 54.0907 178.127 53.696C177.647 53.3013 177.087 53.104 176.447 53.104ZM188.639 52H190.031V60H188.639V58.624C187.946 59.68 186.938 60.208 185.615 60.208C184.495 60.208 183.541 59.8027 182.751 58.992C181.962 58.1707 181.567 57.1733 181.567 56C181.567 54.8267 181.962 53.8347 182.751 53.024C183.541 52.2027 184.495 51.792 185.615 51.792C186.938 51.792 187.946 52.32 188.639 53.376V52ZM185.791 58.864C186.602 58.864 187.279 58.592 187.823 58.048C188.367 57.4933 188.639 56.8107 188.639 56C188.639 55.1893 188.367 54.512 187.823 53.968C187.279 53.4133 186.602 53.136 185.791 53.136C184.991 53.136 184.319 53.4133 183.775 53.968C183.231 54.512 182.959 55.1893 182.959 56C182.959 56.8107 183.231 57.4933 183.775 58.048C184.319 58.592 184.991 58.864 185.791 58.864ZM196.492 53.344H194.364V57.68C194.364 58.0747 194.439 58.3573 194.588 58.528C194.748 58.688 194.988 58.7733 195.308 58.784C195.628 58.784 196.023 58.7733 196.492 58.752V60C195.276 60.16 194.386 60.064 193.82 59.712C193.255 59.3493 192.972 58.672 192.972 57.68V53.344H191.388V52H192.972V50.176L194.364 49.76V52H196.492V53.344ZM198.71 56.64C198.849 57.3547 199.174 57.9093 199.686 58.304C200.209 58.6987 200.849 58.896 201.606 58.896C202.662 58.896 203.43 58.5067 203.91 57.728L205.094 58.4C204.315 59.6053 203.142 60.208 201.574 60.208C200.305 60.208 199.27 59.8133 198.47 59.024C197.681 58.224 197.286 57.216 197.286 56C197.286 54.7947 197.675 53.792 198.454 52.992C199.233 52.192 200.241 51.792 201.478 51.792C202.651 51.792 203.606 52.208 204.342 53.04C205.089 53.8613 205.462 54.8533 205.462 56.016C205.462 56.2187 205.446 56.4267 205.414 56.64H198.71ZM201.478 53.104C200.731 53.104 200.113 53.3173 199.622 53.744C199.131 54.16 198.827 54.72 198.71 55.424H204.054C203.937 54.6667 203.638 54.0907 203.158 53.696C202.678 53.3013 202.118 53.104 201.478 53.104ZM214.822 60.208C213.617 60.208 212.614 59.808 211.814 59.008C211.014 58.1973 210.614 57.1947 210.614 56C210.614 54.8053 211.014 53.808 211.814 53.008C212.614 52.1973 213.617 51.792 214.822 51.792C215.612 51.792 216.321 51.984 216.95 52.368C217.58 52.7413 218.049 53.248 218.358 53.888L217.19 54.56C216.988 54.1333 216.673 53.792 216.246 53.536C215.83 53.28 215.356 53.152 214.822 53.152C214.022 53.152 213.35 53.424 212.806 53.968C212.273 54.512 212.006 55.1893 212.006 56C212.006 56.8 212.273 57.472 212.806 58.016C213.35 58.56 214.022 58.832 214.822 58.832C215.356 58.832 215.836 58.7093 216.262 58.464C216.689 58.208 217.014 57.8667 217.238 57.44L218.422 58.128C218.081 58.7573 217.59 59.264 216.95 59.648C216.31 60.0213 215.601 60.208 214.822 60.208ZM225.332 52H226.724V60H225.332V58.848C224.767 59.7547 223.903 60.208 222.74 60.208C221.802 60.208 221.05 59.9147 220.484 59.328C219.919 58.7307 219.636 57.9253 219.636 56.912V52H221.028V56.832C221.028 57.4827 221.204 57.9893 221.556 58.352C221.908 58.704 222.394 58.88 223.012 58.88C223.706 58.88 224.266 58.6667 224.692 58.24C225.119 57.8027 225.332 57.136 225.332 56.24V52ZM230.028 54.16C230.028 54.4693 230.183 54.72 230.492 54.912C230.801 55.0933 231.175 55.2427 231.612 55.36C232.049 55.4667 232.487 55.5947 232.924 55.744C233.361 55.8827 233.735 56.128 234.044 56.48C234.353 56.8213 234.508 57.264 234.508 57.808C234.508 58.5333 234.225 59.1147 233.66 59.552C233.105 59.9893 232.391 60.208 231.516 60.208C230.737 60.208 230.071 60.0373 229.516 59.696C228.961 59.3547 228.567 58.9013 228.332 58.336L229.532 57.648C229.66 58.032 229.9 58.336 230.252 58.56C230.604 58.784 231.025 58.896 231.516 58.896C231.975 58.896 232.353 58.8107 232.652 58.64C232.951 58.4587 233.1 58.1813 233.1 57.808C233.1 57.4987 232.945 57.2533 232.636 57.072C232.327 56.88 231.953 56.7307 231.516 56.624C231.079 56.5067 230.641 56.3733 230.204 56.224C229.767 56.0747 229.393 55.8293 229.084 55.488C228.775 55.1467 228.62 54.7093 228.62 54.176C228.62 53.4827 228.887 52.912 229.42 52.464C229.964 52.016 230.641 51.792 231.452 51.792C232.103 51.792 232.679 51.9413 233.18 52.24C233.692 52.528 234.076 52.9333 234.332 53.456L233.164 54.112C232.876 53.4293 232.305 53.088 231.452 53.088C231.057 53.088 230.721 53.184 230.444 53.376C230.167 53.5573 230.028 53.8187 230.028 54.16ZM240.196 53.344H238.068V57.68C238.068 58.0747 238.142 58.3573 238.292 58.528C238.452 58.688 238.692 58.7733 239.012 58.784C239.332 58.784 239.726 58.7733 240.196 58.752V60C238.98 60.16 238.089 60.064 237.524 59.712C236.958 59.3493 236.676 58.672 236.676 57.68V53.344H235.092V52H236.676V50.176L238.068 49.76V52H240.196V53.344ZM248.189 58.992C247.368 59.8027 246.371 60.208 245.197 60.208C244.024 60.208 243.027 59.8027 242.205 58.992C241.395 58.1813 240.989 57.184 240.989 56C240.989 54.816 241.395 53.8187 242.205 53.008C243.027 52.1973 244.024 51.792 245.197 51.792C246.371 51.792 247.368 52.1973 248.189 53.008C249.011 53.8187 249.421 54.816 249.421 56C249.421 57.184 249.011 58.1813 248.189 58.992ZM245.197 58.848C245.997 58.848 246.669 58.576 247.213 58.032C247.757 57.488 248.029 56.8107 248.029 56C248.029 55.1893 247.757 54.512 247.213 53.968C246.669 53.424 245.997 53.152 245.197 53.152C244.408 53.152 243.741 53.424 243.197 53.968C242.653 54.512 242.381 55.1893 242.381 56C242.381 56.8107 242.653 57.488 243.197 58.032C243.741 58.576 244.408 58.848 245.197 58.848ZM259.702 51.792C260.598 51.792 261.324 52.0853 261.878 52.672C262.433 53.248 262.71 54.032 262.71 55.024V60H261.318V55.072C261.318 54.4533 261.158 53.9733 260.838 53.632C260.518 53.2907 260.092 53.12 259.558 53.12C258.961 53.12 258.481 53.3227 258.118 53.728C257.766 54.1227 257.59 54.7307 257.59 55.552V60H256.198V55.072C256.198 54.4533 256.044 53.9733 255.734 53.632C255.436 53.2907 255.025 53.12 254.502 53.12C253.916 53.12 253.425 53.3227 253.03 53.728C252.646 54.1333 252.454 54.7413 252.454 55.552V60H251.062V52H252.454V53.072C252.998 52.2187 253.793 51.792 254.838 51.792C255.916 51.792 256.7 52.2453 257.19 53.152C257.745 52.2453 258.582 51.792 259.702 51.792ZM275.872 59.136C275.094 59.8507 274.086 60.208 272.848 60.208C271.611 60.208 270.598 59.8507 269.808 59.136C269.03 58.4107 268.64 57.4453 268.64 56.24V48.8H270.128V56.176C270.128 56.9653 270.363 57.5947 270.832 58.064C271.302 58.5227 271.974 58.752 272.848 58.752C273.723 58.752 274.395 58.5227 274.864 58.064C275.334 57.5947 275.568 56.9653 275.568 56.176V48.8H277.04V56.24C277.04 57.4453 276.651 58.4107 275.872 59.136ZM285.956 60L283.444 55.712H280.804V60H279.316V48.8H283.796C284.756 48.8 285.577 49.1413 286.26 49.824C286.942 50.496 287.284 51.312 287.284 52.272C287.284 52.9973 287.065 53.6587 286.628 54.256C286.201 54.8533 285.646 55.2747 284.964 55.52L287.604 60H285.956ZM280.804 50.192V54.368H283.796C284.35 54.368 284.82 54.1653 285.204 53.76C285.598 53.344 285.796 52.848 285.796 52.272C285.796 51.696 285.598 51.2053 285.204 50.8C284.82 50.3947 284.35 50.192 283.796 50.192H280.804ZM290.585 58.592H295.417V60H289.097V48.8H290.585V58.592ZM297.965 54.16C297.965 54.4693 298.12 54.72 298.429 54.912C298.739 55.0933 299.112 55.2427 299.549 55.36C299.987 55.4667 300.424 55.5947 300.861 55.744C301.299 55.8827 301.672 56.128 301.981 56.48C302.291 56.8213 302.445 57.264 302.445 57.808C302.445 58.5333 302.163 59.1147 301.597 59.552C301.043 59.9893 300.328 60.208 299.453 60.208C298.675 60.208 298.008 60.0373 297.453 59.696C296.899 59.3547 296.504 58.9013 296.269 58.336L297.469 57.648C297.597 58.032 297.837 58.336 298.189 58.56C298.541 58.784 298.963 58.896 299.453 58.896C299.912 58.896 300.291 58.8107 300.589 58.64C300.888 58.4587 301.037 58.1813 301.037 57.808C301.037 57.4987 300.883 57.2533 300.573 57.072C300.264 56.88 299.891 56.7307 299.453 56.624C299.016 56.5067 298.579 56.3733 298.141 56.224C297.704 56.0747 297.331 55.8293 297.021 55.488C296.712 55.1467 296.557 54.7093 296.557 54.176C296.557 53.4827 296.824 52.912 297.357 52.464C297.901 52.016 298.579 51.792 299.389 51.792C300.04 51.792 300.616 51.9413 301.117 52.24C301.629 52.528 302.013 52.9333 302.269 53.456L301.101 54.112C300.813 53.4293 300.243 53.088 299.389 53.088C298.995 53.088 298.659 53.184 298.381 53.376C298.104 53.5573 297.965 53.8187 297.965 54.16ZM306.002 58.352L304.962 62.24H303.762L304.402 58.352H306.002ZM10.58 76H12.036L9.55601 84H8.13201L6.26001 78.08L4.38801 84H2.96401L0.484006 76H1.94001L3.70001 82.08L5.58801 76H6.93201L8.82001 82.096L10.58 76ZM14.1725 74.544C13.9058 74.544 13.6818 74.4533 13.5005 74.272C13.3192 74.0907 13.2285 73.872 13.2285 73.616C13.2285 73.36 13.3192 73.1413 13.5005 72.96C13.6818 72.768 13.9058 72.672 14.1725 72.672C14.4285 72.672 14.6472 72.768 14.8285 72.96C15.0098 73.1413 15.1005 73.36 15.1005 73.616C15.1005 73.872 15.0098 74.0907 14.8285 74.272C14.6472 74.4533 14.4285 74.544 14.1725 74.544ZM13.4685 84V76H14.8605V84H13.4685ZM21.3361 77.344H19.2081V81.68C19.2081 82.0747 19.2828 82.3573 19.4321 82.528C19.5921 82.688 19.8321 82.7733 20.1521 82.784C20.4721 82.784 20.8668 82.7733 21.3361 82.752V84C20.1201 84.16 19.2295 84.064 18.6641 83.712C18.0988 83.3493 17.8161 82.672 17.8161 81.68V77.344H16.2321V76H17.8161V74.176L19.2081 73.76V76H21.3361V77.344ZM26.9681 75.792C27.9068 75.792 28.6588 76.0907 29.2241 76.688C29.7895 77.2747 30.0721 78.0747 30.0721 79.088V84H28.6801V79.168C28.6801 78.5173 28.5041 78.016 28.1521 77.664C27.8001 77.3013 27.3148 77.12 26.6961 77.12C26.0028 77.12 25.4428 77.3387 25.0161 77.776C24.5895 78.2027 24.3761 78.864 24.3761 79.76V84H22.9841V72.8H24.3761V77.152C24.9415 76.2453 25.8055 75.792 26.9681 75.792ZM40.3674 77.344H38.2394V81.68C38.2394 82.0747 38.314 82.3573 38.4634 82.528C38.6234 82.688 38.8634 82.7733 39.1834 82.784C39.5034 82.784 39.898 82.7733 40.3674 82.752V84C39.1514 84.16 38.2607 84.064 37.6954 83.712C37.13 83.3493 36.8474 82.672 36.8474 81.68V77.344H35.2634V76H36.8474V74.176L38.2394 73.76V76H40.3674V77.344ZM45.9994 75.792C46.938 75.792 47.69 76.0907 48.2554 76.688C48.8207 77.2747 49.1034 78.0747 49.1034 79.088V84H47.7114V79.168C47.7114 78.5173 47.5354 78.016 47.1834 77.664C46.8314 77.3013 46.346 77.12 45.7274 77.12C45.034 77.12 44.474 77.3387 44.0474 77.776C43.6207 78.2027 43.4074 78.864 43.4074 79.76V84H42.0154V72.8H43.4074V77.152C43.9727 76.2453 44.8367 75.792 45.9994 75.792ZM52.0226 80.64C52.1613 81.3547 52.4866 81.9093 52.9986 82.304C53.5213 82.6987 54.1613 82.896 54.9186 82.896C55.9746 82.896 56.7426 82.5067 57.2226 81.728L58.4066 82.4C57.628 83.6053 56.4546 84.208 54.8866 84.208C53.6173 84.208 52.5826 83.8133 51.7826 83.024C50.9933 82.224 50.5986 81.216 50.5986 80C50.5986 78.7947 50.988 77.792 51.7666 76.992C52.5453 76.192 53.5533 75.792 54.7906 75.792C55.964 75.792 56.9186 76.208 57.6546 77.04C58.4013 77.8613 58.7746 78.8533 58.7746 80.016C58.7746 80.2187 58.7586 80.4267 58.7266 80.64H52.0226ZM54.7906 77.104C54.044 77.104 53.4253 77.3173 52.9346 77.744C52.444 78.16 52.14 78.72 52.0226 79.424H57.3666C57.2493 78.6667 56.9506 78.0907 56.4706 77.696C55.9906 77.3013 55.4306 77.104 54.7906 77.104ZM64.3748 84V72.32H65.7668V84H64.3748ZM68.8664 80.64C69.005 81.3547 69.3304 81.9093 69.8424 82.304C70.365 82.6987 71.005 82.896 71.7624 82.896C72.8184 82.896 73.5864 82.5067 74.0664 81.728L75.2504 82.4C74.4717 83.6053 73.2984 84.208 71.7304 84.208C70.461 84.208 69.4264 83.8133 68.6264 83.024C67.837 82.224 67.4424 81.216 67.4424 80C67.4424 78.7947 67.8317 77.792 68.6104 76.992C69.389 76.192 70.397 75.792 71.6344 75.792C72.8077 75.792 73.7624 76.208 74.4984 77.04C75.245 77.8613 75.6184 78.8533 75.6184 80.016C75.6184 80.2187 75.6024 80.4267 75.5704 80.64H68.8664ZM71.6344 77.104C70.8877 77.104 70.269 77.3173 69.7784 77.744C69.2877 78.16 68.9837 78.72 68.8664 79.424H74.2104C74.093 78.6667 73.7944 78.0907 73.3144 77.696C72.8344 77.3013 72.2744 77.104 71.6344 77.104ZM81.2025 75.792C82.1412 75.792 82.8932 76.0907 83.4585 76.688C84.0238 77.2747 84.3065 78.0747 84.3065 79.088V84H82.9145V79.168C82.9145 78.5173 82.7385 78.016 82.3865 77.664C82.0345 77.3013 81.5492 77.12 80.9305 77.12C80.2372 77.12 79.6772 77.3387 79.2505 77.776C78.8238 78.2027 78.6105 78.864 78.6105 79.76V84H77.2185V76H78.6105V77.152C79.1758 76.2453 80.0398 75.792 81.2025 75.792ZM92.8898 76H94.2658V83.664C94.2658 84.848 93.8658 85.7653 93.0658 86.416C92.2658 87.0773 91.3058 87.408 90.1858 87.408C89.2898 87.408 88.5164 87.2373 87.8658 86.896C87.2151 86.5653 86.7244 86.0853 86.3938 85.456L87.6098 84.768C88.0471 85.664 88.9164 86.112 90.2178 86.112C91.0498 86.112 91.7004 85.8933 92.1698 85.456C92.6498 85.0187 92.8898 84.4213 92.8898 83.664V82.528C92.1858 83.5947 91.1831 84.128 89.8818 84.128C88.7404 84.128 87.7751 83.7227 86.9858 82.912C86.1964 82.1013 85.8018 81.1147 85.8018 79.952C85.8018 78.7893 86.1964 77.808 86.9858 77.008C87.7751 76.1973 88.7404 75.792 89.8818 75.792C91.1938 75.792 92.1964 76.32 92.8898 77.376V76ZM88.0098 81.984C88.5538 82.528 89.2311 82.8 90.0418 82.8C90.8524 82.8 91.5298 82.528 92.0738 81.984C92.6178 81.44 92.8898 80.7627 92.8898 79.952C92.8898 79.152 92.6178 78.48 92.0738 77.936C91.5298 77.392 90.8524 77.12 90.0418 77.12C89.2311 77.12 88.5538 77.392 88.0098 77.936C87.4658 78.48 87.1938 79.152 87.1938 79.952C87.1938 80.7627 87.4658 81.44 88.0098 81.984ZM100.727 77.344H98.5988V81.68C98.5988 82.0747 98.6734 82.3573 98.8228 82.528C98.9828 82.688 99.2228 82.7733 99.5428 82.784C99.8628 82.784 100.257 82.7733 100.727 82.752V84C99.5108 84.16 98.6201 84.064 98.0548 83.712C97.4894 83.3493 97.2068 82.672 97.2068 81.68V77.344H95.6228V76H97.2068V74.176L98.5988 73.76V76H100.727V77.344ZM106.359 75.792C107.297 75.792 108.049 76.0907 108.615 76.688C109.18 77.2747 109.463 78.0747 109.463 79.088V84H108.071V79.168C108.071 78.5173 107.895 78.016 107.543 77.664C107.191 77.3013 106.705 77.12 106.087 77.12C105.393 77.12 104.833 77.3387 104.407 77.776C103.98 78.2027 103.767 78.864 103.767 79.76V84H102.375V72.8H103.767V77.152C104.332 76.2453 105.196 75.792 106.359 75.792ZM120.99 76H122.478L119.214 84.496C118.873 85.4027 118.393 86.0907 117.774 86.56C117.166 87.04 116.462 87.2533 115.662 87.2V85.904C116.643 85.9787 117.363 85.4347 117.822 84.272L117.966 83.968L114.478 76H115.966L118.686 82.272L120.99 76ZM130.08 82.992C129.259 83.8027 128.261 84.208 127.088 84.208C125.915 84.208 124.917 83.8027 124.096 82.992C123.285 82.1813 122.88 81.184 122.88 80C122.88 78.816 123.285 77.8187 124.096 77.008C124.917 76.1973 125.915 75.792 127.088 75.792C128.261 75.792 129.259 76.1973 130.08 77.008C130.901 77.8187 131.312 78.816 131.312 80C131.312 81.184 130.901 82.1813 130.08 82.992ZM127.088 82.848C127.888 82.848 128.56 82.576 129.104 82.032C129.648 81.488 129.92 80.8107 129.92 80C129.92 79.1893 129.648 78.512 129.104 77.968C128.56 77.424 127.888 77.152 127.088 77.152C126.299 77.152 125.632 77.424 125.088 77.968C124.544 78.512 124.272 79.1893 124.272 80C124.272 80.8107 124.544 81.488 125.088 82.032C125.632 82.576 126.299 82.848 127.088 82.848ZM138.473 76H139.865V84H138.473V82.848C137.908 83.7547 137.044 84.208 135.881 84.208C134.942 84.208 134.19 83.9147 133.625 83.328C133.06 82.7307 132.777 81.9253 132.777 80.912V76H134.169V80.832C134.169 81.4827 134.345 81.9893 134.697 82.352C135.049 82.704 135.534 82.88 136.153 82.88C136.846 82.88 137.406 82.6667 137.833 82.24C138.26 81.8027 138.473 81.136 138.473 80.24V76ZM155.408 76H156.864L154.384 84H152.96L151.088 78.08L149.216 84H147.792L145.312 76H146.768L148.528 82.08L150.416 76H151.76L153.648 82.096L155.408 76ZM164.608 76H166V84H164.608V82.624C163.915 83.68 162.907 84.208 161.584 84.208C160.464 84.208 159.509 83.8027 158.72 82.992C157.931 82.1707 157.536 81.1733 157.536 80C157.536 78.8267 157.931 77.8347 158.72 77.024C159.509 76.2027 160.464 75.792 161.584 75.792C162.907 75.792 163.915 76.32 164.608 77.376V76ZM161.76 82.864C162.571 82.864 163.248 82.592 163.792 82.048C164.336 81.4933 164.608 80.8107 164.608 80C164.608 79.1893 164.336 78.512 163.792 77.968C163.248 77.4133 162.571 77.136 161.76 77.136C160.96 77.136 160.288 77.4133 159.744 77.968C159.2 78.512 158.928 79.1893 158.928 80C158.928 80.8107 159.2 81.4933 159.744 82.048C160.288 82.592 160.96 82.864 161.76 82.864ZM172.093 75.792C173.032 75.792 173.784 76.0907 174.349 76.688C174.914 77.2747 175.197 78.0747 175.197 79.088V84H173.805V79.168C173.805 78.5173 173.629 78.016 173.277 77.664C172.925 77.3013 172.44 77.12 171.821 77.12C171.128 77.12 170.568 77.3387 170.141 77.776C169.714 78.2027 169.501 78.864 169.501 79.76V84H168.109V76H169.501V77.152C170.066 76.2453 170.93 75.792 172.093 75.792ZM181.492 77.344H179.364V81.68C179.364 82.0747 179.439 82.3573 179.588 82.528C179.748 82.688 179.988 82.7733 180.308 82.784C180.628 82.784 181.023 82.7733 181.492 82.752V84C180.276 84.16 179.386 84.064 178.82 83.712C178.255 83.3493 177.972 82.672 177.972 81.68V77.344H176.388V76H177.972V74.176L179.364 73.76V76H181.492V77.344ZM183.539 80.72L183.235 76V72.8H184.915V76L184.611 80.72H183.539ZM184.067 84.176C183.779 84.176 183.534 84.0747 183.331 83.872C183.129 83.6693 183.027 83.424 183.027 83.136C183.027 82.848 183.129 82.6027 183.331 82.4C183.534 82.1973 183.779 82.096 184.067 82.096C184.366 82.096 184.611 82.1973 184.803 82.4C185.006 82.6027 185.107 82.848 185.107 83.136C185.107 83.424 185.006 83.6693 184.803 83.872C184.611 84.0747 184.366 84.176 184.067 84.176ZM198.598 84L197.686 81.488H192.646L191.734 84H190.15L194.326 72.8H196.006L200.182 84H198.598ZM193.158 80.096H197.174L195.158 74.576L193.158 80.096ZM206.559 78.16C206.559 78.4693 206.714 78.72 207.023 78.912C207.332 79.0933 207.706 79.2427 208.143 79.36C208.58 79.4667 209.018 79.5947 209.455 79.744C209.892 79.8827 210.266 80.128 210.575 80.48C210.884 80.8213 211.039 81.264 211.039 81.808C211.039 82.5333 210.756 83.1147 210.191 83.552C209.636 83.9893 208.922 84.208 208.047 84.208C207.268 84.208 206.602 84.0373 206.047 83.696C205.492 83.3547 205.098 82.9013 204.863 82.336L206.063 81.648C206.191 82.032 206.431 82.336 206.783 82.56C207.135 82.784 207.556 82.896 208.047 82.896C208.506 82.896 208.884 82.8107 209.183 82.64C209.482 82.4587 209.631 82.1813 209.631 81.808C209.631 81.4987 209.476 81.2533 209.167 81.072C208.858 80.88 208.484 80.7307 208.047 80.624C207.61 80.5067 207.172 80.3733 206.735 80.224C206.298 80.0747 205.924 79.8293 205.615 79.488C205.306 79.1467 205.151 78.7093 205.151 78.176C205.151 77.4827 205.418 76.912 205.951 76.464C206.495 76.016 207.172 75.792 207.983 75.792C208.634 75.792 209.21 75.9413 209.711 76.24C210.223 76.528 210.607 76.9333 210.863 77.456L209.695 78.112C209.407 77.4293 208.836 77.088 207.983 77.088C207.588 77.088 207.252 77.184 206.975 77.376C206.698 77.5573 206.559 77.8187 206.559 78.16ZM219.221 82.992C218.399 83.8027 217.402 84.208 216.229 84.208C215.055 84.208 214.058 83.8027 213.237 82.992C212.426 82.1813 212.021 81.184 212.021 80C212.021 78.816 212.426 77.8187 213.237 77.008C214.058 76.1973 215.055 75.792 216.229 75.792C217.402 75.792 218.399 76.1973 219.221 77.008C220.042 77.8187 220.453 78.816 220.453 80C220.453 81.184 220.042 82.1813 219.221 82.992ZM216.229 82.848C217.029 82.848 217.701 82.576 218.245 82.032C218.789 81.488 219.061 80.8107 219.061 80C219.061 79.1893 218.789 78.512 218.245 77.968C217.701 77.424 217.029 77.152 216.229 77.152C215.439 77.152 214.773 77.424 214.229 77.968C213.685 78.512 213.413 79.1893 213.413 80C213.413 80.8107 213.685 81.488 214.229 82.032C214.773 82.576 215.439 82.848 216.229 82.848ZM222.094 84V72.32H223.486V84H222.094ZM231.129 76H232.521V84H231.129V82.848C230.564 83.7547 229.7 84.208 228.537 84.208C227.598 84.208 226.846 83.9147 226.281 83.328C225.716 82.7307 225.433 81.9253 225.433 80.912V76H226.825V80.832C226.825 81.4827 227.001 81.9893 227.353 82.352C227.705 82.704 228.19 82.88 228.809 82.88C229.502 82.88 230.062 82.6667 230.489 82.24C230.916 81.8027 231.129 81.136 231.129 80.24V76ZM238.992 77.344H236.864V81.68C236.864 82.0747 236.939 82.3573 237.088 82.528C237.248 82.688 237.488 82.7733 237.808 82.784C238.128 82.784 238.523 82.7733 238.992 82.752V84C237.776 84.16 236.886 84.064 236.32 83.712C235.755 83.3493 235.472 82.672 235.472 81.68V77.344H233.888V76H235.472V74.176L236.864 73.76V76H238.992V77.344ZM241.344 74.544C241.078 74.544 240.854 74.4533 240.672 74.272C240.491 74.0907 240.4 73.872 240.4 73.616C240.4 73.36 240.491 73.1413 240.672 72.96C240.854 72.768 241.078 72.672 241.344 72.672C241.6 72.672 241.819 72.768 242 72.96C242.182 73.1413 242.272 73.36 242.272 73.616C242.272 73.872 242.182 74.0907 242 74.272C241.819 74.4533 241.6 74.544 241.344 74.544ZM240.64 84V76H242.032V84H240.64ZM250.908 82.992C250.087 83.8027 249.089 84.208 247.916 84.208C246.743 84.208 245.745 83.8027 244.924 82.992C244.113 82.1813 243.708 81.184 243.708 80C243.708 78.816 244.113 77.8187 244.924 77.008C245.745 76.1973 246.743 75.792 247.916 75.792C249.089 75.792 250.087 76.1973 250.908 77.008C251.729 77.8187 252.14 78.816 252.14 80C252.14 81.184 251.729 82.1813 250.908 82.992ZM247.916 82.848C248.716 82.848 249.388 82.576 249.932 82.032C250.476 81.488 250.748 80.8107 250.748 80C250.748 79.1893 250.476 78.512 249.932 77.968C249.388 77.424 248.716 77.152 247.916 77.152C247.127 77.152 246.46 77.424 245.916 77.968C245.372 78.512 245.1 79.1893 245.1 80C245.1 80.8107 245.372 81.488 245.916 82.032C246.46 82.576 247.127 82.848 247.916 82.848ZM257.765 75.792C258.704 75.792 259.456 76.0907 260.021 76.688C260.586 77.2747 260.869 78.0747 260.869 79.088V84H259.477V79.168C259.477 78.5173 259.301 78.016 258.949 77.664C258.597 77.3013 258.112 77.12 257.493 77.12C256.8 77.12 256.24 77.3387 255.813 77.776C255.386 78.2027 255.173 78.864 255.173 79.76V84H253.781V76H255.173V77.152C255.738 76.2453 256.602 75.792 257.765 75.792ZM270.924 73.936C269.516 73.8187 268.812 74.4267 268.812 75.76V76H270.924V77.344H268.812V84H267.42V77.344H266.14V76H267.42V75.76C267.42 74.6827 267.719 73.8667 268.316 73.312C268.924 72.7573 269.794 72.5173 270.924 72.592V73.936ZM278.299 82.992C277.477 83.8027 276.48 84.208 275.307 84.208C274.133 84.208 273.136 83.8027 272.315 82.992C271.504 82.1813 271.099 81.184 271.099 80C271.099 78.816 271.504 77.8187 272.315 77.008C273.136 76.1973 274.133 75.792 275.307 75.792C276.48 75.792 277.477 76.1973 278.299 77.008C279.12 77.8187 279.531 78.816 279.531 80C279.531 81.184 279.12 82.1813 278.299 82.992ZM275.307 82.848C276.107 82.848 276.779 82.576 277.323 82.032C277.867 81.488 278.139 80.8107 278.139 80C278.139 79.1893 277.867 78.512 277.323 77.968C276.779 77.424 276.107 77.152 275.307 77.152C274.517 77.152 273.851 77.424 273.307 77.968C272.763 78.512 272.491 79.1893 272.491 80C272.491 80.8107 272.763 81.488 273.307 82.032C273.851 82.576 274.517 82.848 275.307 82.848ZM282.564 77.344C283.022 76.352 283.854 75.856 285.06 75.856V77.312C284.377 77.28 283.79 77.4613 283.3 77.856C282.809 78.2507 282.564 78.8853 282.564 79.76V84H281.172V76H282.564V77.344ZM291.622 78.16C291.622 78.4693 291.776 78.72 292.086 78.912C292.395 79.0933 292.768 79.2427 293.206 79.36C293.643 79.4667 294.08 79.5947 294.518 79.744C294.955 79.8827 295.328 80.128 295.638 80.48C295.947 80.8213 296.102 81.264 296.102 81.808C296.102 82.5333 295.819 83.1147 295.254 83.552C294.699 83.9893 293.984 84.208 293.11 84.208C292.331 84.208 291.664 84.0373 291.11 83.696C290.555 83.3547 290.16 82.9013 289.926 82.336L291.126 81.648C291.254 82.032 291.494 82.336 291.846 82.56C292.198 82.784 292.619 82.896 293.11 82.896C293.568 82.896 293.947 82.8107 294.246 82.64C294.544 82.4587 294.694 82.1813 294.694 81.808C294.694 81.4987 294.539 81.2533 294.23 81.072C293.92 80.88 293.547 80.7307 293.11 80.624C292.672 80.5067 292.235 80.3733 291.798 80.224C291.36 80.0747 290.987 79.8293 290.678 79.488C290.368 79.1467 290.214 78.7093 290.214 78.176C290.214 77.4827 290.48 76.912 291.014 76.464C291.558 76.016 292.235 75.792 293.046 75.792C293.696 75.792 294.272 75.9413 294.774 76.24C295.286 76.528 295.67 76.9333 295.926 77.456L294.758 78.112C294.47 77.4293 293.899 77.088 293.046 77.088C292.651 77.088 292.315 77.184 292.038 77.376C291.76 77.5573 291.622 77.8187 291.622 78.16ZM304.283 82.992C303.462 83.8027 302.464 84.208 301.291 84.208C300.118 84.208 299.12 83.8027 298.299 82.992C297.488 82.1813 297.083 81.184 297.083 80C297.083 78.816 297.488 77.8187 298.299 77.008C299.12 76.1973 300.118 75.792 301.291 75.792C302.464 75.792 303.462 76.1973 304.283 77.008C305.104 77.8187 305.515 78.816 305.515 80C305.515 81.184 305.104 82.1813 304.283 82.992ZM301.291 82.848C302.091 82.848 302.763 82.576 303.307 82.032C303.851 81.488 304.123 80.8107 304.123 80C304.123 79.1893 303.851 78.512 303.307 77.968C302.763 77.424 302.091 77.152 301.291 77.152C300.502 77.152 299.835 77.424 299.291 77.968C298.747 78.512 298.475 79.1893 298.475 80C298.475 80.8107 298.747 81.488 299.291 82.032C299.835 82.576 300.502 82.848 301.291 82.848ZM310.916 84.208C309.711 84.208 308.708 83.808 307.908 83.008C307.108 82.1973 306.708 81.1947 306.708 80C306.708 78.8053 307.108 77.808 307.908 77.008C308.708 76.1973 309.711 75.792 310.916 75.792C311.705 75.792 312.415 75.984 313.044 76.368C313.673 76.7413 314.143 77.248 314.452 77.888L313.284 78.56C313.081 78.1333 312.767 77.792 312.34 77.536C311.924 77.28 311.449 77.152 310.916 77.152C310.116 77.152 309.444 77.424 308.9 77.968C308.367 78.512 308.1 79.1893 308.1 80C308.1 80.8 308.367 81.472 308.9 82.016C309.444 82.56 310.116 82.832 310.916 82.832C311.449 82.832 311.929 82.7093 312.356 82.464C312.783 82.208 313.108 81.8667 313.332 81.44L314.516 82.128C314.175 82.7573 313.684 83.264 313.044 83.648C312.404 84.0213 311.695 84.208 310.916 84.208ZM316.594 74.544C316.328 74.544 316.104 74.4533 315.922 74.272C315.741 74.0907 315.65 73.872 315.65 73.616C315.65 73.36 315.741 73.1413 315.922 72.96C316.104 72.768 316.328 72.672 316.594 72.672C316.85 72.672 317.069 72.768 317.25 72.96C317.432 73.1413 317.522 73.36 317.522 73.616C317.522 73.872 317.432 74.0907 317.25 74.272C317.069 74.4533 316.85 74.544 316.594 74.544ZM315.89 84V76H317.282V84H315.89ZM326.03 76H327.422V84H326.03V82.624C325.337 83.68 324.329 84.208 323.006 84.208C321.886 84.208 320.931 83.8027 320.142 82.992C319.353 82.1707 318.958 81.1733 318.958 80C318.958 78.8267 319.353 77.8347 320.142 77.024C320.931 76.2027 321.886 75.792 323.006 75.792C324.329 75.792 325.337 76.32 326.03 77.376V76ZM323.182 82.864C323.993 82.864 324.67 82.592 325.214 82.048C325.758 81.4933 326.03 80.8107 326.03 80C326.03 79.1893 325.758 78.512 325.214 77.968C324.67 77.4133 323.993 77.136 323.182 77.136C322.382 77.136 321.71 77.4133 321.166 77.968C320.622 78.512 320.35 79.1893 320.35 80C320.35 80.8107 320.622 81.4933 321.166 82.048C321.71 82.592 322.382 82.864 323.182 82.864ZM329.531 84V72.32H330.923V84H329.531ZM334.231 78.16C334.231 78.4693 334.386 78.72 334.695 78.912C335.004 79.0933 335.378 79.2427 335.815 79.36C336.252 79.4667 336.69 79.5947 337.127 79.744C337.564 79.8827 337.938 80.128 338.247 80.48C338.556 80.8213 338.711 81.264 338.711 81.808C338.711 82.5333 338.428 83.1147 337.863 83.552C337.308 83.9893 336.594 84.208 335.719 84.208C334.94 84.208 334.274 84.0373 333.719 83.696C333.164 83.3547 332.77 82.9013 332.535 82.336L333.735 81.648C333.863 82.032 334.103 82.336 334.455 82.56C334.807 82.784 335.228 82.896 335.719 82.896C336.178 82.896 336.556 82.8107 336.855 82.64C337.154 82.4587 337.303 82.1813 337.303 81.808C337.303 81.4987 337.148 81.2533 336.839 81.072C336.53 80.88 336.156 80.7307 335.719 80.624C335.282 80.5067 334.844 80.3733 334.407 80.224C333.97 80.0747 333.596 79.8293 333.287 79.488C332.978 79.1467 332.823 78.7093 332.823 78.176C332.823 77.4827 333.09 76.912 333.623 76.464C334.167 76.016 334.844 75.792 335.655 75.792C336.306 75.792 336.882 75.9413 337.383 76.24C337.895 76.528 338.279 76.9333 338.535 77.456L337.367 78.112C337.079 77.4293 336.508 77.088 335.655 77.088C335.26 77.088 334.924 77.184 334.647 77.376C334.37 77.5573 334.231 77.8187 334.231 78.16ZM7.78001 100H9.17201V108H7.78001V106.624C7.08667 107.68 6.07867 108.208 4.75601 108.208C3.63601 108.208 2.68134 107.803 1.89201 106.992C1.10267 106.171 0.708006 105.173 0.708006 104C0.708006 102.827 1.10267 101.835 1.89201 101.024C2.68134 100.203 3.63601 99.792 4.75601 99.792C6.07867 99.792 7.08667 100.32 7.78001 101.376V100ZM4.93201 106.864C5.74267 106.864 6.42001 106.592 6.96401 106.048C7.50801 105.493 7.78001 104.811 7.78001 104C7.78001 103.189 7.50801 102.512 6.96401 101.968C6.42001 101.413 5.74267 101.136 4.93201 101.136C4.13201 101.136 3.46001 101.413 2.91601 101.968C2.37201 102.512 2.10001 103.189 2.10001 104C2.10001 104.811 2.37201 105.493 2.91601 106.048C3.46001 106.592 4.13201 106.864 4.93201 106.864ZM15.265 99.792C16.2037 99.792 16.9557 100.091 17.521 100.688C18.0863 101.275 18.369 102.075 18.369 103.088V108H16.977V103.168C16.977 102.517 16.801 102.016 16.449 101.664C16.097 101.301 15.6117 101.12 14.993 101.12C14.2997 101.12 13.7397 101.339 13.313 101.776C12.8863 102.203 12.673 102.864 12.673 103.76V108H11.281V100H12.673V101.152C13.2383 100.245 14.1023 99.792 15.265 99.792ZM26.9363 96.8H28.3283V108H26.9363V106.624C26.2429 107.68 25.2349 108.208 23.9123 108.208C22.7923 108.208 21.8376 107.803 21.0483 106.992C20.2589 106.171 19.8643 105.173 19.8643 104C19.8643 102.827 20.2589 101.835 21.0483 101.024C21.8376 100.203 22.7923 99.792 23.9123 99.792C25.2349 99.792 26.2429 100.32 26.9363 101.376V96.8ZM24.0883 106.864C24.8989 106.864 25.5763 106.592 26.1203 106.048C26.6643 105.493 26.9363 104.811 26.9363 104C26.9363 103.189 26.6643 102.512 26.1203 101.968C25.5763 101.413 24.8989 101.136 24.0883 101.136C23.2883 101.136 22.6163 101.413 22.0723 101.968C21.5283 102.512 21.2563 103.189 21.2563 104C21.2563 104.811 21.5283 105.493 22.0723 106.048C22.6163 106.592 23.2883 106.864 24.0883 106.864ZM38.8533 99.792C39.9733 99.792 40.9279 100.203 41.7173 101.024C42.5066 101.835 42.9013 102.827 42.9013 104C42.9013 105.173 42.5066 106.171 41.7173 106.992C40.9279 107.803 39.9733 108.208 38.8533 108.208C37.5306 108.208 36.5226 107.68 35.8293 106.624V108H34.4373V96.8H35.8293V101.376C36.5226 100.32 37.5306 99.792 38.8533 99.792ZM38.6773 106.864C39.4773 106.864 40.1493 106.592 40.6933 106.048C41.2373 105.493 41.5093 104.811 41.5093 104C41.5093 103.189 41.2373 102.512 40.6933 101.968C40.1493 101.413 39.4773 101.136 38.6773 101.136C37.8666 101.136 37.1893 101.413 36.6453 101.968C36.1013 102.512 35.8293 103.189 35.8293 104C35.8293 104.811 36.1013 105.493 36.6453 106.048C37.1893 106.592 37.8666 106.864 38.6773 106.864ZM50.0823 100H51.4743V108H50.0823V106.848C49.5169 107.755 48.6529 108.208 47.4903 108.208C46.5516 108.208 45.7996 107.915 45.2343 107.328C44.6689 106.731 44.3863 105.925 44.3863 104.912V100H45.7783V104.832C45.7783 105.483 45.9543 105.989 46.3063 106.352C46.6583 106.704 47.1436 106.88 47.7623 106.88C48.4556 106.88 49.0156 106.667 49.4423 106.24C49.8689 105.803 50.0823 105.136 50.0823 104.24V100ZM54.7779 102.16C54.7779 102.469 54.9325 102.72 55.2419 102.912C55.5512 103.093 55.9245 103.243 56.3619 103.36C56.7992 103.467 57.2365 103.595 57.6739 103.744C58.1112 103.883 58.4845 104.128 58.7939 104.48C59.1032 104.821 59.2579 105.264 59.2579 105.808C59.2579 106.533 58.9752 107.115 58.4099 107.552C57.8552 107.989 57.1405 108.208 56.2659 108.208C55.4872 108.208 54.8205 108.037 54.2659 107.696C53.7112 107.355 53.3165 106.901 53.0819 106.336L54.2819 105.648C54.4099 106.032 54.6499 106.336 55.0019 106.56C55.3539 106.784 55.7752 106.896 56.2659 106.896C56.7245 106.896 57.1032 106.811 57.4019 106.64C57.7005 106.459 57.8499 106.181 57.8499 105.808C57.8499 105.499 57.6952 105.253 57.3859 105.072C57.0765 104.88 56.7032 104.731 56.2659 104.624C55.8285 104.507 55.3912 104.373 54.9539 104.224C54.5165 104.075 54.1432 103.829 53.8339 103.488C53.5245 103.147 53.3699 102.709 53.3699 102.176C53.3699 101.483 53.6365 100.912 54.1699 100.464C54.7139 100.016 55.3912 99.792 56.2019 99.792C56.8525 99.792 57.4285 99.9413 57.9299 100.24C58.4419 100.528 58.8259 100.933 59.0819 101.456L57.9139 102.112C57.6259 101.429 57.0552 101.088 56.2019 101.088C55.8072 101.088 55.4712 101.184 55.1939 101.376C54.9165 101.557 54.7779 101.819 54.7779 102.16ZM61.5319 98.544C61.2652 98.544 61.0412 98.4533 60.8599 98.272C60.6785 98.0907 60.5879 97.872 60.5879 97.616C60.5879 97.36 60.6785 97.1413 60.8599 96.96C61.0412 96.768 61.2652 96.672 61.5319 96.672C61.7879 96.672 62.0065 96.768 62.1879 96.96C62.3692 97.1413 62.4599 97.36 62.4599 97.616C62.4599 97.872 62.3692 98.0907 62.1879 98.272C62.0065 98.4533 61.7879 98.544 61.5319 98.544ZM60.8279 108V100H62.2199V108H60.8279ZM68.3275 99.792C69.2662 99.792 70.0182 100.091 70.5835 100.688C71.1488 101.275 71.4315 102.075 71.4315 103.088V108H70.0395V103.168C70.0395 102.517 69.8635 102.016 69.5115 101.664C69.1595 101.301 68.6742 101.12 68.0555 101.12C67.3622 101.12 66.8022 101.339 66.3755 101.776C65.9488 102.203 65.7355 102.864 65.7355 103.76V108H64.3435V100H65.7355V101.152C66.3008 100.245 67.1648 99.792 68.3275 99.792ZM74.3508 104.64C74.4894 105.355 74.8148 105.909 75.3268 106.304C75.8494 106.699 76.4894 106.896 77.2468 106.896C78.3028 106.896 79.0708 106.507 79.5508 105.728L80.7348 106.4C79.9561 107.605 78.7828 108.208 77.2148 108.208C75.9454 108.208 74.9108 107.813 74.1108 107.024C73.3214 106.224 72.9268 105.216 72.9268 104C72.9268 102.795 73.3161 101.792 74.0948 100.992C74.8734 100.192 75.8814 99.792 77.1188 99.792C78.2921 99.792 79.2468 100.208 79.9828 101.04C80.7294 101.861 81.1028 102.853 81.1028 104.016C81.1028 104.219 81.0868 104.427 81.0548 104.64H74.3508ZM77.1188 101.104C76.3721 101.104 75.7534 101.317 75.2628 101.744C74.7721 102.16 74.4681 102.72 74.3508 103.424H79.6948C79.5774 102.667 79.2788 102.091 78.7988 101.696C78.3188 101.301 77.7588 101.104 77.1188 101.104ZM83.5904 102.16C83.5904 102.469 83.745 102.72 84.0544 102.912C84.3637 103.093 84.737 103.243 85.1744 103.36C85.6117 103.467 86.049 103.595 86.4864 103.744C86.9237 103.883 87.297 104.128 87.6064 104.48C87.9157 104.821 88.0704 105.264 88.0704 105.808C88.0704 106.533 87.7877 107.115 87.2224 107.552C86.6677 107.989 85.953 108.208 85.0784 108.208C84.2997 108.208 83.633 108.037 83.0784 107.696C82.5237 107.355 82.129 106.901 81.8944 106.336L83.0944 105.648C83.2224 106.032 83.4624 106.336 83.8144 106.56C84.1664 106.784 84.5877 106.896 85.0784 106.896C85.537 106.896 85.9157 106.811 86.2144 106.64C86.513 106.459 86.6624 106.181 86.6624 105.808C86.6624 105.499 86.5077 105.253 86.1984 105.072C85.889 104.88 85.5157 104.731 85.0784 104.624C84.641 104.507 84.2037 104.373 83.7664 104.224C83.329 104.075 82.9557 103.829 82.6464 103.488C82.337 103.147 82.1824 102.709 82.1824 102.176C82.1824 101.483 82.449 100.912 82.9824 100.464C83.5264 100.016 84.2037 99.792 85.0144 99.792C85.665 99.792 86.241 99.9413 86.7424 100.24C87.2544 100.528 87.6384 100.933 87.8944 101.456L86.7264 102.112C86.4384 101.429 85.8677 101.088 85.0144 101.088C84.6197 101.088 84.2837 101.184 84.0064 101.376C83.729 101.557 83.5904 101.819 83.5904 102.16ZM90.4185 102.16C90.4185 102.469 90.5732 102.72 90.8825 102.912C91.1918 103.093 91.5652 103.243 92.0025 103.36C92.4398 103.467 92.8772 103.595 93.3145 103.744C93.7518 103.883 94.1252 104.128 94.4345 104.48C94.7438 104.821 94.8985 105.264 94.8985 105.808C94.8985 106.533 94.6158 107.115 94.0505 107.552C93.4958 107.989 92.7812 108.208 91.9065 108.208C91.1278 108.208 90.4612 108.037 89.9065 107.696C89.3518 107.355 88.9572 106.901 88.7225 106.336L89.9225 105.648C90.0505 106.032 90.2905 106.336 90.6425 106.56C90.9945 106.784 91.4158 106.896 91.9065 106.896C92.3652 106.896 92.7438 106.811 93.0425 106.64C93.3412 106.459 93.4905 106.181 93.4905 105.808C93.4905 105.499 93.3358 105.253 93.0265 105.072C92.7172 104.88 92.3438 104.731 91.9065 104.624C91.4692 104.507 91.0318 104.373 90.5945 104.224C90.1572 104.075 89.7838 103.829 89.4745 103.488C89.1652 103.147 89.0105 102.709 89.0105 102.176C89.0105 101.483 89.2772 100.912 89.8105 100.464C90.3545 100.016 91.0318 99.792 91.8425 99.792C92.4932 99.792 93.0692 99.9413 93.5705 100.24C94.0825 100.528 94.4665 100.933 94.7225 101.456L93.5545 102.112C93.2665 101.429 92.6958 101.088 91.8425 101.088C91.4478 101.088 91.1118 101.184 90.8345 101.376C90.5572 101.557 90.4185 101.819 90.4185 102.16ZM97.3039 104.64C97.4425 105.355 97.7679 105.909 98.2799 106.304C98.8025 106.699 99.4425 106.896 100.2 106.896C101.256 106.896 102.024 106.507 102.504 105.728L103.688 106.4C102.909 107.605 101.736 108.208 100.168 108.208C98.8985 108.208 97.8639 107.813 97.0639 107.024C96.2745 106.224 95.8799 105.216 95.8799 104C95.8799 102.795 96.2692 101.792 97.0479 100.992C97.8265 100.192 98.8345 99.792 100.072 99.792C101.245 99.792 102.2 100.208 102.936 101.04C103.683 101.861 104.056 102.853 104.056 104.016C104.056 104.219 104.04 104.427 104.008 104.64H97.3039ZM100.072 101.104C99.3252 101.104 98.7065 101.317 98.2159 101.744C97.7252 102.16 97.4212 102.72 97.3039 103.424H102.648C102.531 102.667 102.232 102.091 101.752 101.696C101.272 101.301 100.712 101.104 100.072 101.104ZM106.544 102.16C106.544 102.469 106.698 102.72 107.008 102.912C107.317 103.093 107.69 103.243 108.128 103.36C108.565 103.467 109.002 103.595 109.44 103.744C109.877 103.883 110.25 104.128 110.56 104.48C110.869 104.821 111.024 105.264 111.024 105.808C111.024 106.533 110.741 107.115 110.176 107.552C109.621 107.989 108.906 108.208 108.032 108.208C107.253 108.208 106.586 108.037 106.032 107.696C105.477 107.355 105.082 106.901 104.848 106.336L106.048 105.648C106.176 106.032 106.416 106.336 106.768 106.56C107.12 106.784 107.541 106.896 108.032 106.896C108.49 106.896 108.869 106.811 109.168 106.64C109.466 106.459 109.616 106.181 109.616 105.808C109.616 105.499 109.461 105.253 109.152 105.072C108.842 104.88 108.469 104.731 108.032 104.624C107.594 104.507 107.157 104.373 106.72 104.224C106.282 104.075 105.909 103.829 105.6 103.488C105.29 103.147 105.136 102.709 105.136 102.176C105.136 101.483 105.402 100.912 105.936 100.464C106.48 100.016 107.157 99.792 107.968 99.792C108.618 99.792 109.194 99.9413 109.696 100.24C110.208 100.528 110.592 100.933 110.848 101.456L109.68 102.112C109.392 101.429 108.821 101.088 107.968 101.088C107.573 101.088 107.237 101.184 106.96 101.376C106.682 101.557 106.544 101.819 106.544 102.16ZM113.38 108.176C113.092 108.176 112.846 108.075 112.644 107.872C112.441 107.669 112.34 107.424 112.34 107.136C112.34 106.848 112.441 106.603 112.644 106.4C112.846 106.197 113.092 106.096 113.38 106.096C113.678 106.096 113.924 106.197 114.116 106.4C114.318 106.603 114.42 106.848 114.42 107.136C114.42 107.424 114.318 107.669 114.116 107.872C113.924 108.075 113.678 108.176 113.38 108.176Z" fill="#141414"/>
</svg>
