<svg width="215" height="24" viewBox="0 0 215 24" fill="none" xmlns="http://www.w3.org/2000/svg">
<g clip-path="url(#clip0_1_321)">
<path d="M14.6667 11.3867V12C14.6658 13.4376 14.2003 14.8364 13.3396 15.9879C12.4788 17.1393 11.2689 17.9816 9.89023 18.3893C8.51162 18.7969 7.03817 18.7479 5.68964 18.2497C4.34112 17.7515 3.18976 16.8307 2.4073 15.6247C1.62484 14.4187 1.25319 12.992 1.34778 11.5575C1.44237 10.123 1.99813 8.75755 2.93218 7.66471C3.86623 6.57188 5.12852 5.81025 6.53079 5.49343C7.93306 5.1766 9.40017 5.32155 10.7133 5.90666" stroke="white" stroke-width="2" stroke-linecap="round" stroke-linejoin="round"/>
<path d="M14.6667 6.66667L8 13.34L6 11.34" stroke="white" stroke-width="2" stroke-linecap="round" stroke-linejoin="round"/>
</g>
<path d="M31.9229 16L31.1249 13.802H26.7149L25.9169 16H24.5309L28.1849 6.2H29.6549L33.3089 16H31.9229ZM27.1629 12.584H30.6769L28.9129 7.754L27.1629 12.584ZM39.971 6.2H41.189V16H39.971V14.796C39.3643 15.72 38.4823 16.182 37.325 16.182C36.345 16.182 35.5096 15.8273 34.819 15.118C34.1283 14.3993 33.783 13.5267 33.783 12.5C33.783 11.4733 34.1283 10.6053 34.819 9.896C35.5096 9.17733 36.345 8.818 37.325 8.818C38.4823 8.818 39.3643 9.28 39.971 10.204V6.2ZM37.479 15.006C38.1883 15.006 38.781 14.768 39.257 14.292C39.733 13.8067 39.971 13.2093 39.971 12.5C39.971 11.7907 39.733 11.198 39.257 10.722C38.781 10.2367 38.1883 9.994 37.479 9.994C36.779 9.994 36.191 10.2367 35.715 10.722C35.239 11.198 35.001 11.7907 35.001 12.5C35.001 13.2093 35.239 13.8067 35.715 14.292C36.191 14.768 36.779 15.006 37.479 15.006ZM47.9344 9H49.2504L46.4504 16H45.0224L42.2224 9H43.5384L45.7364 14.698L47.9344 9ZM55.803 9H57.021V16H55.803V14.796C55.1963 15.72 54.3143 16.182 53.157 16.182C52.177 16.182 51.3417 15.8273 50.651 15.118C49.9603 14.3993 49.615 13.5267 49.615 12.5C49.615 11.4733 49.9603 10.6053 50.651 9.896C51.3417 9.17733 52.177 8.818 53.157 8.818C54.3143 8.818 55.1963 9.28 55.803 10.204V9ZM53.311 15.006C54.0203 15.006 54.613 14.768 55.089 14.292C55.565 13.8067 55.803 13.2093 55.803 12.5C55.803 11.7907 55.565 11.198 55.089 10.722C54.613 10.2367 54.0203 9.994 53.311 9.994C52.611 9.994 52.023 10.2367 51.547 10.722C51.071 11.198 50.833 11.7907 50.833 12.5C50.833 13.2093 51.071 13.8067 51.547 14.292C52.023 14.768 52.611 15.006 53.311 15.006ZM62.3524 8.818C63.1737 8.818 63.8317 9.07933 64.3264 9.602C64.821 10.1153 65.0684 10.8153 65.0684 11.702V16H63.8504V11.772C63.8504 11.2027 63.6964 10.764 63.3884 10.456C63.0804 10.1387 62.6557 9.98 62.1144 9.98C61.5077 9.98 61.0177 10.1713 60.6444 10.554C60.271 10.9273 60.0844 11.506 60.0844 12.29V16H58.8664V9H60.0844V10.008C60.579 9.21467 61.335 8.818 62.3524 8.818ZM70.0587 16.182C69.0041 16.182 68.1267 15.832 67.4267 15.132C66.7267 14.4227 66.3767 13.5453 66.3767 12.5C66.3767 11.4547 66.7267 10.582 67.4267 9.882C68.1267 9.17267 69.0041 8.818 70.0587 8.818C70.7494 8.818 71.3701 8.986 71.9207 9.322C72.4714 9.64867 72.8821 10.092 73.1527 10.652L72.1307 11.24C71.9534 10.8667 71.6781 10.568 71.3047 10.344C70.9407 10.12 70.5254 10.008 70.0587 10.008C69.3587 10.008 68.7707 10.246 68.2947 10.722C67.8281 11.198 67.5947 11.7907 67.5947 12.5C67.5947 13.2 67.8281 13.788 68.2947 14.264C68.7707 14.74 69.3587 14.978 70.0587 14.978C70.5254 14.978 70.9454 14.8707 71.3187 14.656C71.6921 14.432 71.9767 14.1333 72.1727 13.76L73.2087 14.362C72.9101 14.9127 72.4807 15.356 71.9207 15.692C71.3607 16.0187 70.7401 16.182 70.0587 16.182ZM75.1696 13.06C75.2909 13.6853 75.5756 14.1707 76.0236 14.516C76.4809 14.8613 77.0409 15.034 77.7036 15.034C78.6276 15.034 79.2996 14.6933 79.7196 14.012L80.7556 14.6C80.0743 15.6547 79.0476 16.182 77.6756 16.182C76.5649 16.182 75.6596 15.8367 74.9596 15.146C74.2689 14.446 73.9236 13.564 73.9236 12.5C73.9236 11.4453 74.2643 10.568 74.9456 9.868C75.6269 9.168 76.5089 8.818 77.5916 8.818C78.6183 8.818 79.4536 9.182 80.0976 9.91C80.7509 10.6287 81.0776 11.4967 81.0776 12.514C81.0776 12.6913 81.0636 12.8733 81.0356 13.06H75.1696ZM77.5916 9.966C76.9383 9.966 76.3969 10.1527 75.9676 10.526C75.5383 10.89 75.2723 11.38 75.1696 11.996H79.8456C79.7429 11.3333 79.4816 10.8293 79.0616 10.484C78.6416 10.1387 78.1516 9.966 77.5916 9.966ZM88.26 6.2H89.478V16H88.26V14.796C87.6534 15.72 86.7714 16.182 85.614 16.182C84.634 16.182 83.7987 15.8273 83.108 15.118C82.4174 14.3993 82.072 13.5267 82.072 12.5C82.072 11.4733 82.4174 10.6053 83.108 9.896C83.7987 9.17733 84.634 8.818 85.614 8.818C86.7714 8.818 87.6534 9.28 88.26 10.204V6.2ZM85.768 15.006C86.4774 15.006 87.07 14.768 87.546 14.292C88.022 13.8067 88.26 13.2093 88.26 12.5C88.26 11.7907 88.022 11.198 87.546 10.722C87.07 10.2367 86.4774 9.994 85.768 9.994C85.068 9.994 84.48 10.2367 84.004 10.722C83.528 11.198 83.29 11.7907 83.29 12.5C83.29 13.2093 83.528 13.8067 84.004 14.292C84.48 14.768 85.068 15.006 85.768 15.006ZM96.2514 14.768H100.479V16H94.9494V6.2H96.2514V14.768ZM102.275 7.726C102.042 7.726 101.846 7.64667 101.687 7.488C101.529 7.32933 101.449 7.138 101.449 6.914C101.449 6.69 101.529 6.49867 101.687 6.34C101.846 6.172 102.042 6.088 102.275 6.088C102.499 6.088 102.691 6.172 102.849 6.34C103.008 6.49867 103.087 6.69 103.087 6.914C103.087 7.138 103.008 7.32933 102.849 7.488C102.691 7.64667 102.499 7.726 102.275 7.726ZM101.659 16V9H102.877V16H101.659ZM108.222 8.818C109.043 8.818 109.701 9.07933 110.196 9.602C110.69 10.1153 110.938 10.8153 110.938 11.702V16H109.72V11.772C109.72 11.2027 109.566 10.764 109.258 10.456C108.95 10.1387 108.525 9.98 107.984 9.98C107.377 9.98 106.887 10.1713 106.514 10.554C106.14 10.9273 105.954 11.506 105.954 12.29V16H104.736V9H105.954V10.008C106.448 9.21467 107.204 8.818 108.222 8.818ZM118.56 16H117.048L113.856 12.682V16H112.638V6.2H113.856V12.094L116.88 9H118.448L115.102 12.388L118.56 16ZM127.925 16.182C126.441 16.182 125.213 15.692 124.243 14.712C123.281 13.732 122.801 12.528 122.801 11.1C122.801 9.672 123.281 8.468 124.243 7.488C125.213 6.508 126.441 6.018 127.925 6.018C128.821 6.018 129.642 6.23267 130.389 6.662C131.145 7.09133 131.733 7.67 132.153 8.398L131.019 9.056C130.739 8.51467 130.319 8.08533 129.759 7.768C129.208 7.44133 128.597 7.278 127.925 7.278C126.795 7.278 125.871 7.642 125.153 8.37C124.443 9.098 124.089 10.008 124.089 11.1C124.089 12.1827 124.443 13.088 125.153 13.816C125.871 14.544 126.795 14.908 127.925 14.908C128.597 14.908 129.208 14.7493 129.759 14.432C130.319 14.1053 130.739 13.676 131.019 13.144L132.153 13.788C131.742 14.516 131.159 15.0993 130.403 15.538C129.647 15.9673 128.821 16.182 127.925 16.182ZM138.372 9H139.59V16H138.372V14.992C137.877 15.7853 137.121 16.182 136.104 16.182C135.283 16.182 134.625 15.9253 134.13 15.412C133.635 14.8893 133.388 14.1847 133.388 13.298V9H134.606V13.228C134.606 13.7973 134.76 14.2407 135.068 14.558C135.376 14.866 135.801 15.02 136.342 15.02C136.949 15.02 137.439 14.8333 137.812 14.46C138.185 14.0773 138.372 13.494 138.372 12.71V9ZM142.481 10.89C142.481 11.1607 142.616 11.38 142.887 11.548C143.158 11.7067 143.484 11.8373 143.867 11.94C144.25 12.0333 144.632 12.1453 145.015 12.276C145.398 12.3973 145.724 12.612 145.995 12.92C146.266 13.2187 146.401 13.606 146.401 14.082C146.401 14.7167 146.154 15.2253 145.659 15.608C145.174 15.9907 144.548 16.182 143.783 16.182C143.102 16.182 142.518 16.0327 142.033 15.734C141.548 15.4353 141.202 15.0387 140.997 14.544L142.047 13.942C142.159 14.278 142.369 14.544 142.677 14.74C142.985 14.936 143.354 15.034 143.783 15.034C144.184 15.034 144.516 14.9593 144.777 14.81C145.038 14.6513 145.169 14.4087 145.169 14.082C145.169 13.8113 145.034 13.5967 144.763 13.438C144.492 13.27 144.166 13.1393 143.783 13.046C143.4 12.9433 143.018 12.8267 142.635 12.696C142.252 12.5653 141.926 12.3507 141.655 12.052C141.384 11.7533 141.249 11.3707 141.249 10.904C141.249 10.2973 141.482 9.798 141.949 9.406C142.425 9.014 143.018 8.818 143.727 8.818C144.296 8.818 144.8 8.94867 145.239 9.21C145.687 9.462 146.023 9.81667 146.247 10.274L145.225 10.848C144.973 10.2507 144.474 9.952 143.727 9.952C143.382 9.952 143.088 10.036 142.845 10.204C142.602 10.3627 142.481 10.5913 142.481 10.89ZM151.378 10.176H149.516V13.97C149.516 14.3153 149.581 14.5627 149.712 14.712C149.852 14.852 150.062 14.9267 150.342 14.936C150.622 14.936 150.967 14.9267 151.378 14.908V16C150.314 16.14 149.534 16.056 149.04 15.748C148.545 15.4307 148.298 14.838 148.298 13.97V10.176H146.912V9H148.298V7.404L149.516 7.04V9H151.378V10.176ZM158.372 15.118C157.653 15.8273 156.781 16.182 155.754 16.182C154.727 16.182 153.855 15.8273 153.136 15.118C152.427 14.4087 152.072 13.536 152.072 12.5C152.072 11.464 152.427 10.5913 153.136 9.882C153.855 9.17267 154.727 8.818 155.754 8.818C156.781 8.818 157.653 9.17267 158.372 9.882C159.091 10.5913 159.45 11.464 159.45 12.5C159.45 13.536 159.091 14.4087 158.372 15.118ZM155.754 14.992C156.454 14.992 157.042 14.754 157.518 14.278C157.994 13.802 158.232 13.2093 158.232 12.5C158.232 11.7907 157.994 11.198 157.518 10.722C157.042 10.246 156.454 10.008 155.754 10.008C155.063 10.008 154.48 10.246 154.004 10.722C153.528 11.198 153.29 11.7907 153.29 12.5C153.29 13.2093 153.528 13.802 154.004 14.278C154.48 14.754 155.063 14.992 155.754 14.992ZM168.446 8.818C169.23 8.818 169.865 9.07467 170.35 9.588C170.835 10.092 171.078 10.778 171.078 11.646V16H169.86V11.688C169.86 11.1467 169.72 10.7267 169.44 10.428C169.16 10.1293 168.787 9.98 168.32 9.98C167.797 9.98 167.377 10.1573 167.06 10.512C166.752 10.8573 166.598 11.3893 166.598 12.108V16H165.38V11.688C165.38 11.1467 165.245 10.7267 164.974 10.428C164.713 10.1293 164.353 9.98 163.896 9.98C163.383 9.98 162.953 10.1573 162.608 10.512C162.272 10.8667 162.104 11.3987 162.104 12.108V16H160.886V9H162.104V9.938C162.58 9.19133 163.275 8.818 164.19 8.818C165.133 8.818 165.819 9.21467 166.248 10.008C166.733 9.21467 167.466 8.818 168.446 8.818ZM173.383 7.726C173.149 7.726 172.953 7.64667 172.795 7.488C172.636 7.32933 172.557 7.138 172.557 6.914C172.557 6.69 172.636 6.49867 172.795 6.34C172.953 6.172 173.149 6.088 173.383 6.088C173.607 6.088 173.798 6.172 173.957 6.34C174.115 6.49867 174.195 6.69 174.195 6.914C174.195 7.138 174.115 7.32933 173.957 7.488C173.798 7.64667 173.607 7.726 173.383 7.726ZM172.767 16V9H173.985V16H172.767ZM177.257 14.838H180.981V16H175.591V15.188L179.161 10.162H175.731V9H180.841V9.812L177.257 14.838ZM187.791 9H189.009V16H187.791V14.796C187.185 15.72 186.303 16.182 185.145 16.182C184.165 16.182 183.33 15.8273 182.639 15.118C181.949 14.3993 181.603 13.5267 181.603 12.5C181.603 11.4733 181.949 10.6053 182.639 9.896C183.33 9.17733 184.165 8.818 185.145 8.818C186.303 8.818 187.185 9.28 187.791 10.204V9ZM185.299 15.006C186.009 15.006 186.601 14.768 187.077 14.292C187.553 13.8067 187.791 13.2093 187.791 12.5C187.791 11.7907 187.553 11.198 187.077 10.722C186.601 10.2367 186.009 9.994 185.299 9.994C184.599 9.994 184.011 10.2367 183.535 10.722C183.059 11.198 182.821 11.7907 182.821 12.5C182.821 13.2093 183.059 13.8067 183.535 14.292C184.011 14.768 184.599 15.006 185.299 15.006ZM194.663 10.176H192.801V13.97C192.801 14.3153 192.866 14.5627 192.997 14.712C193.137 14.852 193.347 14.9267 193.627 14.936C193.907 14.936 194.252 14.9267 194.663 14.908V16C193.599 16.14 192.819 16.056 192.325 15.748C191.83 15.4307 191.583 14.838 191.583 13.97V10.176H190.197V9H191.583V7.404L192.801 7.04V9H194.663V10.176ZM196.721 7.726C196.487 7.726 196.291 7.64667 196.133 7.488C195.974 7.32933 195.895 7.138 195.895 6.914C195.895 6.69 195.974 6.49867 196.133 6.34C196.291 6.172 196.487 6.088 196.721 6.088C196.945 6.088 197.136 6.172 197.295 6.34C197.453 6.49867 197.533 6.69 197.533 6.914C197.533 7.138 197.453 7.32933 197.295 7.488C197.136 7.64667 196.945 7.726 196.721 7.726ZM196.105 16V9H197.323V16H196.105ZM205.089 15.118C204.37 15.8273 203.498 16.182 202.471 16.182C201.444 16.182 200.572 15.8273 199.853 15.118C199.144 14.4087 198.789 13.536 198.789 12.5C198.789 11.464 199.144 10.5913 199.853 9.882C200.572 9.17267 201.444 8.818 202.471 8.818C203.498 8.818 204.37 9.17267 205.089 9.882C205.808 10.5913 206.167 11.464 206.167 12.5C206.167 13.536 205.808 14.4087 205.089 15.118ZM202.471 14.992C203.171 14.992 203.759 14.754 204.235 14.278C204.711 13.802 204.949 13.2093 204.949 12.5C204.949 11.7907 204.711 11.198 204.235 10.722C203.759 10.246 203.171 10.008 202.471 10.008C201.78 10.008 201.197 10.246 200.721 10.722C200.245 11.198 200.007 11.7907 200.007 12.5C200.007 13.2093 200.245 13.802 200.721 14.278C201.197 14.754 201.78 14.992 202.471 14.992ZM211.089 8.818C211.91 8.818 212.568 9.07933 213.063 9.602C213.557 10.1153 213.805 10.8153 213.805 11.702V16H212.587V11.772C212.587 11.2027 212.433 10.764 212.125 10.456C211.817 10.1387 211.392 9.98 210.851 9.98C210.244 9.98 209.754 10.1713 209.381 10.554C209.007 10.9273 208.821 11.506 208.821 12.29V16H207.603V9H208.821V10.008C209.315 9.21467 210.071 8.818 211.089 8.818Z" fill="white"/>
<defs>
<clipPath id="clip0_1_321">
<rect width="16" height="16" fill="white" transform="translate(0 4)"/>
</clipPath>
</defs>
</svg>
