<svg width="125" height="24" viewBox="0 0 125 24" fill="none" xmlns="http://www.w3.org/2000/svg">
<g clip-path="url(#clip0_1_324)">
<path d="M14.6667 11.3867V12C14.6658 13.4376 14.2003 14.8364 13.3396 15.9879C12.4788 17.1393 11.2689 17.9816 9.89023 18.3893C8.51162 18.7969 7.03817 18.7479 5.68964 18.2497C4.34112 17.7515 3.18976 16.8307 2.4073 15.6247C1.62484 14.4187 1.25319 12.992 1.34778 11.5575C1.44237 10.123 1.99813 8.75755 2.93218 7.66471C3.86623 6.57188 5.12852 5.81025 6.53079 5.49343C7.93306 5.1766 9.40017 5.32155 10.7133 5.90666" stroke="white" stroke-width="2" stroke-linecap="round" stroke-linejoin="round"/>
<path d="M14.6667 6.66667L8 13.34L6 11.34" stroke="white" stroke-width="2" stroke-linecap="round" stroke-linejoin="round"/>
</g>
<path d="M29.0259 6.2C29.9313 6.2 30.6826 6.50333 31.2799 7.11C31.8866 7.70733 32.1899 8.454 32.1899 9.35C32.1899 10.2367 31.8866 10.9833 31.2799 11.59C30.6826 12.1967 29.9313 12.5 29.0259 12.5H26.7719V16H25.4699V6.2H29.0259ZM29.0259 11.282C29.5673 11.282 30.0153 11.1 30.3699 10.736C30.7246 10.3627 30.9019 9.90067 30.9019 9.35C30.9019 8.79 30.7246 8.328 30.3699 7.964C30.0153 7.6 29.5673 7.418 29.0259 7.418H26.7719V11.282H29.0259ZM34.6693 10.176C35.0707 9.308 35.7987 8.874 36.8533 8.874V10.148C36.256 10.12 35.7427 10.2787 35.3133 10.624C34.884 10.9693 34.6693 11.5247 34.6693 12.29V16H33.4513V9H34.6693V10.176ZM38.6611 7.726C38.4278 7.726 38.2318 7.64667 38.0731 7.488C37.9144 7.32933 37.8351 7.138 37.8351 6.914C37.8351 6.69 37.9144 6.49867 38.0731 6.34C38.2318 6.172 38.4278 6.088 38.6611 6.088C38.8851 6.088 39.0764 6.172 39.2351 6.34C39.3938 6.49867 39.4731 6.69 39.4731 6.914C39.4731 7.138 39.3938 7.32933 39.2351 7.488C39.0764 7.64667 38.8851 7.726 38.6611 7.726ZM38.0451 16V9H39.2631V16H38.0451ZM47.0293 15.118C46.3106 15.8273 45.4379 16.182 44.4113 16.182C43.3846 16.182 42.5119 15.8273 41.7933 15.118C41.0839 14.4087 40.7293 13.536 40.7293 12.5C40.7293 11.464 41.0839 10.5913 41.7933 9.882C42.5119 9.17267 43.3846 8.818 44.4113 8.818C45.4379 8.818 46.3106 9.17267 47.0293 9.882C47.7479 10.5913 48.1073 11.464 48.1073 12.5C48.1073 13.536 47.7479 14.4087 47.0293 15.118ZM44.4113 14.992C45.1113 14.992 45.6993 14.754 46.1753 14.278C46.6513 13.802 46.8893 13.2093 46.8893 12.5C46.8893 11.7907 46.6513 11.198 46.1753 10.722C45.6993 10.246 45.1113 10.008 44.4113 10.008C43.7206 10.008 43.1373 10.246 42.6613 10.722C42.1853 11.198 41.9473 11.7907 41.9473 12.5C41.9473 13.2093 42.1853 13.802 42.6613 14.278C43.1373 14.754 43.7206 14.992 44.4113 14.992ZM50.7611 10.176C51.1625 9.308 51.8905 8.874 52.9451 8.874V10.148C52.3478 10.12 51.8345 10.2787 51.4051 10.624C50.9758 10.9693 50.7611 11.5247 50.7611 12.29V16H49.5431V9H50.7611V10.176ZM54.7529 7.726C54.5196 7.726 54.3236 7.64667 54.1649 7.488C54.0062 7.32933 53.9269 7.138 53.9269 6.914C53.9269 6.69 54.0062 6.49867 54.1649 6.34C54.3236 6.172 54.5196 6.088 54.7529 6.088C54.9769 6.088 55.1682 6.172 55.3269 6.34C55.4856 6.49867 55.5649 6.69 55.5649 6.914C55.5649 7.138 55.4856 7.32933 55.3269 7.488C55.1682 7.64667 54.9769 7.726 54.7529 7.726ZM54.1369 16V9H55.3549V16H54.1369ZM61.0211 10.176H59.1591V13.97C59.1591 14.3153 59.2244 14.5627 59.3551 14.712C59.4951 14.852 59.7051 14.9267 59.9851 14.936C60.2651 14.936 60.6104 14.9267 61.0211 14.908V16C59.9571 16.14 59.1777 16.056 58.6831 15.748C58.1884 15.4307 57.9411 14.838 57.9411 13.97V10.176H56.5551V9H57.9411V7.404L59.1591 7.04V9H61.0211V10.176ZM67.4995 9H68.8015L65.9455 16.434C65.6468 17.2273 65.2268 17.8293 64.6855 18.24C64.1535 18.66 63.5375 18.8467 62.8375 18.8V17.666C63.6961 17.7313 64.3261 17.2553 64.7275 16.238L64.8535 15.972L61.8015 9H63.1035L65.4835 14.488L67.4995 9ZM76.6085 16.182C75.6939 16.182 74.9099 15.9673 74.2565 15.538C73.6125 15.1087 73.1599 14.5207 72.8985 13.774L74.0185 13.13C74.4012 14.3153 75.2739 14.908 76.6365 14.908C77.3085 14.908 77.8219 14.7727 78.1765 14.502C78.5312 14.222 78.7085 13.8533 78.7085 13.396C78.7085 12.9293 78.5312 12.5793 78.1765 12.346C77.8219 12.1127 77.2292 11.8653 76.3985 11.604C75.9879 11.4733 75.6752 11.3707 75.4605 11.296C75.2459 11.212 74.9752 11.0907 74.6485 10.932C74.3312 10.764 74.0932 10.596 73.9345 10.428C73.7759 10.2507 73.6312 10.022 73.5005 9.742C73.3792 9.462 73.3185 9.14467 73.3185 8.79C73.3185 7.94067 73.6172 7.26867 74.2145 6.774C74.8119 6.27 75.5399 6.018 76.3985 6.018C77.1732 6.018 77.8452 6.214 78.4145 6.606C78.9932 6.998 79.4272 7.516 79.7165 8.16L78.6245 8.79C78.2045 7.782 77.4625 7.278 76.3985 7.278C75.8665 7.278 75.4372 7.40867 75.1105 7.67C74.7839 7.93133 74.6205 8.286 74.6205 8.734C74.6205 9.16333 74.7745 9.49 75.0825 9.714C75.3905 9.938 75.9225 10.1713 76.6785 10.414C76.9492 10.498 77.1405 10.5587 77.2525 10.596C77.3645 10.6333 77.5372 10.6987 77.7705 10.792C78.0132 10.8853 78.1905 10.96 78.3025 11.016C78.4145 11.072 78.5639 11.1513 78.7505 11.254C78.9465 11.3567 79.0912 11.4547 79.1845 11.548C79.2779 11.6413 79.3852 11.758 79.5065 11.898C79.6372 12.0287 79.7305 12.164 79.7865 12.304C79.8425 12.444 79.8892 12.6073 79.9265 12.794C79.9732 12.9713 79.9965 13.1627 79.9965 13.368C79.9965 14.2267 79.6839 14.9127 79.0585 15.426C78.4332 15.93 77.6165 16.182 76.6085 16.182ZM86.2423 9H87.4603V16H86.2423V14.992C85.7476 15.7853 84.9916 16.182 83.9743 16.182C83.1529 16.182 82.4949 15.9253 82.0003 15.412C81.5056 14.8893 81.2583 14.1847 81.2583 13.298V9H82.4763V13.228C82.4763 13.7973 82.6303 14.2407 82.9383 14.558C83.2463 14.866 83.6709 15.02 84.2123 15.02C84.8189 15.02 85.3089 14.8333 85.6823 14.46C86.0556 14.0773 86.2423 13.494 86.2423 12.71V9ZM93.1786 8.818C94.1586 8.818 94.994 9.17733 95.6846 9.896C96.3753 10.6053 96.7206 11.4733 96.7206 12.5C96.7206 13.5267 96.3753 14.3993 95.6846 15.118C94.994 15.8273 94.1586 16.182 93.1786 16.182C92.0213 16.182 91.1393 15.72 90.5326 14.796V18.8H89.3146V9H90.5326V10.204C91.1393 9.28 92.0213 8.818 93.1786 8.818ZM93.0246 15.006C93.7246 15.006 94.3126 14.768 94.7886 14.292C95.2646 13.8067 95.5026 13.2093 95.5026 12.5C95.5026 11.7907 95.2646 11.198 94.7886 10.722C94.3126 10.2367 93.7246 9.994 93.0246 9.994C92.3153 9.994 91.7226 10.2367 91.2466 10.722C90.7706 11.198 90.5326 11.7907 90.5326 12.5C90.5326 13.2093 90.7706 13.8067 91.2466 14.292C91.7226 14.768 92.3153 15.006 93.0246 15.006ZM102.038 8.818C103.018 8.818 103.853 9.17733 104.544 9.896C105.235 10.6053 105.58 11.4733 105.58 12.5C105.58 13.5267 105.235 14.3993 104.544 15.118C103.853 15.8273 103.018 16.182 102.038 16.182C100.881 16.182 99.9987 15.72 99.392 14.796V18.8H98.174V9H99.392V10.204C99.9987 9.28 100.881 8.818 102.038 8.818ZM101.884 15.006C102.584 15.006 103.172 14.768 103.648 14.292C104.124 13.8067 104.362 13.2093 104.362 12.5C104.362 11.7907 104.124 11.198 103.648 10.722C103.172 10.2367 102.584 9.994 101.884 9.994C101.175 9.994 100.582 10.2367 100.106 10.722C99.63 11.198 99.392 11.7907 99.392 12.5C99.392 13.2093 99.63 13.8067 100.106 14.292C100.582 14.768 101.175 15.006 101.884 15.006ZM112.941 15.118C112.223 15.8273 111.35 16.182 110.323 16.182C109.297 16.182 108.424 15.8273 107.705 15.118C106.996 14.4087 106.641 13.536 106.641 12.5C106.641 11.464 106.996 10.5913 107.705 9.882C108.424 9.17267 109.297 8.818 110.323 8.818C111.35 8.818 112.223 9.17267 112.941 9.882C113.66 10.5913 114.019 11.464 114.019 12.5C114.019 13.536 113.66 14.4087 112.941 15.118ZM110.323 14.992C111.023 14.992 111.611 14.754 112.087 14.278C112.563 13.802 112.801 13.2093 112.801 12.5C112.801 11.7907 112.563 11.198 112.087 10.722C111.611 10.246 111.023 10.008 110.323 10.008C109.633 10.008 109.049 10.246 108.573 10.722C108.097 11.198 107.859 11.7907 107.859 12.5C107.859 13.2093 108.097 13.802 108.573 14.278C109.049 14.754 109.633 14.992 110.323 14.992ZM116.673 10.176C117.075 9.308 117.803 8.874 118.857 8.874V10.148C118.26 10.12 117.747 10.2787 117.317 10.624C116.888 10.9693 116.673 11.5247 116.673 12.29V16H115.455V9H116.673V10.176ZM124.021 10.176H122.159V13.97C122.159 14.3153 122.224 14.5627 122.355 14.712C122.495 14.852 122.705 14.9267 122.985 14.936C123.265 14.936 123.61 14.9267 124.021 14.908V16C122.957 16.14 122.178 16.056 121.683 15.748C121.188 15.4307 120.941 14.838 120.941 13.97V10.176H119.555V9H120.941V7.404L122.159 7.04V9H124.021V10.176Z" fill="white"/>
<defs>
<clipPath id="clip0_1_324">
<rect width="16" height="16" fill="white" transform="translate(0 4)"/>
</clipPath>
</defs>
</svg>
