<svg width="505" height="24" viewBox="0 0 505 24" fill="none" xmlns="http://www.w3.org/2000/svg">
<path d="M13.2265 3.4V16H11.5705V6.154L7.44849 13.012H7.23249L3.11049 6.172V16H1.43649V3.4H3.32649L7.34049 10.06L11.3365 3.4H13.2265ZM22.0409 7H23.7149L20.0429 16.558C19.6589 17.578 19.1189 18.352 18.4229 18.88C17.7389 19.42 16.9469 19.66 16.0469 19.6V18.142C17.1509 18.226 17.9609 17.614 18.4769 16.306L18.6389 15.964L14.7149 7H16.3889L19.4489 14.056L22.0409 7ZM37.6585 15.028C36.7825 15.832 35.6485 16.234 34.2565 16.234C32.8645 16.234 31.7245 15.832 30.8365 15.028C29.9605 14.212 29.5225 13.126 29.5225 11.77V3.4H31.1965V11.698C31.1965 12.586 31.4605 13.294 31.9885 13.822C32.5165 14.338 33.2725 14.596 34.2565 14.596C35.2405 14.596 35.9965 14.338 36.5245 13.822C37.0525 13.294 37.3165 12.586 37.3165 11.698V3.4H38.9725V11.77C38.9725 13.126 38.5345 14.212 37.6585 15.028ZM49.0022 16L46.1762 11.176H43.2062V16H41.5322V3.4H46.5722C47.6522 3.4 48.5762 3.784 49.3442 4.552C50.1122 5.308 50.4962 6.226 50.4962 7.306C50.4962 8.122 50.2502 8.866 49.7582 9.538C49.2782 10.21 48.6542 10.684 47.8862 10.96L50.8562 16H49.0022ZM43.2062 4.966V9.664H46.5722C47.1962 9.664 47.7242 9.436 48.1562 8.98C48.6002 8.512 48.8222 7.954 48.8222 7.306C48.8222 6.658 48.6002 6.106 48.1562 5.65C47.7242 5.194 47.1962 4.966 46.5722 4.966H43.2062ZM54.2101 14.416H59.6461V16H52.5361V3.4H54.2101V14.416ZM62.5132 9.43C62.5132 9.778 62.6872 10.06 63.0352 10.276C63.3832 10.48 63.8032 10.648 64.2952 10.78C64.7872 10.9 65.2792 11.044 65.7712 11.212C66.2632 11.368 66.6832 11.644 67.0312 12.04C67.3792 12.424 67.5532 12.922 67.5532 13.534C67.5532 14.35 67.2352 15.004 66.5992 15.496C65.9752 15.988 65.1712 16.234 64.1872 16.234C63.3112 16.234 62.5612 16.042 61.9372 15.658C61.3132 15.274 60.8692 14.764 60.6052 14.128L61.9552 13.354C62.0992 13.786 62.3692 14.128 62.7652 14.38C63.1612 14.632 63.6352 14.758 64.1872 14.758C64.7032 14.758 65.1292 14.662 65.4652 14.47C65.8012 14.266 65.9692 13.954 65.9692 13.534C65.9692 13.186 65.7952 12.91 65.4472 12.706C65.0992 12.49 64.6792 12.322 64.1872 12.202C63.6952 12.07 63.2032 11.92 62.7112 11.752C62.2192 11.584 61.7992 11.308 61.4512 10.924C61.1032 10.54 60.9292 10.048 60.9292 9.448C60.9292 8.668 61.2292 8.026 61.8292 7.522C62.4412 7.018 63.2032 6.766 64.1152 6.766C64.8472 6.766 65.4952 6.934 66.0592 7.27C66.6352 7.594 67.0672 8.05 67.3552 8.638L66.0412 9.376C65.7172 8.608 65.0752 8.224 64.1152 8.224C63.6712 8.224 63.2932 8.332 62.9812 8.548C62.6692 8.752 62.5132 9.046 62.5132 9.43Z" fill="#0065FE"/>
<path d="M117.69 5.984H112.11V10.07H117.456V11.654H112.11V17H110.436V4.4H117.69V5.984ZM120.654 13.22C120.81 14.024 121.176 14.648 121.752 15.092C122.34 15.536 123.06 15.758 123.912 15.758C125.1 15.758 125.964 15.32 126.504 14.444L127.836 15.2C126.96 16.556 125.64 17.234 123.876 17.234C122.448 17.234 121.284 16.79 120.384 15.902C119.496 15.002 119.052 13.868 119.052 12.5C119.052 11.144 119.49 10.016 120.366 9.116C121.242 8.216 122.376 7.766 123.768 7.766C125.088 7.766 126.162 8.234 126.99 9.17C127.83 10.094 128.25 11.21 128.25 12.518C128.25 12.746 128.232 12.98 128.196 13.22H120.654ZM123.768 9.242C122.928 9.242 122.232 9.482 121.68 9.962C121.128 10.43 120.786 11.06 120.654 11.852H126.666C126.534 11 126.198 10.352 125.658 9.908C125.118 9.464 124.488 9.242 123.768 9.242ZM137.484 8H139.05V17H137.484V15.452C136.704 16.64 135.57 17.234 134.082 17.234C132.822 17.234 131.748 16.778 130.86 15.866C129.972 14.942 129.528 13.82 129.528 12.5C129.528 11.18 129.972 10.064 130.86 9.152C131.748 8.228 132.822 7.766 134.082 7.766C135.57 7.766 136.704 8.36 137.484 9.548V8ZM134.28 15.722C135.192 15.722 135.954 15.416 136.566 14.804C137.178 14.18 137.484 13.412 137.484 12.5C137.484 11.588 137.178 10.826 136.566 10.214C135.954 9.59 135.192 9.278 134.28 9.278C133.38 9.278 132.624 9.59 132.012 10.214C131.4 10.826 131.094 11.588 131.094 12.5C131.094 13.412 131.4 14.18 132.012 14.804C132.624 15.416 133.38 15.722 134.28 15.722ZM146.319 9.512H143.925V14.39C143.925 14.834 144.009 15.152 144.177 15.344C144.357 15.524 144.627 15.62 144.987 15.632C145.347 15.632 145.791 15.62 146.319 15.596V17C144.951 17.18 143.949 17.072 143.313 16.676C142.677 16.268 142.359 15.506 142.359 14.39V9.512H140.577V8H142.359V5.948L143.925 5.48V8H146.319V9.512ZM154.436 8H156.002V17H154.436V15.704C153.8 16.724 152.828 17.234 151.52 17.234C150.464 17.234 149.618 16.904 148.982 16.244C148.346 15.572 148.028 14.666 148.028 13.526V8H149.594V13.436C149.594 14.168 149.792 14.738 150.188 15.146C150.584 15.542 151.13 15.74 151.826 15.74C152.606 15.74 153.236 15.5 153.716 15.02C154.196 14.528 154.436 13.778 154.436 12.77V8ZM159.952 9.512C160.468 8.396 161.404 7.838 162.76 7.838V9.476C161.992 9.44 161.332 9.644 160.78 10.088C160.228 10.532 159.952 11.246 159.952 12.23V17H158.386V8H159.952V9.512ZM164.898 13.22C165.054 14.024 165.42 14.648 165.996 15.092C166.584 15.536 167.304 15.758 168.156 15.758C169.344 15.758 170.208 15.32 170.748 14.444L172.08 15.2C171.204 16.556 169.884 17.234 168.12 17.234C166.692 17.234 165.528 16.79 164.628 15.902C163.74 15.002 163.296 13.868 163.296 12.5C163.296 11.144 163.734 10.016 164.61 9.116C165.486 8.216 166.62 7.766 168.012 7.766C169.332 7.766 170.406 8.234 171.234 9.17C172.074 10.094 172.494 11.21 172.494 12.518C172.494 12.746 172.476 12.98 172.44 13.22H164.898ZM168.012 9.242C167.172 9.242 166.476 9.482 165.924 9.962C165.372 10.43 165.03 11.06 164.898 11.852H170.91C170.778 11 170.442 10.352 169.902 9.908C169.362 9.464 168.732 9.242 168.012 9.242ZM175.292 10.43C175.292 10.778 175.466 11.06 175.814 11.276C176.162 11.48 176.582 11.648 177.074 11.78C177.566 11.9 178.058 12.044 178.55 12.212C179.042 12.368 179.462 12.644 179.81 13.04C180.158 13.424 180.332 13.922 180.332 14.534C180.332 15.35 180.014 16.004 179.378 16.496C178.754 16.988 177.95 17.234 176.966 17.234C176.09 17.234 175.34 17.042 174.716 16.658C174.092 16.274 173.648 15.764 173.384 15.128L174.734 14.354C174.878 14.786 175.148 15.128 175.544 15.38C175.94 15.632 176.414 15.758 176.966 15.758C177.482 15.758 177.908 15.662 178.244 15.47C178.58 15.266 178.748 14.954 178.748 14.534C178.748 14.186 178.574 13.91 178.226 13.706C177.878 13.49 177.458 13.322 176.966 13.202C176.474 13.07 175.982 12.92 175.49 12.752C174.998 12.584 174.578 12.308 174.23 11.924C173.882 11.54 173.708 11.048 173.708 10.448C173.708 9.668 174.008 9.026 174.608 8.522C175.22 8.018 175.982 7.766 176.894 7.766C177.626 7.766 178.274 7.934 178.838 8.27C179.414 8.594 179.846 9.05 180.134 9.638L178.82 10.376C178.496 9.608 177.854 9.224 176.894 9.224C176.45 9.224 176.072 9.332 175.76 9.548C175.448 9.752 175.292 10.046 175.292 10.43Z" fill="#141414"/>
<path d="M191.086 9L197.086 15L203.086 9" stroke="#141414" stroke-linecap="round" stroke-linejoin="round"/>
<path d="M255.008 3.4C256.172 3.4 257.138 3.79 257.906 4.57C258.686 5.338 259.076 6.298 259.076 7.45C259.076 8.59 258.686 9.55 257.906 10.33C257.138 11.11 256.172 11.5 255.008 11.5H252.11V16H250.436V3.4H255.008ZM255.008 9.934C255.704 9.934 256.28 9.7 256.736 9.232C257.192 8.752 257.42 8.158 257.42 7.45C257.42 6.73 257.192 6.136 256.736 5.668C256.28 5.2 255.704 4.966 255.008 4.966H252.11V9.934H255.008ZM262.264 8.512C262.78 7.396 263.716 6.838 265.072 6.838V8.476C264.304 8.44 263.644 8.644 263.092 9.088C262.54 9.532 262.264 10.246 262.264 11.23V16H260.698V7H262.264V8.512ZM267.397 5.362C267.097 5.362 266.845 5.26 266.641 5.056C266.437 4.852 266.335 4.606 266.335 4.318C266.335 4.03 266.437 3.784 266.641 3.58C266.845 3.364 267.097 3.256 267.397 3.256C267.685 3.256 267.931 3.364 268.135 3.58C268.339 3.784 268.441 4.03 268.441 4.318C268.441 4.606 268.339 4.852 268.135 5.056C267.931 5.26 267.685 5.362 267.397 5.362ZM266.605 16V7H268.171V16H266.605ZM274.79 16.234C273.434 16.234 272.306 15.784 271.406 14.884C270.506 13.972 270.056 12.844 270.056 11.5C270.056 10.156 270.506 9.034 271.406 8.134C272.306 7.222 273.434 6.766 274.79 6.766C275.678 6.766 276.476 6.982 277.184 7.414C277.892 7.834 278.42 8.404 278.768 9.124L277.454 9.88C277.226 9.4 276.872 9.016 276.392 8.728C275.924 8.44 275.39 8.296 274.79 8.296C273.89 8.296 273.134 8.602 272.522 9.214C271.922 9.826 271.622 10.588 271.622 11.5C271.622 12.4 271.922 13.156 272.522 13.768C273.134 14.38 273.89 14.686 274.79 14.686C275.39 14.686 275.93 14.548 276.41 14.272C276.89 13.984 277.256 13.6 277.508 13.12L278.84 13.894C278.456 14.602 277.904 15.172 277.184 15.604C276.464 16.024 275.666 16.234 274.79 16.234ZM281.178 5.362C280.878 5.362 280.626 5.26 280.422 5.056C280.218 4.852 280.116 4.606 280.116 4.318C280.116 4.03 280.218 3.784 280.422 3.58C280.626 3.364 280.878 3.256 281.178 3.256C281.466 3.256 281.712 3.364 281.916 3.58C282.12 3.784 282.222 4.03 282.222 4.318C282.222 4.606 282.12 4.852 281.916 5.056C281.712 5.26 281.466 5.362 281.178 5.362ZM280.386 16V7H281.952V16H280.386ZM288.823 6.766C289.879 6.766 290.725 7.102 291.361 7.774C291.997 8.434 292.315 9.334 292.315 10.474V16H290.749V10.564C290.749 9.832 290.551 9.268 290.155 8.872C289.759 8.464 289.213 8.26 288.517 8.26C287.737 8.26 287.107 8.506 286.627 8.998C286.147 9.478 285.907 10.222 285.907 11.23V16H284.341V7H285.907V8.296C286.543 7.276 287.515 6.766 288.823 6.766ZM301.971 7H303.519V15.622C303.519 16.954 303.069 17.986 302.169 18.718C301.269 19.462 300.189 19.834 298.929 19.834C297.921 19.834 297.051 19.642 296.319 19.258C295.587 18.886 295.035 18.346 294.663 17.638L296.031 16.864C296.523 17.872 297.501 18.376 298.965 18.376C299.901 18.376 300.633 18.13 301.161 17.638C301.701 17.146 301.971 16.474 301.971 15.622V14.344C301.179 15.544 300.051 16.144 298.587 16.144C297.303 16.144 296.217 15.688 295.329 14.776C294.441 13.864 293.997 12.754 293.997 11.446C293.997 10.138 294.441 9.034 295.329 8.134C296.217 7.222 297.303 6.766 298.587 6.766C300.063 6.766 301.191 7.36 301.971 8.548V7ZM296.481 13.732C297.093 14.344 297.855 14.65 298.767 14.65C299.679 14.65 300.441 14.344 301.053 13.732C301.665 13.12 301.971 12.358 301.971 11.446C301.971 10.546 301.665 9.79 301.053 9.178C300.441 8.566 299.679 8.26 298.767 8.26C297.855 8.26 297.093 8.566 296.481 9.178C295.869 9.79 295.563 10.546 295.563 11.446C295.563 12.358 295.869 13.12 296.481 13.732Z" fill="#141414"/>
<path d="M354.734 16L353.708 13.174H348.038L347.012 16H345.23L349.928 3.4H351.818L356.516 16H354.734ZM348.614 11.608H353.132L350.864 5.398L348.614 11.608ZM362.323 6.766C363.379 6.766 364.225 7.102 364.861 7.774C365.497 8.434 365.815 9.334 365.815 10.474V16H364.249V10.564C364.249 9.832 364.051 9.268 363.655 8.872C363.259 8.464 362.713 8.26 362.017 8.26C361.237 8.26 360.607 8.506 360.127 8.998C359.647 9.478 359.407 10.222 359.407 11.23V16H357.841V7H359.407V8.296C360.043 7.276 361.015 6.766 362.323 6.766ZM375.453 7H377.019V16H375.453V14.452C374.673 15.64 373.539 16.234 372.051 16.234C370.791 16.234 369.717 15.778 368.829 14.866C367.941 13.942 367.497 12.82 367.497 11.5C367.497 10.18 367.941 9.064 368.829 8.152C369.717 7.228 370.791 6.766 372.051 6.766C373.539 6.766 374.673 7.36 375.453 8.548V7ZM372.249 14.722C373.161 14.722 373.923 14.416 374.535 13.804C375.147 13.18 375.453 12.412 375.453 11.5C375.453 10.588 375.147 9.826 374.535 9.214C373.923 8.59 373.161 8.278 372.249 8.278C371.349 8.278 370.593 8.59 369.981 9.214C369.369 9.826 369.063 10.588 369.063 11.5C369.063 12.412 369.369 13.18 369.981 13.804C370.593 14.416 371.349 14.722 372.249 14.722ZM379.392 16V2.86H380.958V16H379.392ZM389.629 7H391.303L387.631 16.558C387.247 17.578 386.707 18.352 386.011 18.88C385.327 19.42 384.535 19.66 383.635 19.6V18.142C384.739 18.226 385.549 17.614 386.065 16.306L386.227 15.964L382.303 7H383.977L387.037 14.056L389.629 7ZM397.506 8.512H395.112V13.39C395.112 13.834 395.196 14.152 395.364 14.344C395.544 14.524 395.814 14.62 396.174 14.632C396.534 14.632 396.978 14.62 397.506 14.596V16C396.138 16.18 395.136 16.072 394.5 15.676C393.864 15.268 393.546 14.506 393.546 13.39V8.512H391.764V7H393.546V4.948L395.112 4.48V7H397.506V8.512ZM400.152 5.362C399.852 5.362 399.6 5.26 399.396 5.056C399.192 4.852 399.09 4.606 399.09 4.318C399.09 4.03 399.192 3.784 399.396 3.58C399.6 3.364 399.852 3.256 400.152 3.256C400.44 3.256 400.686 3.364 400.89 3.58C401.094 3.784 401.196 4.03 401.196 4.318C401.196 4.606 401.094 4.852 400.89 5.056C400.686 5.26 400.44 5.362 400.152 5.362ZM399.36 16V7H400.926V16H399.36ZM407.546 16.234C406.19 16.234 405.062 15.784 404.162 14.884C403.262 13.972 402.812 12.844 402.812 11.5C402.812 10.156 403.262 9.034 404.162 8.134C405.062 7.222 406.19 6.766 407.546 6.766C408.434 6.766 409.232 6.982 409.94 7.414C410.648 7.834 411.176 8.404 411.524 9.124L410.21 9.88C409.982 9.4 409.628 9.016 409.148 8.728C408.68 8.44 408.146 8.296 407.546 8.296C406.646 8.296 405.89 8.602 405.278 9.214C404.678 9.826 404.378 10.588 404.378 11.5C404.378 12.4 404.678 13.156 405.278 13.768C405.89 14.38 406.646 14.686 407.546 14.686C408.146 14.686 408.686 14.548 409.166 14.272C409.646 13.984 410.012 13.6 410.264 13.12L411.596 13.894C411.212 14.602 410.66 15.172 409.94 15.604C409.22 16.024 408.422 16.234 407.546 16.234ZM414.421 9.43C414.421 9.778 414.595 10.06 414.943 10.276C415.291 10.48 415.711 10.648 416.203 10.78C416.695 10.9 417.187 11.044 417.679 11.212C418.171 11.368 418.591 11.644 418.939 12.04C419.287 12.424 419.461 12.922 419.461 13.534C419.461 14.35 419.143 15.004 418.507 15.496C417.883 15.988 417.079 16.234 416.095 16.234C415.219 16.234 414.469 16.042 413.845 15.658C413.221 15.274 412.777 14.764 412.513 14.128L413.863 13.354C414.007 13.786 414.277 14.128 414.673 14.38C415.069 14.632 415.543 14.758 416.095 14.758C416.611 14.758 417.037 14.662 417.373 14.47C417.709 14.266 417.877 13.954 417.877 13.534C417.877 13.186 417.703 12.91 417.355 12.706C417.007 12.49 416.587 12.322 416.095 12.202C415.603 12.07 415.111 11.92 414.619 11.752C414.127 11.584 413.707 11.308 413.359 10.924C413.011 10.54 412.837 10.048 412.837 9.448C412.837 8.668 413.137 8.026 413.737 7.522C414.349 7.018 415.111 6.766 416.023 6.766C416.755 6.766 417.403 6.934 417.967 7.27C418.543 7.594 418.975 8.05 419.263 8.638L417.949 9.376C417.625 8.608 416.983 8.224 416.023 8.224C415.579 8.224 415.201 8.332 414.889 8.548C414.577 8.752 414.421 9.046 414.421 9.43Z" fill="#141414"/>
<path d="M469.69 4.984H464.11V9.07H469.456V10.654H464.11V16H462.436V3.4H469.69V4.984ZM479.453 16L478.427 13.174H472.757L471.731 16H469.949L474.647 3.4H476.537L481.235 16H479.453ZM473.333 11.608H477.851L475.583 5.398L473.333 11.608ZM494.649 9.7C494.649 11.428 494.055 12.922 492.867 14.182L494.253 15.568L493.101 16.612L491.679 15.172C490.587 15.88 489.399 16.234 488.115 16.234C486.315 16.234 484.779 15.598 483.507 14.326C482.235 13.054 481.599 11.512 481.599 9.7C481.599 7.888 482.235 6.346 483.507 5.074C484.779 3.802 486.315 3.166 488.115 3.166C489.915 3.166 491.451 3.802 492.723 5.074C494.007 6.346 494.649 7.888 494.649 9.7ZM488.115 14.596C488.979 14.596 489.771 14.392 490.491 13.984L487.971 11.446L489.123 10.42L491.715 13.012C492.555 12.1 492.975 10.996 492.975 9.7C492.975 8.32 492.501 7.156 491.553 6.208C490.617 5.26 489.471 4.786 488.115 4.786C486.759 4.786 485.607 5.26 484.659 6.208C483.723 7.156 483.255 8.32 483.255 9.7C483.255 11.068 483.723 12.226 484.659 13.174C485.607 14.122 486.759 14.596 488.115 14.596ZM497.849 9.43C497.849 9.778 498.023 10.06 498.371 10.276C498.719 10.48 499.139 10.648 499.631 10.78C500.123 10.9 500.615 11.044 501.107 11.212C501.599 11.368 502.019 11.644 502.367 12.04C502.715 12.424 502.889 12.922 502.889 13.534C502.889 14.35 502.571 15.004 501.935 15.496C501.311 15.988 500.507 16.234 499.523 16.234C498.647 16.234 497.897 16.042 497.273 15.658C496.649 15.274 496.205 14.764 495.941 14.128L497.291 13.354C497.435 13.786 497.705 14.128 498.101 14.38C498.497 14.632 498.971 14.758 499.523 14.758C500.039 14.758 500.465 14.662 500.801 14.47C501.137 14.266 501.305 13.954 501.305 13.534C501.305 13.186 501.131 12.91 500.783 12.706C500.435 12.49 500.015 12.322 499.523 12.202C499.031 12.07 498.539 11.92 498.047 11.752C497.555 11.584 497.135 11.308 496.787 10.924C496.439 10.54 496.265 10.048 496.265 9.448C496.265 8.668 496.565 8.026 497.165 7.522C497.777 7.018 498.539 6.766 499.451 6.766C500.183 6.766 500.831 6.934 501.395 7.27C501.971 7.594 502.403 8.05 502.691 8.638L501.377 9.376C501.053 8.608 500.411 8.224 499.451 8.224C499.007 8.224 498.629 8.332 498.317 8.548C498.005 8.752 497.849 9.046 497.849 9.43Z" fill="#141414"/>
</svg>
