<svg width="239" height="328" viewBox="0 0 239 328" fill="none" xmlns="http://www.w3.org/2000/svg">
<path d="M21.292 27.16C21.292 29.5067 20.5454 31.4133 19.052 32.88C17.5587 34.32 15.612 35.1867 13.212 35.48V39H10.532V35.52C8.29203 35.36 6.37203 34.7333 4.77203 33.64C3.17203 32.5467 2.02536 31.0667 1.33203 29.2L6.09203 26.44C6.94537 28.5733 8.42537 29.7867 10.532 30.08V23.16C10.5054 23.16 10.492 23.16 10.492 23.16L10.412 23.12C9.4787 22.7733 8.7187 22.4667 8.13203 22.2C7.54536 21.9333 6.85203 21.5467 6.05203 21.04C5.2787 20.5333 4.66536 20.0133 4.21203 19.48C3.78536 18.92 3.3987 18.2133 3.05203 17.36C2.73203 16.5067 2.57203 15.5733 2.57203 14.56C2.57203 12.2133 3.33203 10.3333 4.85203 8.92C6.3987 7.50667 8.29203 6.69333 10.532 6.48V3H13.212V6.56C16.8387 6.98666 19.3987 8.86666 20.892 12.2L16.252 14.92C15.612 13.32 14.5987 12.3467 13.212 12V18.68C15.692 19.6667 17.3587 20.4533 18.212 21.04C20.2654 22.5067 21.292 24.5467 21.292 27.16ZM8.05203 14.6C8.05203 15.1867 8.2387 15.7067 8.61203 16.16C8.98537 16.5867 9.62537 17.0267 10.532 17.48V11.88C9.73203 12.04 9.1187 12.36 8.69203 12.84C8.26536 13.32 8.05203 13.9067 8.05203 14.6ZM13.212 30C14.9187 29.6267 15.772 28.6933 15.772 27.2C15.772 26.5333 15.5587 25.9733 15.132 25.52C14.732 25.0667 14.092 24.64 13.212 24.24V30ZM30.0852 7H34.8852V35H29.3652V12.84L24.0852 14.32L22.7252 9.6L30.0852 7ZM48.9539 17.2C51.6472 17.2 53.9139 18.0133 55.7539 19.64C57.5939 21.24 58.5139 23.48 58.5139 26.36C58.5139 29.24 57.5406 31.4933 55.5939 33.12C53.6739 34.7467 51.3139 35.56 48.5139 35.56C46.2472 35.56 44.2472 35.0533 42.5139 34.04C40.7806 33.0267 39.5272 31.5333 38.7539 29.56L43.4739 26.8C44.1672 29.04 45.8472 30.16 48.5139 30.16C49.9272 30.16 51.0206 29.8267 51.7939 29.16C52.5939 28.4667 52.9939 27.5333 52.9939 26.36C52.9939 25.2133 52.6072 24.2933 51.8339 23.6C51.0606 22.9067 50.0072 22.56 48.6739 22.56H40.1939L41.3139 7H57.1939V12.16H46.4339L46.0739 17.2H48.9539ZM63.268 39H60.988L76.988 3H79.268L63.268 39ZM105.085 14.44C107.379 14.44 109.205 15.1867 110.565 16.68C111.952 18.1733 112.645 20.1733 112.645 22.68V35H107.485V23.04C107.485 21.84 107.192 20.9067 106.605 20.24C106.019 19.5733 105.192 19.24 104.125 19.24C102.952 19.24 102.032 19.6267 101.365 20.4C100.725 21.1733 100.405 22.2933 100.405 23.76V35H95.2455V23.04C95.2455 21.84 94.9521 20.9067 94.3655 20.24C93.7788 19.5733 92.9521 19.24 91.8855 19.24C90.7388 19.24 89.8188 19.6267 89.1255 20.4C88.4588 21.1733 88.1255 22.2933 88.1255 23.76V35H82.9655V15H88.1255V17.12C89.3255 15.3333 91.1788 14.44 93.6855 14.44C96.1388 14.44 97.9521 15.4 99.1255 17.32C100.459 15.4 102.445 14.44 105.085 14.44ZM134.068 32.52C132.015 34.5467 129.508 35.56 126.548 35.56C123.588 35.56 121.081 34.5467 119.028 32.52C117.001 30.4667 115.988 27.96 115.988 25C115.988 22.04 117.001 19.5467 119.028 17.52C121.081 15.4667 123.588 14.44 126.548 14.44C129.508 14.44 132.015 15.4667 134.068 17.52C136.121 19.5467 137.148 22.04 137.148 25C137.148 27.96 136.121 30.4667 134.068 32.52ZM122.668 28.96C123.708 30 125.001 30.52 126.548 30.52C128.095 30.52 129.388 30 130.428 28.96C131.468 27.92 131.988 26.6 131.988 25C131.988 23.4 131.468 22.08 130.428 21.04C129.388 20 128.095 19.48 126.548 19.48C125.001 19.48 123.708 20 122.668 21.04C121.655 22.08 121.148 23.4 121.148 25C121.148 26.6 121.655 27.92 122.668 28.96ZM151.898 14.44C154.085 14.44 155.885 15.1733 157.298 16.64C158.738 18.1067 159.458 20.1333 159.458 22.72V35H154.298V23.36C154.298 22.0267 153.938 21.0133 153.218 20.32C152.498 19.6 151.538 19.24 150.338 19.24C149.005 19.24 147.938 19.6533 147.138 20.48C146.338 21.3067 145.938 22.5467 145.938 24.2V35H140.778V15H145.938V17.24C147.191 15.3733 149.178 14.44 151.898 14.44ZM175.304 19.96H170.784V28.28C170.784 28.9733 170.957 29.48 171.304 29.8C171.651 30.12 172.157 30.3067 172.824 30.36C173.491 30.3867 174.317 30.3733 175.304 30.32V35C171.757 35.4 169.251 35.0667 167.784 34C166.344 32.9333 165.624 31.0267 165.624 28.28V19.96H162.144V15H165.624V10.96L170.784 9.4V15H175.304V19.96ZM190.062 14.44C192.249 14.44 194.049 15.1733 195.462 16.64C196.902 18.1067 197.622 20.1333 197.622 22.72V35H192.462V23.36C192.462 22.0267 192.102 21.0133 191.382 20.32C190.662 19.6 189.702 19.24 188.502 19.24C187.169 19.24 186.102 19.6533 185.302 20.48C184.502 21.3067 184.102 22.5467 184.102 24.2V35H178.942V7H184.102V17.24C185.355 15.3733 187.342 14.44 190.062 14.44Z" fill="white"/>
<path d="M1.50781 63H3.36781V77H1.50781V63ZM14.4711 63H16.2111V77H14.4711V75.28C13.6044 76.6 12.3444 77.26 10.6911 77.26C9.29109 77.26 8.09776 76.7533 7.11109 75.74C6.12443 74.7133 5.63109 73.4667 5.63109 72C5.63109 70.5333 6.12443 69.2933 7.11109 68.28C8.09776 67.2533 9.29109 66.74 10.6911 66.74C12.3444 66.74 13.6044 67.4 14.4711 68.72V63ZM10.9111 75.58C11.9244 75.58 12.7711 75.24 13.4511 74.56C14.1311 73.8667 14.4711 73.0133 14.4711 72C14.4711 70.9867 14.1311 70.14 13.4511 69.46C12.7711 68.7667 11.9244 68.42 10.9111 68.42C9.91109 68.42 9.07109 68.7667 8.39109 69.46C7.71109 70.14 7.37109 70.9867 7.37109 72C7.37109 73.0133 7.71109 73.8667 8.39109 74.56C9.07109 75.24 9.91109 75.58 10.9111 75.58ZM20.0673 72.8C20.2407 73.6933 20.6473 74.3867 21.2873 74.88C21.9407 75.3733 22.7407 75.62 23.6873 75.62C25.0073 75.62 25.9673 75.1333 26.5673 74.16L28.0473 75C27.074 76.5067 25.6073 77.26 23.6473 77.26C22.0607 77.26 20.7673 76.7667 19.7673 75.78C18.7807 74.78 18.2873 73.52 18.2873 72C18.2873 70.4933 18.774 69.24 19.7473 68.24C20.7207 67.24 21.9807 66.74 23.5273 66.74C24.994 66.74 26.1873 67.26 27.1073 68.3C28.0407 69.3267 28.5073 70.5667 28.5073 72.02C28.5073 72.2733 28.4873 72.5333 28.4473 72.8H20.0673ZM23.5273 68.38C22.594 68.38 21.8207 68.6467 21.2073 69.18C20.594 69.7 20.214 70.4 20.0673 71.28H26.7473C26.6007 70.3333 26.2273 69.6133 25.6273 69.12C25.0273 68.6267 24.3273 68.38 23.5273 68.38ZM38.768 67H40.508V77H38.768V75.28C37.9013 76.6 36.6413 77.26 34.988 77.26C33.588 77.26 32.3946 76.7533 31.408 75.74C30.4213 74.7133 29.928 73.4667 29.928 72C29.928 70.5333 30.4213 69.2933 31.408 68.28C32.3946 67.2533 33.588 66.74 34.988 66.74C36.6413 66.74 37.9013 67.4 38.768 68.72V67ZM35.208 75.58C36.2213 75.58 37.068 75.24 37.748 74.56C38.428 73.8667 38.768 73.0133 38.768 72C38.768 70.9867 38.428 70.14 37.748 69.46C37.068 68.7667 36.2213 68.42 35.208 68.42C34.208 68.42 33.368 68.7667 32.688 69.46C32.008 70.14 31.668 70.9867 31.668 72C31.668 73.0133 32.008 73.8667 32.688 74.56C33.368 75.24 34.208 75.58 35.208 75.58ZM43.1442 77V62.4H44.8842V77H43.1442ZM57.6788 64.42C55.9188 64.2733 55.0388 65.0333 55.0388 66.7V67H57.6788V68.68H55.0388V77H53.2988V68.68H51.6988V67H53.2988V66.7C53.2988 65.3533 53.6721 64.3333 54.4188 63.64C55.1788 62.9467 56.2654 62.6467 57.6788 62.74V64.42ZM66.8967 75.74C65.8701 76.7533 64.6234 77.26 63.1567 77.26C61.6901 77.26 60.4434 76.7533 59.4167 75.74C58.4034 74.7267 57.8967 73.48 57.8967 72C57.8967 70.52 58.4034 69.2733 59.4167 68.26C60.4434 67.2467 61.6901 66.74 63.1567 66.74C64.6234 66.74 65.8701 67.2467 66.8967 68.26C67.9234 69.2733 68.4367 70.52 68.4367 72C68.4367 73.48 67.9234 74.7267 66.8967 75.74ZM63.1567 75.56C64.1567 75.56 64.9967 75.22 65.6767 74.54C66.3567 73.86 66.6967 73.0133 66.6967 72C66.6967 70.9867 66.3567 70.14 65.6767 69.46C64.9967 68.78 64.1567 68.44 63.1567 68.44C62.1701 68.44 61.3367 68.78 60.6567 69.46C59.9767 70.14 59.6367 70.9867 59.6367 72C59.6367 73.0133 59.9767 73.86 60.6567 74.54C61.3367 75.22 62.1701 75.56 63.1567 75.56ZM72.228 68.68C72.8013 67.44 73.8413 66.82 75.348 66.82V68.64C74.4946 68.6 73.7613 68.8267 73.148 69.32C72.5346 69.8133 72.228 70.6067 72.228 71.7V77H70.488V67H72.228V68.68ZM87.5705 66.74C88.9705 66.74 90.1638 67.2533 91.1505 68.28C92.1371 69.2933 92.6305 70.5333 92.6305 72C92.6305 73.4667 92.1371 74.7133 91.1505 75.74C90.1638 76.7533 88.9705 77.26 87.5705 77.26C85.9171 77.26 84.6571 76.6 83.7905 75.28V77H82.0505V63H83.7905V68.72C84.6571 67.4 85.9171 66.74 87.5705 66.74ZM87.3505 75.58C88.3505 75.58 89.1905 75.24 89.8705 74.56C90.5505 73.8667 90.8905 73.0133 90.8905 72C90.8905 70.9867 90.5505 70.14 89.8705 69.46C89.1905 68.7667 88.3505 68.42 87.3505 68.42C86.3371 68.42 85.4905 68.7667 84.8105 69.46C84.1305 70.14 83.7905 70.9867 83.7905 72C83.7905 73.0133 84.1305 73.8667 84.8105 74.56C85.4905 75.24 86.3371 75.58 87.3505 75.58ZM101.607 67H103.347V77H101.607V75.56C100.9 76.6933 99.8201 77.26 98.3667 77.26C97.1934 77.26 96.2534 76.8933 95.5467 76.16C94.8401 75.4133 94.4867 74.4067 94.4867 73.14V67H96.2267V73.04C96.2267 73.8533 96.4467 74.4867 96.8867 74.94C97.3267 75.38 97.9334 75.6 98.7067 75.6C99.5734 75.6 100.273 75.3333 100.807 74.8C101.34 74.2533 101.607 73.42 101.607 72.3V67ZM107.476 69.7C107.476 70.0867 107.67 70.4 108.056 70.64C108.443 70.8667 108.91 71.0533 109.456 71.2C110.003 71.3333 110.55 71.4933 111.096 71.68C111.643 71.8533 112.11 72.16 112.496 72.6C112.883 73.0267 113.076 73.58 113.076 74.26C113.076 75.1667 112.723 75.8933 112.016 76.44C111.323 76.9867 110.43 77.26 109.336 77.26C108.363 77.26 107.53 77.0467 106.836 76.62C106.143 76.1933 105.65 75.6267 105.356 74.92L106.856 74.06C107.016 74.54 107.316 74.92 107.756 75.2C108.196 75.48 108.723 75.62 109.336 75.62C109.91 75.62 110.383 75.5133 110.756 75.3C111.13 75.0733 111.316 74.7267 111.316 74.26C111.316 73.8733 111.123 73.5667 110.736 73.34C110.35 73.1 109.883 72.9133 109.336 72.78C108.79 72.6333 108.243 72.4667 107.696 72.28C107.15 72.0933 106.683 71.7867 106.296 71.36C105.91 70.9333 105.716 70.3867 105.716 69.72C105.716 68.8533 106.05 68.14 106.716 67.58C107.396 67.02 108.243 66.74 109.256 66.74C110.07 66.74 110.79 66.9267 111.416 67.3C112.056 67.66 112.536 68.1667 112.856 68.82L111.396 69.64C111.036 68.7867 110.323 68.36 109.256 68.36C108.763 68.36 108.343 68.48 107.996 68.72C107.65 68.9467 107.476 69.2733 107.476 69.7ZM115.919 65.18C115.585 65.18 115.305 65.0667 115.079 64.84C114.852 64.6133 114.739 64.34 114.739 64.02C114.739 63.7 114.852 63.4267 115.079 63.2C115.305 62.96 115.585 62.84 115.919 62.84C116.239 62.84 116.512 62.96 116.739 63.2C116.965 63.4267 117.079 63.7 117.079 64.02C117.079 64.34 116.965 64.6133 116.739 64.84C116.512 65.0667 116.239 65.18 115.919 65.18ZM115.039 77V67H116.779V77H115.039ZM124.413 66.74C125.587 66.74 126.527 67.1133 127.233 67.86C127.94 68.5933 128.293 69.5933 128.293 70.86V77H126.553V70.96C126.553 70.1467 126.333 69.52 125.893 69.08C125.453 68.6267 124.847 68.4 124.073 68.4C123.207 68.4 122.507 68.6733 121.973 69.22C121.44 69.7533 121.173 70.58 121.173 71.7V77H119.433V67H121.173V68.44C121.88 67.3067 122.96 66.74 124.413 66.74ZM131.942 72.8C132.116 73.6933 132.522 74.3867 133.162 74.88C133.816 75.3733 134.616 75.62 135.562 75.62C136.882 75.62 137.842 75.1333 138.442 74.16L139.922 75C138.949 76.5067 137.482 77.26 135.522 77.26C133.936 77.26 132.642 76.7667 131.642 75.78C130.656 74.78 130.162 73.52 130.162 72C130.162 70.4933 130.649 69.24 131.622 68.24C132.596 67.24 133.856 66.74 135.402 66.74C136.869 66.74 138.062 67.26 138.982 68.3C139.916 69.3267 140.382 70.5667 140.382 72.02C140.382 72.2733 140.362 72.5333 140.322 72.8H131.942ZM135.402 68.38C134.469 68.38 133.696 68.6467 133.082 69.18C132.469 69.7 132.089 70.4 131.942 71.28H138.622C138.476 70.3333 138.102 69.6133 137.502 69.12C136.902 68.6267 136.202 68.38 135.402 68.38ZM143.492 69.7C143.492 70.0867 143.685 70.4 144.072 70.64C144.459 70.8667 144.925 71.0533 145.472 71.2C146.019 71.3333 146.565 71.4933 147.112 71.68C147.659 71.8533 148.125 72.16 148.512 72.6C148.899 73.0267 149.092 73.58 149.092 74.26C149.092 75.1667 148.739 75.8933 148.032 76.44C147.339 76.9867 146.445 77.26 145.352 77.26C144.379 77.26 143.545 77.0467 142.852 76.62C142.159 76.1933 141.665 75.6267 141.372 74.92L142.872 74.06C143.032 74.54 143.332 74.92 143.772 75.2C144.212 75.48 144.739 75.62 145.352 75.62C145.925 75.62 146.399 75.5133 146.772 75.3C147.145 75.0733 147.332 74.7267 147.332 74.26C147.332 73.8733 147.139 73.5667 146.752 73.34C146.365 73.1 145.899 72.9133 145.352 72.78C144.805 72.6333 144.259 72.4667 143.712 72.28C143.165 72.0933 142.699 71.7867 142.312 71.36C141.925 70.9333 141.732 70.3867 141.732 69.72C141.732 68.8533 142.065 68.14 142.732 67.58C143.412 67.02 144.259 66.74 145.272 66.74C146.085 66.74 146.805 66.9267 147.432 67.3C148.072 67.66 148.552 68.1667 148.872 68.82L147.412 69.64C147.052 68.7867 146.339 68.36 145.272 68.36C144.779 68.36 144.359 68.48 144.012 68.72C143.665 68.9467 143.492 69.2733 143.492 69.7ZM152.027 69.7C152.027 70.0867 152.22 70.4 152.607 70.64C152.994 70.8667 153.46 71.0533 154.007 71.2C154.554 71.3333 155.1 71.4933 155.647 71.68C156.194 71.8533 156.66 72.16 157.047 72.6C157.434 73.0267 157.627 73.58 157.627 74.26C157.627 75.1667 157.274 75.8933 156.567 76.44C155.874 76.9867 154.98 77.26 153.887 77.26C152.914 77.26 152.08 77.0467 151.387 76.62C150.694 76.1933 150.2 75.6267 149.907 74.92L151.407 74.06C151.567 74.54 151.867 74.92 152.307 75.2C152.747 75.48 153.274 75.62 153.887 75.62C154.46 75.62 154.934 75.5133 155.307 75.3C155.68 75.0733 155.867 74.7267 155.867 74.26C155.867 73.8733 155.674 73.5667 155.287 73.34C154.9 73.1 154.434 72.9133 153.887 72.78C153.34 72.6333 152.794 72.4667 152.247 72.28C151.7 72.0933 151.234 71.7867 150.847 71.36C150.46 70.9333 150.267 70.3867 150.267 69.72C150.267 68.8533 150.6 68.14 151.267 67.58C151.947 67.02 152.794 66.74 153.807 66.74C154.62 66.74 155.34 66.9267 155.967 67.3C156.607 67.66 157.087 68.1667 157.407 68.82L155.947 69.64C155.587 68.7867 154.874 68.36 153.807 68.36C153.314 68.36 152.894 68.48 152.547 68.72C152.2 68.9467 152.027 69.2733 152.027 69.7ZM169.387 77.26C167.881 77.26 166.627 76.76 165.627 75.76C164.627 74.7467 164.127 73.4933 164.127 72C164.127 70.5067 164.627 69.26 165.627 68.26C166.627 67.2467 167.881 66.74 169.387 66.74C170.374 66.74 171.261 66.98 172.047 67.46C172.834 67.9267 173.421 68.56 173.807 69.36L172.347 70.2C172.094 69.6667 171.701 69.24 171.167 68.92C170.647 68.6 170.054 68.44 169.387 68.44C168.387 68.44 167.547 68.78 166.867 69.46C166.201 70.14 165.867 70.9867 165.867 72C165.867 73 166.201 73.84 166.867 74.52C167.547 75.2 168.387 75.54 169.387 75.54C170.054 75.54 170.654 75.3867 171.187 75.08C171.721 74.76 172.127 74.3333 172.407 73.8L173.887 74.66C173.461 75.4467 172.847 76.08 172.047 76.56C171.247 77.0267 170.361 77.26 169.387 77.26ZM177.365 68.68C177.938 67.44 178.978 66.82 180.485 66.82V68.64C179.631 68.6 178.898 68.8267 178.285 69.32C177.671 69.8133 177.365 70.6067 177.365 71.7V77H175.625V67H177.365V68.68ZM182.86 72.8C183.034 73.6933 183.44 74.3867 184.08 74.88C184.734 75.3733 185.534 75.62 186.48 75.62C187.8 75.62 188.76 75.1333 189.36 74.16L190.84 75C189.867 76.5067 188.4 77.26 186.44 77.26C184.854 77.26 183.56 76.7667 182.56 75.78C181.574 74.78 181.08 73.52 181.08 72C181.08 70.4933 181.567 69.24 182.54 68.24C183.514 67.24 184.774 66.74 186.32 66.74C187.787 66.74 188.98 67.26 189.9 68.3C190.834 69.3267 191.3 70.5667 191.3 72.02C191.3 72.2733 191.28 72.5333 191.24 72.8H182.86ZM186.32 68.38C185.387 68.38 184.614 68.6467 184 69.18C183.387 69.7 183.007 70.4 182.86 71.28H189.54C189.394 70.3333 189.02 69.6133 188.42 69.12C187.82 68.6267 187.12 68.38 186.32 68.38ZM201.561 67H203.301V77H201.561V75.28C200.694 76.6 199.434 77.26 197.781 77.26C196.381 77.26 195.188 76.7533 194.201 75.74C193.214 74.7133 192.721 73.4667 192.721 72C192.721 70.5333 193.214 69.2933 194.201 68.28C195.188 67.2533 196.381 66.74 197.781 66.74C199.434 66.74 200.694 67.4 201.561 68.72V67ZM198.001 75.58C199.014 75.58 199.861 75.24 200.541 74.56C201.221 73.8667 201.561 73.0133 201.561 72C201.561 70.9867 201.221 70.14 200.541 69.46C199.861 68.7667 199.014 68.42 198.001 68.42C197.001 68.42 196.161 68.7667 195.481 69.46C194.801 70.14 194.461 70.9867 194.461 72C194.461 73.0133 194.801 73.8667 195.481 74.56C196.161 75.24 197.001 75.58 198.001 75.58ZM211.377 68.68H208.717V74.1C208.717 74.5933 208.811 74.9467 208.997 75.16C209.197 75.36 209.497 75.4667 209.897 75.48C210.297 75.48 210.791 75.4667 211.377 75.44V77C209.857 77.2 208.744 77.08 208.037 76.64C207.331 76.1867 206.977 75.34 206.977 74.1V68.68H204.997V67H206.977V64.72L208.717 64.2V67H211.377V68.68ZM221.369 75.74C220.343 76.7533 219.096 77.26 217.629 77.26C216.163 77.26 214.916 76.7533 213.889 75.74C212.876 74.7267 212.369 73.48 212.369 72C212.369 70.52 212.876 69.2733 213.889 68.26C214.916 67.2467 216.163 66.74 217.629 66.74C219.096 66.74 220.343 67.2467 221.369 68.26C222.396 69.2733 222.909 70.52 222.909 72C222.909 73.48 222.396 74.7267 221.369 75.74ZM217.629 75.56C218.629 75.56 219.469 75.22 220.149 74.54C220.829 73.86 221.169 73.0133 221.169 72C221.169 70.9867 220.829 70.14 220.149 69.46C219.469 68.78 218.629 68.44 217.629 68.44C216.643 68.44 215.809 68.78 215.129 69.46C214.449 70.14 214.109 70.9867 214.109 72C214.109 73.0133 214.449 73.86 215.129 74.54C215.809 75.22 216.643 75.56 217.629 75.56ZM226.701 68.68C227.274 67.44 228.314 66.82 229.821 66.82V68.64C228.967 68.6 228.234 68.8267 227.621 69.32C227.007 69.8133 226.701 70.6067 226.701 71.7V77H224.961V67H226.701V68.68ZM232.652 69.7C232.652 70.0867 232.845 70.4 233.232 70.64C233.619 70.8667 234.085 71.0533 234.632 71.2C235.179 71.3333 235.725 71.4933 236.272 71.68C236.819 71.8533 237.285 72.16 237.672 72.6C238.059 73.0267 238.252 73.58 238.252 74.26C238.252 75.1667 237.899 75.8933 237.192 76.44C236.499 76.9867 235.605 77.26 234.512 77.26C233.539 77.26 232.705 77.0467 232.012 76.62C231.319 76.1933 230.825 75.6267 230.532 74.92L232.032 74.06C232.192 74.54 232.492 74.92 232.932 75.2C233.372 75.48 233.899 75.62 234.512 75.62C235.085 75.62 235.559 75.5133 235.932 75.3C236.305 75.0733 236.492 74.7267 236.492 74.26C236.492 73.8733 236.299 73.5667 235.912 73.34C235.525 73.1 235.059 72.9133 234.512 72.78C233.965 72.6333 233.419 72.4667 232.872 72.28C232.325 72.0933 231.859 71.7867 231.472 71.36C231.085 70.9333 230.892 70.3867 230.892 69.72C230.892 68.8533 231.225 68.14 231.892 67.58C232.572 67.02 233.419 66.74 234.432 66.74C235.245 66.74 235.965 66.9267 236.592 67.3C237.232 67.66 237.712 68.1667 238.032 68.82L236.572 69.64C236.212 68.7867 235.499 68.36 234.432 68.36C233.939 68.36 233.519 68.48 233.172 68.72C232.825 68.9467 232.652 69.2733 232.652 69.7Z" fill="white"/>
<g clip-path="url(#clip0_1_310)">
<path d="M14.6667 123.387V124C14.6658 125.438 14.2003 126.836 13.3396 127.988C12.4788 129.139 11.2689 129.982 9.89023 130.389C8.51162 130.797 7.03817 130.748 5.68964 130.25C4.34112 129.752 3.18976 128.831 2.4073 127.625C1.62484 126.419 1.25319 124.992 1.34778 123.558C1.44237 122.123 1.99813 120.758 2.93218 119.665C3.86623 118.572 5.12852 117.81 6.53079 117.493C7.93306 117.177 9.40017 117.322 10.7133 117.907" stroke="white" stroke-width="2" stroke-linecap="round" stroke-linejoin="round"/>
<path d="M14.6667 118.667L8 125.34L6 123.34" stroke="white" stroke-width="2" stroke-linecap="round" stroke-linejoin="round"/>
</g>
<path d="M26.4624 126.768H31.0124V128H25.1604V118.2H30.9424V119.432H26.4624V122.442H30.5924V123.66H26.4624V126.768ZM35.9442 120.818C36.7655 120.818 37.4235 121.079 37.9182 121.602C38.4128 122.115 38.6602 122.815 38.6602 123.702V128H37.4422V123.772C37.4422 123.203 37.2882 122.764 36.9802 122.456C36.6722 122.139 36.2475 121.98 35.7062 121.98C35.0995 121.98 34.6095 122.171 34.2362 122.554C33.8628 122.927 33.6762 123.506 33.6762 124.29V128H32.4582V121H33.6762V122.008C34.1708 121.215 34.9268 120.818 35.9442 120.818ZM43.8465 120.818C44.6679 120.818 45.3259 121.079 45.8205 121.602C46.3152 122.115 46.5625 122.815 46.5625 123.702V128H45.3445V123.772C45.3445 123.203 45.1905 122.764 44.8825 122.456C44.5745 122.139 44.1499 121.98 43.6085 121.98C43.0019 121.98 42.5119 122.171 42.1385 122.554C41.7652 122.927 41.5785 123.506 41.5785 124.29V128H40.3605V118.2H41.5785V122.008C42.0732 121.215 42.8292 120.818 43.8465 120.818ZM54.0589 121H55.2769V128H54.0589V126.796C53.4522 127.72 52.5702 128.182 51.4129 128.182C50.4329 128.182 49.5975 127.827 48.9069 127.118C48.2162 126.399 47.8709 125.527 47.8709 124.5C47.8709 123.473 48.2162 122.605 48.9069 121.896C49.5975 121.177 50.4329 120.818 51.4129 120.818C52.5702 120.818 53.4522 121.28 54.0589 122.204V121ZM51.5669 127.006C52.2762 127.006 52.8689 126.768 53.3449 126.292C53.8209 125.807 54.0589 125.209 54.0589 124.5C54.0589 123.791 53.8209 123.198 53.3449 122.722C52.8689 122.237 52.2762 121.994 51.5669 121.994C50.8669 121.994 50.2789 122.237 49.8029 122.722C49.3269 123.198 49.0889 123.791 49.0889 124.5C49.0889 125.209 49.3269 125.807 49.8029 126.292C50.2789 126.768 50.8669 127.006 51.5669 127.006ZM60.6082 120.818C61.4296 120.818 62.0876 121.079 62.5822 121.602C63.0769 122.115 63.3242 122.815 63.3242 123.702V128H62.1062V123.772C62.1062 123.203 61.9522 122.764 61.6442 122.456C61.3362 122.139 60.9116 121.98 60.3702 121.98C59.7636 121.98 59.2736 122.171 58.9002 122.554C58.5269 122.927 58.3402 123.506 58.3402 124.29V128H57.1222V121H58.3402V122.008C58.8349 121.215 59.5909 120.818 60.6082 120.818ZM68.3146 128.182C67.2599 128.182 66.3826 127.832 65.6826 127.132C64.9826 126.423 64.6326 125.545 64.6326 124.5C64.6326 123.455 64.9826 122.582 65.6826 121.882C66.3826 121.173 67.2599 120.818 68.3146 120.818C69.0053 120.818 69.6259 120.986 70.1766 121.322C70.7273 121.649 71.1379 122.092 71.4086 122.652L70.3866 123.24C70.2093 122.867 69.9339 122.568 69.5606 122.344C69.1966 122.12 68.7813 122.008 68.3146 122.008C67.6146 122.008 67.0266 122.246 66.5506 122.722C66.0839 123.198 65.8506 123.791 65.8506 124.5C65.8506 125.2 66.0839 125.788 66.5506 126.264C67.0266 126.74 67.6146 126.978 68.3146 126.978C68.7813 126.978 69.2013 126.871 69.5746 126.656C69.9479 126.432 70.2326 126.133 70.4286 125.76L71.4646 126.362C71.1659 126.913 70.7366 127.356 70.1766 127.692C69.6166 128.019 68.9959 128.182 68.3146 128.182ZM73.4255 125.06C73.5468 125.685 73.8315 126.171 74.2795 126.516C74.7368 126.861 75.2968 127.034 75.9595 127.034C76.8835 127.034 77.5555 126.693 77.9755 126.012L79.0115 126.6C78.3301 127.655 77.3035 128.182 75.9315 128.182C74.8208 128.182 73.9155 127.837 73.2155 127.146C72.5248 126.446 72.1795 125.564 72.1795 124.5C72.1795 123.445 72.5201 122.568 73.2015 121.868C73.8828 121.168 74.7648 120.818 75.8475 120.818C76.8741 120.818 77.7095 121.182 78.3535 121.91C79.0068 122.629 79.3335 123.497 79.3335 124.514C79.3335 124.691 79.3195 124.873 79.2915 125.06H73.4255ZM75.8475 121.966C75.1941 121.966 74.6528 122.153 74.2235 122.526C73.7941 122.89 73.5281 123.38 73.4255 123.996H78.1015C77.9988 123.333 77.7375 122.829 77.3175 122.484C76.8975 122.139 76.4075 121.966 75.8475 121.966ZM86.5159 118.2H87.7339V128H86.5159V126.796C85.9092 127.72 85.0272 128.182 83.8699 128.182C82.8899 128.182 82.0546 127.827 81.3639 127.118C80.6732 126.399 80.3279 125.527 80.3279 124.5C80.3279 123.473 80.6732 122.605 81.3639 121.896C82.0546 121.177 82.8899 120.818 83.8699 120.818C85.0272 120.818 85.9092 121.28 86.5159 122.204V118.2ZM84.0239 127.006C84.7332 127.006 85.3259 126.768 85.8019 126.292C86.2779 125.807 86.5159 125.209 86.5159 124.5C86.5159 123.791 86.2779 123.198 85.8019 122.722C85.3259 122.237 84.7332 121.994 84.0239 121.994C83.3239 121.994 82.7359 122.237 82.2599 122.722C81.7839 123.198 81.5459 123.791 81.5459 124.5C81.5459 125.209 81.7839 125.807 82.2599 126.292C82.7359 126.768 83.3239 127.006 84.0239 127.006ZM94.5073 126.768H98.7353V128H93.2053V118.2H94.5073V126.768ZM100.531 119.726C100.298 119.726 100.102 119.647 99.9432 119.488C99.7845 119.329 99.7052 119.138 99.7052 118.914C99.7052 118.69 99.7845 118.499 99.9432 118.34C100.102 118.172 100.298 118.088 100.531 118.088C100.755 118.088 100.947 118.172 101.105 118.34C101.264 118.499 101.343 118.69 101.343 118.914C101.343 119.138 101.264 119.329 101.105 119.488C100.947 119.647 100.755 119.726 100.531 119.726ZM99.9152 128V121H101.133V128H99.9152ZM106.477 120.818C107.299 120.818 107.957 121.079 108.451 121.602C108.946 122.115 109.193 122.815 109.193 123.702V128H107.975V123.772C107.975 123.203 107.821 122.764 107.513 122.456C107.205 122.139 106.781 121.98 106.239 121.98C105.633 121.98 105.143 122.171 104.769 122.554C104.396 122.927 104.209 123.506 104.209 124.29V128H102.991V121H104.209V122.008C104.704 121.215 105.46 120.818 106.477 120.818ZM116.816 128H115.304L112.112 124.682V128H110.894V118.2H112.112V124.094L115.136 121H116.704L113.358 124.388L116.816 128ZM128.028 128L127.23 125.802H122.82L122.022 128H120.636L124.29 118.2H125.76L129.414 128H128.028ZM123.268 124.584H126.782L125.018 119.754L123.268 124.584ZM133.931 120.818C134.752 120.818 135.41 121.079 135.905 121.602C136.399 122.115 136.647 122.815 136.647 123.702V128H135.429V123.772C135.429 123.203 135.275 122.764 134.967 122.456C134.659 122.139 134.234 121.98 133.693 121.98C133.086 121.98 132.596 122.171 132.223 122.554C131.849 122.927 131.663 123.506 131.663 124.29V128H130.445V121H131.663V122.008C132.157 121.215 132.913 120.818 133.931 120.818ZM144.143 121H145.361V128H144.143V126.796C143.536 127.72 142.654 128.182 141.497 128.182C140.517 128.182 139.682 127.827 138.991 127.118C138.3 126.399 137.955 125.527 137.955 124.5C137.955 123.473 138.3 122.605 138.991 121.896C139.682 121.177 140.517 120.818 141.497 120.818C142.654 120.818 143.536 121.28 144.143 122.204V121ZM141.651 127.006C142.36 127.006 142.953 126.768 143.429 126.292C143.905 125.807 144.143 125.209 144.143 124.5C144.143 123.791 143.905 123.198 143.429 122.722C142.953 122.237 142.36 121.994 141.651 121.994C140.951 121.994 140.363 122.237 139.887 122.722C139.411 123.198 139.173 123.791 139.173 124.5C139.173 125.209 139.411 125.807 139.887 126.292C140.363 126.768 140.951 127.006 141.651 127.006ZM147.206 128V117.78H148.424V128H147.206ZM155.168 121H156.47L153.614 128.434C153.316 129.227 152.896 129.829 152.354 130.24C151.822 130.66 151.206 130.847 150.506 130.8V129.666C151.365 129.731 151.995 129.255 152.396 128.238L152.522 127.972L149.47 121H150.772L153.152 126.488L155.168 121ZM161.295 122.176H159.433V125.97C159.433 126.315 159.499 126.563 159.629 126.712C159.769 126.852 159.979 126.927 160.259 126.936C160.539 126.936 160.885 126.927 161.295 126.908V128C160.231 128.14 159.452 128.056 158.957 127.748C158.463 127.431 158.215 126.838 158.215 125.97V122.176H156.829V121H158.215V119.404L159.433 119.04V121H161.295V122.176ZM163.353 119.726C163.12 119.726 162.924 119.647 162.765 119.488C162.607 119.329 162.527 119.138 162.527 118.914C162.527 118.69 162.607 118.499 162.765 118.34C162.924 118.172 163.12 118.088 163.353 118.088C163.577 118.088 163.769 118.172 163.927 118.34C164.086 118.499 164.165 118.69 164.165 118.914C164.165 119.138 164.086 119.329 163.927 119.488C163.769 119.647 163.577 119.726 163.353 119.726ZM162.737 128V121H163.955V128H162.737ZM169.104 128.182C168.049 128.182 167.172 127.832 166.472 127.132C165.772 126.423 165.422 125.545 165.422 124.5C165.422 123.455 165.772 122.582 166.472 121.882C167.172 121.173 168.049 120.818 169.104 120.818C169.794 120.818 170.415 120.986 170.966 121.322C171.516 121.649 171.927 122.092 172.198 122.652L171.176 123.24C170.998 122.867 170.723 122.568 170.35 122.344C169.986 122.12 169.57 122.008 169.104 122.008C168.404 122.008 167.816 122.246 167.34 122.722C166.873 123.198 166.64 123.791 166.64 124.5C166.64 125.2 166.873 125.788 167.34 126.264C167.816 126.74 168.404 126.978 169.104 126.978C169.57 126.978 169.99 126.871 170.364 126.656C170.737 126.432 171.022 126.133 171.218 125.76L172.254 126.362C171.955 126.913 171.526 127.356 170.966 127.692C170.406 128.019 169.785 128.182 169.104 128.182ZM174.452 122.89C174.452 123.161 174.587 123.38 174.858 123.548C175.128 123.707 175.455 123.837 175.838 123.94C176.22 124.033 176.603 124.145 176.986 124.276C177.368 124.397 177.695 124.612 177.966 124.92C178.236 125.219 178.372 125.606 178.372 126.082C178.372 126.717 178.124 127.225 177.63 127.608C177.144 127.991 176.519 128.182 175.754 128.182C175.072 128.182 174.489 128.033 174.004 127.734C173.518 127.435 173.173 127.039 172.968 126.544L174.018 125.942C174.13 126.278 174.34 126.544 174.648 126.74C174.956 126.936 175.324 127.034 175.754 127.034C176.155 127.034 176.486 126.959 176.748 126.81C177.009 126.651 177.14 126.409 177.14 126.082C177.14 125.811 177.004 125.597 176.734 125.438C176.463 125.27 176.136 125.139 175.754 125.046C175.371 124.943 174.988 124.827 174.606 124.696C174.223 124.565 173.896 124.351 173.626 124.052C173.355 123.753 173.22 123.371 173.22 122.904C173.22 122.297 173.453 121.798 173.92 121.406C174.396 121.014 174.988 120.818 175.698 120.818C176.267 120.818 176.771 120.949 177.21 121.21C177.658 121.462 177.994 121.817 178.218 122.274L177.196 122.848C176.944 122.251 176.444 121.952 175.698 121.952C175.352 121.952 175.058 122.036 174.816 122.204C174.573 122.363 174.452 122.591 174.452 122.89Z" fill="white"/>
<g clip-path="url(#clip1_1_310)">
<path d="M14.6667 171.387V172C14.6658 173.438 14.2003 174.836 13.3396 175.988C12.4788 177.139 11.2689 177.982 9.89023 178.389C8.51162 178.797 7.03817 178.748 5.68964 178.25C4.34112 177.752 3.18976 176.831 2.4073 175.625C1.62484 174.419 1.25319 172.992 1.34778 171.558C1.44237 170.123 1.99813 168.758 2.93218 167.665C3.86623 166.572 5.12852 165.81 6.53079 165.493C7.93306 165.177 9.40017 165.322 10.7133 165.907" stroke="white" stroke-width="2" stroke-linecap="round" stroke-linejoin="round"/>
<path d="M14.6667 166.667L8 173.34L6 171.34" stroke="white" stroke-width="2" stroke-linecap="round" stroke-linejoin="round"/>
</g>
<path d="M29.8415 176.182C28.3575 176.182 27.1302 175.692 26.1595 174.712C25.1982 173.732 24.7175 172.528 24.7175 171.1C24.7175 169.672 25.1982 168.468 26.1595 167.488C27.1302 166.508 28.3575 166.018 29.8415 166.018C30.7375 166.018 31.5589 166.233 32.3055 166.662C33.0615 167.091 33.6495 167.67 34.0695 168.398L32.9355 169.056C32.6555 168.515 32.2355 168.085 31.6755 167.768C31.1249 167.441 30.5135 167.278 29.8415 167.278C28.7122 167.278 27.7882 167.642 27.0695 168.37C26.3602 169.098 26.0055 170.008 26.0055 171.1C26.0055 172.183 26.3602 173.088 27.0695 173.816C27.7882 174.544 28.7122 174.908 29.8415 174.908C30.5135 174.908 31.1249 174.749 31.6755 174.432C32.2355 174.105 32.6555 173.676 32.9355 173.144L34.0695 173.788C33.6589 174.516 33.0755 175.099 32.3195 175.538C31.5635 175.967 30.7375 176.182 29.8415 176.182ZM40.2892 169H41.5072V176H40.2892V174.992C39.7945 175.785 39.0385 176.182 38.0212 176.182C37.1998 176.182 36.5418 175.925 36.0472 175.412C35.5525 174.889 35.3052 174.185 35.3052 173.298V169H36.5232V173.228C36.5232 173.797 36.6772 174.241 36.9852 174.558C37.2932 174.866 37.7178 175.02 38.2592 175.02C38.8658 175.02 39.3558 174.833 39.7292 174.46C40.1025 174.077 40.2892 173.494 40.2892 172.71V169ZM44.3978 170.89C44.3978 171.161 44.5332 171.38 44.8038 171.548C45.0745 171.707 45.4012 171.837 45.7838 171.94C46.1665 172.033 46.5492 172.145 46.9318 172.276C47.3145 172.397 47.6412 172.612 47.9118 172.92C48.1825 173.219 48.3178 173.606 48.3178 174.082C48.3178 174.717 48.0705 175.225 47.5758 175.608C47.0905 175.991 46.4652 176.182 45.6998 176.182C45.0185 176.182 44.4352 176.033 43.9498 175.734C43.4645 175.435 43.1192 175.039 42.9138 174.544L43.9638 173.942C44.0758 174.278 44.2858 174.544 44.5938 174.74C44.9018 174.936 45.2705 175.034 45.6998 175.034C46.1012 175.034 46.4325 174.959 46.6938 174.81C46.9552 174.651 47.0858 174.409 47.0858 174.082C47.0858 173.811 46.9505 173.597 46.6798 173.438C46.4092 173.27 46.0825 173.139 45.6998 173.046C45.3172 172.943 44.9345 172.827 44.5518 172.696C44.1692 172.565 43.8425 172.351 43.5718 172.052C43.3012 171.753 43.1658 171.371 43.1658 170.904C43.1658 170.297 43.3992 169.798 43.8658 169.406C44.3418 169.014 44.9345 168.818 45.6438 168.818C46.2132 168.818 46.7172 168.949 47.1558 169.21C47.6038 169.462 47.9398 169.817 48.1638 170.274L47.1418 170.848C46.8898 170.251 46.3905 169.952 45.6438 169.952C45.2985 169.952 45.0045 170.036 44.7618 170.204C44.5192 170.363 44.3978 170.591 44.3978 170.89ZM53.2945 170.176H51.4325V173.97C51.4325 174.315 51.4978 174.563 51.6285 174.712C51.7685 174.852 51.9785 174.927 52.2585 174.936C52.5385 174.936 52.8838 174.927 53.2945 174.908V176C52.2305 176.14 51.4512 176.056 50.9565 175.748C50.4618 175.431 50.2145 174.838 50.2145 173.97V170.176H48.8285V169H50.2145V167.404L51.4325 167.04V169H53.2945V170.176ZM60.289 175.118C59.5704 175.827 58.6977 176.182 57.671 176.182C56.6444 176.182 55.7717 175.827 55.053 175.118C54.3437 174.409 53.989 173.536 53.989 172.5C53.989 171.464 54.3437 170.591 55.053 169.882C55.7717 169.173 56.6444 168.818 57.671 168.818C58.6977 168.818 59.5704 169.173 60.289 169.882C61.0077 170.591 61.367 171.464 61.367 172.5C61.367 173.536 61.0077 174.409 60.289 175.118ZM57.671 174.992C58.371 174.992 58.959 174.754 59.435 174.278C59.911 173.802 60.149 173.209 60.149 172.5C60.149 171.791 59.911 171.198 59.435 170.722C58.959 170.246 58.371 170.008 57.671 170.008C56.9804 170.008 56.397 170.246 55.921 170.722C55.445 171.198 55.207 171.791 55.207 172.5C55.207 173.209 55.445 173.802 55.921 174.278C56.397 174.754 56.9804 174.992 57.671 174.992ZM70.3629 168.818C71.1469 168.818 71.7816 169.075 72.2669 169.588C72.7522 170.092 72.9949 170.778 72.9949 171.646V176H71.7769V171.688C71.7769 171.147 71.6369 170.727 71.3569 170.428C71.0769 170.129 70.7036 169.98 70.2369 169.98C69.7142 169.98 69.2942 170.157 68.9769 170.512C68.6689 170.857 68.5149 171.389 68.5149 172.108V176H67.2969V171.688C67.2969 171.147 67.1616 170.727 66.8909 170.428C66.6296 170.129 66.2702 169.98 65.8129 169.98C65.2996 169.98 64.8702 170.157 64.5249 170.512C64.1889 170.867 64.0209 171.399 64.0209 172.108V176H62.8029V169H64.0209V169.938C64.4969 169.191 65.1922 168.818 66.1069 168.818C67.0496 168.818 67.7356 169.215 68.1649 170.008C68.6502 169.215 69.3829 168.818 70.3629 168.818ZM83.9098 170.918C84.3578 171.133 84.7124 171.441 84.9738 171.842C85.2444 172.243 85.3798 172.705 85.3798 173.228C85.3798 174.012 85.1044 174.67 84.5538 175.202C84.0031 175.734 83.3311 176 82.5378 176H78.3098V166.2H82.2298C82.9951 166.2 83.6438 166.457 84.1758 166.97C84.7078 167.483 84.9738 168.118 84.9738 168.874C84.9738 169.742 84.6191 170.423 83.9098 170.918ZM82.2298 167.418H79.6118V170.414H82.2298C82.6404 170.414 82.9858 170.269 83.2658 169.98C83.5458 169.691 83.6858 169.336 83.6858 168.916C83.6858 168.505 83.5411 168.155 83.2518 167.866C82.9718 167.567 82.6311 167.418 82.2298 167.418ZM82.5378 174.782C82.9764 174.782 83.3451 174.628 83.6438 174.32C83.9424 174.012 84.0918 173.634 84.0918 173.186C84.0918 172.747 83.9378 172.374 83.6298 172.066C83.3311 171.758 82.9671 171.604 82.5378 171.604H79.6118V174.782H82.5378ZM88.015 170.176C88.4164 169.308 89.1444 168.874 90.199 168.874V170.148C89.6017 170.12 89.0884 170.279 88.659 170.624C88.2297 170.969 88.015 171.525 88.015 172.29V176H86.797V169H88.015V170.176ZM96.804 169H98.022V176H96.804V174.796C96.1973 175.72 95.3153 176.182 94.158 176.182C93.178 176.182 92.3427 175.827 91.652 175.118C90.9613 174.399 90.616 173.527 90.616 172.5C90.616 171.473 90.9613 170.605 91.652 169.896C92.3427 169.177 93.178 168.818 94.158 168.818C95.3153 168.818 96.1973 169.28 96.804 170.204V169ZM94.312 175.006C95.0213 175.006 95.614 174.768 96.09 174.292C96.566 173.807 96.804 173.209 96.804 172.5C96.804 171.791 96.566 171.198 96.09 170.722C95.614 170.237 95.0213 169.994 94.312 169.994C93.612 169.994 93.024 170.237 92.548 170.722C92.072 171.198 91.834 171.791 91.834 172.5C91.834 173.209 92.072 173.807 92.548 174.292C93.024 174.768 93.612 175.006 94.312 175.006ZM103.353 168.818C104.175 168.818 104.833 169.079 105.327 169.602C105.822 170.115 106.069 170.815 106.069 171.702V176H104.851V171.772C104.851 171.203 104.697 170.764 104.389 170.456C104.081 170.139 103.657 169.98 103.115 169.98C102.509 169.98 102.019 170.171 101.645 170.554C101.272 170.927 101.085 171.506 101.085 172.29V176H99.8674V169H101.085V170.008C101.58 169.215 102.336 168.818 103.353 168.818ZM113.566 166.2H114.784V176H113.566V174.796C112.959 175.72 112.077 176.182 110.92 176.182C109.94 176.182 109.104 175.827 108.414 175.118C107.723 174.399 107.378 173.527 107.378 172.5C107.378 171.473 107.723 170.605 108.414 169.896C109.104 169.177 109.94 168.818 110.92 168.818C112.077 168.818 112.959 169.28 113.566 170.204V166.2ZM111.074 175.006C111.783 175.006 112.376 174.768 112.852 174.292C113.328 173.807 113.566 173.209 113.566 172.5C113.566 171.791 113.328 171.198 112.852 170.722C112.376 170.237 111.783 169.994 111.074 169.994C110.374 169.994 109.786 170.237 109.31 170.722C108.834 171.198 108.596 171.791 108.596 172.5C108.596 173.209 108.834 173.807 109.31 174.292C109.786 174.768 110.374 175.006 111.074 175.006ZM117.483 173.06C117.604 173.685 117.889 174.171 118.337 174.516C118.794 174.861 119.354 175.034 120.017 175.034C120.941 175.034 121.613 174.693 122.033 174.012L123.069 174.6C122.388 175.655 121.361 176.182 119.989 176.182C118.878 176.182 117.973 175.837 117.273 175.146C116.582 174.446 116.237 173.564 116.237 172.5C116.237 171.445 116.578 170.568 117.259 169.868C117.94 169.168 118.822 168.818 119.905 168.818C120.932 168.818 121.767 169.182 122.411 169.91C123.064 170.629 123.391 171.497 123.391 172.514C123.391 172.691 123.377 172.873 123.349 173.06H117.483ZM119.905 169.966C119.252 169.966 118.71 170.153 118.281 170.526C117.852 170.89 117.586 171.38 117.483 171.996H122.159C122.056 171.333 121.795 170.829 121.375 170.484C120.955 170.139 120.465 169.966 119.905 169.966ZM130.574 166.2H131.792V176H130.574V174.796C129.967 175.72 129.085 176.182 127.928 176.182C126.948 176.182 126.112 175.827 125.422 175.118C124.731 174.399 124.386 173.527 124.386 172.5C124.386 171.473 124.731 170.605 125.422 169.896C126.112 169.177 126.948 168.818 127.928 168.818C129.085 168.818 129.967 169.28 130.574 170.204V166.2ZM128.082 175.006C128.791 175.006 129.384 174.768 129.86 174.292C130.336 173.807 130.574 173.209 130.574 172.5C130.574 171.791 130.336 171.198 129.86 170.722C129.384 170.237 128.791 169.994 128.082 169.994C127.382 169.994 126.794 170.237 126.318 170.722C125.842 171.198 125.604 171.791 125.604 172.5C125.604 173.209 125.842 173.807 126.318 174.292C126.794 174.768 127.382 175.006 128.082 175.006ZM141.085 166.2C142.42 166.2 143.526 166.676 144.403 167.628C145.29 168.571 145.733 169.728 145.733 171.1C145.733 172.472 145.29 173.634 144.403 174.586C143.526 175.529 142.42 176 141.085 176H137.263V166.2H141.085ZM141.085 174.768C142.084 174.768 142.9 174.418 143.535 173.718C144.17 173.018 144.487 172.145 144.487 171.1C144.487 170.055 144.17 169.182 143.535 168.482C142.9 167.782 142.084 167.432 141.085 167.432H138.565V174.768H141.085ZM153.094 175.118C152.375 175.827 151.502 176.182 150.476 176.182C149.449 176.182 148.576 175.827 147.858 175.118C147.148 174.409 146.794 173.536 146.794 172.5C146.794 171.464 147.148 170.591 147.858 169.882C148.576 169.173 149.449 168.818 150.476 168.818C151.502 168.818 152.375 169.173 153.094 169.882C153.812 170.591 154.172 171.464 154.172 172.5C154.172 173.536 153.812 174.409 153.094 175.118ZM150.476 174.992C151.176 174.992 151.764 174.754 152.24 174.278C152.716 173.802 152.954 173.209 152.954 172.5C152.954 171.791 152.716 171.198 152.24 170.722C151.764 170.246 151.176 170.008 150.476 170.008C149.785 170.008 149.202 170.246 148.726 170.722C148.25 171.198 148.012 171.791 148.012 172.5C148.012 173.209 148.25 173.802 148.726 174.278C149.202 174.754 149.785 174.992 150.476 174.992ZM163.168 168.818C163.952 168.818 164.586 169.075 165.072 169.588C165.557 170.092 165.8 170.778 165.8 171.646V176H164.582V171.688C164.582 171.147 164.442 170.727 164.162 170.428C163.882 170.129 163.508 169.98 163.042 169.98C162.519 169.98 162.099 170.157 161.782 170.512C161.474 170.857 161.32 171.389 161.32 172.108V176H160.102V171.688C160.102 171.147 159.966 170.727 159.696 170.428C159.434 170.129 159.075 169.98 158.618 169.98C158.104 169.98 157.675 170.157 157.33 170.512C156.994 170.867 156.826 171.399 156.826 172.108V176H155.608V169H156.826V169.938C157.302 169.191 157.997 168.818 158.912 168.818C159.854 168.818 160.54 169.215 160.97 170.008C161.455 169.215 162.188 168.818 163.168 168.818ZM173.284 169H174.502V176H173.284V174.796C172.678 175.72 171.796 176.182 170.638 176.182C169.658 176.182 168.823 175.827 168.132 175.118C167.442 174.399 167.096 173.527 167.096 172.5C167.096 171.473 167.442 170.605 168.132 169.896C168.823 169.177 169.658 168.818 170.638 168.818C171.796 168.818 172.678 169.28 173.284 170.204V169ZM170.792 175.006C171.502 175.006 172.094 174.768 172.57 174.292C173.046 173.807 173.284 173.209 173.284 172.5C173.284 171.791 173.046 171.198 172.57 170.722C172.094 170.237 171.502 169.994 170.792 169.994C170.092 169.994 169.504 170.237 169.028 170.722C168.552 171.198 168.314 171.791 168.314 172.5C168.314 173.209 168.552 173.807 169.028 174.292C169.504 174.768 170.092 175.006 170.792 175.006ZM176.964 167.726C176.73 167.726 176.534 167.647 176.376 167.488C176.217 167.329 176.138 167.138 176.138 166.914C176.138 166.69 176.217 166.499 176.376 166.34C176.534 166.172 176.73 166.088 176.964 166.088C177.188 166.088 177.379 166.172 177.538 166.34C177.696 166.499 177.776 166.69 177.776 166.914C177.776 167.138 177.696 167.329 177.538 167.488C177.379 167.647 177.188 167.726 176.964 167.726ZM176.348 176V169H177.566V176H176.348ZM182.91 168.818C183.731 168.818 184.389 169.079 184.884 169.602C185.379 170.115 185.626 170.815 185.626 171.702V176H184.408V171.772C184.408 171.203 184.254 170.764 183.946 170.456C183.638 170.139 183.213 169.98 182.672 169.98C182.065 169.98 181.575 170.171 181.202 170.554C180.829 170.927 180.642 171.506 180.642 172.29V176H179.424V169H180.642V170.008C181.137 169.215 181.893 168.818 182.91 168.818ZM188.376 170.89C188.376 171.161 188.512 171.38 188.782 171.548C189.053 171.707 189.38 171.837 189.762 171.94C190.145 172.033 190.528 172.145 190.91 172.276C191.293 172.397 191.62 172.612 191.89 172.92C192.161 173.219 192.296 173.606 192.296 174.082C192.296 174.717 192.049 175.225 191.554 175.608C191.069 175.991 190.444 176.182 189.678 176.182C188.997 176.182 188.414 176.033 187.928 175.734C187.443 175.435 187.098 175.039 186.892 174.544L187.942 173.942C188.054 174.278 188.264 174.544 188.572 174.74C188.88 174.936 189.249 175.034 189.678 175.034C190.08 175.034 190.411 174.959 190.672 174.81C190.934 174.651 191.064 174.409 191.064 174.082C191.064 173.811 190.929 173.597 190.658 173.438C190.388 173.27 190.061 173.139 189.678 173.046C189.296 172.943 188.913 172.827 188.53 172.696C188.148 172.565 187.821 172.351 187.55 172.052C187.28 171.753 187.144 171.371 187.144 170.904C187.144 170.297 187.378 169.798 187.844 169.406C188.32 169.014 188.913 168.818 189.622 168.818C190.192 168.818 190.696 168.949 191.134 169.21C191.582 169.462 191.918 169.817 192.142 170.274L191.12 170.848C190.868 170.251 190.369 169.952 189.622 169.952C189.277 169.952 188.983 170.036 188.74 170.204C188.498 170.363 188.376 170.591 188.376 170.89Z" fill="white"/>
<g clip-path="url(#clip2_1_310)">
<path d="M14.6667 219.387V220C14.6658 221.438 14.2003 222.836 13.3396 223.988C12.4788 225.139 11.2689 225.982 9.89023 226.389C8.51162 226.797 7.03817 226.748 5.68964 226.25C4.34112 225.752 3.18976 224.831 2.4073 223.625C1.62484 222.419 1.25319 220.992 1.34778 219.558C1.44237 218.123 1.99813 216.758 2.93218 215.665C3.86623 214.572 5.12852 213.81 6.53079 213.493C7.93306 213.177 9.40017 213.322 10.7133 213.907" stroke="white" stroke-width="2" stroke-linecap="round" stroke-linejoin="round"/>
<path d="M14.6667 214.667L8 221.34L6 219.34" stroke="white" stroke-width="2" stroke-linecap="round" stroke-linejoin="round"/>
</g>
<path d="M31.9229 224L31.1249 221.802H26.7149L25.9169 224H24.5309L28.1849 214.2H29.6549L33.3089 224H31.9229ZM27.1629 220.584H30.6769L28.9129 215.754L27.1629 220.584ZM39.971 214.2H41.189V224H39.971V222.796C39.3643 223.72 38.4823 224.182 37.325 224.182C36.345 224.182 35.5096 223.827 34.819 223.118C34.1283 222.399 33.783 221.527 33.783 220.5C33.783 219.473 34.1283 218.605 34.819 217.896C35.5096 217.177 36.345 216.818 37.325 216.818C38.4823 216.818 39.3643 217.28 39.971 218.204V214.2ZM37.479 223.006C38.1883 223.006 38.781 222.768 39.257 222.292C39.733 221.807 39.971 221.209 39.971 220.5C39.971 219.791 39.733 219.198 39.257 218.722C38.781 218.237 38.1883 217.994 37.479 217.994C36.779 217.994 36.191 218.237 35.715 218.722C35.239 219.198 35.001 219.791 35.001 220.5C35.001 221.209 35.239 221.807 35.715 222.292C36.191 222.768 36.779 223.006 37.479 223.006ZM47.9344 217H49.2504L46.4504 224H45.0224L42.2224 217H43.5384L45.7364 222.698L47.9344 217ZM55.803 217H57.021V224H55.803V222.796C55.1963 223.72 54.3143 224.182 53.157 224.182C52.177 224.182 51.3417 223.827 50.651 223.118C49.9603 222.399 49.615 221.527 49.615 220.5C49.615 219.473 49.9603 218.605 50.651 217.896C51.3417 217.177 52.177 216.818 53.157 216.818C54.3143 216.818 55.1963 217.28 55.803 218.204V217ZM53.311 223.006C54.0203 223.006 54.613 222.768 55.089 222.292C55.565 221.807 55.803 221.209 55.803 220.5C55.803 219.791 55.565 219.198 55.089 218.722C54.613 218.237 54.0203 217.994 53.311 217.994C52.611 217.994 52.023 218.237 51.547 218.722C51.071 219.198 50.833 219.791 50.833 220.5C50.833 221.209 51.071 221.807 51.547 222.292C52.023 222.768 52.611 223.006 53.311 223.006ZM62.3524 216.818C63.1737 216.818 63.8317 217.079 64.3264 217.602C64.821 218.115 65.0684 218.815 65.0684 219.702V224H63.8504V219.772C63.8504 219.203 63.6964 218.764 63.3884 218.456C63.0804 218.139 62.6557 217.98 62.1144 217.98C61.5077 217.98 61.0177 218.171 60.6444 218.554C60.271 218.927 60.0844 219.506 60.0844 220.29V224H58.8664V217H60.0844V218.008C60.579 217.215 61.335 216.818 62.3524 216.818ZM70.0587 224.182C69.0041 224.182 68.1267 223.832 67.4267 223.132C66.7267 222.423 66.3767 221.545 66.3767 220.5C66.3767 219.455 66.7267 218.582 67.4267 217.882C68.1267 217.173 69.0041 216.818 70.0587 216.818C70.7494 216.818 71.3701 216.986 71.9207 217.322C72.4714 217.649 72.8821 218.092 73.1527 218.652L72.1307 219.24C71.9534 218.867 71.6781 218.568 71.3047 218.344C70.9407 218.12 70.5254 218.008 70.0587 218.008C69.3587 218.008 68.7707 218.246 68.2947 218.722C67.8281 219.198 67.5947 219.791 67.5947 220.5C67.5947 221.2 67.8281 221.788 68.2947 222.264C68.7707 222.74 69.3587 222.978 70.0587 222.978C70.5254 222.978 70.9454 222.871 71.3187 222.656C71.6921 222.432 71.9767 222.133 72.1727 221.76L73.2087 222.362C72.9101 222.913 72.4807 223.356 71.9207 223.692C71.3607 224.019 70.7401 224.182 70.0587 224.182ZM75.1696 221.06C75.2909 221.685 75.5756 222.171 76.0236 222.516C76.4809 222.861 77.0409 223.034 77.7036 223.034C78.6276 223.034 79.2996 222.693 79.7196 222.012L80.7556 222.6C80.0743 223.655 79.0476 224.182 77.6756 224.182C76.5649 224.182 75.6596 223.837 74.9596 223.146C74.2689 222.446 73.9236 221.564 73.9236 220.5C73.9236 219.445 74.2643 218.568 74.9456 217.868C75.6269 217.168 76.5089 216.818 77.5916 216.818C78.6183 216.818 79.4536 217.182 80.0976 217.91C80.7509 218.629 81.0776 219.497 81.0776 220.514C81.0776 220.691 81.0636 220.873 81.0356 221.06H75.1696ZM77.5916 217.966C76.9383 217.966 76.3969 218.153 75.9676 218.526C75.5383 218.89 75.2723 219.38 75.1696 219.996H79.8456C79.7429 219.333 79.4816 218.829 79.0616 218.484C78.6416 218.139 78.1516 217.966 77.5916 217.966ZM88.26 214.2H89.478V224H88.26V222.796C87.6534 223.72 86.7714 224.182 85.614 224.182C84.634 224.182 83.7987 223.827 83.108 223.118C82.4174 222.399 82.072 221.527 82.072 220.5C82.072 219.473 82.4174 218.605 83.108 217.896C83.7987 217.177 84.634 216.818 85.614 216.818C86.7714 216.818 87.6534 217.28 88.26 218.204V214.2ZM85.768 223.006C86.4774 223.006 87.07 222.768 87.546 222.292C88.022 221.807 88.26 221.209 88.26 220.5C88.26 219.791 88.022 219.198 87.546 218.722C87.07 218.237 86.4774 217.994 85.768 217.994C85.068 217.994 84.48 218.237 84.004 218.722C83.528 219.198 83.29 219.791 83.29 220.5C83.29 221.209 83.528 221.807 84.004 222.292C84.48 222.768 85.068 223.006 85.768 223.006ZM96.2514 222.768H100.479V224H94.9494V214.2H96.2514V222.768ZM102.275 215.726C102.042 215.726 101.846 215.647 101.687 215.488C101.529 215.329 101.449 215.138 101.449 214.914C101.449 214.69 101.529 214.499 101.687 214.34C101.846 214.172 102.042 214.088 102.275 214.088C102.499 214.088 102.691 214.172 102.849 214.34C103.008 214.499 103.087 214.69 103.087 214.914C103.087 215.138 103.008 215.329 102.849 215.488C102.691 215.647 102.499 215.726 102.275 215.726ZM101.659 224V217H102.877V224H101.659ZM108.222 216.818C109.043 216.818 109.701 217.079 110.196 217.602C110.69 218.115 110.938 218.815 110.938 219.702V224H109.72V219.772C109.72 219.203 109.566 218.764 109.258 218.456C108.95 218.139 108.525 217.98 107.984 217.98C107.377 217.98 106.887 218.171 106.514 218.554C106.14 218.927 105.954 219.506 105.954 220.29V224H104.736V217H105.954V218.008C106.448 217.215 107.204 216.818 108.222 216.818ZM118.56 224H117.048L113.856 220.682V224H112.638V214.2H113.856V220.094L116.88 217H118.448L115.102 220.388L118.56 224ZM127.925 224.182C126.441 224.182 125.213 223.692 124.243 222.712C123.281 221.732 122.801 220.528 122.801 219.1C122.801 217.672 123.281 216.468 124.243 215.488C125.213 214.508 126.441 214.018 127.925 214.018C128.821 214.018 129.642 214.233 130.389 214.662C131.145 215.091 131.733 215.67 132.153 216.398L131.019 217.056C130.739 216.515 130.319 216.085 129.759 215.768C129.208 215.441 128.597 215.278 127.925 215.278C126.795 215.278 125.871 215.642 125.153 216.37C124.443 217.098 124.089 218.008 124.089 219.1C124.089 220.183 124.443 221.088 125.153 221.816C125.871 222.544 126.795 222.908 127.925 222.908C128.597 222.908 129.208 222.749 129.759 222.432C130.319 222.105 130.739 221.676 131.019 221.144L132.153 221.788C131.742 222.516 131.159 223.099 130.403 223.538C129.647 223.967 128.821 224.182 127.925 224.182ZM138.372 217H139.59V224H138.372V222.992C137.877 223.785 137.121 224.182 136.104 224.182C135.283 224.182 134.625 223.925 134.13 223.412C133.635 222.889 133.388 222.185 133.388 221.298V217H134.606V221.228C134.606 221.797 134.76 222.241 135.068 222.558C135.376 222.866 135.801 223.02 136.342 223.02C136.949 223.02 137.439 222.833 137.812 222.46C138.185 222.077 138.372 221.494 138.372 220.71V217ZM142.481 218.89C142.481 219.161 142.616 219.38 142.887 219.548C143.158 219.707 143.484 219.837 143.867 219.94C144.25 220.033 144.632 220.145 145.015 220.276C145.398 220.397 145.724 220.612 145.995 220.92C146.266 221.219 146.401 221.606 146.401 222.082C146.401 222.717 146.154 223.225 145.659 223.608C145.174 223.991 144.548 224.182 143.783 224.182C143.102 224.182 142.518 224.033 142.033 223.734C141.548 223.435 141.202 223.039 140.997 222.544L142.047 221.942C142.159 222.278 142.369 222.544 142.677 222.74C142.985 222.936 143.354 223.034 143.783 223.034C144.184 223.034 144.516 222.959 144.777 222.81C145.038 222.651 145.169 222.409 145.169 222.082C145.169 221.811 145.034 221.597 144.763 221.438C144.492 221.27 144.166 221.139 143.783 221.046C143.4 220.943 143.018 220.827 142.635 220.696C142.252 220.565 141.926 220.351 141.655 220.052C141.384 219.753 141.249 219.371 141.249 218.904C141.249 218.297 141.482 217.798 141.949 217.406C142.425 217.014 143.018 216.818 143.727 216.818C144.296 216.818 144.8 216.949 145.239 217.21C145.687 217.462 146.023 217.817 146.247 218.274L145.225 218.848C144.973 218.251 144.474 217.952 143.727 217.952C143.382 217.952 143.088 218.036 142.845 218.204C142.602 218.363 142.481 218.591 142.481 218.89ZM151.378 218.176H149.516V221.97C149.516 222.315 149.581 222.563 149.712 222.712C149.852 222.852 150.062 222.927 150.342 222.936C150.622 222.936 150.967 222.927 151.378 222.908V224C150.314 224.14 149.534 224.056 149.04 223.748C148.545 223.431 148.298 222.838 148.298 221.97V218.176H146.912V217H148.298V215.404L149.516 215.04V217H151.378V218.176ZM158.372 223.118C157.653 223.827 156.781 224.182 155.754 224.182C154.727 224.182 153.855 223.827 153.136 223.118C152.427 222.409 152.072 221.536 152.072 220.5C152.072 219.464 152.427 218.591 153.136 217.882C153.855 217.173 154.727 216.818 155.754 216.818C156.781 216.818 157.653 217.173 158.372 217.882C159.091 218.591 159.45 219.464 159.45 220.5C159.45 221.536 159.091 222.409 158.372 223.118ZM155.754 222.992C156.454 222.992 157.042 222.754 157.518 222.278C157.994 221.802 158.232 221.209 158.232 220.5C158.232 219.791 157.994 219.198 157.518 218.722C157.042 218.246 156.454 218.008 155.754 218.008C155.063 218.008 154.48 218.246 154.004 218.722C153.528 219.198 153.29 219.791 153.29 220.5C153.29 221.209 153.528 221.802 154.004 222.278C154.48 222.754 155.063 222.992 155.754 222.992ZM168.446 216.818C169.23 216.818 169.865 217.075 170.35 217.588C170.835 218.092 171.078 218.778 171.078 219.646V224H169.86V219.688C169.86 219.147 169.72 218.727 169.44 218.428C169.16 218.129 168.787 217.98 168.32 217.98C167.797 217.98 167.377 218.157 167.06 218.512C166.752 218.857 166.598 219.389 166.598 220.108V224H165.38V219.688C165.38 219.147 165.245 218.727 164.974 218.428C164.713 218.129 164.353 217.98 163.896 217.98C163.383 217.98 162.953 218.157 162.608 218.512C162.272 218.867 162.104 219.399 162.104 220.108V224H160.886V217H162.104V217.938C162.58 217.191 163.275 216.818 164.19 216.818C165.133 216.818 165.819 217.215 166.248 218.008C166.733 217.215 167.466 216.818 168.446 216.818ZM173.383 215.726C173.149 215.726 172.953 215.647 172.795 215.488C172.636 215.329 172.557 215.138 172.557 214.914C172.557 214.69 172.636 214.499 172.795 214.34C172.953 214.172 173.149 214.088 173.383 214.088C173.607 214.088 173.798 214.172 173.957 214.34C174.115 214.499 174.195 214.69 174.195 214.914C174.195 215.138 174.115 215.329 173.957 215.488C173.798 215.647 173.607 215.726 173.383 215.726ZM172.767 224V217H173.985V224H172.767ZM177.257 222.838H180.981V224H175.591V223.188L179.161 218.162H175.731V217H180.841V217.812L177.257 222.838ZM187.791 217H189.009V224H187.791V222.796C187.185 223.72 186.303 224.182 185.145 224.182C184.165 224.182 183.33 223.827 182.639 223.118C181.949 222.399 181.603 221.527 181.603 220.5C181.603 219.473 181.949 218.605 182.639 217.896C183.33 217.177 184.165 216.818 185.145 216.818C186.303 216.818 187.185 217.28 187.791 218.204V217ZM185.299 223.006C186.009 223.006 186.601 222.768 187.077 222.292C187.553 221.807 187.791 221.209 187.791 220.5C187.791 219.791 187.553 219.198 187.077 218.722C186.601 218.237 186.009 217.994 185.299 217.994C184.599 217.994 184.011 218.237 183.535 218.722C183.059 219.198 182.821 219.791 182.821 220.5C182.821 221.209 183.059 221.807 183.535 222.292C184.011 222.768 184.599 223.006 185.299 223.006ZM194.663 218.176H192.801V221.97C192.801 222.315 192.866 222.563 192.997 222.712C193.137 222.852 193.347 222.927 193.627 222.936C193.907 222.936 194.252 222.927 194.663 222.908V224C193.599 224.14 192.819 224.056 192.325 223.748C191.83 223.431 191.583 222.838 191.583 221.97V218.176H190.197V217H191.583V215.404L192.801 215.04V217H194.663V218.176ZM196.721 215.726C196.487 215.726 196.291 215.647 196.133 215.488C195.974 215.329 195.895 215.138 195.895 214.914C195.895 214.69 195.974 214.499 196.133 214.34C196.291 214.172 196.487 214.088 196.721 214.088C196.945 214.088 197.136 214.172 197.295 214.34C197.453 214.499 197.533 214.69 197.533 214.914C197.533 215.138 197.453 215.329 197.295 215.488C197.136 215.647 196.945 215.726 196.721 215.726ZM196.105 224V217H197.323V224H196.105ZM205.089 223.118C204.37 223.827 203.498 224.182 202.471 224.182C201.444 224.182 200.572 223.827 199.853 223.118C199.144 222.409 198.789 221.536 198.789 220.5C198.789 219.464 199.144 218.591 199.853 217.882C200.572 217.173 201.444 216.818 202.471 216.818C203.498 216.818 204.37 217.173 205.089 217.882C205.808 218.591 206.167 219.464 206.167 220.5C206.167 221.536 205.808 222.409 205.089 223.118ZM202.471 222.992C203.171 222.992 203.759 222.754 204.235 222.278C204.711 221.802 204.949 221.209 204.949 220.5C204.949 219.791 204.711 219.198 204.235 218.722C203.759 218.246 203.171 218.008 202.471 218.008C201.78 218.008 201.197 218.246 200.721 218.722C200.245 219.198 200.007 219.791 200.007 220.5C200.007 221.209 200.245 221.802 200.721 222.278C201.197 222.754 201.78 222.992 202.471 222.992ZM211.089 216.818C211.91 216.818 212.568 217.079 213.063 217.602C213.557 218.115 213.805 218.815 213.805 219.702V224H212.587V219.772C212.587 219.203 212.433 218.764 212.125 218.456C211.817 218.139 211.392 217.98 210.851 217.98C210.244 217.98 209.754 218.171 209.381 218.554C209.007 218.927 208.821 219.506 208.821 220.29V224H207.603V217H208.821V218.008C209.315 217.215 210.071 216.818 211.089 216.818Z" fill="white"/>
<g clip-path="url(#clip3_1_310)">
<path d="M14.6667 267.387V268C14.6658 269.438 14.2003 270.836 13.3396 271.988C12.4788 273.139 11.2689 273.982 9.89023 274.389C8.51162 274.797 7.03817 274.748 5.68964 274.25C4.34112 273.752 3.18976 272.831 2.4073 271.625C1.62484 270.419 1.25319 268.992 1.34778 267.558C1.44237 266.123 1.99813 264.758 2.93218 263.665C3.86623 262.572 5.12852 261.81 6.53079 261.493C7.93306 261.177 9.40017 261.322 10.7133 261.907" stroke="white" stroke-width="2" stroke-linecap="round" stroke-linejoin="round"/>
<path d="M14.6667 262.667L8 269.34L6 267.34" stroke="white" stroke-width="2" stroke-linecap="round" stroke-linejoin="round"/>
</g>
<path d="M29.0259 262.2C29.9313 262.2 30.6826 262.503 31.2799 263.11C31.8866 263.707 32.1899 264.454 32.1899 265.35C32.1899 266.237 31.8866 266.983 31.2799 267.59C30.6826 268.197 29.9313 268.5 29.0259 268.5H26.7719V272H25.4699V262.2H29.0259ZM29.0259 267.282C29.5673 267.282 30.0153 267.1 30.3699 266.736C30.7246 266.363 30.9019 265.901 30.9019 265.35C30.9019 264.79 30.7246 264.328 30.3699 263.964C30.0153 263.6 29.5673 263.418 29.0259 263.418H26.7719V267.282H29.0259ZM34.6693 266.176C35.0707 265.308 35.7987 264.874 36.8533 264.874V266.148C36.256 266.12 35.7427 266.279 35.3133 266.624C34.884 266.969 34.6693 267.525 34.6693 268.29V272H33.4513V265H34.6693V266.176ZM38.6611 263.726C38.4278 263.726 38.2318 263.647 38.0731 263.488C37.9144 263.329 37.8351 263.138 37.8351 262.914C37.8351 262.69 37.9144 262.499 38.0731 262.34C38.2318 262.172 38.4278 262.088 38.6611 262.088C38.8851 262.088 39.0764 262.172 39.2351 262.34C39.3938 262.499 39.4731 262.69 39.4731 262.914C39.4731 263.138 39.3938 263.329 39.2351 263.488C39.0764 263.647 38.8851 263.726 38.6611 263.726ZM38.0451 272V265H39.2631V272H38.0451ZM47.0293 271.118C46.3106 271.827 45.4379 272.182 44.4113 272.182C43.3846 272.182 42.5119 271.827 41.7933 271.118C41.0839 270.409 40.7293 269.536 40.7293 268.5C40.7293 267.464 41.0839 266.591 41.7933 265.882C42.5119 265.173 43.3846 264.818 44.4113 264.818C45.4379 264.818 46.3106 265.173 47.0293 265.882C47.7479 266.591 48.1073 267.464 48.1073 268.5C48.1073 269.536 47.7479 270.409 47.0293 271.118ZM44.4113 270.992C45.1113 270.992 45.6993 270.754 46.1753 270.278C46.6513 269.802 46.8893 269.209 46.8893 268.5C46.8893 267.791 46.6513 267.198 46.1753 266.722C45.6993 266.246 45.1113 266.008 44.4113 266.008C43.7206 266.008 43.1373 266.246 42.6613 266.722C42.1853 267.198 41.9473 267.791 41.9473 268.5C41.9473 269.209 42.1853 269.802 42.6613 270.278C43.1373 270.754 43.7206 270.992 44.4113 270.992ZM50.7611 266.176C51.1625 265.308 51.8905 264.874 52.9451 264.874V266.148C52.3478 266.12 51.8345 266.279 51.4051 266.624C50.9758 266.969 50.7611 267.525 50.7611 268.29V272H49.5431V265H50.7611V266.176ZM54.7529 263.726C54.5196 263.726 54.3236 263.647 54.1649 263.488C54.0062 263.329 53.9269 263.138 53.9269 262.914C53.9269 262.69 54.0062 262.499 54.1649 262.34C54.3236 262.172 54.5196 262.088 54.7529 262.088C54.9769 262.088 55.1682 262.172 55.3269 262.34C55.4856 262.499 55.5649 262.69 55.5649 262.914C55.5649 263.138 55.4856 263.329 55.3269 263.488C55.1682 263.647 54.9769 263.726 54.7529 263.726ZM54.1369 272V265H55.3549V272H54.1369ZM61.0211 266.176H59.1591V269.97C59.1591 270.315 59.2244 270.563 59.3551 270.712C59.4951 270.852 59.7051 270.927 59.9851 270.936C60.2651 270.936 60.6104 270.927 61.0211 270.908V272C59.9571 272.14 59.1777 272.056 58.6831 271.748C58.1884 271.431 57.9411 270.838 57.9411 269.97V266.176H56.5551V265H57.9411V263.404L59.1591 263.04V265H61.0211V266.176ZM67.4995 265H68.8015L65.9455 272.434C65.6468 273.227 65.2268 273.829 64.6855 274.24C64.1535 274.66 63.5375 274.847 62.8375 274.8V273.666C63.6961 273.731 64.3261 273.255 64.7275 272.238L64.8535 271.972L61.8015 265H63.1035L65.4835 270.488L67.4995 265ZM76.6085 272.182C75.6939 272.182 74.9099 271.967 74.2565 271.538C73.6125 271.109 73.1599 270.521 72.8985 269.774L74.0185 269.13C74.4012 270.315 75.2739 270.908 76.6365 270.908C77.3085 270.908 77.8219 270.773 78.1765 270.502C78.5312 270.222 78.7085 269.853 78.7085 269.396C78.7085 268.929 78.5312 268.579 78.1765 268.346C77.8219 268.113 77.2292 267.865 76.3985 267.604C75.9879 267.473 75.6752 267.371 75.4605 267.296C75.2459 267.212 74.9752 267.091 74.6485 266.932C74.3312 266.764 74.0932 266.596 73.9345 266.428C73.7759 266.251 73.6312 266.022 73.5005 265.742C73.3792 265.462 73.3185 265.145 73.3185 264.79C73.3185 263.941 73.6172 263.269 74.2145 262.774C74.8119 262.27 75.5399 262.018 76.3985 262.018C77.1732 262.018 77.8452 262.214 78.4145 262.606C78.9932 262.998 79.4272 263.516 79.7165 264.16L78.6245 264.79C78.2045 263.782 77.4625 263.278 76.3985 263.278C75.8665 263.278 75.4372 263.409 75.1105 263.67C74.7839 263.931 74.6205 264.286 74.6205 264.734C74.6205 265.163 74.7745 265.49 75.0825 265.714C75.3905 265.938 75.9225 266.171 76.6785 266.414C76.9492 266.498 77.1405 266.559 77.2525 266.596C77.3645 266.633 77.5372 266.699 77.7705 266.792C78.0132 266.885 78.1905 266.96 78.3025 267.016C78.4145 267.072 78.5639 267.151 78.7505 267.254C78.9465 267.357 79.0912 267.455 79.1845 267.548C79.2779 267.641 79.3852 267.758 79.5065 267.898C79.6372 268.029 79.7305 268.164 79.7865 268.304C79.8425 268.444 79.8892 268.607 79.9265 268.794C79.9732 268.971 79.9965 269.163 79.9965 269.368C79.9965 270.227 79.6839 270.913 79.0585 271.426C78.4332 271.93 77.6165 272.182 76.6085 272.182ZM86.2423 265H87.4603V272H86.2423V270.992C85.7476 271.785 84.9916 272.182 83.9743 272.182C83.1529 272.182 82.4949 271.925 82.0003 271.412C81.5056 270.889 81.2583 270.185 81.2583 269.298V265H82.4763V269.228C82.4763 269.797 82.6303 270.241 82.9383 270.558C83.2463 270.866 83.6709 271.02 84.2123 271.02C84.8189 271.02 85.3089 270.833 85.6823 270.46C86.0556 270.077 86.2423 269.494 86.2423 268.71V265ZM93.1786 264.818C94.1586 264.818 94.994 265.177 95.6846 265.896C96.3753 266.605 96.7206 267.473 96.7206 268.5C96.7206 269.527 96.3753 270.399 95.6846 271.118C94.994 271.827 94.1586 272.182 93.1786 272.182C92.0213 272.182 91.1393 271.72 90.5326 270.796V274.8H89.3146V265H90.5326V266.204C91.1393 265.28 92.0213 264.818 93.1786 264.818ZM93.0246 271.006C93.7246 271.006 94.3126 270.768 94.7886 270.292C95.2646 269.807 95.5026 269.209 95.5026 268.5C95.5026 267.791 95.2646 267.198 94.7886 266.722C94.3126 266.237 93.7246 265.994 93.0246 265.994C92.3153 265.994 91.7226 266.237 91.2466 266.722C90.7706 267.198 90.5326 267.791 90.5326 268.5C90.5326 269.209 90.7706 269.807 91.2466 270.292C91.7226 270.768 92.3153 271.006 93.0246 271.006ZM102.038 264.818C103.018 264.818 103.853 265.177 104.544 265.896C105.235 266.605 105.58 267.473 105.58 268.5C105.58 269.527 105.235 270.399 104.544 271.118C103.853 271.827 103.018 272.182 102.038 272.182C100.881 272.182 99.9987 271.72 99.392 270.796V274.8H98.174V265H99.392V266.204C99.9987 265.28 100.881 264.818 102.038 264.818ZM101.884 271.006C102.584 271.006 103.172 270.768 103.648 270.292C104.124 269.807 104.362 269.209 104.362 268.5C104.362 267.791 104.124 267.198 103.648 266.722C103.172 266.237 102.584 265.994 101.884 265.994C101.175 265.994 100.582 266.237 100.106 266.722C99.63 267.198 99.392 267.791 99.392 268.5C99.392 269.209 99.63 269.807 100.106 270.292C100.582 270.768 101.175 271.006 101.884 271.006ZM112.941 271.118C112.223 271.827 111.35 272.182 110.323 272.182C109.297 272.182 108.424 271.827 107.705 271.118C106.996 270.409 106.641 269.536 106.641 268.5C106.641 267.464 106.996 266.591 107.705 265.882C108.424 265.173 109.297 264.818 110.323 264.818C111.35 264.818 112.223 265.173 112.941 265.882C113.66 266.591 114.019 267.464 114.019 268.5C114.019 269.536 113.66 270.409 112.941 271.118ZM110.323 270.992C111.023 270.992 111.611 270.754 112.087 270.278C112.563 269.802 112.801 269.209 112.801 268.5C112.801 267.791 112.563 267.198 112.087 266.722C111.611 266.246 111.023 266.008 110.323 266.008C109.633 266.008 109.049 266.246 108.573 266.722C108.097 267.198 107.859 267.791 107.859 268.5C107.859 269.209 108.097 269.802 108.573 270.278C109.049 270.754 109.633 270.992 110.323 270.992ZM116.673 266.176C117.075 265.308 117.803 264.874 118.857 264.874V266.148C118.26 266.12 117.747 266.279 117.317 266.624C116.888 266.969 116.673 267.525 116.673 268.29V272H115.455V265H116.673V266.176ZM124.021 266.176H122.159V269.97C122.159 270.315 122.224 270.563 122.355 270.712C122.495 270.852 122.705 270.927 122.985 270.936C123.265 270.936 123.61 270.927 124.021 270.908V272C122.957 272.14 122.178 272.056 121.683 271.748C121.188 271.431 120.941 270.838 120.941 269.97V266.176H119.555V265H120.941V263.404L122.159 263.04V265H124.021V266.176Z" fill="white"/>
<g clip-path="url(#clip4_1_310)">
<path d="M14.6667 315.387V316C14.6658 317.438 14.2003 318.836 13.3396 319.988C12.4788 321.139 11.2689 321.982 9.89023 322.389C8.51162 322.797 7.03817 322.748 5.68964 322.25C4.34112 321.752 3.18976 320.831 2.4073 319.625C1.62484 318.419 1.25319 316.992 1.34778 315.558C1.44237 314.123 1.99813 312.758 2.93218 311.665C3.86623 310.572 5.12852 309.81 6.53079 309.493C7.93306 309.177 9.40017 309.322 10.7133 309.907" stroke="white" stroke-width="2" stroke-linecap="round" stroke-linejoin="round"/>
<path d="M14.6667 310.667L8 317.34L6 315.34" stroke="white" stroke-width="2" stroke-linecap="round" stroke-linejoin="round"/>
</g>
<path d="M31.7354 320L30.9374 317.802H26.5274L25.7294 320H24.3434L27.9974 310.2H29.4674L33.1214 320H31.7354ZM26.9754 316.584H30.4894L28.7254 311.754L26.9754 316.584ZM39.7835 310.2H41.0015V320H39.7835V318.796C39.1768 319.72 38.2948 320.182 37.1375 320.182C36.1575 320.182 35.3221 319.827 34.6315 319.118C33.9408 318.399 33.5955 317.527 33.5955 316.5C33.5955 315.473 33.9408 314.605 34.6315 313.896C35.3221 313.177 36.1575 312.818 37.1375 312.818C38.2948 312.818 39.1768 313.28 39.7835 314.204V310.2ZM37.2915 319.006C38.0008 319.006 38.5935 318.768 39.0695 318.292C39.5455 317.807 39.7835 317.209 39.7835 316.5C39.7835 315.791 39.5455 315.198 39.0695 314.722C38.5935 314.237 38.0008 313.994 37.2915 313.994C36.5915 313.994 36.0035 314.237 35.5275 314.722C35.0515 315.198 34.8135 315.791 34.8135 316.5C34.8135 317.209 35.0515 317.807 35.5275 318.292C36.0035 318.768 36.5915 319.006 37.2915 319.006ZM42.9729 316.29V315.114H48.0829V316.29H42.9729ZM53.6499 311.194C52.4179 311.091 51.8019 311.623 51.8019 312.79V313H53.6499V314.176H51.8019V320H50.5839V314.176H49.4639V313H50.5839V312.79C50.5839 311.847 50.8453 311.133 51.3679 310.648C51.8999 310.163 52.6606 309.953 53.6499 310.018V311.194ZM55.7953 314.176C56.1967 313.308 56.9247 312.874 57.9793 312.874V314.148C57.382 314.12 56.8687 314.279 56.4393 314.624C56.01 314.969 55.7953 315.525 55.7953 316.29V320H54.5773V313H55.7953V314.176ZM59.6423 317.06C59.7636 317.685 60.0483 318.171 60.4963 318.516C60.9536 318.861 61.5136 319.034 62.1763 319.034C63.1003 319.034 63.7723 318.693 64.1923 318.012L65.2283 318.6C64.5469 319.655 63.5203 320.182 62.1483 320.182C61.0376 320.182 60.1323 319.837 59.4323 319.146C58.7416 318.446 58.3963 317.564 58.3963 316.5C58.3963 315.445 58.7369 314.568 59.4183 313.868C60.0996 313.168 60.9816 312.818 62.0643 312.818C63.0909 312.818 63.9263 313.182 64.5703 313.91C65.2236 314.629 65.5503 315.497 65.5503 316.514C65.5503 316.691 65.5363 316.873 65.5083 317.06H59.6423ZM62.0643 313.966C61.4109 313.966 60.8696 314.153 60.4403 314.526C60.0109 314.89 59.7449 315.38 59.6423 315.996H64.3183C64.2156 315.333 63.9543 314.829 63.5343 314.484C63.1143 314.139 62.6243 313.966 62.0643 313.966ZM67.7907 317.06C67.912 317.685 68.1967 318.171 68.6447 318.516C69.102 318.861 69.662 319.034 70.3247 319.034C71.2487 319.034 71.9207 318.693 72.3407 318.012L73.3767 318.6C72.6954 319.655 71.6687 320.182 70.2967 320.182C69.186 320.182 68.2807 319.837 67.5807 319.146C66.89 318.446 66.5447 317.564 66.5447 316.5C66.5447 315.445 66.8854 314.568 67.5667 313.868C68.248 313.168 69.13 312.818 70.2127 312.818C71.2394 312.818 72.0747 313.182 72.7187 313.91C73.372 314.629 73.6987 315.497 73.6987 316.514C73.6987 316.691 73.6847 316.873 73.6567 317.06H67.7907ZM70.2127 313.966C69.5594 313.966 69.018 314.153 68.5887 314.526C68.1594 314.89 67.8934 315.38 67.7907 315.996H72.4667C72.364 315.333 72.1027 314.829 71.6827 314.484C71.2627 314.139 70.7727 313.966 70.2127 313.966ZM80.0268 318.768H84.5768V320H78.7248V310.2H84.5068V311.432H80.0268V314.442H84.1568V315.66H80.0268V318.768ZM92.0986 320H90.6706L88.7106 317.354L86.7366 320H85.3086L87.9966 316.402L85.4626 313H86.9046L88.7106 315.436L90.5166 313H91.9446L89.4246 316.388L92.0986 320ZM97.0917 312.818C98.0717 312.818 98.907 313.177 99.5977 313.896C100.288 314.605 100.634 315.473 100.634 316.5C100.634 317.527 100.288 318.399 99.5977 319.118C98.907 319.827 98.0717 320.182 97.0917 320.182C95.9344 320.182 95.0524 319.72 94.4457 318.796V322.8H93.2277V313H94.4457V314.204C95.0524 313.28 95.9344 312.818 97.0917 312.818ZM96.9377 319.006C97.6377 319.006 98.2257 318.768 98.7017 318.292C99.1777 317.807 99.4157 317.209 99.4157 316.5C99.4157 315.791 99.1777 315.198 98.7017 314.722C98.2257 314.237 97.6377 313.994 96.9377 313.994C96.2284 313.994 95.6357 314.237 95.1597 314.722C94.6837 315.198 94.4457 315.791 94.4457 316.5C94.4457 317.209 94.6837 317.807 95.1597 318.292C95.6357 318.768 96.2284 319.006 96.9377 319.006ZM102.941 317.06C103.062 317.685 103.347 318.171 103.795 318.516C104.252 318.861 104.812 319.034 105.475 319.034C106.399 319.034 107.071 318.693 107.491 318.012L108.527 318.6C107.846 319.655 106.819 320.182 105.447 320.182C104.336 320.182 103.431 319.837 102.731 319.146C102.04 318.446 101.695 317.564 101.695 316.5C101.695 315.445 102.036 314.568 102.717 313.868C103.398 313.168 104.28 312.818 105.363 312.818C106.39 312.818 107.225 313.182 107.869 313.91C108.522 314.629 108.849 315.497 108.849 316.514C108.849 316.691 108.835 316.873 108.807 317.06H102.941ZM105.363 313.966C104.71 313.966 104.168 314.153 103.739 314.526C103.31 314.89 103.044 315.38 102.941 315.996H107.617C107.514 315.333 107.253 314.829 106.833 314.484C106.413 314.139 105.923 313.966 105.363 313.966ZM111.467 314.176C111.869 313.308 112.597 312.874 113.651 312.874V314.148C113.054 314.12 112.541 314.279 112.111 314.624C111.682 314.969 111.467 315.525 111.467 316.29V320H110.249V313H111.467V314.176ZM115.459 311.726C115.226 311.726 115.03 311.647 114.871 311.488C114.712 311.329 114.633 311.138 114.633 310.914C114.633 310.69 114.712 310.499 114.871 310.34C115.03 310.172 115.226 310.088 115.459 310.088C115.683 310.088 115.874 310.172 116.033 310.34C116.192 310.499 116.271 310.69 116.271 310.914C116.271 311.138 116.192 311.329 116.033 311.488C115.874 311.647 115.683 311.726 115.459 311.726ZM114.843 320V313H116.061V320H114.843ZM118.773 317.06C118.894 317.685 119.179 318.171 119.627 318.516C120.084 318.861 120.644 319.034 121.307 319.034C122.231 319.034 122.903 318.693 123.323 318.012L124.359 318.6C123.678 319.655 122.651 320.182 121.279 320.182C120.168 320.182 119.263 319.837 118.563 319.146C117.872 318.446 117.527 317.564 117.527 316.5C117.527 315.445 117.868 314.568 118.549 313.868C119.23 313.168 120.112 312.818 121.195 312.818C122.222 312.818 123.057 313.182 123.701 313.91C124.354 314.629 124.681 315.497 124.681 316.514C124.681 316.691 124.667 316.873 124.639 317.06H118.773ZM121.195 313.966C120.542 313.966 120 314.153 119.571 314.526C119.142 314.89 118.876 315.38 118.773 315.996H123.449C123.346 315.333 123.085 314.829 122.665 314.484C122.245 314.139 121.755 313.966 121.195 313.966ZM129.567 312.818C130.389 312.818 131.047 313.079 131.541 313.602C132.036 314.115 132.283 314.815 132.283 315.702V320H131.065V315.772C131.065 315.203 130.911 314.764 130.603 314.456C130.295 314.139 129.871 313.98 129.329 313.98C128.723 313.98 128.233 314.171 127.859 314.554C127.486 314.927 127.299 315.506 127.299 316.29V320H126.081V313H127.299V314.008C127.794 313.215 128.55 312.818 129.567 312.818ZM137.274 320.182C136.219 320.182 135.342 319.832 134.642 319.132C133.942 318.423 133.592 317.545 133.592 316.5C133.592 315.455 133.942 314.582 134.642 313.882C135.342 313.173 136.219 312.818 137.274 312.818C137.964 312.818 138.585 312.986 139.136 313.322C139.686 313.649 140.097 314.092 140.368 314.652L139.346 315.24C139.168 314.867 138.893 314.568 138.52 314.344C138.156 314.12 137.74 314.008 137.274 314.008C136.574 314.008 135.986 314.246 135.51 314.722C135.043 315.198 134.81 315.791 134.81 316.5C134.81 317.2 135.043 317.788 135.51 318.264C135.986 318.74 136.574 318.978 137.274 318.978C137.74 318.978 138.16 318.871 138.534 318.656C138.907 318.432 139.192 318.133 139.388 317.76L140.424 318.362C140.125 318.913 139.696 319.356 139.136 319.692C138.576 320.019 137.955 320.182 137.274 320.182ZM142.384 317.06C142.506 317.685 142.79 318.171 143.238 318.516C143.696 318.861 144.256 319.034 144.918 319.034C145.842 319.034 146.514 318.693 146.934 318.012L147.97 318.6C147.289 319.655 146.262 320.182 144.89 320.182C143.78 320.182 142.874 319.837 142.174 319.146C141.484 318.446 141.138 317.564 141.138 316.5C141.138 315.445 141.479 314.568 142.16 313.868C142.842 313.168 143.724 312.818 144.806 312.818C145.833 312.818 146.668 313.182 147.312 313.91C147.966 314.629 148.292 315.497 148.292 316.514C148.292 316.691 148.278 316.873 148.25 317.06H142.384ZM144.806 313.966C144.153 313.966 143.612 314.153 143.182 314.526C142.753 314.89 142.487 315.38 142.384 315.996H147.06C146.958 315.333 146.696 314.829 146.276 314.484C145.856 314.139 145.366 313.966 144.806 313.966Z" fill="white"/>
<defs>
<clipPath id="clip0_1_310">
<rect width="16" height="16" fill="white" transform="translate(0 116)"/>
</clipPath>
<clipPath id="clip1_1_310">
<rect width="16" height="16" fill="white" transform="translate(0 164)"/>
</clipPath>
<clipPath id="clip2_1_310">
<rect width="16" height="16" fill="white" transform="translate(0 212)"/>
</clipPath>
<clipPath id="clip3_1_310">
<rect width="16" height="16" fill="white" transform="translate(0 260)"/>
</clipPath>
<clipPath id="clip4_1_310">
<rect width="16" height="16" fill="white" transform="translate(0 308)"/>
</clipPath>
</defs>
</svg>
