<svg width="149" height="24" viewBox="0 0 149 24" fill="none" xmlns="http://www.w3.org/2000/svg">
<g clip-path="url(#clip0_1_327)">
<path d="M14.6667 11.3867V12C14.6658 13.4376 14.2003 14.8364 13.3396 15.9879C12.4788 17.1393 11.2689 17.9816 9.89023 18.3893C8.51162 18.7969 7.03817 18.7479 5.68964 18.2497C4.34112 17.7515 3.18976 16.8307 2.4073 15.6247C1.62484 14.4187 1.25319 12.992 1.34778 11.5575C1.44237 10.123 1.99813 8.75755 2.93218 7.66471C3.86623 6.57188 5.12852 5.81025 6.53079 5.49343C7.93306 5.1766 9.40017 5.32155 10.7133 5.90666" stroke="white" stroke-width="2" stroke-linecap="round" stroke-linejoin="round"/>
<path d="M14.6667 6.66666L8 13.34L6 11.34" stroke="white" stroke-width="2" stroke-linecap="round" stroke-linejoin="round"/>
</g>
<path d="M31.7354 16L30.9374 13.802H26.5274L25.7294 16H24.3434L27.9974 6.2H29.4674L33.1214 16H31.7354ZM26.9754 12.584H30.4894L28.7254 7.754L26.9754 12.584ZM39.7835 6.2H41.0015V16H39.7835V14.796C39.1768 15.72 38.2948 16.182 37.1375 16.182C36.1575 16.182 35.3221 15.8273 34.6315 15.118C33.9408 14.3993 33.5955 13.5267 33.5955 12.5C33.5955 11.4733 33.9408 10.6053 34.6315 9.896C35.3221 9.17733 36.1575 8.818 37.1375 8.818C38.2948 8.818 39.1768 9.28 39.7835 10.204V6.2ZM37.2915 15.006C38.0008 15.006 38.5935 14.768 39.0695 14.292C39.5455 13.8067 39.7835 13.2093 39.7835 12.5C39.7835 11.7907 39.5455 11.198 39.0695 10.722C38.5935 10.2367 38.0008 9.994 37.2915 9.994C36.5915 9.994 36.0035 10.2367 35.5275 10.722C35.0515 11.198 34.8135 11.7907 34.8135 12.5C34.8135 13.2093 35.0515 13.8067 35.5275 14.292C36.0035 14.768 36.5915 15.006 37.2915 15.006ZM42.9729 12.29V11.114H48.0829V12.29H42.9729ZM53.6499 7.194C52.4179 7.09133 51.8019 7.62333 51.8019 8.79V9H53.6499V10.176H51.8019V16H50.5839V10.176H49.4639V9H50.5839V8.79C50.5839 7.84733 50.8453 7.13333 51.3679 6.648C51.8999 6.16267 52.6606 5.95267 53.6499 6.018V7.194ZM55.7953 10.176C56.1967 9.308 56.9247 8.874 57.9793 8.874V10.148C57.382 10.12 56.8687 10.2787 56.4393 10.624C56.01 10.9693 55.7953 11.5247 55.7953 12.29V16H54.5773V9H55.7953V10.176ZM59.6423 13.06C59.7636 13.6853 60.0483 14.1707 60.4963 14.516C60.9536 14.8613 61.5136 15.034 62.1763 15.034C63.1003 15.034 63.7723 14.6933 64.1923 14.012L65.2283 14.6C64.5469 15.6547 63.5203 16.182 62.1483 16.182C61.0376 16.182 60.1323 15.8367 59.4323 15.146C58.7416 14.446 58.3963 13.564 58.3963 12.5C58.3963 11.4453 58.7369 10.568 59.4183 9.868C60.0996 9.168 60.9816 8.818 62.0643 8.818C63.0909 8.818 63.9263 9.182 64.5703 9.91C65.2236 10.6287 65.5503 11.4967 65.5503 12.514C65.5503 12.6913 65.5363 12.8733 65.5083 13.06H59.6423ZM62.0643 9.966C61.4109 9.966 60.8696 10.1527 60.4403 10.526C60.0109 10.89 59.7449 11.38 59.6423 11.996H64.3183C64.2156 11.3333 63.9543 10.8293 63.5343 10.484C63.1143 10.1387 62.6243 9.966 62.0643 9.966ZM67.7907 13.06C67.912 13.6853 68.1967 14.1707 68.6447 14.516C69.102 14.8613 69.662 15.034 70.3247 15.034C71.2487 15.034 71.9207 14.6933 72.3407 14.012L73.3767 14.6C72.6954 15.6547 71.6687 16.182 70.2967 16.182C69.186 16.182 68.2807 15.8367 67.5807 15.146C66.89 14.446 66.5447 13.564 66.5447 12.5C66.5447 11.4453 66.8854 10.568 67.5667 9.868C68.248 9.168 69.13 8.818 70.2127 8.818C71.2394 8.818 72.0747 9.182 72.7187 9.91C73.372 10.6287 73.6987 11.4967 73.6987 12.514C73.6987 12.6913 73.6847 12.8733 73.6567 13.06H67.7907ZM70.2127 9.966C69.5594 9.966 69.018 10.1527 68.5887 10.526C68.1594 10.89 67.8934 11.38 67.7907 11.996H72.4667C72.364 11.3333 72.1027 10.8293 71.6827 10.484C71.2627 10.1387 70.7727 9.966 70.2127 9.966ZM80.0268 14.768H84.5768V16H78.7248V6.2H84.5068V7.432H80.0268V10.442H84.1568V11.66H80.0268V14.768ZM92.0986 16H90.6706L88.7106 13.354L86.7366 16H85.3086L87.9966 12.402L85.4626 9H86.9046L88.7106 11.436L90.5166 9H91.9446L89.4246 12.388L92.0986 16ZM97.0917 8.818C98.0717 8.818 98.907 9.17733 99.5977 9.896C100.288 10.6053 100.634 11.4733 100.634 12.5C100.634 13.5267 100.288 14.3993 99.5977 15.118C98.907 15.8273 98.0717 16.182 97.0917 16.182C95.9344 16.182 95.0524 15.72 94.4457 14.796V18.8H93.2277V9H94.4457V10.204C95.0524 9.28 95.9344 8.818 97.0917 8.818ZM96.9377 15.006C97.6377 15.006 98.2257 14.768 98.7017 14.292C99.1777 13.8067 99.4157 13.2093 99.4157 12.5C99.4157 11.7907 99.1777 11.198 98.7017 10.722C98.2257 10.2367 97.6377 9.994 96.9377 9.994C96.2284 9.994 95.6357 10.2367 95.1597 10.722C94.6837 11.198 94.4457 11.7907 94.4457 12.5C94.4457 13.2093 94.6837 13.8067 95.1597 14.292C95.6357 14.768 96.2284 15.006 96.9377 15.006ZM102.941 13.06C103.062 13.6853 103.347 14.1707 103.795 14.516C104.252 14.8613 104.812 15.034 105.475 15.034C106.399 15.034 107.071 14.6933 107.491 14.012L108.527 14.6C107.846 15.6547 106.819 16.182 105.447 16.182C104.336 16.182 103.431 15.8367 102.731 15.146C102.04 14.446 101.695 13.564 101.695 12.5C101.695 11.4453 102.036 10.568 102.717 9.868C103.398 9.168 104.28 8.818 105.363 8.818C106.39 8.818 107.225 9.182 107.869 9.91C108.522 10.6287 108.849 11.4967 108.849 12.514C108.849 12.6913 108.835 12.8733 108.807 13.06H102.941ZM105.363 9.966C104.71 9.966 104.168 10.1527 103.739 10.526C103.31 10.89 103.044 11.38 102.941 11.996H107.617C107.514 11.3333 107.253 10.8293 106.833 10.484C106.413 10.1387 105.923 9.966 105.363 9.966ZM111.467 10.176C111.869 9.308 112.597 8.874 113.651 8.874V10.148C113.054 10.12 112.541 10.2787 112.111 10.624C111.682 10.9693 111.467 11.5247 111.467 12.29V16H110.249V9H111.467V10.176ZM115.459 7.726C115.226 7.726 115.03 7.64667 114.871 7.488C114.712 7.32933 114.633 7.138 114.633 6.914C114.633 6.69 114.712 6.49867 114.871 6.34C115.03 6.172 115.226 6.088 115.459 6.088C115.683 6.088 115.874 6.172 116.033 6.34C116.192 6.49867 116.271 6.69 116.271 6.914C116.271 7.138 116.192 7.32933 116.033 7.488C115.874 7.64667 115.683 7.726 115.459 7.726ZM114.843 16V9H116.061V16H114.843ZM118.773 13.06C118.894 13.6853 119.179 14.1707 119.627 14.516C120.084 14.8613 120.644 15.034 121.307 15.034C122.231 15.034 122.903 14.6933 123.323 14.012L124.359 14.6C123.678 15.6547 122.651 16.182 121.279 16.182C120.168 16.182 119.263 15.8367 118.563 15.146C117.872 14.446 117.527 13.564 117.527 12.5C117.527 11.4453 117.868 10.568 118.549 9.868C119.23 9.168 120.112 8.818 121.195 8.818C122.222 8.818 123.057 9.182 123.701 9.91C124.354 10.6287 124.681 11.4967 124.681 12.514C124.681 12.6913 124.667 12.8733 124.639 13.06H118.773ZM121.195 9.966C120.542 9.966 120 10.1527 119.571 10.526C119.142 10.89 118.876 11.38 118.773 11.996H123.449C123.346 11.3333 123.085 10.8293 122.665 10.484C122.245 10.1387 121.755 9.966 121.195 9.966ZM129.567 8.818C130.389 8.818 131.047 9.07933 131.541 9.602C132.036 10.1153 132.283 10.8153 132.283 11.702V16H131.065V11.772C131.065 11.2027 130.911 10.764 130.603 10.456C130.295 10.1387 129.871 9.98 129.329 9.98C128.723 9.98 128.233 10.1713 127.859 10.554C127.486 10.9273 127.299 11.506 127.299 12.29V16H126.081V9H127.299V10.008C127.794 9.21467 128.55 8.818 129.567 8.818ZM137.274 16.182C136.219 16.182 135.342 15.832 134.642 15.132C133.942 14.4227 133.592 13.5453 133.592 12.5C133.592 11.4547 133.942 10.582 134.642 9.882C135.342 9.17267 136.219 8.818 137.274 8.818C137.964 8.818 138.585 8.986 139.136 9.322C139.686 9.64867 140.097 10.092 140.368 10.652L139.346 11.24C139.168 10.8667 138.893 10.568 138.52 10.344C138.156 10.12 137.74 10.008 137.274 10.008C136.574 10.008 135.986 10.246 135.51 10.722C135.043 11.198 134.81 11.7907 134.81 12.5C134.81 13.2 135.043 13.788 135.51 14.264C135.986 14.74 136.574 14.978 137.274 14.978C137.74 14.978 138.16 14.8707 138.534 14.656C138.907 14.432 139.192 14.1333 139.388 13.76L140.424 14.362C140.125 14.9127 139.696 15.356 139.136 15.692C138.576 16.0187 137.955 16.182 137.274 16.182ZM142.384 13.06C142.506 13.6853 142.79 14.1707 143.238 14.516C143.696 14.8613 144.256 15.034 144.918 15.034C145.842 15.034 146.514 14.6933 146.934 14.012L147.97 14.6C147.289 15.6547 146.262 16.182 144.89 16.182C143.78 16.182 142.874 15.8367 142.174 15.146C141.484 14.446 141.138 13.564 141.138 12.5C141.138 11.4453 141.479 10.568 142.16 9.868C142.842 9.168 143.724 8.818 144.806 8.818C145.833 8.818 146.668 9.182 147.312 9.91C147.966 10.6287 148.292 11.4967 148.292 12.514C148.292 12.6913 148.278 12.8733 148.25 13.06H142.384ZM144.806 9.966C144.153 9.966 143.612 10.1527 143.182 10.526C142.753 10.89 142.487 11.38 142.384 11.996H147.06C146.958 11.3333 146.696 10.8293 146.276 10.484C145.856 10.1387 145.366 9.966 144.806 9.966Z" fill="white"/>
<defs>
<clipPath id="clip0_1_327">
<rect width="16" height="16" fill="white" transform="translate(0 4)"/>
</clipPath>
</defs>
</svg>
