<svg width="341" height="220" viewBox="0 0 341 220" fill="none" xmlns="http://www.w3.org/2000/svg">
<path d="M25.8859 19.0676H18.8859V26.0676H25.8859V19.0676Z" stroke="black" stroke-width="2" stroke-linecap="round" stroke-linejoin="round"/>
<path d="M36.8859 19.0676H29.8859V26.0676H36.8859V19.0676Z" stroke="#005AE2" stroke-width="2" stroke-linecap="round" stroke-linejoin="round"/>
<path d="M36.8859 30.0676H29.8859V37.0676H36.8859V30.0676Z" stroke="black" stroke-width="2" stroke-linecap="round" stroke-linejoin="round"/>
<path d="M25.8859 30.0676H18.8859V37.0676H25.8859V30.0676Z" stroke="#005AE2" stroke-width="2" stroke-linecap="round" stroke-linejoin="round"/>
<circle cx="28.1" cy="28" r="28" fill="#3284FF" fill-opacity="0.13"/>
<path d="M24.452 107.8C24.452 110.787 23.4707 113.368 21.508 115.544L23.876 117.976L21.284 120.312L18.82 117.784C16.9427 118.872 14.948 119.416 12.836 119.416C9.61467 119.416 6.87334 118.296 4.61201 116.056C2.35067 113.795 1.22001 111.043 1.22001 107.8C1.22001 104.557 2.35067 101.816 4.61201 99.576C6.87334 97.3147 9.61467 96.184 12.836 96.184C16.0573 96.184 18.7987 97.3147 21.06 99.576C23.3213 101.816 24.452 104.557 24.452 107.8ZM12.836 115.832C14.0307 115.832 15.1507 115.587 16.196 115.096L12.1 110.904L14.692 108.568L18.98 112.952C20.1747 111.48 20.772 109.763 20.772 107.8C20.772 105.517 20.004 103.608 18.468 102.072C16.932 100.536 15.0547 99.768 12.836 99.768C10.6173 99.768 8.74001 100.536 7.20401 102.072C5.66801 103.608 4.90001 105.517 4.90001 107.8C4.90001 110.083 5.66801 111.992 7.20401 113.528C8.74001 115.064 10.6173 115.832 12.836 115.832ZM40.733 119L35.997 110.84H31.645V119H27.965V96.6H36.925C38.9303 96.6 40.6263 97.304 42.013 98.712C43.421 100.099 44.125 101.795 44.125 103.8C44.125 105.229 43.709 106.541 42.877 107.736C42.0663 108.909 40.9997 109.763 39.677 110.296L44.765 119H40.733ZM31.645 100.056V107.544H36.925C37.9063 107.544 38.7383 107.181 39.421 106.456C40.1037 105.731 40.445 104.845 40.445 103.8C40.445 102.755 40.1037 101.869 39.421 101.144C38.7383 100.419 37.9063 100.056 36.925 100.056H31.645ZM66.182 119.416C62.8113 119.416 60.0167 118.307 57.798 116.088C55.5793 113.848 54.47 111.085 54.47 107.8C54.47 104.515 55.5793 101.763 57.798 99.544C60.0167 97.304 62.8113 96.184 66.182 96.184C68.2087 96.184 70.0753 96.664 71.782 97.624C73.51 98.584 74.854 99.8853 75.814 101.528L72.614 103.384C72.0167 102.275 71.142 101.4 69.99 100.76C68.8593 100.099 67.59 99.768 66.182 99.768C63.7927 99.768 61.8513 100.525 60.358 102.04C58.886 103.555 58.15 105.475 58.15 107.8C58.15 110.125 58.886 112.045 60.358 113.56C61.8513 115.075 63.7927 115.832 66.182 115.832C67.59 115.832 68.87 115.512 70.022 114.872C71.174 114.211 72.038 113.325 72.614 112.216L75.814 114.04C74.8753 115.683 73.542 116.995 71.814 117.976C70.1073 118.936 68.23 119.416 66.182 119.416ZM86.168 119.416C83.8213 119.416 81.8267 118.605 80.184 116.984C78.5413 115.363 77.72 113.368 77.72 111C77.72 108.632 78.5413 106.637 80.184 105.016C81.8267 103.395 83.8213 102.584 86.168 102.584C88.536 102.584 90.5307 103.395 92.152 105.016C93.7947 106.637 94.616 108.632 94.616 111C94.616 113.368 93.7947 115.363 92.152 116.984C90.5307 118.605 88.536 119.416 86.168 119.416ZM82.616 114.616C83.576 115.576 84.76 116.056 86.168 116.056C87.576 116.056 88.76 115.576 89.72 114.616C90.68 113.656 91.16 112.451 91.16 111C91.16 109.549 90.68 108.344 89.72 107.384C88.76 106.424 87.576 105.944 86.168 105.944C84.76 105.944 83.576 106.424 82.616 107.384C81.656 108.344 81.176 109.549 81.176 111C81.176 112.451 81.656 113.656 82.616 114.616ZM110.413 96.6H113.869V119H110.413V116.696C109.112 118.509 107.245 119.416 104.813 119.416C102.616 119.416 100.738 118.605 99.181 116.984C97.6237 115.341 96.845 113.347 96.845 111C96.845 108.632 97.6237 106.637 99.181 105.016C100.738 103.395 102.616 102.584 104.813 102.584C107.245 102.584 109.112 103.48 110.413 105.272V96.6ZM101.741 114.68C102.701 115.64 103.906 116.12 105.357 116.12C106.808 116.12 108.013 115.64 108.973 114.68C109.933 113.699 110.413 112.472 110.413 111C110.413 109.528 109.933 108.312 108.973 107.352C108.013 106.371 106.808 105.88 105.357 105.88C103.906 105.88 102.701 106.371 101.741 107.352C100.781 108.312 100.301 109.528 100.301 111C100.301 112.472 100.781 113.699 101.741 114.68ZM120.617 112.472C120.873 113.688 121.46 114.627 122.377 115.288C123.295 115.928 124.415 116.248 125.737 116.248C127.572 116.248 128.948 115.587 129.865 114.264L132.713 115.928C131.135 118.253 128.799 119.416 125.705 119.416C123.103 119.416 121.001 118.627 119.401 117.048C117.801 115.448 117.001 113.432 117.001 111C117.001 108.611 117.791 106.616 119.369 105.016C120.948 103.395 122.975 102.584 125.449 102.584C127.796 102.584 129.716 103.405 131.209 105.048C132.724 106.691 133.481 108.685 133.481 111.032C133.481 111.395 133.439 111.875 133.353 112.472H120.617ZM120.585 109.656H129.993C129.759 108.355 129.215 107.373 128.361 106.712C127.529 106.051 126.548 105.72 125.417 105.72C124.137 105.72 123.071 106.072 122.217 106.776C121.364 107.48 120.82 108.44 120.585 109.656ZM139.001 107.416C139.001 107.949 139.289 108.376 139.865 108.696C140.463 108.995 141.177 109.261 142.009 109.496C142.863 109.709 143.716 109.965 144.569 110.264C145.423 110.563 146.137 111.075 146.713 111.8C147.311 112.504 147.609 113.4 147.609 114.488C147.609 116.024 147.012 117.229 145.817 118.104C144.644 118.979 143.161 119.416 141.369 119.416C139.791 119.416 138.436 119.085 137.305 118.424C136.175 117.763 135.353 116.845 134.841 115.672L137.817 113.944C138.372 115.48 139.556 116.248 141.369 116.248C143.183 116.248 144.089 115.651 144.089 114.456C144.089 113.944 143.791 113.528 143.193 113.208C142.617 112.888 141.903 112.621 141.049 112.408C140.217 112.173 139.375 111.907 138.521 111.608C137.668 111.309 136.943 110.819 136.345 110.136C135.769 109.432 135.481 108.547 135.481 107.48C135.481 106.008 136.036 104.824 137.145 103.928C138.276 103.032 139.673 102.584 141.337 102.584C142.66 102.584 143.833 102.883 144.857 103.48C145.903 104.056 146.703 104.867 147.257 105.912L144.345 107.544C143.791 106.328 142.788 105.72 141.337 105.72C140.676 105.72 140.121 105.869 139.673 106.168C139.225 106.445 139.001 106.861 139.001 107.416Z" fill="#141414"/>
<path d="M12.1 150.448V151.12C12.1 152.581 11.5987 153.797 10.596 154.768C9.59334 155.728 8.26534 156.208 6.61201 156.208C4.90534 156.208 3.49201 155.648 2.37201 154.528C1.26267 153.397 0.708006 152.021 0.708006 150.4C0.708006 148.779 1.26267 147.408 2.37201 146.288C3.49201 145.157 4.89467 144.592 6.58001 144.592C7.61467 144.592 8.56401 144.843 9.42801 145.344C10.292 145.835 10.9587 146.485 11.428 147.296L10.148 148.048C9.82801 147.44 9.34267 146.955 8.69201 146.592C8.05201 146.219 7.34267 146.032 6.56401 146.032C5.28401 146.032 4.23334 146.453 3.41201 147.296C2.59067 148.128 2.18001 149.163 2.18001 150.4C2.18001 151.637 2.59067 152.672 3.41201 153.504C4.24401 154.336 5.31601 154.752 6.62801 154.752C7.74801 154.752 8.65467 154.48 9.34801 153.936C10.0413 153.381 10.4627 152.667 10.612 151.792H6.50001V150.448H12.1ZM14.7414 152.64C14.88 153.355 15.2054 153.909 15.7174 154.304C16.24 154.699 16.88 154.896 17.6374 154.896C18.6934 154.896 19.4614 154.507 19.9414 153.728L21.1254 154.4C20.3467 155.605 19.1734 156.208 17.6054 156.208C16.336 156.208 15.3014 155.813 14.5014 155.024C13.712 154.224 13.3174 153.216 13.3174 152C13.3174 150.795 13.7067 149.792 14.4854 148.992C15.264 148.192 16.272 147.792 17.5094 147.792C18.6827 147.792 19.6374 148.208 20.3734 149.04C21.12 149.861 21.4934 150.853 21.4934 152.016C21.4934 152.219 21.4774 152.427 21.4454 152.64H14.7414ZM17.5094 149.104C16.7627 149.104 16.144 149.317 15.6534 149.744C15.1627 150.16 14.8587 150.72 14.7414 151.424H20.0854C19.968 150.667 19.6694 150.091 19.1894 149.696C18.7094 149.301 18.1494 149.104 17.5094 149.104ZM27.0775 147.792C28.0162 147.792 28.7682 148.091 29.3335 148.688C29.8988 149.275 30.1815 150.075 30.1815 151.088V156H28.7895V151.168C28.7895 150.517 28.6135 150.016 28.2615 149.664C27.9095 149.301 27.4242 149.12 26.8055 149.12C26.1122 149.12 25.5522 149.339 25.1255 149.776C24.6988 150.203 24.4855 150.864 24.4855 151.76V156H23.0935V148H24.4855V149.152C25.0508 148.245 25.9148 147.792 27.0775 147.792ZM33.1008 152.64C33.2394 153.355 33.5648 153.909 34.0768 154.304C34.5994 154.699 35.2394 154.896 35.9968 154.896C37.0528 154.896 37.8208 154.507 38.3008 153.728L39.4848 154.4C38.7061 155.605 37.5328 156.208 35.9648 156.208C34.6954 156.208 33.6608 155.813 32.8608 155.024C32.0714 154.224 31.6768 153.216 31.6768 152C31.6768 150.795 32.0661 149.792 32.8448 148.992C33.6234 148.192 34.6314 147.792 35.8688 147.792C37.0421 147.792 37.9968 148.208 38.7328 149.04C39.4794 149.861 39.8528 150.853 39.8528 152.016C39.8528 152.219 39.8368 152.427 39.8048 152.64H33.1008ZM35.8688 149.104C35.1221 149.104 34.5034 149.317 34.0128 149.744C33.5221 150.16 33.2181 150.72 33.1008 151.424H38.4448C38.3274 150.667 38.0288 150.091 37.5488 149.696C37.0688 149.301 36.5088 149.104 35.8688 149.104ZM42.8449 149.344C43.3035 148.352 44.1355 147.856 45.3409 147.856V149.312C44.6582 149.28 44.0715 149.461 43.5809 149.856C43.0902 150.251 42.8449 150.885 42.8449 151.76V156H41.4529V148H42.8449V149.344ZM52.8894 148H54.2814V156H52.8894V154.624C52.196 155.68 51.188 156.208 49.8654 156.208C48.7454 156.208 47.7907 155.803 47.0014 154.992C46.212 154.171 45.8174 153.173 45.8174 152C45.8174 150.827 46.212 149.835 47.0014 149.024C47.7907 148.203 48.7454 147.792 49.8654 147.792C51.188 147.792 52.196 148.32 52.8894 149.376V148ZM50.0414 154.864C50.852 154.864 51.5294 154.592 52.0734 154.048C52.6174 153.493 52.8894 152.811 52.8894 152C52.8894 151.189 52.6174 150.512 52.0734 149.968C51.5294 149.413 50.852 149.136 50.0414 149.136C49.2414 149.136 48.5694 149.413 48.0254 149.968C47.4814 150.512 47.2094 151.189 47.2094 152C47.2094 152.811 47.4814 153.493 48.0254 154.048C48.5694 154.592 49.2414 154.864 50.0414 154.864ZM60.7424 149.344H58.6144V153.68C58.6144 154.075 58.689 154.357 58.8384 154.528C58.9984 154.688 59.2384 154.773 59.5584 154.784C59.8784 154.784 60.273 154.773 60.7424 154.752V156C59.5264 156.16 58.6357 156.064 58.0704 155.712C57.505 155.349 57.2224 154.672 57.2224 153.68V149.344H55.6384V148H57.2224V146.176L58.6144 145.76V148H60.7424V149.344ZM62.9601 152.64C63.0988 153.355 63.4241 153.909 63.9361 154.304C64.4588 154.699 65.0988 154.896 65.8561 154.896C66.9121 154.896 67.6801 154.507 68.1601 153.728L69.3441 154.4C68.5655 155.605 67.3921 156.208 65.8241 156.208C64.5548 156.208 63.5201 155.813 62.7201 155.024C61.9308 154.224 61.5361 153.216 61.5361 152C61.5361 150.795 61.9255 149.792 62.7041 148.992C63.4828 148.192 64.4908 147.792 65.7281 147.792C66.9015 147.792 67.8561 148.208 68.5921 149.04C69.3388 149.861 69.7121 150.853 69.7121 152.016C69.7121 152.219 69.6961 152.427 69.6641 152.64H62.9601ZM65.7281 149.104C64.9815 149.104 64.3628 149.317 63.8721 149.744C63.3815 150.16 63.0775 150.72 62.9601 151.424H68.3041C68.1868 150.667 67.8881 150.091 67.4081 149.696C66.9281 149.301 66.3681 149.104 65.7281 149.104ZM86.4643 150.4C86.4643 151.936 85.9363 153.264 84.8803 154.384L86.1123 155.616L85.0883 156.544L83.8243 155.264C82.8536 155.893 81.7976 156.208 80.6563 156.208C79.0563 156.208 77.6909 155.643 76.5603 154.512C75.4296 153.381 74.8643 152.011 74.8643 150.4C74.8643 148.789 75.4296 147.419 76.5603 146.288C77.6909 145.157 79.0563 144.592 80.6563 144.592C82.2563 144.592 83.6216 145.157 84.7523 146.288C85.8936 147.419 86.4643 148.789 86.4643 150.4ZM80.6563 154.752C81.4243 154.752 82.1283 154.571 82.7683 154.208L80.5283 151.952L81.5523 151.04L83.8563 153.344C84.6029 152.533 84.9763 151.552 84.9763 150.4C84.9763 149.173 84.5549 148.139 83.7123 147.296C82.8803 146.453 81.8616 146.032 80.6563 146.032C79.4509 146.032 78.4269 146.453 77.5843 147.296C76.7523 148.139 76.3363 149.173 76.3363 150.4C76.3363 151.616 76.7523 152.645 77.5843 153.488C78.4269 154.331 79.4509 154.752 80.6563 154.752ZM94.9713 156L92.4593 151.712H89.8193V156H88.3313V144.8H92.8113C93.7713 144.8 94.5926 145.141 95.2753 145.824C95.9579 146.496 96.2993 147.312 96.2993 148.272C96.2993 148.997 96.0806 149.659 95.6433 150.256C95.2166 150.853 94.6619 151.275 93.9793 151.52L96.6193 156H94.9713ZM89.8193 146.192V150.368H92.8113C93.3659 150.368 93.8353 150.165 94.2193 149.76C94.6139 149.344 94.8113 148.848 94.8113 148.272C94.8113 147.696 94.6139 147.205 94.2193 146.8C93.8353 146.395 93.3659 146.192 92.8113 146.192H89.8193ZM105.729 156.208C104.523 156.208 103.521 155.808 102.721 155.008C101.921 154.197 101.521 153.195 101.521 152C101.521 150.805 101.921 149.808 102.721 149.008C103.521 148.197 104.523 147.792 105.729 147.792C106.518 147.792 107.227 147.984 107.857 148.368C108.486 148.741 108.955 149.248 109.265 149.888L108.097 150.56C107.894 150.133 107.579 149.792 107.153 149.536C106.737 149.28 106.262 149.152 105.729 149.152C104.929 149.152 104.257 149.424 103.713 149.968C103.179 150.512 102.913 151.189 102.913 152C102.913 152.8 103.179 153.472 103.713 154.016C104.257 154.56 104.929 154.832 105.729 154.832C106.262 154.832 106.742 154.709 107.169 154.464C107.595 154.208 107.921 153.867 108.145 153.44L109.329 154.128C108.987 154.757 108.497 155.264 107.857 155.648C107.217 156.021 106.507 156.208 105.729 156.208ZM117.346 154.992C116.524 155.803 115.527 156.208 114.354 156.208C113.18 156.208 112.183 155.803 111.362 154.992C110.551 154.181 110.146 153.184 110.146 152C110.146 150.816 110.551 149.819 111.362 149.008C112.183 148.197 113.18 147.792 114.354 147.792C115.527 147.792 116.524 148.197 117.346 149.008C118.167 149.819 118.578 150.816 118.578 152C118.578 153.184 118.167 154.181 117.346 154.992ZM114.354 154.848C115.154 154.848 115.826 154.576 116.37 154.032C116.914 153.488 117.186 152.811 117.186 152C117.186 151.189 116.914 150.512 116.37 149.968C115.826 149.424 115.154 149.152 114.354 149.152C113.564 149.152 112.898 149.424 112.354 149.968C111.81 150.512 111.538 151.189 111.538 152C111.538 152.811 111.81 153.488 112.354 154.032C112.898 154.576 113.564 154.848 114.354 154.848ZM126.843 144.8H128.235V156H126.843V154.624C126.149 155.68 125.141 156.208 123.819 156.208C122.699 156.208 121.744 155.803 120.955 154.992C120.165 154.171 119.771 153.173 119.771 152C119.771 150.827 120.165 149.835 120.955 149.024C121.744 148.203 122.699 147.792 123.819 147.792C125.141 147.792 126.149 148.32 126.843 149.376V144.8ZM123.995 154.864C124.805 154.864 125.483 154.592 126.027 154.048C126.571 153.493 126.843 152.811 126.843 152C126.843 151.189 126.571 150.512 126.027 149.968C125.483 149.413 124.805 149.136 123.995 149.136C123.195 149.136 122.523 149.413 121.979 149.968C121.435 150.512 121.163 151.189 121.163 152C121.163 152.811 121.435 153.493 121.979 154.048C122.523 154.592 123.195 154.864 123.995 154.864ZM131.32 152.64C131.458 153.355 131.784 153.909 132.296 154.304C132.818 154.699 133.458 154.896 134.216 154.896C135.272 154.896 136.04 154.507 136.52 153.728L137.704 154.4C136.925 155.605 135.752 156.208 134.184 156.208C132.914 156.208 131.88 155.813 131.08 155.024C130.29 154.224 129.896 153.216 129.896 152C129.896 150.795 130.285 149.792 131.064 148.992C131.842 148.192 132.85 147.792 134.088 147.792C135.261 147.792 136.216 148.208 136.952 149.04C137.698 149.861 138.072 150.853 138.072 152.016C138.072 152.219 138.056 152.427 138.024 152.64H131.32ZM134.088 149.104C133.341 149.104 132.722 149.317 132.232 149.744C131.741 150.16 131.437 150.72 131.32 151.424H136.664C136.546 150.667 136.248 150.091 135.768 149.696C135.288 149.301 134.728 149.104 134.088 149.104ZM140.559 150.16C140.559 150.469 140.714 150.72 141.023 150.912C141.332 151.093 141.706 151.243 142.143 151.36C142.58 151.467 143.018 151.595 143.455 151.744C143.892 151.883 144.266 152.128 144.575 152.48C144.884 152.821 145.039 153.264 145.039 153.808C145.039 154.533 144.756 155.115 144.191 155.552C143.636 155.989 142.922 156.208 142.047 156.208C141.268 156.208 140.602 156.037 140.047 155.696C139.492 155.355 139.098 154.901 138.863 154.336L140.063 153.648C140.191 154.032 140.431 154.336 140.783 154.56C141.135 154.784 141.556 154.896 142.047 154.896C142.506 154.896 142.884 154.811 143.183 154.64C143.482 154.459 143.631 154.181 143.631 153.808C143.631 153.499 143.476 153.253 143.167 153.072C142.858 152.88 142.484 152.731 142.047 152.624C141.61 152.507 141.172 152.373 140.735 152.224C140.298 152.075 139.924 151.829 139.615 151.488C139.306 151.147 139.151 150.709 139.151 150.176C139.151 149.483 139.418 148.912 139.951 148.464C140.495 148.016 141.172 147.792 141.983 147.792C142.634 147.792 143.21 147.941 143.711 148.24C144.223 148.528 144.607 148.933 144.863 149.456L143.695 150.112C143.407 149.429 142.836 149.088 141.983 149.088C141.588 149.088 141.252 149.184 140.975 149.376C140.698 149.557 140.559 149.819 140.559 150.16ZM155.039 149.344H152.911V153.68C152.911 154.075 152.986 154.357 153.135 154.528C153.295 154.688 153.535 154.773 153.855 154.784C154.175 154.784 154.57 154.773 155.039 154.752V156C153.823 156.16 152.933 156.064 152.367 155.712C151.802 155.349 151.519 154.672 151.519 153.68V149.344H149.935V148H151.519V146.176L152.911 145.76V148H155.039V149.344ZM163.033 154.992C162.212 155.803 161.214 156.208 160.041 156.208C158.868 156.208 157.87 155.803 157.049 154.992C156.238 154.181 155.833 153.184 155.833 152C155.833 150.816 156.238 149.819 157.049 149.008C157.87 148.197 158.868 147.792 160.041 147.792C161.214 147.792 162.212 148.197 163.033 149.008C163.854 149.819 164.265 150.816 164.265 152C164.265 153.184 163.854 154.181 163.033 154.992ZM160.041 154.848C160.841 154.848 161.513 154.576 162.057 154.032C162.601 153.488 162.873 152.811 162.873 152C162.873 151.189 162.601 150.512 162.057 149.968C161.513 149.424 160.841 149.152 160.041 149.152C159.252 149.152 158.585 149.424 158.041 149.968C157.497 150.512 157.225 151.189 157.225 152C157.225 152.811 157.497 153.488 158.041 154.032C158.585 154.576 159.252 154.848 160.041 154.848ZM175.49 148H176.978L173.714 156.496C173.373 157.403 172.893 158.091 172.274 158.56C171.666 159.04 170.962 159.253 170.162 159.2V157.904C171.143 157.979 171.863 157.435 172.322 156.272L172.466 155.968L168.978 148H170.466L173.186 154.272L175.49 148ZM184.58 154.992C183.759 155.803 182.761 156.208 181.588 156.208C180.415 156.208 179.417 155.803 178.596 154.992C177.785 154.181 177.38 153.184 177.38 152C177.38 150.816 177.785 149.819 178.596 149.008C179.417 148.197 180.415 147.792 181.588 147.792C182.761 147.792 183.759 148.197 184.58 149.008C185.401 149.819 185.812 150.816 185.812 152C185.812 153.184 185.401 154.181 184.58 154.992ZM181.588 154.848C182.388 154.848 183.06 154.576 183.604 154.032C184.148 153.488 184.42 152.811 184.42 152C184.42 151.189 184.148 150.512 183.604 149.968C183.06 149.424 182.388 149.152 181.588 149.152C180.799 149.152 180.132 149.424 179.588 149.968C179.044 150.512 178.772 151.189 178.772 152C178.772 152.811 179.044 153.488 179.588 154.032C180.132 154.576 180.799 154.848 181.588 154.848ZM192.973 148H194.365V156H192.973V154.848C192.408 155.755 191.544 156.208 190.381 156.208C189.442 156.208 188.69 155.915 188.125 155.328C187.56 154.731 187.277 153.925 187.277 152.912V148H188.669V152.832C188.669 153.483 188.845 153.989 189.197 154.352C189.549 154.704 190.034 154.88 190.653 154.88C191.346 154.88 191.906 154.667 192.333 154.24C192.76 153.803 192.973 153.136 192.973 152.24V148ZM197.876 149.344C198.335 148.352 199.167 147.856 200.372 147.856V149.312C199.689 149.28 199.103 149.461 198.612 149.856C198.121 150.251 197.876 150.885 197.876 151.76V156H196.484V148H197.876V149.344ZM210.15 147.792C211.27 147.792 212.225 148.203 213.014 149.024C213.803 149.835 214.198 150.827 214.198 152C214.198 153.173 213.803 154.171 213.014 154.992C212.225 155.803 211.27 156.208 210.15 156.208C208.827 156.208 207.819 155.68 207.126 154.624V156H205.734V144.8H207.126V149.376C207.819 148.32 208.827 147.792 210.15 147.792ZM209.974 154.864C210.774 154.864 211.446 154.592 211.99 154.048C212.534 153.493 212.806 152.811 212.806 152C212.806 151.189 212.534 150.512 211.99 149.968C211.446 149.413 210.774 149.136 209.974 149.136C209.163 149.136 208.486 149.413 207.942 149.968C207.398 150.512 207.126 151.189 207.126 152C207.126 152.811 207.398 153.493 207.942 154.048C208.486 154.592 209.163 154.864 209.974 154.864ZM221.379 148H222.771V156H221.379V154.848C220.814 155.755 219.95 156.208 218.787 156.208C217.848 156.208 217.096 155.915 216.531 155.328C215.966 154.731 215.683 153.925 215.683 152.912V148H217.075V152.832C217.075 153.483 217.251 153.989 217.603 154.352C217.955 154.704 218.44 154.88 219.059 154.88C219.752 154.88 220.312 154.667 220.739 154.24C221.166 153.803 221.379 153.136 221.379 152.24V148ZM226.075 150.16C226.075 150.469 226.229 150.72 226.539 150.912C226.848 151.093 227.221 151.243 227.659 151.36C228.096 151.467 228.533 151.595 228.971 151.744C229.408 151.883 229.781 152.128 230.091 152.48C230.4 152.821 230.555 153.264 230.555 153.808C230.555 154.533 230.272 155.115 229.707 155.552C229.152 155.989 228.437 156.208 227.563 156.208C226.784 156.208 226.117 156.037 225.563 155.696C225.008 155.355 224.613 154.901 224.379 154.336L225.579 153.648C225.707 154.032 225.947 154.336 226.299 154.56C226.651 154.784 227.072 154.896 227.563 154.896C228.021 154.896 228.4 154.811 228.699 154.64C228.997 154.459 229.147 154.181 229.147 153.808C229.147 153.499 228.992 153.253 228.683 153.072C228.373 152.88 228 152.731 227.563 152.624C227.125 152.507 226.688 152.373 226.251 152.224C225.813 152.075 225.44 151.829 225.131 151.488C224.821 151.147 224.667 150.709 224.667 150.176C224.667 149.483 224.933 148.912 225.467 148.464C226.011 148.016 226.688 147.792 227.499 147.792C228.149 147.792 228.725 147.941 229.227 148.24C229.739 148.528 230.123 148.933 230.379 149.456L229.211 150.112C228.923 149.429 228.352 149.088 227.499 149.088C227.104 149.088 226.768 149.184 226.491 149.376C226.213 149.557 226.075 149.819 226.075 150.16ZM232.829 146.544C232.562 146.544 232.338 146.453 232.157 146.272C231.975 146.091 231.885 145.872 231.885 145.616C231.885 145.36 231.975 145.141 232.157 144.96C232.338 144.768 232.562 144.672 232.829 144.672C233.085 144.672 233.303 144.768 233.485 144.96C233.666 145.141 233.757 145.36 233.757 145.616C233.757 145.872 233.666 146.091 233.485 146.272C233.303 146.453 233.085 146.544 232.829 146.544ZM232.125 156V148H233.517V156H232.125ZM239.624 147.792C240.563 147.792 241.315 148.091 241.88 148.688C242.446 149.275 242.728 150.075 242.728 151.088V156H241.336V151.168C241.336 150.517 241.16 150.016 240.808 149.664C240.456 149.301 239.971 149.12 239.352 149.12C238.659 149.12 238.099 149.339 237.672 149.776C237.246 150.203 237.032 150.864 237.032 151.76V156H235.64V148H237.032V149.152C237.598 148.245 238.462 147.792 239.624 147.792ZM245.648 152.64C245.786 153.355 246.112 153.909 246.624 154.304C247.146 154.699 247.786 154.896 248.544 154.896C249.6 154.896 250.368 154.507 250.848 153.728L252.032 154.4C251.253 155.605 250.08 156.208 248.512 156.208C247.242 156.208 246.208 155.813 245.408 155.024C244.618 154.224 244.224 153.216 244.224 152C244.224 150.795 244.613 149.792 245.392 148.992C246.17 148.192 247.178 147.792 248.416 147.792C249.589 147.792 250.544 148.208 251.28 149.04C252.026 149.861 252.4 150.853 252.4 152.016C252.4 152.219 252.384 152.427 252.352 152.64H245.648ZM248.416 149.104C247.669 149.104 247.05 149.317 246.56 149.744C246.069 150.16 245.765 150.72 245.648 151.424H250.992C250.874 150.667 250.576 150.091 250.096 149.696C249.616 149.301 249.056 149.104 248.416 149.104ZM254.887 150.16C254.887 150.469 255.042 150.72 255.351 150.912C255.661 151.093 256.034 151.243 256.471 151.36C256.909 151.467 257.346 151.595 257.783 151.744C258.221 151.883 258.594 152.128 258.903 152.48C259.213 152.821 259.367 153.264 259.367 153.808C259.367 154.533 259.085 155.115 258.519 155.552C257.965 155.989 257.25 156.208 256.375 156.208C255.597 156.208 254.93 156.037 254.375 155.696C253.821 155.355 253.426 154.901 253.191 154.336L254.391 153.648C254.519 154.032 254.759 154.336 255.111 154.56C255.463 154.784 255.885 154.896 256.375 154.896C256.834 154.896 257.213 154.811 257.511 154.64C257.81 154.459 257.959 154.181 257.959 153.808C257.959 153.499 257.805 153.253 257.495 153.072C257.186 152.88 256.813 152.731 256.375 152.624C255.938 152.507 255.501 152.373 255.063 152.224C254.626 152.075 254.253 151.829 253.943 151.488C253.634 151.147 253.479 150.709 253.479 150.176C253.479 149.483 253.746 148.912 254.279 148.464C254.823 148.016 255.501 147.792 256.311 147.792C256.962 147.792 257.538 147.941 258.039 148.24C258.551 148.528 258.935 148.933 259.191 149.456L258.023 150.112C257.735 149.429 257.165 149.088 256.311 149.088C255.917 149.088 255.581 149.184 255.303 149.376C255.026 149.557 254.887 149.819 254.887 150.16ZM261.715 150.16C261.715 150.469 261.87 150.72 262.179 150.912C262.489 151.093 262.862 151.243 263.299 151.36C263.737 151.467 264.174 151.595 264.611 151.744C265.049 151.883 265.422 152.128 265.731 152.48C266.041 152.821 266.195 153.264 266.195 153.808C266.195 154.533 265.913 155.115 265.347 155.552C264.793 155.989 264.078 156.208 263.203 156.208C262.425 156.208 261.758 156.037 261.203 155.696C260.649 155.355 260.254 154.901 260.019 154.336L261.219 153.648C261.347 154.032 261.587 154.336 261.939 154.56C262.291 154.784 262.713 154.896 263.203 154.896C263.662 154.896 264.041 154.811 264.339 154.64C264.638 154.459 264.787 154.181 264.787 153.808C264.787 153.499 264.633 153.253 264.323 153.072C264.014 152.88 263.641 152.731 263.203 152.624C262.766 152.507 262.329 152.373 261.891 152.224C261.454 152.075 261.081 151.829 260.771 151.488C260.462 151.147 260.307 150.709 260.307 150.176C260.307 149.483 260.574 148.912 261.107 148.464C261.651 148.016 262.329 147.792 263.139 147.792C263.79 147.792 264.366 147.941 264.867 148.24C265.379 148.528 265.763 148.933 266.019 149.456L264.851 150.112C264.563 149.429 263.993 149.088 263.139 149.088C262.745 149.088 262.409 149.184 262.131 149.376C261.854 149.557 261.715 149.819 261.715 150.16ZM269.752 154.352L268.712 158.24H267.512L268.152 154.352H269.752ZM276.695 152.64C276.833 153.355 277.159 153.909 277.671 154.304C278.193 154.699 278.833 154.896 279.591 154.896C280.647 154.896 281.415 154.507 281.895 153.728L283.079 154.4C282.3 155.605 281.127 156.208 279.559 156.208C278.289 156.208 277.255 155.813 276.455 155.024C275.665 154.224 275.271 153.216 275.271 152C275.271 150.795 275.66 149.792 276.439 148.992C277.217 148.192 278.225 147.792 279.463 147.792C280.636 147.792 281.591 148.208 282.327 149.04C283.073 149.861 283.447 150.853 283.447 152.016C283.447 152.219 283.431 152.427 283.399 152.64H276.695ZM279.463 149.104C278.716 149.104 278.097 149.317 277.607 149.744C277.116 150.16 276.812 150.72 276.695 151.424H282.039C281.921 150.667 281.623 150.091 281.143 149.696C280.663 149.301 280.103 149.104 279.463 149.104ZM290.334 148H291.838L288.638 156H287.006L283.806 148H285.31L287.822 154.512L290.334 148ZM293.679 152.64C293.818 153.355 294.143 153.909 294.655 154.304C295.178 154.699 295.818 154.896 296.575 154.896C297.631 154.896 298.399 154.507 298.879 153.728L300.063 154.4C299.284 155.605 298.111 156.208 296.543 156.208C295.274 156.208 294.239 155.813 293.439 155.024C292.65 154.224 292.255 153.216 292.255 152C292.255 150.795 292.644 149.792 293.423 148.992C294.202 148.192 295.21 147.792 296.447 147.792C297.62 147.792 298.575 148.208 299.311 149.04C300.058 149.861 300.431 150.853 300.431 152.016C300.431 152.219 300.415 152.427 300.383 152.64H293.679ZM296.447 149.104C295.7 149.104 295.082 149.317 294.591 149.744C294.1 150.16 293.796 150.72 293.679 151.424H299.023C298.906 150.667 298.607 150.091 298.127 149.696C297.647 149.301 297.087 149.104 296.447 149.104ZM306.015 147.792C306.954 147.792 307.706 148.091 308.271 148.688C308.836 149.275 309.119 150.075 309.119 151.088V156H307.727V151.168C307.727 150.517 307.551 150.016 307.199 149.664C306.847 149.301 306.362 149.12 305.743 149.12C305.05 149.12 304.49 149.339 304.063 149.776C303.636 150.203 303.423 150.864 303.423 151.76V156H302.031V148H303.423V149.152C303.988 148.245 304.852 147.792 306.015 147.792ZM315.414 149.344H313.286V153.68C313.286 154.075 313.361 154.357 313.51 154.528C313.67 154.688 313.91 154.773 314.23 154.784C314.55 154.784 314.945 154.773 315.414 154.752V156C314.198 156.16 313.308 156.064 312.742 155.712C312.177 155.349 311.894 154.672 311.894 153.68V149.344H310.31V148H311.894V146.176L313.286 145.76V148H315.414V149.344ZM317.872 150.16C317.872 150.469 318.026 150.72 318.336 150.912C318.645 151.093 319.018 151.243 319.456 151.36C319.893 151.467 320.33 151.595 320.768 151.744C321.205 151.883 321.578 152.128 321.888 152.48C322.197 152.821 322.352 153.264 322.352 153.808C322.352 154.533 322.069 155.115 321.504 155.552C320.949 155.989 320.234 156.208 319.36 156.208C318.581 156.208 317.914 156.037 317.36 155.696C316.805 155.355 316.41 154.901 316.176 154.336L317.376 153.648C317.504 154.032 317.744 154.336 318.096 154.56C318.448 154.784 318.869 154.896 319.36 154.896C319.818 154.896 320.197 154.811 320.496 154.64C320.794 154.459 320.944 154.181 320.944 153.808C320.944 153.499 320.789 153.253 320.48 153.072C320.17 152.88 319.797 152.731 319.36 152.624C318.922 152.507 318.485 152.373 318.048 152.224C317.61 152.075 317.237 151.829 316.928 151.488C316.618 151.147 316.464 150.709 316.464 150.176C316.464 149.483 316.73 148.912 317.264 148.464C317.808 148.016 318.485 147.792 319.296 147.792C319.946 147.792 320.522 147.941 321.024 148.24C321.536 148.528 321.92 148.933 322.176 149.456L321.008 150.112C320.72 149.429 320.149 149.088 319.296 149.088C318.901 149.088 318.565 149.184 318.288 149.376C318.01 149.557 317.872 149.819 317.872 150.16ZM324.708 156.176C324.42 156.176 324.175 156.075 323.972 155.872C323.769 155.669 323.668 155.424 323.668 155.136C323.668 154.848 323.769 154.603 323.972 154.4C324.175 154.197 324.42 154.096 324.708 154.096C325.007 154.096 325.252 154.197 325.444 154.4C325.647 154.603 325.748 154.848 325.748 155.136C325.748 155.424 325.647 155.669 325.444 155.872C325.252 156.075 325.007 156.176 324.708 156.176ZM7.70001 174.192C8.21201 174.437 8.61734 174.789 8.91601 175.248C9.22534 175.707 9.38001 176.235 9.38001 176.832C9.38001 177.728 9.06534 178.48 8.43601 179.088C7.80667 179.696 7.03867 180 6.13201 180H1.30001V168.8H5.78001C6.65467 168.8 7.39601 169.093 8.00401 169.68C8.61201 170.267 8.91601 170.992 8.91601 171.856C8.91601 172.848 8.51067 173.627 7.70001 174.192ZM5.78001 170.192H2.78801V173.616H5.78001C6.24934 173.616 6.64401 173.451 6.96401 173.12C7.28401 172.789 7.44401 172.384 7.44401 171.904C7.44401 171.435 7.27867 171.035 6.94801 170.704C6.62801 170.363 6.23867 170.192 5.78001 170.192ZM6.13201 178.608C6.63334 178.608 7.05467 178.432 7.39601 178.08C7.73734 177.728 7.90801 177.296 7.90801 176.784C7.90801 176.283 7.73201 175.856 7.38001 175.504C7.03867 175.152 6.62267 174.976 6.13201 174.976H2.78801V178.608H6.13201ZM12.3918 173.344C12.8504 172.352 13.6824 171.856 14.8878 171.856V173.312C14.2051 173.28 13.6184 173.461 13.1278 173.856C12.6371 174.251 12.3918 174.885 12.3918 175.76V180H10.9998V172H12.3918V173.344ZM16.9538 170.544C16.6871 170.544 16.4631 170.453 16.2818 170.272C16.1004 170.091 16.0098 169.872 16.0098 169.616C16.0098 169.36 16.1004 169.141 16.2818 168.96C16.4631 168.768 16.6871 168.672 16.9538 168.672C17.2098 168.672 17.4284 168.768 17.6098 168.96C17.7911 169.141 17.8818 169.36 17.8818 169.616C17.8818 169.872 17.7911 170.091 17.6098 170.272C17.4284 170.453 17.2098 170.544 16.9538 170.544ZM16.2498 180V172H17.6418V180H16.2498ZM23.7494 171.792C24.688 171.792 25.44 172.091 26.0054 172.688C26.5707 173.275 26.8534 174.075 26.8534 175.088V180H25.4614V175.168C25.4614 174.517 25.2854 174.016 24.9334 173.664C24.5814 173.301 24.096 173.12 23.4774 173.12C22.784 173.12 22.224 173.339 21.7974 173.776C21.3707 174.203 21.1574 174.864 21.1574 175.76V180H19.7654V172H21.1574V173.152C21.7227 172.245 22.5867 171.792 23.7494 171.792ZM35.4366 172H36.8126V179.664C36.8126 180.848 36.4126 181.765 35.6126 182.416C34.8126 183.077 33.8526 183.408 32.7326 183.408C31.8366 183.408 31.0633 183.237 30.4126 182.896C29.762 182.565 29.2713 182.085 28.9406 181.456L30.1566 180.768C30.594 181.664 31.4633 182.112 32.7646 182.112C33.5966 182.112 34.2473 181.893 34.7166 181.456C35.1966 181.019 35.4366 180.421 35.4366 179.664V178.528C34.7326 179.595 33.73 180.128 32.4286 180.128C31.2873 180.128 30.322 179.723 29.5326 178.912C28.7433 178.101 28.3486 177.115 28.3486 175.952C28.3486 174.789 28.7433 173.808 29.5326 173.008C30.322 172.197 31.2873 171.792 32.4286 171.792C33.7406 171.792 34.7433 172.32 35.4366 173.376V172ZM30.5566 177.984C31.1006 178.528 31.778 178.8 32.5886 178.8C33.3993 178.8 34.0766 178.528 34.6206 177.984C35.1646 177.44 35.4366 176.763 35.4366 175.952C35.4366 175.152 35.1646 174.48 34.6206 173.936C34.0766 173.392 33.3993 173.12 32.5886 173.12C31.778 173.12 31.1006 173.392 30.5566 173.936C30.0126 174.48 29.7406 175.152 29.7406 175.952C29.7406 176.763 30.0126 177.44 30.5566 177.984ZM48.5056 172H49.9936L46.7296 180.496C46.3883 181.403 45.9083 182.091 45.2896 182.56C44.6816 183.04 43.9776 183.253 43.1776 183.2V181.904C44.159 181.979 44.879 181.435 45.3376 180.272L45.4816 179.968L41.9936 172H43.4816L46.2016 178.272L48.5056 172ZM57.5955 178.992C56.7742 179.803 55.7768 180.208 54.6035 180.208C53.4302 180.208 52.4328 179.803 51.6115 178.992C50.8008 178.181 50.3955 177.184 50.3955 176C50.3955 174.816 50.8008 173.819 51.6115 173.008C52.4328 172.197 53.4302 171.792 54.6035 171.792C55.7768 171.792 56.7742 172.197 57.5955 173.008C58.4168 173.819 58.8275 174.816 58.8275 176C58.8275 177.184 58.4168 178.181 57.5955 178.992ZM54.6035 178.848C55.4035 178.848 56.0755 178.576 56.6195 178.032C57.1635 177.488 57.4355 176.811 57.4355 176C57.4355 175.189 57.1635 174.512 56.6195 173.968C56.0755 173.424 55.4035 173.152 54.6035 173.152C53.8142 173.152 53.1475 173.424 52.6035 173.968C52.0595 174.512 51.7875 175.189 51.7875 176C51.7875 176.811 52.0595 177.488 52.6035 178.032C53.1475 178.576 53.8142 178.848 54.6035 178.848ZM65.9885 172H67.3805V180H65.9885V178.848C65.4232 179.755 64.5592 180.208 63.3965 180.208C62.4578 180.208 61.7058 179.915 61.1405 179.328C60.5752 178.731 60.2925 177.925 60.2925 176.912V172H61.6845V176.832C61.6845 177.483 61.8605 177.989 62.2125 178.352C62.5645 178.704 63.0498 178.88 63.6685 178.88C64.3618 178.88 64.9218 178.667 65.3485 178.24C65.7752 177.803 65.9885 177.136 65.9885 176.24V172ZM70.8918 173.344C71.3504 172.352 72.1824 171.856 73.3878 171.856V173.312C72.7051 173.28 72.1184 173.461 71.6278 173.856C71.1371 174.251 70.8918 174.885 70.8918 175.76V180H69.4998V172H70.8918V173.344ZM85.3738 172H86.7658V180H85.3738V178.624C84.6804 179.68 83.6724 180.208 82.3498 180.208C81.2298 180.208 80.2751 179.803 79.4858 178.992C78.6964 178.171 78.3018 177.173 78.3018 176C78.3018 174.827 78.6964 173.835 79.4858 173.024C80.2751 172.203 81.2298 171.792 82.3498 171.792C83.6724 171.792 84.6804 172.32 85.3738 173.376V172ZM82.5258 178.864C83.3364 178.864 84.0138 178.592 84.5578 178.048C85.1018 177.493 85.3738 176.811 85.3738 176C85.3738 175.189 85.1018 174.512 84.5578 173.968C84.0138 173.413 83.3364 173.136 82.5258 173.136C81.7258 173.136 81.0538 173.413 80.5098 173.968C79.9658 174.512 79.6938 175.189 79.6938 176C79.6938 176.811 79.9658 177.493 80.5098 178.048C81.0538 178.592 81.7258 178.864 82.5258 178.864ZM94.3948 172H95.7868V180H94.3948V178.848C93.8294 179.755 92.9654 180.208 91.8028 180.208C90.8641 180.208 90.1121 179.915 89.5468 179.328C88.9814 178.731 88.6988 177.925 88.6988 176.912V172H90.0908V176.832C90.0908 177.483 90.2668 177.989 90.6188 178.352C90.9708 178.704 91.4561 178.88 92.0748 178.88C92.7681 178.88 93.3281 178.667 93.7548 178.24C94.1814 177.803 94.3948 177.136 94.3948 176.24V172ZM104.53 168.8H105.922V180H104.53V178.624C103.837 179.68 102.829 180.208 101.506 180.208C100.386 180.208 99.4313 179.803 98.642 178.992C97.8527 178.171 97.458 177.173 97.458 176C97.458 174.827 97.8527 173.835 98.642 173.024C99.4313 172.203 100.386 171.792 101.506 171.792C102.829 171.792 103.837 172.32 104.53 173.376V168.8ZM101.682 178.864C102.493 178.864 103.17 178.592 103.714 178.048C104.258 177.493 104.53 176.811 104.53 176C104.53 175.189 104.258 174.512 103.714 173.968C103.17 173.413 102.493 173.136 101.682 173.136C100.882 173.136 100.21 173.413 99.666 173.968C99.122 174.512 98.85 175.189 98.85 176C98.85 176.811 99.122 177.493 99.666 178.048C100.21 178.592 100.882 178.864 101.682 178.864ZM108.735 170.544C108.468 170.544 108.244 170.453 108.063 170.272C107.882 170.091 107.791 169.872 107.791 169.616C107.791 169.36 107.882 169.141 108.063 168.96C108.244 168.768 108.468 168.672 108.735 168.672C108.991 168.672 109.21 168.768 109.391 168.96C109.572 169.141 109.663 169.36 109.663 169.616C109.663 169.872 109.572 170.091 109.391 170.272C109.21 170.453 108.991 170.544 108.735 170.544ZM108.031 180V172H109.423V180H108.031ZM112.523 176.64C112.661 177.355 112.987 177.909 113.499 178.304C114.021 178.699 114.661 178.896 115.419 178.896C116.475 178.896 117.243 178.507 117.723 177.728L118.907 178.4C118.128 179.605 116.955 180.208 115.387 180.208C114.117 180.208 113.083 179.813 112.283 179.024C111.493 178.224 111.099 177.216 111.099 176C111.099 174.795 111.488 173.792 112.267 172.992C113.045 172.192 114.053 171.792 115.291 171.792C116.464 171.792 117.419 172.208 118.155 173.04C118.901 173.861 119.275 174.853 119.275 176.016C119.275 176.219 119.259 176.427 119.227 176.64H112.523ZM115.291 173.104C114.544 173.104 113.925 173.317 113.435 173.744C112.944 174.16 112.64 174.72 112.523 175.424H117.867C117.749 174.667 117.451 174.091 116.971 173.696C116.491 173.301 115.931 173.104 115.291 173.104ZM124.859 171.792C125.797 171.792 126.549 172.091 127.115 172.688C127.68 173.275 127.963 174.075 127.963 175.088V180H126.571V175.168C126.571 174.517 126.395 174.016 126.043 173.664C125.691 173.301 125.205 173.12 124.587 173.12C123.893 173.12 123.333 173.339 122.907 173.776C122.48 174.203 122.267 174.864 122.267 175.76V180H120.875V172H122.267V173.152C122.832 172.245 123.696 171.792 124.859 171.792ZM133.666 180.208C132.461 180.208 131.458 179.808 130.658 179.008C129.858 178.197 129.458 177.195 129.458 176C129.458 174.805 129.858 173.808 130.658 173.008C131.458 172.197 132.461 171.792 133.666 171.792C134.455 171.792 135.165 171.984 135.794 172.368C136.423 172.741 136.893 173.248 137.202 173.888L136.034 174.56C135.831 174.133 135.517 173.792 135.09 173.536C134.674 173.28 134.199 173.152 133.666 173.152C132.866 173.152 132.194 173.424 131.65 173.968C131.117 174.512 130.85 175.189 130.85 176C130.85 176.8 131.117 177.472 131.65 178.016C132.194 178.56 132.866 178.832 133.666 178.832C134.199 178.832 134.679 178.709 135.106 178.464C135.533 178.208 135.858 177.867 136.082 177.44L137.266 178.128C136.925 178.757 136.434 179.264 135.794 179.648C135.154 180.021 134.445 180.208 133.666 180.208ZM139.507 176.64C139.646 177.355 139.971 177.909 140.483 178.304C141.006 178.699 141.646 178.896 142.403 178.896C143.459 178.896 144.227 178.507 144.707 177.728L145.891 178.4C145.112 179.605 143.939 180.208 142.371 180.208C141.102 180.208 140.067 179.813 139.267 179.024C138.478 178.224 138.083 177.216 138.083 176C138.083 174.795 138.472 173.792 139.251 172.992C140.03 172.192 141.038 171.792 142.275 171.792C143.448 171.792 144.403 172.208 145.139 173.04C145.886 173.861 146.259 174.853 146.259 176.016C146.259 176.219 146.243 176.427 146.211 176.64H139.507ZM142.275 173.104C141.528 173.104 140.91 173.317 140.419 173.744C139.928 174.16 139.624 174.72 139.507 175.424H144.851C144.734 174.667 144.435 174.091 143.955 173.696C143.475 173.301 142.915 173.104 142.275 173.104ZM158.483 172H159.875V180H158.483V178.624C157.79 179.68 156.782 180.208 155.459 180.208C154.339 180.208 153.384 179.803 152.595 178.992C151.806 178.171 151.411 177.173 151.411 176C151.411 174.827 151.806 173.835 152.595 173.024C153.384 172.203 154.339 171.792 155.459 171.792C156.782 171.792 157.79 172.32 158.483 173.376V172ZM155.635 178.864C156.446 178.864 157.123 178.592 157.667 178.048C158.211 177.493 158.483 176.811 158.483 176C158.483 175.189 158.211 174.512 157.667 173.968C157.123 173.413 156.446 173.136 155.635 173.136C154.835 173.136 154.163 173.413 153.619 173.968C153.075 174.512 152.803 175.189 152.803 176C152.803 176.811 153.075 177.493 153.619 178.048C154.163 178.592 154.835 178.864 155.635 178.864ZM165.968 171.792C166.907 171.792 167.659 172.091 168.224 172.688C168.789 173.275 169.072 174.075 169.072 175.088V180H167.68V175.168C167.68 174.517 167.504 174.016 167.152 173.664C166.8 173.301 166.315 173.12 165.696 173.12C165.003 173.12 164.443 173.339 164.016 173.776C163.589 174.203 163.376 174.864 163.376 175.76V180H161.984V172H163.376V173.152C163.941 172.245 164.805 171.792 165.968 171.792ZM177.639 168.8H179.031V180H177.639V178.624C176.946 179.68 175.938 180.208 174.615 180.208C173.495 180.208 172.541 179.803 171.751 178.992C170.962 178.171 170.567 177.173 170.567 176C170.567 174.827 170.962 173.835 171.751 173.024C172.541 172.203 173.495 171.792 174.615 171.792C175.938 171.792 176.946 172.32 177.639 173.376V168.8ZM174.791 178.864C175.602 178.864 176.279 178.592 176.823 178.048C177.367 177.493 177.639 176.811 177.639 176C177.639 175.189 177.367 174.512 176.823 173.968C176.279 173.413 175.602 173.136 174.791 173.136C173.991 173.136 173.319 173.413 172.775 173.968C172.231 174.512 171.959 175.189 171.959 176C171.959 176.811 172.231 177.493 172.775 178.048C173.319 178.592 173.991 178.864 174.791 178.864ZM188.9 180.208C187.695 180.208 186.692 179.808 185.892 179.008C185.092 178.197 184.692 177.195 184.692 176C184.692 174.805 185.092 173.808 185.892 173.008C186.692 172.197 187.695 171.792 188.9 171.792C189.69 171.792 190.399 171.984 191.028 172.368C191.658 172.741 192.127 173.248 192.436 173.888L191.268 174.56C191.066 174.133 190.751 173.792 190.324 173.536C189.908 173.28 189.434 173.152 188.9 173.152C188.1 173.152 187.428 173.424 186.884 173.968C186.351 174.512 186.084 175.189 186.084 176C186.084 176.8 186.351 177.472 186.884 178.016C187.428 178.56 188.1 178.832 188.9 178.832C189.434 178.832 189.914 178.709 190.34 178.464C190.767 178.208 191.092 177.867 191.316 177.44L192.5 178.128C192.159 178.757 191.668 179.264 191.028 179.648C190.388 180.021 189.679 180.208 188.9 180.208ZM199.41 172H200.802V180H199.41V178.848C198.845 179.755 197.981 180.208 196.818 180.208C195.88 180.208 195.128 179.915 194.562 179.328C193.997 178.731 193.714 177.925 193.714 176.912V172H195.106V176.832C195.106 177.483 195.282 177.989 195.634 178.352C195.986 178.704 196.472 178.88 197.09 178.88C197.784 178.88 198.344 178.667 198.77 178.24C199.197 177.803 199.41 177.136 199.41 176.24V172ZM204.106 174.16C204.106 174.469 204.261 174.72 204.57 174.912C204.879 175.093 205.253 175.243 205.69 175.36C206.127 175.467 206.565 175.595 207.002 175.744C207.439 175.883 207.813 176.128 208.122 176.48C208.431 176.821 208.586 177.264 208.586 177.808C208.586 178.533 208.303 179.115 207.738 179.552C207.183 179.989 206.469 180.208 205.594 180.208C204.815 180.208 204.149 180.037 203.594 179.696C203.039 179.355 202.645 178.901 202.41 178.336L203.61 177.648C203.738 178.032 203.978 178.336 204.33 178.56C204.682 178.784 205.103 178.896 205.594 178.896C206.053 178.896 206.431 178.811 206.73 178.64C207.029 178.459 207.178 178.181 207.178 177.808C207.178 177.499 207.023 177.253 206.714 177.072C206.405 176.88 206.031 176.731 205.594 176.624C205.157 176.507 204.719 176.373 204.282 176.224C203.845 176.075 203.471 175.829 203.162 175.488C202.853 175.147 202.698 174.709 202.698 174.176C202.698 173.483 202.965 172.912 203.498 172.464C204.042 172.016 204.719 171.792 205.53 171.792C206.181 171.792 206.757 171.941 207.258 172.24C207.77 172.528 208.154 172.933 208.41 173.456L207.242 174.112C206.954 173.429 206.383 173.088 205.53 173.088C205.135 173.088 204.799 173.184 204.522 173.376C204.245 173.557 204.106 173.819 204.106 174.16ZM214.274 173.344H212.146V177.68C212.146 178.075 212.22 178.357 212.37 178.528C212.53 178.688 212.77 178.773 213.09 178.784C213.41 178.784 213.804 178.773 214.274 178.752V180C213.058 180.16 212.167 180.064 211.602 179.712C211.036 179.349 210.754 178.672 210.754 177.68V173.344H209.17V172H210.754V170.176L212.146 169.76V172H214.274V173.344ZM222.267 178.992C221.446 179.803 220.449 180.208 219.275 180.208C218.102 180.208 217.105 179.803 216.283 178.992C215.473 178.181 215.067 177.184 215.067 176C215.067 174.816 215.473 173.819 216.283 173.008C217.105 172.197 218.102 171.792 219.275 171.792C220.449 171.792 221.446 172.197 222.267 173.008C223.089 173.819 223.499 174.816 223.499 176C223.499 177.184 223.089 178.181 222.267 178.992ZM219.275 178.848C220.075 178.848 220.747 178.576 221.291 178.032C221.835 177.488 222.107 176.811 222.107 176C222.107 175.189 221.835 174.512 221.291 173.968C220.747 173.424 220.075 173.152 219.275 173.152C218.486 173.152 217.819 173.424 217.275 173.968C216.731 174.512 216.459 175.189 216.459 176C216.459 176.811 216.731 177.488 217.275 178.032C217.819 178.576 218.486 178.848 219.275 178.848ZM233.78 171.792C234.676 171.792 235.402 172.085 235.956 172.672C236.511 173.248 236.788 174.032 236.788 175.024V180H235.396V175.072C235.396 174.453 235.236 173.973 234.916 173.632C234.596 173.291 234.17 173.12 233.636 173.12C233.039 173.12 232.559 173.323 232.196 173.728C231.844 174.123 231.668 174.731 231.668 175.552V180H230.276V175.072C230.276 174.453 230.122 173.973 229.812 173.632C229.514 173.291 229.103 173.12 228.58 173.12C227.994 173.12 227.503 173.323 227.108 173.728C226.724 174.133 226.532 174.741 226.532 175.552V180H225.14V172H226.532V173.072C227.076 172.219 227.871 171.792 228.916 171.792C229.994 171.792 230.778 172.245 231.268 173.152C231.823 172.245 232.66 171.792 233.78 171.792ZM239.695 176.64C239.833 177.355 240.159 177.909 240.671 178.304C241.193 178.699 241.833 178.896 242.591 178.896C243.647 178.896 244.415 178.507 244.895 177.728L246.079 178.4C245.3 179.605 244.127 180.208 242.559 180.208C241.289 180.208 240.255 179.813 239.455 179.024C238.665 178.224 238.271 177.216 238.271 176C238.271 174.795 238.66 173.792 239.439 172.992C240.217 172.192 241.225 171.792 242.463 171.792C243.636 171.792 244.591 172.208 245.327 173.04C246.073 173.861 246.447 174.853 246.447 176.016C246.447 176.219 246.431 176.427 246.399 176.64H239.695ZM242.463 173.104C241.716 173.104 241.097 173.317 240.607 173.744C240.116 174.16 239.812 174.72 239.695 175.424H245.039C244.921 174.667 244.623 174.091 244.143 173.696C243.663 173.301 243.103 173.104 242.463 173.104ZM249.439 173.344C249.897 172.352 250.729 171.856 251.935 171.856V173.312C251.252 173.28 250.665 173.461 250.175 173.856C249.684 174.251 249.439 174.885 249.439 175.76V180H248.047V172H249.439V173.344ZM254.2 174.16C254.2 174.469 254.354 174.72 254.664 174.912C254.973 175.093 255.346 175.243 255.784 175.36C256.221 175.467 256.658 175.595 257.096 175.744C257.533 175.883 257.906 176.128 258.216 176.48C258.525 176.821 258.68 177.264 258.68 177.808C258.68 178.533 258.397 179.115 257.832 179.552C257.277 179.989 256.562 180.208 255.688 180.208C254.909 180.208 254.242 180.037 253.688 179.696C253.133 179.355 252.738 178.901 252.504 178.336L253.704 177.648C253.832 178.032 254.072 178.336 254.424 178.56C254.776 178.784 255.197 178.896 255.688 178.896C256.146 178.896 256.525 178.811 256.824 178.64C257.122 178.459 257.272 178.181 257.272 177.808C257.272 177.499 257.117 177.253 256.808 177.072C256.498 176.88 256.125 176.731 255.688 176.624C255.25 176.507 254.813 176.373 254.376 176.224C253.938 176.075 253.565 175.829 253.256 175.488C252.946 175.147 252.792 174.709 252.792 174.176C252.792 173.483 253.058 172.912 253.592 172.464C254.136 172.016 254.813 171.792 255.624 171.792C256.274 171.792 256.85 171.941 257.352 172.24C257.864 172.528 258.248 172.933 258.504 173.456L257.336 174.112C257.048 173.429 256.477 173.088 255.624 173.088C255.229 173.088 254.893 173.184 254.616 173.376C254.338 173.557 254.2 173.819 254.2 174.16ZM268.68 173.344H266.552V177.68C266.552 178.075 266.627 178.357 266.776 178.528C266.936 178.688 267.176 178.773 267.496 178.784C267.816 178.784 268.211 178.773 268.68 178.752V180C267.464 180.16 266.573 180.064 266.008 179.712C265.443 179.349 265.16 178.672 265.16 177.68V173.344H263.576V172H265.16V170.176L266.552 169.76V172H268.68V173.344ZM276.674 178.992C275.852 179.803 274.855 180.208 273.682 180.208C272.508 180.208 271.511 179.803 270.69 178.992C269.879 178.181 269.474 177.184 269.474 176C269.474 174.816 269.879 173.819 270.69 173.008C271.511 172.197 272.508 171.792 273.682 171.792C274.855 171.792 275.852 172.197 276.674 173.008C277.495 173.819 277.906 174.816 277.906 176C277.906 177.184 277.495 178.181 276.674 178.992ZM273.682 178.848C274.482 178.848 275.154 178.576 275.698 178.032C276.242 177.488 276.514 176.811 276.514 176C276.514 175.189 276.242 174.512 275.698 173.968C275.154 173.424 274.482 173.152 273.682 173.152C272.892 173.152 272.226 173.424 271.682 173.968C271.138 174.512 270.866 175.189 270.866 176C270.866 176.811 271.138 177.488 271.682 178.032C272.226 178.576 272.892 178.848 273.682 178.848ZM289.131 172H290.619L287.355 180.496C287.013 181.403 286.533 182.091 285.915 182.56C285.307 183.04 284.603 183.253 283.803 183.2V181.904C284.784 181.979 285.504 181.435 285.963 180.272L286.107 179.968L282.619 172H284.107L286.827 178.272L289.131 172ZM298.221 178.992C297.399 179.803 296.402 180.208 295.229 180.208C294.055 180.208 293.058 179.803 292.237 178.992C291.426 178.181 291.021 177.184 291.021 176C291.021 174.816 291.426 173.819 292.237 173.008C293.058 172.197 294.055 171.792 295.229 171.792C296.402 171.792 297.399 172.197 298.221 173.008C299.042 173.819 299.453 174.816 299.453 176C299.453 177.184 299.042 178.181 298.221 178.992ZM295.229 178.848C296.029 178.848 296.701 178.576 297.245 178.032C297.789 177.488 298.061 176.811 298.061 176C298.061 175.189 297.789 174.512 297.245 173.968C296.701 173.424 296.029 173.152 295.229 173.152C294.439 173.152 293.773 173.424 293.229 173.968C292.685 174.512 292.413 175.189 292.413 176C292.413 176.811 292.685 177.488 293.229 178.032C293.773 178.576 294.439 178.848 295.229 178.848ZM306.614 172H308.006V180H306.614V178.848C306.048 179.755 305.184 180.208 304.022 180.208C303.083 180.208 302.331 179.915 301.766 179.328C301.2 178.731 300.918 177.925 300.918 176.912V172H302.31V176.832C302.31 177.483 302.486 177.989 302.838 178.352C303.19 178.704 303.675 178.88 304.294 178.88C304.987 178.88 305.547 178.667 305.974 178.24C306.4 177.803 306.614 177.136 306.614 176.24V172ZM311.517 173.344C311.975 172.352 312.807 171.856 314.013 171.856V173.312C313.33 173.28 312.743 173.461 312.253 173.856C311.762 174.251 311.517 174.885 311.517 175.76V180H310.125V172H311.517V173.344ZM7.78001 192.8H9.17201V204H7.78001V202.624C7.08667 203.68 6.07867 204.208 4.75601 204.208C3.63601 204.208 2.68134 203.803 1.89201 202.992C1.10267 202.171 0.708006 201.173 0.708006 200C0.708006 198.827 1.10267 197.835 1.89201 197.024C2.68134 196.203 3.63601 195.792 4.75601 195.792C6.07867 195.792 7.08667 196.32 7.78001 197.376V192.8ZM4.93201 202.864C5.74267 202.864 6.42001 202.592 6.96401 202.048C7.50801 201.493 7.78001 200.811 7.78001 200C7.78001 199.189 7.50801 198.512 6.96401 197.968C6.42001 197.413 5.74267 197.136 4.93201 197.136C4.13201 197.136 3.46001 197.413 2.91601 197.968C2.37201 198.512 2.10001 199.189 2.10001 200C2.10001 200.811 2.37201 201.493 2.91601 202.048C3.46001 202.592 4.13201 202.864 4.93201 202.864ZM18.033 202.992C17.2117 203.803 16.2143 204.208 15.041 204.208C13.8677 204.208 12.8703 203.803 12.049 202.992C11.2383 202.181 10.833 201.184 10.833 200C10.833 198.816 11.2383 197.819 12.049 197.008C12.8703 196.197 13.8677 195.792 15.041 195.792C16.2143 195.792 17.2117 196.197 18.033 197.008C18.8543 197.819 19.265 198.816 19.265 200C19.265 201.184 18.8543 202.181 18.033 202.992ZM15.041 202.848C15.841 202.848 16.513 202.576 17.057 202.032C17.601 201.488 17.873 200.811 17.873 200C17.873 199.189 17.601 198.512 17.057 197.968C16.513 197.424 15.841 197.152 15.041 197.152C14.2517 197.152 13.585 197.424 13.041 197.968C12.497 198.512 12.225 199.189 12.225 200C12.225 200.811 12.497 201.488 13.041 202.032C13.585 202.576 14.2517 202.848 15.041 202.848ZM27.658 202.992C26.8367 203.803 25.8393 204.208 24.666 204.208C23.4927 204.208 22.4953 203.803 21.674 202.992C20.8633 202.181 20.458 201.184 20.458 200C20.458 198.816 20.8633 197.819 21.674 197.008C22.4953 196.197 23.4927 195.792 24.666 195.792C25.8393 195.792 26.8367 196.197 27.658 197.008C28.4793 197.819 28.89 198.816 28.89 200C28.89 201.184 28.4793 202.181 27.658 202.992ZM24.666 202.848C25.466 202.848 26.138 202.576 26.682 202.032C27.226 201.488 27.498 200.811 27.498 200C27.498 199.189 27.226 198.512 26.682 197.968C26.138 197.424 25.466 197.152 24.666 197.152C23.8767 197.152 23.21 197.424 22.666 197.968C22.122 198.512 21.85 199.189 21.85 200C21.85 200.811 22.122 201.488 22.666 202.032C23.21 202.576 23.8767 202.848 24.666 202.848ZM31.923 197.344C32.3817 196.352 33.2137 195.856 34.419 195.856V197.312C33.7363 197.28 33.1497 197.461 32.659 197.856C32.1683 198.251 31.923 198.885 31.923 199.76V204H30.531V196H31.923V197.344ZM36.6841 198.16C36.6841 198.469 36.8388 198.72 37.1481 198.912C37.4575 199.093 37.8308 199.243 38.2681 199.36C38.7055 199.467 39.1428 199.595 39.5801 199.744C40.0175 199.883 40.3908 200.128 40.7001 200.48C41.0095 200.821 41.1641 201.264 41.1641 201.808C41.1641 202.533 40.8815 203.115 40.3161 203.552C39.7615 203.989 39.0468 204.208 38.1721 204.208C37.3935 204.208 36.7268 204.037 36.1721 203.696C35.6175 203.355 35.2228 202.901 34.9881 202.336L36.1881 201.648C36.3161 202.032 36.5561 202.336 36.9081 202.56C37.2601 202.784 37.6815 202.896 38.1721 202.896C38.6308 202.896 39.0095 202.811 39.3081 202.64C39.6068 202.459 39.7561 202.181 39.7561 201.808C39.7561 201.499 39.6015 201.253 39.2921 201.072C38.9828 200.88 38.6095 200.731 38.1721 200.624C37.7348 200.507 37.2975 200.373 36.8601 200.224C36.4228 200.075 36.0495 199.829 35.7401 199.488C35.4308 199.147 35.2761 198.709 35.2761 198.176C35.2761 197.483 35.5428 196.912 36.0761 196.464C36.6201 196.016 37.2975 195.792 38.1081 195.792C38.7588 195.792 39.3348 195.941 39.8361 196.24C40.3481 196.528 40.7321 196.933 40.9881 197.456L39.8201 198.112C39.5321 197.429 38.9615 197.088 38.1081 197.088C37.7135 197.088 37.3775 197.184 37.1001 197.376C36.8228 197.557 36.6841 197.819 36.6841 198.16ZM46.8518 197.344H44.7238V201.68C44.7238 202.075 44.7984 202.357 44.9478 202.528C45.1078 202.688 45.3478 202.773 45.6678 202.784C45.9878 202.784 46.3824 202.773 46.8518 202.752V204C45.6358 204.16 44.7451 204.064 44.1798 203.712C43.6144 203.349 43.3318 202.672 43.3318 201.68V197.344H41.7478V196H43.3318V194.176L44.7238 193.76V196H46.8518V197.344ZM49.0695 200.64C49.2082 201.355 49.5335 201.909 50.0455 202.304C50.5682 202.699 51.2082 202.896 51.9655 202.896C53.0215 202.896 53.7895 202.507 54.2695 201.728L55.4535 202.4C54.6748 203.605 53.5015 204.208 51.9335 204.208C50.6642 204.208 49.6295 203.813 48.8295 203.024C48.0402 202.224 47.6455 201.216 47.6455 200C47.6455 198.795 48.0348 197.792 48.8135 196.992C49.5922 196.192 50.6002 195.792 51.8375 195.792C53.0108 195.792 53.9655 196.208 54.7015 197.04C55.4482 197.861 55.8215 198.853 55.8215 200.016C55.8215 200.219 55.8055 200.427 55.7735 200.64H49.0695ZM51.8375 197.104C51.0908 197.104 50.4722 197.317 49.9815 197.744C49.4908 198.16 49.1868 198.72 49.0695 199.424H54.4135C54.2962 198.667 53.9975 198.091 53.5175 197.696C53.0375 197.301 52.4775 197.104 51.8375 197.104ZM61.8376 195.792C62.9576 195.792 63.9123 196.203 64.7016 197.024C65.491 197.835 65.8856 198.827 65.8856 200C65.8856 201.173 65.491 202.171 64.7016 202.992C63.9123 203.803 62.9576 204.208 61.8376 204.208C60.515 204.208 59.507 203.68 58.8136 202.624V207.2H57.4216V196H58.8136V197.376C59.507 196.32 60.515 195.792 61.8376 195.792ZM61.6616 202.864C62.4616 202.864 63.1336 202.592 63.6776 202.048C64.2216 201.493 64.4936 200.811 64.4936 200C64.4936 199.189 64.2216 198.512 63.6776 197.968C63.1336 197.413 62.4616 197.136 61.6616 197.136C60.851 197.136 60.1736 197.413 59.6296 197.968C59.0856 198.512 58.8136 199.189 58.8136 200C58.8136 200.811 59.0856 201.493 59.6296 202.048C60.1736 202.592 60.851 202.864 61.6616 202.864ZM80.9706 196H82.4266L79.9466 204H78.5226L76.6506 198.08L74.7786 204H73.3546L70.8746 196H72.3306L74.0906 202.08L75.9786 196H77.3226L79.2106 202.096L80.9706 196ZM84.5631 194.544C84.2965 194.544 84.0725 194.453 83.8911 194.272C83.7098 194.091 83.6191 193.872 83.6191 193.616C83.6191 193.36 83.7098 193.141 83.8911 192.96C84.0725 192.768 84.2965 192.672 84.5631 192.672C84.8191 192.672 85.0378 192.768 85.2191 192.96C85.4005 193.141 85.4911 193.36 85.4911 193.616C85.4911 193.872 85.4005 194.091 85.2191 194.272C85.0378 194.453 84.8191 194.544 84.5631 194.544ZM83.8591 204V196H85.2511V204H83.8591ZM91.7268 197.344H89.5988V201.68C89.5988 202.075 89.6734 202.357 89.8228 202.528C89.9828 202.688 90.2228 202.773 90.5428 202.784C90.8628 202.784 91.2574 202.773 91.7268 202.752V204C90.5108 204.16 89.6201 204.064 89.0548 203.712C88.4894 203.349 88.2068 202.672 88.2068 201.68V197.344H86.6228V196H88.2068V194.176L89.5988 193.76V196H91.7268V197.344ZM97.3588 195.792C98.2974 195.792 99.0494 196.091 99.6148 196.688C100.18 197.275 100.463 198.075 100.463 199.088V204H99.0708V199.168C99.0708 198.517 98.8948 198.016 98.5428 197.664C98.1908 197.301 97.7054 197.12 97.0868 197.12C96.3934 197.12 95.8334 197.339 95.4068 197.776C94.9801 198.203 94.7668 198.864 94.7668 199.76V204H93.3748V192.8H94.7668V197.152C95.3321 196.245 96.1961 195.792 97.3588 195.792ZM110.758 197.344H108.63V201.68C108.63 202.075 108.705 202.357 108.854 202.528C109.014 202.688 109.254 202.773 109.574 202.784C109.894 202.784 110.289 202.773 110.758 202.752V204C109.542 204.16 108.651 204.064 108.086 203.712C107.521 203.349 107.238 202.672 107.238 201.68V197.344H105.654V196H107.238V194.176L108.63 193.76V196H110.758V197.344ZM116.39 195.792C117.329 195.792 118.081 196.091 118.646 196.688C119.211 197.275 119.494 198.075 119.494 199.088V204H118.102V199.168C118.102 198.517 117.926 198.016 117.574 197.664C117.222 197.301 116.737 197.12 116.118 197.12C115.425 197.12 114.865 197.339 114.438 197.776C114.011 198.203 113.798 198.864 113.798 199.76V204H112.406V192.8H113.798V197.152C114.363 196.245 115.227 195.792 116.39 195.792ZM122.141 194.544C121.875 194.544 121.651 194.453 121.469 194.272C121.288 194.091 121.197 193.872 121.197 193.616C121.197 193.36 121.288 193.141 121.469 192.96C121.651 192.768 121.875 192.672 122.141 192.672C122.397 192.672 122.616 192.768 122.797 192.96C122.979 193.141 123.069 193.36 123.069 193.616C123.069 193.872 122.979 194.091 122.797 194.272C122.616 194.453 122.397 194.544 122.141 194.544ZM121.437 204V196H122.829V204H121.437ZM126.137 198.16C126.137 198.469 126.292 198.72 126.601 198.912C126.911 199.093 127.284 199.243 127.721 199.36C128.159 199.467 128.596 199.595 129.033 199.744C129.471 199.883 129.844 200.128 130.153 200.48C130.463 200.821 130.617 201.264 130.617 201.808C130.617 202.533 130.335 203.115 129.769 203.552C129.215 203.989 128.5 204.208 127.625 204.208C126.847 204.208 126.18 204.037 125.625 203.696C125.071 203.355 124.676 202.901 124.441 202.336L125.641 201.648C125.769 202.032 126.009 202.336 126.361 202.56C126.713 202.784 127.135 202.896 127.625 202.896C128.084 202.896 128.463 202.811 128.761 202.64C129.06 202.459 129.209 202.181 129.209 201.808C129.209 201.499 129.055 201.253 128.745 201.072C128.436 200.88 128.063 200.731 127.625 200.624C127.188 200.507 126.751 200.373 126.313 200.224C125.876 200.075 125.503 199.829 125.193 199.488C124.884 199.147 124.729 198.709 124.729 198.176C124.729 197.483 124.996 196.912 125.529 196.464C126.073 196.016 126.751 195.792 127.561 195.792C128.212 195.792 128.788 195.941 129.289 196.24C129.801 196.528 130.185 196.933 130.441 197.456L129.273 198.112C128.985 197.429 128.415 197.088 127.561 197.088C127.167 197.088 126.831 197.184 126.553 197.376C126.276 197.557 126.137 197.819 126.137 198.16ZM137.465 198.16C137.465 198.469 137.62 198.72 137.929 198.912C138.239 199.093 138.612 199.243 139.049 199.36C139.487 199.467 139.924 199.595 140.361 199.744C140.799 199.883 141.172 200.128 141.481 200.48C141.791 200.821 141.945 201.264 141.945 201.808C141.945 202.533 141.663 203.115 141.097 203.552C140.543 203.989 139.828 204.208 138.953 204.208C138.175 204.208 137.508 204.037 136.953 203.696C136.399 203.355 136.004 202.901 135.769 202.336L136.969 201.648C137.097 202.032 137.337 202.336 137.689 202.56C138.041 202.784 138.463 202.896 138.953 202.896C139.412 202.896 139.791 202.811 140.089 202.64C140.388 202.459 140.537 202.181 140.537 201.808C140.537 201.499 140.383 201.253 140.073 201.072C139.764 200.88 139.391 200.731 138.953 200.624C138.516 200.507 138.079 200.373 137.641 200.224C137.204 200.075 136.831 199.829 136.521 199.488C136.212 199.147 136.057 198.709 136.057 198.176C136.057 197.483 136.324 196.912 136.857 196.464C137.401 196.016 138.079 195.792 138.889 195.792C139.54 195.792 140.116 195.941 140.617 196.24C141.129 196.528 141.513 196.933 141.769 197.456L140.601 198.112C140.313 197.429 139.743 197.088 138.889 197.088C138.495 197.088 138.159 197.184 137.881 197.376C137.604 197.557 137.465 197.819 137.465 198.16ZM147.135 204.208C145.929 204.208 144.927 203.808 144.127 203.008C143.327 202.197 142.927 201.195 142.927 200C142.927 198.805 143.327 197.808 144.127 197.008C144.927 196.197 145.929 195.792 147.135 195.792C147.924 195.792 148.633 195.984 149.263 196.368C149.892 196.741 150.361 197.248 150.671 197.888L149.503 198.56C149.3 198.133 148.985 197.792 148.559 197.536C148.143 197.28 147.668 197.152 147.135 197.152C146.335 197.152 145.663 197.424 145.119 197.968C144.585 198.512 144.319 199.189 144.319 200C144.319 200.8 144.585 201.472 145.119 202.016C145.663 202.56 146.335 202.832 147.135 202.832C147.668 202.832 148.148 202.709 148.575 202.464C149.001 202.208 149.327 201.867 149.551 201.44L150.735 202.128C150.393 202.757 149.903 203.264 149.263 203.648C148.623 204.021 147.913 204.208 147.135 204.208ZM158.624 196H160.016V204H158.624V202.624C157.93 203.68 156.922 204.208 155.6 204.208C154.48 204.208 153.525 203.803 152.736 202.992C151.946 202.171 151.552 201.173 151.552 200C151.552 198.827 151.946 197.835 152.736 197.024C153.525 196.203 154.48 195.792 155.6 195.792C156.922 195.792 157.93 196.32 158.624 197.376V196ZM155.776 202.864C156.586 202.864 157.264 202.592 157.808 202.048C158.352 201.493 158.624 200.811 158.624 200C158.624 199.189 158.352 198.512 157.808 197.968C157.264 197.413 156.586 197.136 155.776 197.136C154.976 197.136 154.304 197.413 153.76 197.968C153.216 198.512 152.944 199.189 152.944 200C152.944 200.811 153.216 201.493 153.76 202.048C154.304 202.592 154.976 202.864 155.776 202.864ZM166.109 195.792C167.047 195.792 167.799 196.091 168.365 196.688C168.93 197.275 169.213 198.075 169.213 199.088V204H167.821V199.168C167.821 198.517 167.645 198.016 167.293 197.664C166.941 197.301 166.455 197.12 165.837 197.12C165.143 197.12 164.583 197.339 164.157 197.776C163.73 198.203 163.517 198.864 163.517 199.76V204H162.125V196H163.517V197.152C164.082 196.245 164.946 195.792 166.109 195.792ZM181.78 196H183.172V204H181.78V202.624C181.087 203.68 180.079 204.208 178.756 204.208C177.636 204.208 176.681 203.803 175.892 202.992C175.103 202.171 174.708 201.173 174.708 200C174.708 198.827 175.103 197.835 175.892 197.024C176.681 196.203 177.636 195.792 178.756 195.792C180.079 195.792 181.087 196.32 181.78 197.376V196ZM178.932 202.864C179.743 202.864 180.42 202.592 180.964 202.048C181.508 201.493 181.78 200.811 181.78 200C181.78 199.189 181.508 198.512 180.964 197.968C180.42 197.413 179.743 197.136 178.932 197.136C178.132 197.136 177.46 197.413 176.916 197.968C176.372 198.512 176.1 199.189 176.1 200C176.1 200.811 176.372 201.493 176.916 202.048C177.46 202.592 178.132 202.864 178.932 202.864ZM189.265 195.792C190.204 195.792 190.956 196.091 191.521 196.688C192.086 197.275 192.369 198.075 192.369 199.088V204H190.977V199.168C190.977 198.517 190.801 198.016 190.449 197.664C190.097 197.301 189.612 197.12 188.993 197.12C188.3 197.12 187.74 197.339 187.313 197.776C186.886 198.203 186.673 198.864 186.673 199.76V204H185.281V196H186.673V197.152C187.238 196.245 188.102 195.792 189.265 195.792ZM200.936 192.8H202.328V204H200.936V202.624C200.243 203.68 199.235 204.208 197.912 204.208C196.792 204.208 195.838 203.803 195.048 202.992C194.259 202.171 193.864 201.173 193.864 200C193.864 198.827 194.259 197.835 195.048 197.024C195.838 196.203 196.792 195.792 197.912 195.792C199.235 195.792 200.243 196.32 200.936 197.376V192.8ZM198.088 202.864C198.899 202.864 199.576 202.592 200.12 202.048C200.664 201.493 200.936 200.811 200.936 200C200.936 199.189 200.664 198.512 200.12 197.968C199.576 197.413 198.899 197.136 198.088 197.136C197.288 197.136 196.616 197.413 196.072 197.968C195.528 198.512 195.256 199.189 195.256 200C195.256 200.811 195.528 201.493 196.072 202.048C196.616 202.592 197.288 202.864 198.088 202.864ZM215.077 196H216.453V203.664C216.453 204.848 216.053 205.765 215.253 206.416C214.453 207.077 213.493 207.408 212.373 207.408C211.477 207.408 210.704 207.237 210.053 206.896C209.403 206.565 208.912 206.085 208.581 205.456L209.797 204.768C210.235 205.664 211.104 206.112 212.405 206.112C213.237 206.112 213.888 205.893 214.357 205.456C214.837 205.019 215.077 204.421 215.077 203.664V202.528C214.373 203.595 213.371 204.128 212.069 204.128C210.928 204.128 209.963 203.723 209.173 202.912C208.384 202.101 207.989 201.115 207.989 199.952C207.989 198.789 208.384 197.808 209.173 197.008C209.963 196.197 210.928 195.792 212.069 195.792C213.381 195.792 214.384 196.32 215.077 197.376V196ZM210.197 201.984C210.741 202.528 211.419 202.8 212.229 202.8C213.04 202.8 213.717 202.528 214.261 201.984C214.805 201.44 215.077 200.763 215.077 199.952C215.077 199.152 214.805 198.48 214.261 197.936C213.717 197.392 213.04 197.12 212.229 197.12C211.419 197.12 210.741 197.392 210.197 197.936C209.653 198.48 209.381 199.152 209.381 199.952C209.381 200.763 209.653 201.44 210.197 201.984ZM225.314 202.992C224.493 203.803 223.496 204.208 222.322 204.208C221.149 204.208 220.152 203.803 219.33 202.992C218.52 202.181 218.114 201.184 218.114 200C218.114 198.816 218.52 197.819 219.33 197.008C220.152 196.197 221.149 195.792 222.322 195.792C223.496 195.792 224.493 196.197 225.314 197.008C226.136 197.819 226.546 198.816 226.546 200C226.546 201.184 226.136 202.181 225.314 202.992ZM222.322 202.848C223.122 202.848 223.794 202.576 224.338 202.032C224.882 201.488 225.154 200.811 225.154 200C225.154 199.189 224.882 198.512 224.338 197.968C223.794 197.424 223.122 197.152 222.322 197.152C221.533 197.152 220.866 197.424 220.322 197.968C219.778 198.512 219.506 199.189 219.506 200C219.506 200.811 219.778 201.488 220.322 202.032C220.866 202.576 221.533 202.848 222.322 202.848ZM233.387 198.16C233.387 198.469 233.542 198.72 233.851 198.912C234.161 199.093 234.534 199.243 234.971 199.36C235.409 199.467 235.846 199.595 236.283 199.744C236.721 199.883 237.094 200.128 237.403 200.48C237.713 200.821 237.867 201.264 237.867 201.808C237.867 202.533 237.585 203.115 237.019 203.552C236.465 203.989 235.75 204.208 234.875 204.208C234.097 204.208 233.43 204.037 232.875 203.696C232.321 203.355 231.926 202.901 231.691 202.336L232.891 201.648C233.019 202.032 233.259 202.336 233.611 202.56C233.963 202.784 234.385 202.896 234.875 202.896C235.334 202.896 235.713 202.811 236.011 202.64C236.31 202.459 236.459 202.181 236.459 201.808C236.459 201.499 236.305 201.253 235.995 201.072C235.686 200.88 235.313 200.731 234.875 200.624C234.438 200.507 234.001 200.373 233.563 200.224C233.126 200.075 232.753 199.829 232.443 199.488C232.134 199.147 231.979 198.709 231.979 198.176C231.979 197.483 232.246 196.912 232.779 196.464C233.323 196.016 234.001 195.792 234.811 195.792C235.462 195.792 236.038 195.941 236.539 196.24C237.051 196.528 237.435 196.933 237.691 197.456L236.523 198.112C236.235 197.429 235.665 197.088 234.811 197.088C234.417 197.088 234.081 197.184 233.803 197.376C233.526 197.557 233.387 197.819 233.387 198.16ZM246.049 202.992C245.227 203.803 244.23 204.208 243.057 204.208C241.883 204.208 240.886 203.803 240.065 202.992C239.254 202.181 238.849 201.184 238.849 200C238.849 198.816 239.254 197.819 240.065 197.008C240.886 196.197 241.883 195.792 243.057 195.792C244.23 195.792 245.227 196.197 246.049 197.008C246.87 197.819 247.281 198.816 247.281 200C247.281 201.184 246.87 202.181 246.049 202.992ZM243.057 202.848C243.857 202.848 244.529 202.576 245.073 202.032C245.617 201.488 245.889 200.811 245.889 200C245.889 199.189 245.617 198.512 245.073 197.968C244.529 197.424 243.857 197.152 243.057 197.152C242.267 197.152 241.601 197.424 241.057 197.968C240.513 198.512 240.241 199.189 240.241 200C240.241 200.811 240.513 201.488 241.057 202.032C241.601 202.576 242.267 202.848 243.057 202.848ZM248.922 204V192.32H250.314V204H248.922ZM257.957 196H259.349V204H257.957V202.848C257.392 203.755 256.528 204.208 255.365 204.208C254.427 204.208 253.675 203.915 253.109 203.328C252.544 202.731 252.261 201.925 252.261 200.912V196H253.653V200.832C253.653 201.483 253.829 201.989 254.181 202.352C254.533 202.704 255.019 202.88 255.637 202.88C256.331 202.88 256.891 202.667 257.317 202.24C257.744 201.803 257.957 201.136 257.957 200.24V196ZM265.821 197.344H263.693V201.68C263.693 202.075 263.767 202.357 263.917 202.528C264.077 202.688 264.317 202.773 264.637 202.784C264.957 202.784 265.351 202.773 265.821 202.752V204C264.605 204.16 263.714 204.064 263.149 203.712C262.583 203.349 262.301 202.672 262.301 201.68V197.344H260.717V196H262.301V194.176L263.693 193.76V196H265.821V197.344ZM268.173 194.544C267.906 194.544 267.682 194.453 267.501 194.272C267.319 194.091 267.229 193.872 267.229 193.616C267.229 193.36 267.319 193.141 267.501 192.96C267.682 192.768 267.906 192.672 268.173 192.672C268.429 192.672 268.647 192.768 268.829 192.96C269.01 193.141 269.101 193.36 269.101 193.616C269.101 193.872 269.01 194.091 268.829 194.272C268.647 194.453 268.429 194.544 268.173 194.544ZM267.469 204V196H268.861V204H267.469ZM277.736 202.992C276.915 203.803 275.917 204.208 274.744 204.208C273.571 204.208 272.573 203.803 271.752 202.992C270.941 202.181 270.536 201.184 270.536 200C270.536 198.816 270.941 197.819 271.752 197.008C272.573 196.197 273.571 195.792 274.744 195.792C275.917 195.792 276.915 196.197 277.736 197.008C278.557 197.819 278.968 198.816 278.968 200C278.968 201.184 278.557 202.181 277.736 202.992ZM274.744 202.848C275.544 202.848 276.216 202.576 276.76 202.032C277.304 201.488 277.576 200.811 277.576 200C277.576 199.189 277.304 198.512 276.76 197.968C276.216 197.424 275.544 197.152 274.744 197.152C273.955 197.152 273.288 197.424 272.744 197.968C272.2 198.512 271.928 199.189 271.928 200C271.928 200.811 272.2 201.488 272.744 202.032C273.288 202.576 273.955 202.848 274.744 202.848ZM284.593 195.792C285.532 195.792 286.284 196.091 286.849 196.688C287.414 197.275 287.697 198.075 287.697 199.088V204H286.305V199.168C286.305 198.517 286.129 198.016 285.777 197.664C285.425 197.301 284.94 197.12 284.321 197.12C283.628 197.12 283.068 197.339 282.641 197.776C282.214 198.203 282.001 198.864 282.001 199.76V204H280.609V196H282.001V197.152C282.566 196.245 283.43 195.792 284.593 195.792ZM290.52 204.176C290.232 204.176 289.987 204.075 289.784 203.872C289.582 203.669 289.48 203.424 289.48 203.136C289.48 202.848 289.582 202.603 289.784 202.4C289.987 202.197 290.232 202.096 290.52 202.096C290.819 202.096 291.064 202.197 291.256 202.4C291.459 202.603 291.56 202.848 291.56 203.136C291.56 203.424 291.459 203.669 291.256 203.872C291.064 204.075 290.819 204.176 290.52 204.176Z" fill="#141414"/>
</svg>
