<svg width="239" height="88" viewBox="0 0 239 88" fill="none" xmlns="http://www.w3.org/2000/svg">
<path d="M21.292 27.16C21.292 29.5067 20.5454 31.4133 19.052 32.88C17.5587 34.32 15.612 35.1867 13.212 35.48V39H10.532V35.52C8.29203 35.36 6.37203 34.7333 4.77203 33.64C3.17203 32.5467 2.02536 31.0667 1.33203 29.2L6.09203 26.44C6.94537 28.5733 8.42537 29.7867 10.532 30.08V23.16C10.5054 23.16 10.492 23.16 10.492 23.16L10.412 23.12C9.4787 22.7733 8.7187 22.4667 8.13203 22.2C7.54536 21.9333 6.85203 21.5467 6.05203 21.04C5.2787 20.5333 4.66536 20.0133 4.21203 19.48C3.78536 18.92 3.3987 18.2133 3.05203 17.36C2.73203 16.5067 2.57203 15.5733 2.57203 14.56C2.57203 12.2133 3.33203 10.3333 4.85203 8.92C6.3987 7.50667 8.29203 6.69333 10.532 6.48V3H13.212V6.56C16.8387 6.98666 19.3987 8.86666 20.892 12.2L16.252 14.92C15.612 13.32 14.5987 12.3467 13.212 12V18.68C15.692 19.6667 17.3587 20.4533 18.212 21.04C20.2654 22.5067 21.292 24.5467 21.292 27.16ZM8.05203 14.6C8.05203 15.1867 8.2387 15.7067 8.61203 16.16C8.98537 16.5867 9.62537 17.0267 10.532 17.48V11.88C9.73203 12.04 9.1187 12.36 8.69203 12.84C8.26536 13.32 8.05203 13.9067 8.05203 14.6ZM13.212 30C14.9187 29.6267 15.772 28.6933 15.772 27.2C15.772 26.5333 15.5587 25.9733 15.132 25.52C14.732 25.0667 14.092 24.64 13.212 24.24V30ZM30.0852 7H34.8852V35H29.3652V12.84L24.0852 14.32L22.7252 9.6L30.0852 7ZM48.9539 17.2C51.6472 17.2 53.9139 18.0133 55.7539 19.64C57.5939 21.24 58.5139 23.48 58.5139 26.36C58.5139 29.24 57.5406 31.4933 55.5939 33.12C53.6739 34.7467 51.3139 35.56 48.5139 35.56C46.2472 35.56 44.2472 35.0533 42.5139 34.04C40.7806 33.0267 39.5272 31.5333 38.7539 29.56L43.4739 26.8C44.1672 29.04 45.8472 30.16 48.5139 30.16C49.9272 30.16 51.0206 29.8267 51.7939 29.16C52.5939 28.4667 52.9939 27.5333 52.9939 26.36C52.9939 25.2133 52.6072 24.2933 51.8339 23.6C51.0606 22.9067 50.0072 22.56 48.6739 22.56H40.1939L41.3139 7H57.1939V12.16H46.4339L46.0739 17.2H48.9539ZM63.268 39H60.988L76.988 3H79.268L63.268 39ZM105.085 14.44C107.379 14.44 109.205 15.1867 110.565 16.68C111.952 18.1733 112.645 20.1733 112.645 22.68V35H107.485V23.04C107.485 21.84 107.192 20.9067 106.605 20.24C106.019 19.5733 105.192 19.24 104.125 19.24C102.952 19.24 102.032 19.6267 101.365 20.4C100.725 21.1733 100.405 22.2933 100.405 23.76V35H95.2455V23.04C95.2455 21.84 94.9521 20.9067 94.3655 20.24C93.7788 19.5733 92.9521 19.24 91.8855 19.24C90.7388 19.24 89.8188 19.6267 89.1255 20.4C88.4588 21.1733 88.1255 22.2933 88.1255 23.76V35H82.9655V15H88.1255V17.12C89.3255 15.3333 91.1788 14.44 93.6855 14.44C96.1388 14.44 97.9521 15.4 99.1255 17.32C100.459 15.4 102.445 14.44 105.085 14.44ZM134.068 32.52C132.015 34.5467 129.508 35.56 126.548 35.56C123.588 35.56 121.081 34.5467 119.028 32.52C117.001 30.4667 115.988 27.96 115.988 25C115.988 22.04 117.001 19.5467 119.028 17.52C121.081 15.4667 123.588 14.44 126.548 14.44C129.508 14.44 132.015 15.4667 134.068 17.52C136.121 19.5467 137.148 22.04 137.148 25C137.148 27.96 136.121 30.4667 134.068 32.52ZM122.668 28.96C123.708 30 125.001 30.52 126.548 30.52C128.095 30.52 129.388 30 130.428 28.96C131.468 27.92 131.988 26.6 131.988 25C131.988 23.4 131.468 22.08 130.428 21.04C129.388 20 128.095 19.48 126.548 19.48C125.001 19.48 123.708 20 122.668 21.04C121.655 22.08 121.148 23.4 121.148 25C121.148 26.6 121.655 27.92 122.668 28.96ZM151.898 14.44C154.085 14.44 155.885 15.1733 157.298 16.64C158.738 18.1067 159.458 20.1333 159.458 22.72V35H154.298V23.36C154.298 22.0267 153.938 21.0133 153.218 20.32C152.498 19.6 151.538 19.24 150.338 19.24C149.005 19.24 147.938 19.6533 147.138 20.48C146.338 21.3067 145.938 22.5467 145.938 24.2V35H140.778V15H145.938V17.24C147.191 15.3733 149.178 14.44 151.898 14.44ZM175.304 19.96H170.784V28.28C170.784 28.9733 170.957 29.48 171.304 29.8C171.651 30.12 172.157 30.3067 172.824 30.36C173.491 30.3867 174.317 30.3733 175.304 30.32V35C171.757 35.4 169.251 35.0667 167.784 34C166.344 32.9333 165.624 31.0267 165.624 28.28V19.96H162.144V15H165.624V10.96L170.784 9.4V15H175.304V19.96ZM190.062 14.44C192.249 14.44 194.049 15.1733 195.462 16.64C196.902 18.1067 197.622 20.1333 197.622 22.72V35H192.462V23.36C192.462 22.0267 192.102 21.0133 191.382 20.32C190.662 19.6 189.702 19.24 188.502 19.24C187.169 19.24 186.102 19.6533 185.302 20.48C184.502 21.3067 184.102 22.5467 184.102 24.2V35H178.942V7H184.102V17.24C185.355 15.3733 187.342 14.44 190.062 14.44Z" fill="white"/>
<path d="M1.50781 63H3.36781V77H1.50781V63ZM14.4711 63H16.2111V77H14.4711V75.28C13.6044 76.6 12.3444 77.26 10.6911 77.26C9.29109 77.26 8.09776 76.7533 7.11109 75.74C6.12443 74.7133 5.63109 73.4667 5.63109 72C5.63109 70.5333 6.12443 69.2933 7.11109 68.28C8.09776 67.2533 9.29109 66.74 10.6911 66.74C12.3444 66.74 13.6044 67.4 14.4711 68.72V63ZM10.9111 75.58C11.9244 75.58 12.7711 75.24 13.4511 74.56C14.1311 73.8667 14.4711 73.0133 14.4711 72C14.4711 70.9867 14.1311 70.14 13.4511 69.46C12.7711 68.7667 11.9244 68.42 10.9111 68.42C9.91109 68.42 9.07109 68.7667 8.39109 69.46C7.71109 70.14 7.37109 70.9867 7.37109 72C7.37109 73.0133 7.71109 73.8667 8.39109 74.56C9.07109 75.24 9.91109 75.58 10.9111 75.58ZM20.0673 72.8C20.2407 73.6933 20.6473 74.3867 21.2873 74.88C21.9407 75.3733 22.7407 75.62 23.6873 75.62C25.0073 75.62 25.9673 75.1333 26.5673 74.16L28.0473 75C27.074 76.5067 25.6073 77.26 23.6473 77.26C22.0607 77.26 20.7673 76.7667 19.7673 75.78C18.7807 74.78 18.2873 73.52 18.2873 72C18.2873 70.4933 18.774 69.24 19.7473 68.24C20.7207 67.24 21.9807 66.74 23.5273 66.74C24.994 66.74 26.1873 67.26 27.1073 68.3C28.0407 69.3267 28.5073 70.5667 28.5073 72.02C28.5073 72.2733 28.4873 72.5333 28.4473 72.8H20.0673ZM23.5273 68.38C22.594 68.38 21.8207 68.6467 21.2073 69.18C20.594 69.7 20.214 70.4 20.0673 71.28H26.7473C26.6007 70.3333 26.2273 69.6133 25.6273 69.12C25.0273 68.6267 24.3273 68.38 23.5273 68.38ZM38.768 67H40.508V77H38.768V75.28C37.9013 76.6 36.6413 77.26 34.988 77.26C33.588 77.26 32.3946 76.7533 31.408 75.74C30.4213 74.7133 29.928 73.4667 29.928 72C29.928 70.5333 30.4213 69.2933 31.408 68.28C32.3946 67.2533 33.588 66.74 34.988 66.74C36.6413 66.74 37.9013 67.4 38.768 68.72V67ZM35.208 75.58C36.2213 75.58 37.068 75.24 37.748 74.56C38.428 73.8667 38.768 73.0133 38.768 72C38.768 70.9867 38.428 70.14 37.748 69.46C37.068 68.7667 36.2213 68.42 35.208 68.42C34.208 68.42 33.368 68.7667 32.688 69.46C32.008 70.14 31.668 70.9867 31.668 72C31.668 73.0133 32.008 73.8667 32.688 74.56C33.368 75.24 34.208 75.58 35.208 75.58ZM43.1442 77V62.4H44.8842V77H43.1442ZM57.6788 64.42C55.9188 64.2733 55.0388 65.0333 55.0388 66.7V67H57.6788V68.68H55.0388V77H53.2988V68.68H51.6988V67H53.2988V66.7C53.2988 65.3533 53.6721 64.3333 54.4188 63.64C55.1788 62.9467 56.2654 62.6467 57.6788 62.74V64.42ZM66.8967 75.74C65.8701 76.7533 64.6234 77.26 63.1567 77.26C61.6901 77.26 60.4434 76.7533 59.4167 75.74C58.4034 74.7267 57.8967 73.48 57.8967 72C57.8967 70.52 58.4034 69.2733 59.4167 68.26C60.4434 67.2467 61.6901 66.74 63.1567 66.74C64.6234 66.74 65.8701 67.2467 66.8967 68.26C67.9234 69.2733 68.4367 70.52 68.4367 72C68.4367 73.48 67.9234 74.7267 66.8967 75.74ZM63.1567 75.56C64.1567 75.56 64.9967 75.22 65.6767 74.54C66.3567 73.86 66.6967 73.0133 66.6967 72C66.6967 70.9867 66.3567 70.14 65.6767 69.46C64.9967 68.78 64.1567 68.44 63.1567 68.44C62.1701 68.44 61.3367 68.78 60.6567 69.46C59.9767 70.14 59.6367 70.9867 59.6367 72C59.6367 73.0133 59.9767 73.86 60.6567 74.54C61.3367 75.22 62.1701 75.56 63.1567 75.56ZM72.228 68.68C72.8013 67.44 73.8413 66.82 75.348 66.82V68.64C74.4946 68.6 73.7613 68.8267 73.148 69.32C72.5346 69.8133 72.228 70.6067 72.228 71.7V77H70.488V67H72.228V68.68ZM87.5705 66.74C88.9705 66.74 90.1638 67.2533 91.1505 68.28C92.1371 69.2933 92.6305 70.5333 92.6305 72C92.6305 73.4667 92.1371 74.7133 91.1505 75.74C90.1638 76.7533 88.9705 77.26 87.5705 77.26C85.9171 77.26 84.6571 76.6 83.7905 75.28V77H82.0505V63H83.7905V68.72C84.6571 67.4 85.9171 66.74 87.5705 66.74ZM87.3505 75.58C88.3505 75.58 89.1905 75.24 89.8705 74.56C90.5505 73.8667 90.8905 73.0133 90.8905 72C90.8905 70.9867 90.5505 70.14 89.8705 69.46C89.1905 68.7667 88.3505 68.42 87.3505 68.42C86.3371 68.42 85.4905 68.7667 84.8105 69.46C84.1305 70.14 83.7905 70.9867 83.7905 72C83.7905 73.0133 84.1305 73.8667 84.8105 74.56C85.4905 75.24 86.3371 75.58 87.3505 75.58ZM101.607 67H103.347V77H101.607V75.56C100.9 76.6933 99.8201 77.26 98.3667 77.26C97.1934 77.26 96.2534 76.8933 95.5467 76.16C94.8401 75.4133 94.4867 74.4067 94.4867 73.14V67H96.2267V73.04C96.2267 73.8533 96.4467 74.4867 96.8867 74.94C97.3267 75.38 97.9334 75.6 98.7067 75.6C99.5734 75.6 100.273 75.3333 100.807 74.8C101.34 74.2533 101.607 73.42 101.607 72.3V67ZM107.476 69.7C107.476 70.0867 107.67 70.4 108.056 70.64C108.443 70.8667 108.91 71.0533 109.456 71.2C110.003 71.3333 110.55 71.4933 111.096 71.68C111.643 71.8533 112.11 72.16 112.496 72.6C112.883 73.0267 113.076 73.58 113.076 74.26C113.076 75.1667 112.723 75.8933 112.016 76.44C111.323 76.9867 110.43 77.26 109.336 77.26C108.363 77.26 107.53 77.0467 106.836 76.62C106.143 76.1933 105.65 75.6267 105.356 74.92L106.856 74.06C107.016 74.54 107.316 74.92 107.756 75.2C108.196 75.48 108.723 75.62 109.336 75.62C109.91 75.62 110.383 75.5133 110.756 75.3C111.13 75.0733 111.316 74.7267 111.316 74.26C111.316 73.8733 111.123 73.5667 110.736 73.34C110.35 73.1 109.883 72.9133 109.336 72.78C108.79 72.6333 108.243 72.4667 107.696 72.28C107.15 72.0933 106.683 71.7867 106.296 71.36C105.91 70.9333 105.716 70.3867 105.716 69.72C105.716 68.8533 106.05 68.14 106.716 67.58C107.396 67.02 108.243 66.74 109.256 66.74C110.07 66.74 110.79 66.9267 111.416 67.3C112.056 67.66 112.536 68.1667 112.856 68.82L111.396 69.64C111.036 68.7867 110.323 68.36 109.256 68.36C108.763 68.36 108.343 68.48 107.996 68.72C107.65 68.9467 107.476 69.2733 107.476 69.7ZM115.919 65.18C115.585 65.18 115.305 65.0667 115.079 64.84C114.852 64.6133 114.739 64.34 114.739 64.02C114.739 63.7 114.852 63.4267 115.079 63.2C115.305 62.96 115.585 62.84 115.919 62.84C116.239 62.84 116.512 62.96 116.739 63.2C116.965 63.4267 117.079 63.7 117.079 64.02C117.079 64.34 116.965 64.6133 116.739 64.84C116.512 65.0667 116.239 65.18 115.919 65.18ZM115.039 77V67H116.779V77H115.039ZM124.413 66.74C125.587 66.74 126.527 67.1133 127.233 67.86C127.94 68.5933 128.293 69.5933 128.293 70.86V77H126.553V70.96C126.553 70.1467 126.333 69.52 125.893 69.08C125.453 68.6267 124.847 68.4 124.073 68.4C123.207 68.4 122.507 68.6733 121.973 69.22C121.44 69.7533 121.173 70.58 121.173 71.7V77H119.433V67H121.173V68.44C121.88 67.3067 122.96 66.74 124.413 66.74ZM131.942 72.8C132.116 73.6933 132.522 74.3867 133.162 74.88C133.816 75.3733 134.616 75.62 135.562 75.62C136.882 75.62 137.842 75.1333 138.442 74.16L139.922 75C138.949 76.5067 137.482 77.26 135.522 77.26C133.936 77.26 132.642 76.7667 131.642 75.78C130.656 74.78 130.162 73.52 130.162 72C130.162 70.4933 130.649 69.24 131.622 68.24C132.596 67.24 133.856 66.74 135.402 66.74C136.869 66.74 138.062 67.26 138.982 68.3C139.916 69.3267 140.382 70.5667 140.382 72.02C140.382 72.2733 140.362 72.5333 140.322 72.8H131.942ZM135.402 68.38C134.469 68.38 133.696 68.6467 133.082 69.18C132.469 69.7 132.089 70.4 131.942 71.28H138.622C138.476 70.3333 138.102 69.6133 137.502 69.12C136.902 68.6267 136.202 68.38 135.402 68.38ZM143.492 69.7C143.492 70.0867 143.685 70.4 144.072 70.64C144.459 70.8667 144.925 71.0533 145.472 71.2C146.019 71.3333 146.565 71.4933 147.112 71.68C147.659 71.8533 148.125 72.16 148.512 72.6C148.899 73.0267 149.092 73.58 149.092 74.26C149.092 75.1667 148.739 75.8933 148.032 76.44C147.339 76.9867 146.445 77.26 145.352 77.26C144.379 77.26 143.545 77.0467 142.852 76.62C142.159 76.1933 141.665 75.6267 141.372 74.92L142.872 74.06C143.032 74.54 143.332 74.92 143.772 75.2C144.212 75.48 144.739 75.62 145.352 75.62C145.925 75.62 146.399 75.5133 146.772 75.3C147.145 75.0733 147.332 74.7267 147.332 74.26C147.332 73.8733 147.139 73.5667 146.752 73.34C146.365 73.1 145.899 72.9133 145.352 72.78C144.805 72.6333 144.259 72.4667 143.712 72.28C143.165 72.0933 142.699 71.7867 142.312 71.36C141.925 70.9333 141.732 70.3867 141.732 69.72C141.732 68.8533 142.065 68.14 142.732 67.58C143.412 67.02 144.259 66.74 145.272 66.74C146.085 66.74 146.805 66.9267 147.432 67.3C148.072 67.66 148.552 68.1667 148.872 68.82L147.412 69.64C147.052 68.7867 146.339 68.36 145.272 68.36C144.779 68.36 144.359 68.48 144.012 68.72C143.665 68.9467 143.492 69.2733 143.492 69.7ZM152.027 69.7C152.027 70.0867 152.22 70.4 152.607 70.64C152.994 70.8667 153.46 71.0533 154.007 71.2C154.554 71.3333 155.1 71.4933 155.647 71.68C156.194 71.8533 156.66 72.16 157.047 72.6C157.434 73.0267 157.627 73.58 157.627 74.26C157.627 75.1667 157.274 75.8933 156.567 76.44C155.874 76.9867 154.98 77.26 153.887 77.26C152.914 77.26 152.08 77.0467 151.387 76.62C150.694 76.1933 150.2 75.6267 149.907 74.92L151.407 74.06C151.567 74.54 151.867 74.92 152.307 75.2C152.747 75.48 153.274 75.62 153.887 75.62C154.46 75.62 154.934 75.5133 155.307 75.3C155.68 75.0733 155.867 74.7267 155.867 74.26C155.867 73.8733 155.674 73.5667 155.287 73.34C154.9 73.1 154.434 72.9133 153.887 72.78C153.34 72.6333 152.794 72.4667 152.247 72.28C151.7 72.0933 151.234 71.7867 150.847 71.36C150.46 70.9333 150.267 70.3867 150.267 69.72C150.267 68.8533 150.6 68.14 151.267 67.58C151.947 67.02 152.794 66.74 153.807 66.74C154.62 66.74 155.34 66.9267 155.967 67.3C156.607 67.66 157.087 68.1667 157.407 68.82L155.947 69.64C155.587 68.7867 154.874 68.36 153.807 68.36C153.314 68.36 152.894 68.48 152.547 68.72C152.2 68.9467 152.027 69.2733 152.027 69.7ZM169.387 77.26C167.881 77.26 166.627 76.76 165.627 75.76C164.627 74.7467 164.127 73.4933 164.127 72C164.127 70.5067 164.627 69.26 165.627 68.26C166.627 67.2467 167.881 66.74 169.387 66.74C170.374 66.74 171.261 66.98 172.047 67.46C172.834 67.9267 173.421 68.56 173.807 69.36L172.347 70.2C172.094 69.6667 171.701 69.24 171.167 68.92C170.647 68.6 170.054 68.44 169.387 68.44C168.387 68.44 167.547 68.78 166.867 69.46C166.201 70.14 165.867 70.9867 165.867 72C165.867 73 166.201 73.84 166.867 74.52C167.547 75.2 168.387 75.54 169.387 75.54C170.054 75.54 170.654 75.3867 171.187 75.08C171.721 74.76 172.127 74.3333 172.407 73.8L173.887 74.66C173.461 75.4467 172.847 76.08 172.047 76.56C171.247 77.0267 170.361 77.26 169.387 77.26ZM177.365 68.68C177.938 67.44 178.978 66.82 180.485 66.82V68.64C179.631 68.6 178.898 68.8267 178.285 69.32C177.671 69.8133 177.365 70.6067 177.365 71.7V77H175.625V67H177.365V68.68ZM182.86 72.8C183.034 73.6933 183.44 74.3867 184.08 74.88C184.734 75.3733 185.534 75.62 186.48 75.62C187.8 75.62 188.76 75.1333 189.36 74.16L190.84 75C189.867 76.5067 188.4 77.26 186.44 77.26C184.854 77.26 183.56 76.7667 182.56 75.78C181.574 74.78 181.08 73.52 181.08 72C181.08 70.4933 181.567 69.24 182.54 68.24C183.514 67.24 184.774 66.74 186.32 66.74C187.787 66.74 188.98 67.26 189.9 68.3C190.834 69.3267 191.3 70.5667 191.3 72.02C191.3 72.2733 191.28 72.5333 191.24 72.8H182.86ZM186.32 68.38C185.387 68.38 184.614 68.6467 184 69.18C183.387 69.7 183.007 70.4 182.86 71.28H189.54C189.394 70.3333 189.02 69.6133 188.42 69.12C187.82 68.6267 187.12 68.38 186.32 68.38ZM201.561 67H203.301V77H201.561V75.28C200.694 76.6 199.434 77.26 197.781 77.26C196.381 77.26 195.188 76.7533 194.201 75.74C193.214 74.7133 192.721 73.4667 192.721 72C192.721 70.5333 193.214 69.2933 194.201 68.28C195.188 67.2533 196.381 66.74 197.781 66.74C199.434 66.74 200.694 67.4 201.561 68.72V67ZM198.001 75.58C199.014 75.58 199.861 75.24 200.541 74.56C201.221 73.8667 201.561 73.0133 201.561 72C201.561 70.9867 201.221 70.14 200.541 69.46C199.861 68.7667 199.014 68.42 198.001 68.42C197.001 68.42 196.161 68.7667 195.481 69.46C194.801 70.14 194.461 70.9867 194.461 72C194.461 73.0133 194.801 73.8667 195.481 74.56C196.161 75.24 197.001 75.58 198.001 75.58ZM211.377 68.68H208.717V74.1C208.717 74.5933 208.811 74.9467 208.997 75.16C209.197 75.36 209.497 75.4667 209.897 75.48C210.297 75.48 210.791 75.4667 211.377 75.44V77C209.857 77.2 208.744 77.08 208.037 76.64C207.331 76.1867 206.977 75.34 206.977 74.1V68.68H204.997V67H206.977V64.72L208.717 64.2V67H211.377V68.68ZM221.369 75.74C220.343 76.7533 219.096 77.26 217.629 77.26C216.163 77.26 214.916 76.7533 213.889 75.74C212.876 74.7267 212.369 73.48 212.369 72C212.369 70.52 212.876 69.2733 213.889 68.26C214.916 67.2467 216.163 66.74 217.629 66.74C219.096 66.74 220.343 67.2467 221.369 68.26C222.396 69.2733 222.909 70.52 222.909 72C222.909 73.48 222.396 74.7267 221.369 75.74ZM217.629 75.56C218.629 75.56 219.469 75.22 220.149 74.54C220.829 73.86 221.169 73.0133 221.169 72C221.169 70.9867 220.829 70.14 220.149 69.46C219.469 68.78 218.629 68.44 217.629 68.44C216.643 68.44 215.809 68.78 215.129 69.46C214.449 70.14 214.109 70.9867 214.109 72C214.109 73.0133 214.449 73.86 215.129 74.54C215.809 75.22 216.643 75.56 217.629 75.56ZM226.701 68.68C227.274 67.44 228.314 66.82 229.821 66.82V68.64C228.967 68.6 228.234 68.8267 227.621 69.32C227.007 69.8133 226.701 70.6067 226.701 71.7V77H224.961V67H226.701V68.68ZM232.652 69.7C232.652 70.0867 232.845 70.4 233.232 70.64C233.619 70.8667 234.085 71.0533 234.632 71.2C235.179 71.3333 235.725 71.4933 236.272 71.68C236.819 71.8533 237.285 72.16 237.672 72.6C238.059 73.0267 238.252 73.58 238.252 74.26C238.252 75.1667 237.899 75.8933 237.192 76.44C236.499 76.9867 235.605 77.26 234.512 77.26C233.539 77.26 232.705 77.0467 232.012 76.62C231.319 76.1933 230.825 75.6267 230.532 74.92L232.032 74.06C232.192 74.54 232.492 74.92 232.932 75.2C233.372 75.48 233.899 75.62 234.512 75.62C235.085 75.62 235.559 75.5133 235.932 75.3C236.305 75.0733 236.492 74.7267 236.492 74.26C236.492 73.8733 236.299 73.5667 235.912 73.34C235.525 73.1 235.059 72.9133 234.512 72.78C233.965 72.6333 233.419 72.4667 232.872 72.28C232.325 72.0933 231.859 71.7867 231.472 71.36C231.085 70.9333 230.892 70.3867 230.892 69.72C230.892 68.8533 231.225 68.14 231.892 67.58C232.572 67.02 233.419 66.74 234.432 66.74C235.245 66.74 235.965 66.9267 236.592 67.3C237.232 67.66 237.712 68.1667 238.032 68.82L236.572 69.64C236.212 68.7867 235.499 68.36 234.432 68.36C233.939 68.36 233.519 68.48 233.172 68.72C232.825 68.9467 232.652 69.2733 232.652 69.7Z" fill="white"/>
</svg>
