<svg width="100" height="13" viewBox="0 0 100 13" fill="none" xmlns="http://www.w3.org/2000/svg">
<path d="M4.02592 0.199999C4.93126 0.199999 5.68259 0.503333 6.27992 1.11C6.88659 1.70733 7.18992 2.454 7.18992 3.35C7.18992 4.23667 6.88659 4.98333 6.27992 5.59C5.68259 6.19667 4.93126 6.5 4.02592 6.5H1.77192V10H0.469922V0.199999H4.02592ZM4.02592 5.282C4.56726 5.282 5.01526 5.1 5.36992 4.736C5.72459 4.36267 5.90192 3.90067 5.90192 3.35C5.90192 2.79 5.72459 2.328 5.36992 1.964C5.01526 1.6 4.56726 1.418 4.02592 1.418H1.77192V5.282H4.02592ZM9.66934 4.176C10.0707 3.308 10.7987 2.874 11.8533 2.874V4.148C11.256 4.12 10.7427 4.27867 10.3133 4.624C9.88401 4.96933 9.66934 5.52467 9.66934 6.29V10H8.45134V3H9.66934V4.176ZM13.6611 1.726C13.4278 1.726 13.2318 1.64667 13.0731 1.488C12.9144 1.32933 12.8351 1.138 12.8351 0.913999C12.8351 0.689999 12.9144 0.498666 13.0731 0.339999C13.2318 0.172 13.4278 0.0879999 13.6611 0.0879999C13.8851 0.0879999 14.0764 0.172 14.2351 0.339999C14.3938 0.498666 14.4731 0.689999 14.4731 0.913999C14.4731 1.138 14.3938 1.32933 14.2351 1.488C14.0764 1.64667 13.8851 1.726 13.6611 1.726ZM13.0451 10V3H14.2631V10H13.0451ZM22.0293 9.118C21.3106 9.82733 20.4379 10.182 19.4113 10.182C18.3846 10.182 17.5119 9.82733 16.7933 9.118C16.0839 8.40867 15.7293 7.536 15.7293 6.5C15.7293 5.464 16.0839 4.59133 16.7933 3.882C17.5119 3.17267 18.3846 2.818 19.4113 2.818C20.4379 2.818 21.3106 3.17267 22.0293 3.882C22.7479 4.59133 23.1073 5.464 23.1073 6.5C23.1073 7.536 22.7479 8.40867 22.0293 9.118ZM19.4113 8.992C20.1113 8.992 20.6993 8.754 21.1753 8.278C21.6513 7.802 21.8893 7.20933 21.8893 6.5C21.8893 5.79067 21.6513 5.198 21.1753 4.722C20.6993 4.246 20.1113 4.008 19.4113 4.008C18.7206 4.008 18.1373 4.246 17.6613 4.722C17.1853 5.198 16.9473 5.79067 16.9473 6.5C16.9473 7.20933 17.1853 7.802 17.6613 8.278C18.1373 8.754 18.7206 8.992 19.4113 8.992ZM25.7611 4.176C26.1625 3.308 26.8905 2.874 27.9451 2.874V4.148C27.3478 4.12 26.8345 4.27867 26.4051 4.624C25.9758 4.96933 25.7611 5.52467 25.7611 6.29V10H24.5431V3H25.7611V4.176ZM29.7529 1.726C29.5196 1.726 29.3236 1.64667 29.1649 1.488C29.0062 1.32933 28.9269 1.138 28.9269 0.913999C28.9269 0.689999 29.0062 0.498666 29.1649 0.339999C29.3236 0.172 29.5196 0.0879999 29.7529 0.0879999C29.9769 0.0879999 30.1682 0.172 30.3269 0.339999C30.4856 0.498666 30.5649 0.689999 30.5649 0.913999C30.5649 1.138 30.4856 1.32933 30.3269 1.488C30.1682 1.64667 29.9769 1.726 29.7529 1.726ZM29.1369 10V3H30.3549V10H29.1369ZM36.0211 4.176H34.1591V7.97C34.1591 8.31533 34.2244 8.56267 34.3551 8.712C34.4951 8.852 34.7051 8.92667 34.9851 8.936C35.2651 8.936 35.6104 8.92667 36.0211 8.908V10C34.9571 10.14 34.1777 10.056 33.6831 9.748C33.1884 9.43067 32.9411 8.838 32.9411 7.97V4.176H31.5551V3H32.9411V1.404L34.1591 1.04V3H36.0211V4.176ZM42.4995 3H43.8015L40.9455 10.434C40.6468 11.2273 40.2268 11.8293 39.6855 12.24C39.1535 12.66 38.5375 12.8467 37.8375 12.8V11.666C38.6961 11.7313 39.3261 11.2553 39.7275 10.238L39.8535 9.972L36.8015 3H38.1035L40.4835 8.488L42.4995 3ZM51.6085 10.182C50.6939 10.182 49.9099 9.96733 49.2565 9.538C48.6125 9.10867 48.1599 8.52067 47.8985 7.774L49.0185 7.13C49.4012 8.31533 50.2739 8.908 51.6365 8.908C52.3085 8.908 52.8219 8.77267 53.1765 8.502C53.5312 8.222 53.7085 7.85333 53.7085 7.396C53.7085 6.92933 53.5312 6.57933 53.1765 6.346C52.8219 6.11267 52.2292 5.86533 51.3985 5.604C50.9879 5.47333 50.6752 5.37067 50.4605 5.296C50.2459 5.212 49.9752 5.09067 49.6485 4.932C49.3312 4.764 49.0932 4.596 48.9345 4.428C48.7759 4.25067 48.6312 4.022 48.5005 3.742C48.3792 3.462 48.3185 3.14467 48.3185 2.79C48.3185 1.94067 48.6172 1.26867 49.2145 0.773999C49.8119 0.269999 50.5399 0.0179992 51.3985 0.0179992C52.1732 0.0179992 52.8452 0.213999 53.4145 0.606C53.9932 0.998 54.4272 1.516 54.7165 2.16L53.6245 2.79C53.2045 1.782 52.4625 1.278 51.3985 1.278C50.8665 1.278 50.4372 1.40867 50.1105 1.67C49.7839 1.93133 49.6205 2.286 49.6205 2.734C49.6205 3.16333 49.7745 3.49 50.0825 3.714C50.3905 3.938 50.9225 4.17133 51.6785 4.414C51.9492 4.498 52.1405 4.55867 52.2525 4.596C52.3645 4.63333 52.5372 4.69867 52.7705 4.792C53.0132 4.88533 53.1905 4.96 53.3025 5.016C53.4145 5.072 53.5639 5.15133 53.7505 5.254C53.9465 5.35667 54.0912 5.45467 54.1845 5.548C54.2779 5.64133 54.3852 5.758 54.5065 5.898C54.6372 6.02867 54.7305 6.164 54.7865 6.304C54.8425 6.444 54.8892 6.60733 54.9265 6.794C54.9732 6.97133 54.9965 7.16267 54.9965 7.368C54.9965 8.22667 54.6839 8.91267 54.0585 9.426C53.4332 9.93 52.6165 10.182 51.6085 10.182ZM61.2423 3H62.4603V10H61.2423V8.992C60.7476 9.78533 59.9916 10.182 58.9743 10.182C58.1529 10.182 57.4949 9.92533 57.0003 9.412C56.5056 8.88933 56.2583 8.18467 56.2583 7.298V3H57.4763V7.228C57.4763 7.79733 57.6303 8.24067 57.9383 8.558C58.2463 8.866 58.6709 9.02 59.2123 9.02C59.8189 9.02 60.3089 8.83333 60.6823 8.46C61.0556 8.07733 61.2423 7.494 61.2423 6.71V3ZM68.1786 2.818C69.1586 2.818 69.994 3.17733 70.6846 3.896C71.3753 4.60533 71.7206 5.47333 71.7206 6.5C71.7206 7.52667 71.3753 8.39933 70.6846 9.118C69.994 9.82733 69.1586 10.182 68.1786 10.182C67.0213 10.182 66.1393 9.72 65.5326 8.796V12.8H64.3146V3H65.5326V4.204C66.1393 3.28 67.0213 2.818 68.1786 2.818ZM68.0246 9.006C68.7246 9.006 69.3126 8.768 69.7886 8.292C70.2646 7.80667 70.5026 7.20933 70.5026 6.5C70.5026 5.79067 70.2646 5.198 69.7886 4.722C69.3126 4.23667 68.7246 3.994 68.0246 3.994C67.3153 3.994 66.7226 4.23667 66.2466 4.722C65.7706 5.198 65.5326 5.79067 65.5326 6.5C65.5326 7.20933 65.7706 7.80667 66.2466 8.292C66.7226 8.768 67.3153 9.006 68.0246 9.006ZM77.038 2.818C78.018 2.818 78.8533 3.17733 79.544 3.896C80.2347 4.60533 80.58 5.47333 80.58 6.5C80.58 7.52667 80.2347 8.39933 79.544 9.118C78.8533 9.82733 78.018 10.182 77.038 10.182C75.8807 10.182 74.9987 9.72 74.392 8.796V12.8H73.174V3H74.392V4.204C74.9987 3.28 75.8807 2.818 77.038 2.818ZM76.884 9.006C77.584 9.006 78.172 8.768 78.648 8.292C79.124 7.80667 79.362 7.20933 79.362 6.5C79.362 5.79067 79.124 5.198 78.648 4.722C78.172 4.23667 77.584 3.994 76.884 3.994C76.1747 3.994 75.582 4.23667 75.106 4.722C74.63 5.198 74.392 5.79067 74.392 6.5C74.392 7.20933 74.63 7.80667 75.106 8.292C75.582 8.768 76.1747 9.006 76.884 9.006ZM87.9414 9.118C87.2227 9.82733 86.35 10.182 85.3234 10.182C84.2967 10.182 83.424 9.82733 82.7054 9.118C81.996 8.40867 81.6414 7.536 81.6414 6.5C81.6414 5.464 81.996 4.59133 82.7054 3.882C83.424 3.17267 84.2967 2.818 85.3234 2.818C86.35 2.818 87.2227 3.17267 87.9414 3.882C88.66 4.59133 89.0194 5.464 89.0194 6.5C89.0194 7.536 88.66 8.40867 87.9414 9.118ZM85.3234 8.992C86.0234 8.992 86.6114 8.754 87.0874 8.278C87.5634 7.802 87.8014 7.20933 87.8014 6.5C87.8014 5.79067 87.5634 5.198 87.0874 4.722C86.6114 4.246 86.0234 4.008 85.3234 4.008C84.6327 4.008 84.0494 4.246 83.5734 4.722C83.0974 5.198 82.8594 5.79067 82.8594 6.5C82.8594 7.20933 83.0974 7.802 83.5734 8.278C84.0494 8.754 84.6327 8.992 85.3234 8.992ZM91.6733 4.176C92.0746 3.308 92.8026 2.874 93.8573 2.874V4.148C93.2599 4.12 92.7466 4.27867 92.3173 4.624C91.8879 4.96933 91.6733 5.52467 91.6733 6.29V10H90.4552V3H91.6733V4.176ZM99.0211 4.176H97.1591V7.97C97.1591 8.31533 97.2244 8.56267 97.3551 8.712C97.4951 8.852 97.7051 8.92667 97.9851 8.936C98.2651 8.936 98.6104 8.92667 99.0211 8.908V10C97.9571 10.14 97.1777 10.056 96.6831 9.748C96.1884 9.43067 95.9411 8.838 95.9411 7.97V4.176H94.5551V3H95.9411V1.404L97.1591 1.04V3H99.0211V4.176Z" fill="white"/>
</svg>
