<svg width="128" height="19" viewBox="0 0 128 19" fill="none" xmlns="http://www.w3.org/2000/svg">
<path d="M6.11084 1.2C7.66284 1.2 8.95084 1.72 9.97484 2.76C11.0148 3.784 11.5348 5.064 11.5348 6.6C11.5348 8.12 11.0148 9.4 9.97484 10.44C8.95084 11.48 7.66284 12 6.11084 12H2.24684V18H0.0148438V1.2H6.11084ZM6.11084 9.912C7.03884 9.912 7.80684 9.6 8.41484 8.976C9.02284 8.336 9.32684 7.544 9.32684 6.6C9.32684 5.64 9.02284 4.848 8.41484 4.224C7.80684 3.6 7.03884 3.288 6.11084 3.288H2.24684V9.912H6.11084ZM15.7853 8.016C16.4733 6.528 17.7213 5.784 19.5293 5.784V7.968C18.5053 7.92 17.6253 8.192 16.8893 8.784C16.1533 9.376 15.7853 10.328 15.7853 11.64V18H13.6973V6H15.7853V8.016ZM31.044 16.488C29.812 17.704 28.316 18.312 26.556 18.312C24.796 18.312 23.3 17.704 22.068 16.488C20.852 15.272 20.244 13.776 20.244 12C20.244 10.224 20.852 8.728 22.068 7.512C23.3 6.296 24.796 5.688 26.556 5.688C28.316 5.688 29.812 6.296 31.044 7.512C32.276 8.728 32.892 10.224 32.892 12C32.892 13.776 32.276 15.272 31.044 16.488ZM26.556 16.272C27.756 16.272 28.764 15.864 29.58 15.048C30.396 14.232 30.804 13.216 30.804 12C30.804 10.784 30.396 9.768 29.58 8.952C28.764 8.136 27.756 7.728 26.556 7.728C25.372 7.728 24.372 8.136 23.556 8.952C22.74 9.768 22.332 10.784 22.332 12C22.332 13.216 22.74 14.232 23.556 15.048C24.372 15.864 25.372 16.272 26.556 16.272ZM41.0762 2.904C38.9642 2.728 37.9082 3.64 37.9082 5.64V6H41.0762V8.016H37.9082V18H35.8202V8.016H33.9002V6H35.8202V5.64C35.8202 4.024 36.2682 2.8 37.1642 1.968C38.0762 1.136 39.3802 0.775999 41.0762 0.887999V2.904ZM43.4738 12.96C43.6818 14.032 44.1698 14.864 44.9378 15.456C45.7218 16.048 46.6818 16.344 47.8178 16.344C49.4018 16.344 50.5538 15.76 51.2738 14.592L53.0498 15.6C51.8818 17.408 50.1218 18.312 47.7698 18.312C45.8658 18.312 44.3138 17.72 43.1138 16.536C41.9298 15.336 41.3378 13.824 41.3378 12C41.3378 10.192 41.9218 8.688 43.0898 7.488C44.2578 6.288 45.7698 5.688 47.6258 5.688C49.3858 5.688 50.8178 6.312 51.9218 7.56C53.0418 8.792 53.6018 10.28 53.6018 12.024C53.6018 12.328 53.5778 12.64 53.5298 12.96H43.4738ZM47.6258 7.656C46.5058 7.656 45.5778 7.976 44.8418 8.616C44.1058 9.24 43.6498 10.08 43.4738 11.136H51.4898C51.3138 10 50.8658 9.136 50.1458 8.544C49.4258 7.952 48.5858 7.656 47.6258 7.656ZM57.3332 9.24C57.3332 9.704 57.5652 10.08 58.0292 10.368C58.4932 10.64 59.0532 10.864 59.7092 11.04C60.3652 11.2 61.0212 11.392 61.6772 11.616C62.3332 11.824 62.8932 12.192 63.3572 12.72C63.8212 13.232 64.0532 13.896 64.0532 14.712C64.0532 15.8 63.6292 16.672 62.7812 17.328C61.9492 17.984 60.8772 18.312 59.5652 18.312C58.3972 18.312 57.3972 18.056 56.5652 17.544C55.7332 17.032 55.1412 16.352 54.7892 15.504L56.5892 14.472C56.7812 15.048 57.1412 15.504 57.6692 15.84C58.1972 16.176 58.8292 16.344 59.5652 16.344C60.2532 16.344 60.8212 16.216 61.2692 15.96C61.7172 15.688 61.9412 15.272 61.9412 14.712C61.9412 14.248 61.7092 13.88 61.2452 13.608C60.7812 13.32 60.2212 13.096 59.5652 12.936C58.9092 12.76 58.2532 12.56 57.5972 12.336C56.9412 12.112 56.3812 11.744 55.9172 11.232C55.4532 10.72 55.2212 10.064 55.2212 9.264C55.2212 8.224 55.6212 7.368 56.4212 6.696C57.2372 6.024 58.2532 5.688 59.4692 5.688C60.4452 5.688 61.3092 5.912 62.0612 6.36C62.8292 6.792 63.4052 7.4 63.7892 8.184L62.0372 9.168C61.6052 8.144 60.7492 7.632 59.4692 7.632C58.8772 7.632 58.3732 7.776 57.9572 8.064C57.5412 8.336 57.3332 8.728 57.3332 9.24ZM67.5754 9.24C67.5754 9.704 67.8074 10.08 68.2714 10.368C68.7354 10.64 69.2954 10.864 69.9514 11.04C70.6074 11.2 71.2634 11.392 71.9194 11.616C72.5754 11.824 73.1354 12.192 73.5994 12.72C74.0634 13.232 74.2954 13.896 74.2954 14.712C74.2954 15.8 73.8714 16.672 73.0234 17.328C72.1914 17.984 71.1194 18.312 69.8074 18.312C68.6394 18.312 67.6394 18.056 66.8074 17.544C65.9754 17.032 65.3834 16.352 65.0314 15.504L66.8314 14.472C67.0234 15.048 67.3834 15.504 67.9114 15.84C68.4394 16.176 69.0714 16.344 69.8074 16.344C70.4954 16.344 71.0634 16.216 71.5114 15.96C71.9594 15.688 72.1834 15.272 72.1834 14.712C72.1834 14.248 71.9514 13.88 71.4874 13.608C71.0234 13.32 70.4634 13.096 69.8074 12.936C69.1514 12.76 68.4954 12.56 67.8394 12.336C67.1834 12.112 66.6234 11.744 66.1594 11.232C65.6954 10.72 65.4634 10.064 65.4634 9.264C65.4634 8.224 65.8634 7.368 66.6634 6.696C67.4794 6.024 68.4954 5.688 69.7114 5.688C70.6874 5.688 71.5514 5.912 72.3034 6.36C73.0714 6.792 73.6474 7.4 74.0314 8.184L72.2794 9.168C71.8474 8.144 70.9914 7.632 69.7114 7.632C69.1194 7.632 68.6154 7.776 68.1994 8.064C67.7834 8.336 67.5754 8.728 67.5754 9.24ZM77.7064 3.816C77.3064 3.816 76.9704 3.68 76.6984 3.408C76.4264 3.136 76.2904 2.808 76.2904 2.424C76.2904 2.04 76.4264 1.712 76.6984 1.44C76.9704 1.152 77.3064 1.008 77.7064 1.008C78.0904 1.008 78.4184 1.152 78.6904 1.44C78.9624 1.712 79.0984 2.04 79.0984 2.424C79.0984 2.808 78.9624 3.136 78.6904 3.408C78.4184 3.68 78.0904 3.816 77.7064 3.816ZM76.6504 18V6H78.7384V18H76.6504ZM92.0518 16.488C90.8198 17.704 89.3238 18.312 87.5638 18.312C85.8038 18.312 84.3078 17.704 83.0758 16.488C81.8598 15.272 81.2518 13.776 81.2518 12C81.2518 10.224 81.8598 8.728 83.0758 7.512C84.3078 6.296 85.8038 5.688 87.5638 5.688C89.3238 5.688 90.8198 6.296 92.0518 7.512C93.2838 8.728 93.8998 10.224 93.8998 12C93.8998 13.776 93.2838 15.272 92.0518 16.488ZM87.5638 16.272C88.7638 16.272 89.7718 15.864 90.5878 15.048C91.4038 14.232 91.8118 13.216 91.8118 12C91.8118 10.784 91.4038 9.768 90.5878 8.952C89.7718 8.136 88.7638 7.728 87.5638 7.728C86.3798 7.728 85.3798 8.136 84.5638 8.952C83.7478 9.768 83.3398 10.784 83.3398 12C83.3398 13.216 83.7478 14.232 84.5638 15.048C85.3798 15.864 86.3798 16.272 87.5638 16.272ZM102.337 5.688C103.745 5.688 104.873 6.136 105.721 7.032C106.569 7.912 106.993 9.112 106.993 10.632V18H104.905V10.752C104.905 9.776 104.641 9.024 104.113 8.496C103.585 7.952 102.857 7.68 101.929 7.68C100.889 7.68 100.049 8.008 99.4093 8.664C98.7693 9.304 98.4493 10.296 98.4493 11.64V18H96.3613V6H98.4493V7.728C99.2973 6.368 100.593 5.688 102.337 5.688ZM119.844 6H121.932V18H119.844V15.936C118.804 17.52 117.292 18.312 115.308 18.312C113.628 18.312 112.196 17.704 111.012 16.488C109.828 15.256 109.236 13.76 109.236 12C109.236 10.24 109.828 8.752 111.012 7.536C112.196 6.304 113.628 5.688 115.308 5.688C117.292 5.688 118.804 6.48 119.844 8.064V6ZM115.572 16.296C116.788 16.296 117.804 15.888 118.62 15.072C119.436 14.24 119.844 13.216 119.844 12C119.844 10.784 119.436 9.768 118.62 8.952C117.804 8.12 116.788 7.704 115.572 7.704C114.372 7.704 113.364 8.12 112.548 8.952C111.732 9.768 111.324 10.784 111.324 12C111.324 13.216 111.732 14.24 112.548 15.072C113.364 15.888 114.372 16.296 115.572 16.296ZM125.096 18V0.48H127.184V18H125.096Z" fill="white"/>
</svg>
