<svg width="71" height="18" viewBox="0 0 71 18" fill="none" xmlns="http://www.w3.org/2000/svg">
<path d="M12.9036 0.199999V2.312H7.93556V17H5.72756V2.312H0.783563V0.199999H12.9036ZM14.1808 11.96C14.3888 13.032 14.8768 13.864 15.6448 14.456C16.4288 15.048 17.3888 15.344 18.5248 15.344C20.1088 15.344 21.2608 14.76 21.9808 13.592L23.7568 14.6C22.5888 16.408 20.8288 17.312 18.4768 17.312C16.5728 17.312 15.0208 16.72 13.8208 15.536C12.6368 14.336 12.0448 12.824 12.0448 11C12.0448 9.192 12.6288 7.688 13.7968 6.488C14.9648 5.288 16.4768 4.688 18.3328 4.688C20.0928 4.688 21.5248 5.312 22.6288 6.56C23.7488 7.792 24.3088 9.28 24.3088 11.024C24.3088 11.328 24.2848 11.64 24.2368 11.96H14.1808ZM18.3328 6.656C17.2128 6.656 16.2848 6.976 15.5488 7.616C14.8128 8.24 14.3568 9.08 14.1808 10.136H22.1968C22.0208 9 21.5728 8.136 20.8528 7.544C20.1328 6.952 19.2928 6.656 18.3328 6.656ZM36.6216 5H38.7096V17H36.6216V14.936C35.5816 16.52 34.0696 17.312 32.0856 17.312C30.4056 17.312 28.9736 16.704 27.7896 15.488C26.6056 14.256 26.0136 12.76 26.0136 11C26.0136 9.24 26.6056 7.752 27.7896 6.536C28.9736 5.304 30.4056 4.688 32.0856 4.688C34.0696 4.688 35.5816 5.48 36.6216 7.064V5ZM32.3496 15.296C33.5656 15.296 34.5816 14.888 35.3976 14.072C36.2136 13.24 36.6216 12.216 36.6216 11C36.6216 9.784 36.2136 8.768 35.3976 7.952C34.5816 7.12 33.5656 6.704 32.3496 6.704C31.1496 6.704 30.1416 7.12 29.3256 7.952C28.5096 8.768 28.1016 9.784 28.1016 11C28.1016 12.216 28.5096 13.24 29.3256 14.072C30.1416 14.888 31.1496 15.296 32.3496 15.296ZM54.8331 4.688C56.1771 4.688 57.2651 5.128 58.0971 6.008C58.9291 6.872 59.3451 8.048 59.3451 9.536V17H57.2571V9.608C57.2571 8.68 57.0171 7.96 56.5371 7.448C56.0571 6.936 55.4171 6.68 54.6171 6.68C53.7211 6.68 53.0011 6.984 52.4571 7.592C51.9291 8.184 51.6651 9.096 51.6651 10.328V17H49.5771V9.608C49.5771 8.68 49.3451 7.96 48.8811 7.448C48.4331 6.936 47.8171 6.68 47.0331 6.68C46.1531 6.68 45.4171 6.984 44.8251 7.592C44.2491 8.2 43.9611 9.112 43.9611 10.328V17H41.8731V5H43.9611V6.608C44.7771 5.328 45.9691 4.688 47.5371 4.688C49.1531 4.688 50.3291 5.368 51.0651 6.728C51.8971 5.368 53.1531 4.688 54.8331 4.688ZM64.0403 8.24C64.0403 8.704 64.2723 9.08 64.7363 9.368C65.2003 9.64 65.7603 9.864 66.4163 10.04C67.0723 10.2 67.7283 10.392 68.3843 10.616C69.0403 10.824 69.6003 11.192 70.0643 11.72C70.5283 12.232 70.7603 12.896 70.7603 13.712C70.7603 14.8 70.3363 15.672 69.4883 16.328C68.6563 16.984 67.5843 17.312 66.2723 17.312C65.1043 17.312 64.1043 17.056 63.2723 16.544C62.4403 16.032 61.8483 15.352 61.4963 14.504L63.2963 13.472C63.4883 14.048 63.8483 14.504 64.3763 14.84C64.9043 15.176 65.5363 15.344 66.2723 15.344C66.9603 15.344 67.5283 15.216 67.9763 14.96C68.4243 14.688 68.6483 14.272 68.6483 13.712C68.6483 13.248 68.4163 12.88 67.9523 12.608C67.4883 12.32 66.9283 12.096 66.2723 11.936C65.6163 11.76 64.9603 11.56 64.3043 11.336C63.6483 11.112 63.0883 10.744 62.6243 10.232C62.1603 9.72 61.9283 9.064 61.9283 8.264C61.9283 7.224 62.3283 6.368 63.1283 5.696C63.9443 5.024 64.9603 4.688 66.1763 4.688C67.1523 4.688 68.0163 4.912 68.7683 5.36C69.5363 5.792 70.1123 6.4 70.4963 7.184L68.7443 8.168C68.3123 7.144 67.4563 6.632 66.1763 6.632C65.5843 6.632 65.0803 6.776 64.6643 7.064C64.2483 7.336 64.0403 7.728 64.0403 8.24Z" fill="#141414"/>
</svg>
